
<svg xmlns="http://www.w3.org/2000/svg" height="300.0" viewBox="-0.895 -0.5487415824915824 1.6978127197162634 1.0949915824915823" width="450.0" xmlns:xlink="http://www.w3.org/1999/xlink">
  <g stroke-opacity="0.0" fill-opacity="3.0e-2" stroke="#000000" stroke-width="0.0" fill="#666666">
    <rect height="0.8978675645342313" width="1.4061840851210101" x="-0.6608713654047467" y="-0.495510662177329"/>
  </g>
  <g stroke-opacity="0.3" stroke="#a8e5ee" stroke-width="5.0e-3" fill="none">
    <polyline points="-0.6655586456884833,0.40235690235690236
0.75,0.40235690235690236"/>
  </g>
  <g stroke-opacity="0.3" stroke="#a8e5ee" stroke-width="5.0e-3" fill="none">
    <polyline points="-0.6655586456884833,0.2901234567901234
0.75,0.2901234567901234"/>
  </g>
  <g stroke-opacity="0.3" stroke="#a8e5ee" stroke-width="5.0e-3" fill="none">
    <polyline points="-0.6655586456884833,0.17789001122334452
0.75,0.17789001122334452"/>
  </g>
  <g stroke-opacity="0.3" stroke="#a8e5ee" stroke-width="5.0e-3" fill="none">
    <polyline points="-0.6655586456884833,6.565656565656564e-2
0.75,6.565656565656564e-2"/>
  </g>
  <g stroke-opacity="0.3" stroke="#a8e5ee" stroke-width="5.0e-3" fill="none">
    <polyline points="-0.6655586456884833,-4.657687991021331e-2
0.75,-4.657687991021331e-2"/>
  </g>
  <g stroke-opacity="0.3" stroke="#a8e5ee" stroke-width="5.0e-3" fill="none">
    <polyline points="-0.6655586456884833,-0.15881032547699214
0.75,-0.15881032547699214"/>
  </g>
  <g stroke-opacity="0.3" stroke="#a8e5ee" stroke-width="5.0e-3" fill="none">
    <polyline points="-0.6655586456884833,-0.2710437710437711
0.75,-0.2710437710437711"/>
  </g>
  <g stroke-opacity="0.3" stroke="#a8e5ee" stroke-width="5.0e-3" fill="none">
    <polyline points="-0.6655586456884833,-0.38327721661055003
0.75,-0.38327721661055003"/>
  </g>
  <g stroke-opacity="0.3" stroke="#a8e5ee" stroke-width="5.0e-3" fill="none">
    <polyline points="-0.6655586456884833,-0.495510662177329
0.75,-0.495510662177329"/>
  </g>
  <g fill-opacity="1.0" font-size="5.0e-2" stroke="none" stroke-width="0.0" fill="#666666" text-anchor="end">
    <text x="-0.75" y="0.41537598204264864">1,000
    </text>
  </g>
  <g fill-opacity="1.0" font-size="5.0e-2" stroke="none" stroke-width="0.0" fill="#666666" text-anchor="end">
    <text x="-0.75" y="0.3031425364758698">2,000
    </text>
  </g>
  <g fill-opacity="1.0" font-size="5.0e-2" stroke="none" stroke-width="0.0" fill="#666666" text-anchor="end">
    <text x="-0.75" y="0.19090909090909092">3,000
    </text>
  </g>
  <g fill-opacity="1.0" font-size="5.0e-2" stroke="none" stroke-width="0.0" fill="#666666" text-anchor="end">
    <text x="-0.75" y="7.867564534231197e-2">4,000
    </text>
  </g>
  <g fill-opacity="1.0" font-size="5.0e-2" stroke="none" stroke-width="0.0" fill="#666666" text-anchor="end">
    <text x="-0.75" y="-3.355780022446697e-2">5,000
    </text>
  </g>
  <g fill-opacity="1.0" font-size="5.0e-2" stroke="none" stroke-width="0.0" fill="#666666" text-anchor="end">
    <text x="-0.75" y="-0.1457912457912458">6,000
    </text>
  </g>
  <g fill-opacity="1.0" font-size="5.0e-2" stroke="none" stroke-width="0.0" fill="#666666" text-anchor="end">
    <text x="-0.75" y="-0.25802469135802464">7,000
    </text>
  </g>
  <g fill-opacity="1.0" font-size="5.0e-2" stroke="none" stroke-width="0.0" fill="#666666" text-anchor="end">
    <text x="-0.75" y="-0.3702581369248036">8,000
    </text>
  </g>
  <g fill-opacity="1.0" font-size="5.0e-2" stroke="none" stroke-width="0.0" fill="#666666" text-anchor="end">
    <text x="-0.75" y="-0.4824915824915824">9,000
    </text>
  </g>
  <g stroke-opacity="0.4" fill-opacity="1.0" stroke="#2c429d" stroke-width="5.0e-3" fill="#5f0391">
    <g transform="rotate(-90.0, -0.7194623689514554, 0.40235690235690236)">
      <polyline points="-0.7194623689514554,0.41735690235690237
-0.7194623689514554,0.38735690235690234"/>
    </g>
    <g transform="rotate(-90.0, -0.7194623689514554, 0.2901234567901234)">
      <polyline points="-0.7194623689514554,0.3051234567901234
-0.7194623689514554,0.2751234567901234"/>
    </g>
    <g transform="rotate(-90.0, -0.7194623689514554, 0.17789001122334452)">
      <polyline points="-0.7194623689514554,0.19289001122334454
-0.7194623689514554,0.1628900112233445"/>
    </g>
    <g transform="rotate(-90.0, -0.7194623689514554, 6.565656565656564e-2)">
      <polyline points="-0.7194623689514554,8.065656565656563e-2
-0.7194623689514554,5.0656565656565636e-2"/>
    </g>
    <g transform="rotate(-90.0, -0.7194623689514554, -4.657687991021331e-2)">
      <polyline points="-0.7194623689514554,-3.157687991021331e-2
-0.7194623689514554,-6.157687991021331e-2"/>
    </g>
    <g transform="rotate(-90.0, -0.7194623689514554, -0.15881032547699214)">
      <polyline points="-0.7194623689514554,-0.14381032547699213
-0.7194623689514554,-0.17381032547699216"/>
    </g>
    <g transform="rotate(-90.0, -0.7194623689514554, -0.2710437710437711)">
      <polyline points="-0.7194623689514554,-0.2560437710437711
-0.7194623689514554,-0.2860437710437711"/>
    </g>
    <g transform="rotate(-90.0, -0.7194623689514554, -0.38327721661055003)">
      <polyline points="-0.7194623689514554,-0.36827721661055
-0.7194623689514554,-0.39827721661055004"/>
    </g>
    <g transform="rotate(-90.0, -0.7194623689514554, -0.495510662177329)">
      <polyline points="-0.7194623689514554,-0.48051066217732896
-0.7194623689514554,-0.510510662177329"/>
    </g>
  </g>
  <g stroke-opacity="0.0" fill-opacity="0.5" stroke="#666666" stroke-width="0.0" fill="#5f0391">
    <rect height="0.8978675645342313" width="4.687280283736772e-3" x="-0.710087808383982" y="-0.495510662177329"/>
  </g>
  <g stroke-opacity="0.3" stroke="#a8e5ee" stroke-width="5.0e-3" fill="none">
    <polyline points="-0.6608713654047467,0.4068462401795735
-0.6608713654047467,-0.5"/>
  </g>
  <g stroke-opacity="0.3" stroke="#a8e5ee" stroke-width="5.0e-3" fill="none">
    <polyline points="-0.5330364485755639,0.4068462401795735
-0.5330364485755639,-0.5"/>
  </g>
  <g stroke-opacity="0.3" stroke="#a8e5ee" stroke-width="5.0e-3" fill="none">
    <polyline points="-0.4052015317463812,0.4068462401795735
-0.4052015317463812,-0.5"/>
  </g>
  <g stroke-opacity="0.3" stroke="#a8e5ee" stroke-width="5.0e-3" fill="none">
    <polyline points="-0.2773666149171985,0.4068462401795735
-0.2773666149171985,-0.5"/>
  </g>
  <g stroke-opacity="0.3" stroke="#a8e5ee" stroke-width="5.0e-3" fill="none">
    <polyline points="-0.1495316980880157,0.4068462401795735
-0.1495316980880157,-0.5"/>
  </g>
  <g stroke-opacity="0.3" stroke="#a8e5ee" stroke-width="5.0e-3" fill="none">
    <polyline points="-2.169678125883301e-2,0.4068462401795735
-2.169678125883301e-2,-0.5"/>
  </g>
  <g stroke-opacity="0.3" stroke="#a8e5ee" stroke-width="5.0e-3" fill="none">
    <polyline points="0.10613813557034968,0.4068462401795735
0.10613813557034968,-0.5"/>
  </g>
  <g stroke-opacity="0.3" stroke="#a8e5ee" stroke-width="5.0e-3" fill="none">
    <polyline points="0.23397305239953248,0.4068462401795735
0.23397305239953248,-0.5"/>
  </g>
  <g stroke-opacity="0.3" stroke="#a8e5ee" stroke-width="5.0e-3" fill="none">
    <polyline points="0.36180796922871505,0.4068462401795735
0.36180796922871505,-0.5"/>
  </g>
  <g stroke-opacity="0.3" stroke="#a8e5ee" stroke-width="5.0e-3" fill="none">
    <polyline points="0.4896428860578981,0.4068462401795735
0.4896428860578981,-0.5"/>
  </g>
  <g stroke-opacity="0.3" stroke="#a8e5ee" stroke-width="5.0e-3" fill="none">
    <polyline points="0.6174778028870804,0.4068462401795735
0.6174778028870804,-0.5"/>
  </g>
  <g stroke-opacity="0.3" stroke="#a8e5ee" stroke-width="5.0e-3" fill="none">
    <polyline points="0.7453127197162634,0.4068462401795735
0.7453127197162634,-0.5"/>
  </g>
  <g fill-opacity="1.0" font-size="5.0e-2" stroke="none" stroke-width="0.0" fill="#666666" text-anchor="middle">
    <text x="-0.6608713654047467" y="0.5">-10
    </text>
  </g>
  <g fill-opacity="1.0" font-size="5.0e-2" stroke="none" stroke-width="0.0" fill="#666666" text-anchor="middle">
    <text x="-0.5330364485755639" y="0.5">0
    </text>
  </g>
  <g fill-opacity="1.0" font-size="5.0e-2" stroke="none" stroke-width="0.0" fill="#666666" text-anchor="middle">
    <text x="-0.4052015317463812" y="0.5">10
    </text>
  </g>
  <g fill-opacity="1.0" font-size="5.0e-2" stroke="none" stroke-width="0.0" fill="#666666" text-anchor="middle">
    <text x="-0.2773666149171985" y="0.5">20
    </text>
  </g>
  <g fill-opacity="1.0" font-size="5.0e-2" stroke="none" stroke-width="0.0" fill="#666666" text-anchor="middle">
    <text x="-0.1495316980880157" y="0.5">30
    </text>
  </g>
  <g fill-opacity="1.0" font-size="5.0e-2" stroke="none" stroke-width="0.0" fill="#666666" text-anchor="middle">
    <text x="-2.169678125883301e-2" y="0.5">40
    </text>
  </g>
  <g fill-opacity="1.0" font-size="5.0e-2" stroke="none" stroke-width="0.0" fill="#666666" text-anchor="middle">
    <text x="0.10613813557034968" y="0.5">50
    </text>
  </g>
  <g fill-opacity="1.0" font-size="5.0e-2" stroke="none" stroke-width="0.0" fill="#666666" text-anchor="middle">
    <text x="0.23397305239953248" y="0.5">60
    </text>
  </g>
  <g fill-opacity="1.0" font-size="5.0e-2" stroke="none" stroke-width="0.0" fill="#666666" text-anchor="middle">
    <text x="0.36180796922871505" y="0.5">70
    </text>
  </g>
  <g fill-opacity="1.0" font-size="5.0e-2" stroke="none" stroke-width="0.0" fill="#666666" text-anchor="middle">
    <text x="0.4896428860578981" y="0.5">80
    </text>
  </g>
  <g fill-opacity="1.0" font-size="5.0e-2" stroke="none" stroke-width="0.0" fill="#666666" text-anchor="middle">
    <text x="0.6174778028870804" y="0.5">90
    </text>
  </g>
  <g fill-opacity="1.0" font-size="5.0e-2" stroke="none" stroke-width="0.0" fill="#666666" text-anchor="middle">
    <text x="0.7453127197162634" y="0.5">100
    </text>
  </g>
  <g stroke-opacity="0.4" fill-opacity="1.0" stroke="#2c429d" stroke-width="5.0e-3" fill="#5f0391">
    <polyline points="-0.6608713654047467,0.43980359147025816
-0.6608713654047467,0.40980359147025813"/>
    <polyline points="-0.5330364485755639,0.43980359147025816
-0.5330364485755639,0.40980359147025813"/>
    <polyline points="-0.4052015317463812,0.43980359147025816
-0.4052015317463812,0.40980359147025813"/>
    <polyline points="-0.2773666149171985,0.43980359147025816
-0.2773666149171985,0.40980359147025813"/>
    <polyline points="-0.1495316980880157,0.43980359147025816
-0.1495316980880157,0.40980359147025813"/>
    <polyline points="-2.169678125883301e-2,0.43980359147025816
-2.169678125883301e-2,0.40980359147025813"/>
    <polyline points="0.10613813557034968,0.43980359147025816
0.10613813557034968,0.40980359147025813"/>
    <polyline points="0.23397305239953248,0.43980359147025816
0.23397305239953248,0.40980359147025813"/>
    <polyline points="0.36180796922871505,0.43980359147025816
0.36180796922871505,0.40980359147025813"/>
    <polyline points="0.4896428860578981,0.43980359147025816
0.4896428860578981,0.40980359147025813"/>
    <polyline points="0.6174778028870804,0.43980359147025816
0.6174778028870804,0.40980359147025813"/>
    <polyline points="0.7453127197162634,0.43980359147025816
0.7453127197162634,0.40980359147025813"/>
  </g>
  <g stroke-opacity="0.0" fill-opacity="0.5" stroke="#666666" stroke-width="0.0" fill="#5f0391">
    <rect height="4.489337822671191e-3" width="1.4061840851210101" x="-0.6608713654047467" y="0.41133557800224463"/>
  </g>
  <g stroke-opacity="0.5" stroke="#026062" stroke-width="2.0e-2" fill="none">
    <polyline points="-0.5330364485755639,-0.47882801816171816
-0.5202529568926456,-0.18777426150450216
-0.5074694652097274,-5.5005974974641436e-2
-0.4946859735268091,1.4489807792806564e-2
-0.4819024818438908,9.220759597142864e-2
-0.46911899016097247,0.13937895812919981
-0.4563354984780543,0.17021849181970833
-0.443552006795136,0.18722406905200167
-0.4307685151122177,0.19839890821310663
-0.41798502342929944,0.22397751237092156
-0.4052015317463812,0.24039581766949347
-0.3924180400634629,0.24941439724875747
-0.37963454838054467,0.25398769373300656
-0.3668510566976264,0.25643657364529604
-0.35406756501470815,0.27045005320625537
-0.3412840733317899,0.2752110784953284
-0.3285005816488715,0.27618260026321156
-0.31571708996595327,0.27643338276551266
-0.302933598283035,0.2866487635486661
-0.29015010660011675,0.29377960589944996
-0.2773666149171985,0.29796811391051237
-0.2645831232342801,0.29915307795393997
-0.251799631551362,0.29905553753949443
-0.2390161398684436,0.30635767423449367
-0.22623264818552535,0.31068770127068684
-0.2134491565026071,0.31246106737440626
-0.20066566481968873,0.31233247397973907
-0.18788217313677058,0.3116969981639587
-0.1750986814538522,0.3173640948140657
-0.16231518977093395,0.3201035353716384
-0.1495316980880157,0.3207441943702651
-0.13674820640509744,0.3200353299437914
-0.12396471472217918,0.32480505456262465
-0.11118122303926103,0.3279949519571629
-9.839773135634267e-2,0.32957111165945263
-8.561423967342452e-2,0.3294920250560355
-7.283074799050615e-2,0.32853278081407755
-6.004725630758789e-2,0.3324827918988138
-4.7263764624669524e-2,0.33467285303460936
-3.448027294175127e-2,0.33491686139975446
-2.169678125883301e-2,0.33311875525492285
-8.913289575914751e-3,0.3306595735223222
3.8702021070035064e-3,0.3339393899110593
1.6653693789921764e-2,0.3352456194295017
2.9437185472840022e-2,0.33536772260918724
4.22206771557585e-2,0.3343084547536126
5.500416883867654e-2,0.3373962851286767
6.778766052159502e-2,0.3394257001105623
8.057115220451305e-2,0.34029792130128644
9.335464388743153e-2,0.34001963323974393
0.10613813557034968,0.339203704426563
0.11892162725326805,0.34192103750231906
0.1317051189361862,0.3433499920878881
0.14448861061910467,0.3436397976546013
0.1572721023020227,0.3430093924516602
0.17005559398494108,0.3454737362416663
0.18283908566785922,0.3475402932151088
0.1956225773507776,0.3485000789702681
0.20840606903369596,0.348376245411114
0.22118956071661422,0.34748401069716617
0.23397305239953248,0.3496821676560616
0.24675654408245062,0.3510581717955879
0.2595400357653692,0.35158841582465994
0.27232352744828736,0.3511601865890363
0.2851070191312055,0.3503026161098164
0.29789051081412365,0.35229324002998663
0.31067400249704225,0.35327836831496645
0.3234574941799604,0.3533263769171926
0.33624098586287876,0.3524099760166811
0.3490244775457967,0.3541629495475904
0.36180796922871505,0.35568914745477376
0.3745914609116334,0.3563361585215158
0.3873749525945518,0.35605782947997666
0.40015844427746994,0.3552410705587863
0.4129419359603881,0.3569381111465292
0.4257254276433067,0.357944617279931
0.4385089193262248,0.35822013021970694
0.45129241100914297,0.3577637400147642
0.46407590269206134,0.35697220433566224
0.4768593943749797,0.35854893997193926
0.48964288605789785,0.35925951047034543
0.5024263777408162,0.35922650223316055
0.5152098694237344,0.3585467192849451
0.5279933611066525,0.3600317872947749
0.5407768527895711,0.3611138192057233
0.5535603444724893,0.36155845639126294
0.5663438361554074,0.3613106811161334
0.5791273278383255,0.3605358783692909
0.5919108195212441,0.36191566250122403
0.6046943112041623,0.3627156075425945
0.6174778028870804,0.36294394195339974
0.6302612945699988,0.3625005675752674
0.6430447862529172,0.36176287807160856
0.6558282779358353,0.3630594849662318
0.6686117696187537,0.36360660751041773
0.6813952613016718,0.36348858227117564
0.6941787529845902,0.3628285493527332
0.7069622446675086,0.3640690393309889
0.7197457363504267,0.3649475105436031"/>
  </g>
  <g stroke-opacity="0.5" stroke="#0ea194" stroke-width="2.0e-2" fill="none">
    <polyline points="-0.5330364485755639,4.325685480226099e-2
-0.5202529568926456,-0.3745584484753449
-0.5074694652097274,-0.20226134859483247
-0.4946859735268091,-8.54691060852747e-2
-0.4819024818438908,-4.4630187554746126e-2
-0.46911899016097247,-2.9519595821486888e-2
-0.4563354984780543,-0.18750322978857814
-0.443552006795136,-0.13526643950613082
-0.4307685151122177,-0.12698866042204582
-0.41798502342929944,-0.11602141861078807
-0.4052015317463812,-0.19746055986770894
-0.3924180400634629,-0.15463629377225885
-0.37963454838054467,-0.1346999825874282
-0.3668510566976264,-0.12003850763556823
-0.35406756501470815,-0.19034123581143947
-0.3412840733317899,-0.15854915265091762
-0.3285005816488715,-0.14321356339986946
-0.31571708996595327,-0.19602367046052527
-0.302933598283035,-0.17244269044853888
-0.29015010660011675,-0.14738768961350246
-0.2773666149171985,-0.1359672734994264
-0.2645831232342801,-0.1299599442279613
-0.251799631551362,-0.18540643697707893
-0.2390161398684436,-0.16448887159051306
-0.22623264818552535,-0.1544180065850963
-0.2134491565026071,-0.19546355882280986
-0.20066566481968873,-0.17920038503117675
-0.18788217313677058,-0.161295275392198
-0.1750986814538522,-0.15280943993113627
-0.16231518977093395,-0.1949500825314916
-0.1495316980880157,-0.18107697361039032
-0.13674820640509744,-0.16555604430290494
-0.12396471472217918,-0.14964003243386703
-0.11118122303926103,-0.13979570215785453
-9.839773135634267e-2,-0.1288518046295527
-8.561423967342452e-2,-0.11657127572440196
-7.283074799050615e-2,-0.10339965872968848
-6.004725630758789e-2,-9.68128811271004e-2
-4.7263764624669524e-2,-9.185518944641557e-2
-3.448027294175127e-2,-0.1164646960453235
-2.169678125883301e-2,-0.10494467723963519
-8.913289575914751e-3,-9.955412801735652e-2
3.8702021070035064e-3,-9.553936885198422e-2
1.6653693789921764e-2,-0.12081951069569952
2.9437185472840022e-2,-0.11031044259676337
4.22206771557585e-2,-0.10552214034523688
5.500416883867654e-2,-0.1016540880518354
6.778766052159502e-2,-0.12263248085430944
8.057115220451305e-2,-0.1130389947840954
9.335464388743153e-2,-0.10866817621082925
0.10613813557034968,-0.13443527408672507
0.11892162725326805,-0.1270673502456947
0.1317051189361862,-0.11859162200686679
0.14448861061910467,-0.11670351280888513
0.1572721023020227,-0.14552002447980783
0.17005559398494108,-0.1408310039646069
0.18283908566785922,-0.17716235512765433
0.1956225773507776,-0.2306234784401464
0.20840606903369596,-0.2912978271709401
0.22118956071661422,-0.34115505303151517
0.23397305239953248,-0.3681480231223362
0.24675654408245062,-0.3717413733052838
0.2595400357653692,-0.4089599568619564
0.27232352744828736,-0.41384586896023456
0.2851070191312055,-0.4028888390999027
0.29789051081412365,-0.39085538759278227
0.31067400249704225,-0.3829272544902471
0.3234574941799604,-0.3757364545200068
0.33624098586287876,-0.38865389402146555
0.3490244775457967,-0.3777261574622258
0.36180796922871505,-0.3703699511021393
0.3745914609116334,-0.36384019138923285
0.3873749525945518,-0.3738683340575224
0.40015844427746994,-0.3638187223891456
0.4129419359603881,-0.3574098065208129
0.4257254276433067,-0.35158696215506724
0.4385089193262248,-0.3625963325469772
0.45129241100914297,-0.35347502924433705
0.46407590269206134,-0.34753052816268537
0.4768593943749797,-0.35856797661073114
0.48964288605789785,-0.35087134103876594
0.5024263777408162,-0.3423536663361547
0.5152098694237344,-0.3368633232832432
0.5279933611066525,-0.3322404878999087
0.5407768527895711,-0.3415941567305898
0.5535603444724893,-0.3335885086857422
0.5663438361554074,-0.32851216808079053
0.5791273278383255,-0.3386868136734603
0.5919108195212441,-0.33186246045361256
0.6046943112041623,-0.3243129194899532
0.6174778028870804,-0.31972091545831327
0.6302612945699988,-0.32902221711855417
0.6430447862529172,-0.32269801598564674
0.6558282779358353,-0.31598007118404714
0.6686117696187537,-0.3091877251940497
0.6813952613016718,-0.3052381907428958
0.6941787529845902,-0.30118738663891
0.7069622446675086,-0.31075417826089136
0.7197457363504267,-0.303658695818641"/>
  </g>
</svg>