
<svg xmlns="http://www.w3.org/2000/svg" height="300.0" viewBox="-0.92 -0.5487807950727883 1.7228200318237838 1.0950307950727884" width="450.0" xmlns:xlink="http://www.w3.org/1999/xlink">
  <g stroke-opacity="0.0" fill-opacity="0.1" stroke="#000000" stroke-width="0.0" fill="#cccccc">
    <rect height="0.8958566629339307" width="1.4039904528649207" x="-0.6586704210411369" y="-0.4955207166853305"/>
  </g>
  <g stroke-opacity="0.1" stroke="#808080" stroke-width="5.0e-3" fill="none">
    <polyline points="-0.6633503892173533,0.40033594624860025
0.75,0.40033594624860025"/>
  </g>
  <g stroke-opacity="0.1" stroke="#808080" stroke-width="5.0e-3" fill="none">
    <polyline points="-0.6633503892173533,0.3007963170337191
0.75,0.3007963170337191"/>
  </g>
  <g stroke-opacity="0.1" stroke="#808080" stroke-width="5.0e-3" fill="none">
    <polyline points="-0.6633503892173533,0.20125668781883788
0.75,0.20125668781883788"/>
  </g>
  <g stroke-opacity="0.1" stroke="#808080" stroke-width="5.0e-3" fill="none">
    <polyline points="-0.6633503892173533,0.10171705860395674
0.75,0.10171705860395674"/>
  </g>
  <g stroke-opacity="0.1" stroke="#808080" stroke-width="5.0e-3" fill="none">
    <polyline points="-0.6633503892173533,2.177429389075558e-3
0.75,2.177429389075558e-3"/>
  </g>
  <g stroke-opacity="0.1" stroke="#808080" stroke-width="5.0e-3" fill="none">
    <polyline points="-0.6633503892173533,-9.736219982580563e-2
0.75,-9.736219982580563e-2"/>
  </g>
  <g stroke-opacity="0.1" stroke="#808080" stroke-width="5.0e-3" fill="none">
    <polyline points="-0.6633503892173533,-0.19690182904068676
0.75,-0.19690182904068676"/>
  </g>
  <g stroke-opacity="0.1" stroke="#808080" stroke-width="5.0e-3" fill="none">
    <polyline points="-0.6633503892173533,-0.296441458255568
0.75,-0.296441458255568"/>
  </g>
  <g stroke-opacity="0.1" stroke="#808080" stroke-width="5.0e-3" fill="none">
    <polyline points="-0.6633503892173533,-0.39598108747044924
0.75,-0.39598108747044924"/>
  </g>
  <g stroke-opacity="0.1" stroke="#808080" stroke-width="5.0e-3" fill="none">
    <polyline points="-0.6633503892173533,-0.4955207166853305
0.75,-0.4955207166853305"/>
  </g>
  <g fill-opacity="0.8" font-size="5.0e-2" stroke="none" stroke-width="0.0" fill="#333333" text-anchor="end">
    <text x="-0.75" y="0.4133258678611422">1,000
    </text>
  </g>
  <g fill-opacity="0.8" font-size="5.0e-2" stroke="none" stroke-width="0.0" fill="#333333" text-anchor="end">
    <text x="-0.75" y="0.3137862386462611">2,000
    </text>
  </g>
  <g fill-opacity="0.8" font-size="5.0e-2" stroke="none" stroke-width="0.0" fill="#333333" text-anchor="end">
    <text x="-0.75" y="0.2142466094313799">3,000
    </text>
  </g>
  <g fill-opacity="0.8" font-size="5.0e-2" stroke="none" stroke-width="0.0" fill="#333333" text-anchor="end">
    <text x="-0.75" y="0.11470698021649872">4,000
    </text>
  </g>
  <g fill-opacity="0.8" font-size="5.0e-2" stroke="none" stroke-width="0.0" fill="#333333" text-anchor="end">
    <text x="-0.75" y="1.5167351001617535e-2">5,000
    </text>
  </g>
  <g fill-opacity="0.8" font-size="5.0e-2" stroke="none" stroke-width="0.0" fill="#333333" text-anchor="end">
    <text x="-0.75" y="-8.437227821326376e-2">6,000
    </text>
  </g>
  <g fill-opacity="0.8" font-size="5.0e-2" stroke="none" stroke-width="0.0" fill="#333333" text-anchor="end">
    <text x="-0.75" y="-0.1839119074281449">7,000
    </text>
  </g>
  <g fill-opacity="0.8" font-size="5.0e-2" stroke="none" stroke-width="0.0" fill="#333333" text-anchor="end">
    <text x="-0.75" y="-0.283451536643026">8,000
    </text>
  </g>
  <g fill-opacity="0.8" font-size="5.0e-2" stroke="none" stroke-width="0.0" fill="#333333" text-anchor="end">
    <text x="-0.75" y="-0.38299116585790705">9,000
    </text>
  </g>
  <g fill-opacity="0.8" font-size="5.0e-2" stroke="none" stroke-width="0.0" fill="#333333" text-anchor="end">
    <text x="-0.75" y="-0.4825307950727883">10,000
    </text>
  </g>
  <g stroke-opacity="0.5" fill-opacity="0.5" stroke="#570d66" stroke-width="5.0e-3" fill="#570d66">
    <g transform="rotate(-90.0, -0.7195100073319501, 0.40033594624860025)">
      <polyline points="-0.7195100073319501,0.41533594624860026
-0.7195100073319501,0.38533594624860024"/>
    </g>
    <g transform="rotate(-90.0, -0.7195100073319501, 0.3007963170337191)">
      <polyline points="-0.7195100073319501,0.31579631703371913
-0.7195100073319501,0.2857963170337191"/>
    </g>
    <g transform="rotate(-90.0, -0.7195100073319501, 0.20125668781883788)">
      <polyline points="-0.7195100073319501,0.2162566878188379
-0.7195100073319501,0.18625668781883786"/>
    </g>
    <g transform="rotate(-90.0, -0.7195100073319501, 0.10171705860395674)">
      <polyline points="-0.7195100073319501,0.11671705860395674
-0.7195100073319501,8.671705860395675e-2"/>
    </g>
    <g transform="rotate(-90.0, -0.7195100073319501, 2.177429389075558e-3)">
      <polyline points="-0.7195100073319501,1.7177429389075557e-2
-0.7195100073319501,-1.2822570610924441e-2"/>
    </g>
    <g transform="rotate(-90.0, -0.7195100073319501, -9.736219982580563e-2)">
      <polyline points="-0.7195100073319501,-8.236219982580563e-2
-0.7195100073319501,-0.11236219982580563"/>
    </g>
    <g transform="rotate(-90.0, -0.7195100073319501, -0.19690182904068676)">
      <polyline points="-0.7195100073319501,-0.18190182904068675
-0.7195100073319501,-0.21190182904068677"/>
    </g>
    <g transform="rotate(-90.0, -0.7195100073319501, -0.296441458255568)">
      <polyline points="-0.7195100073319501,-0.281441458255568
-0.7195100073319501,-0.311441458255568"/>
    </g>
    <g transform="rotate(-90.0, -0.7195100073319501, -0.39598108747044924)">
      <polyline points="-0.7195100073319501,-0.38098108747044923
-0.7195100073319501,-0.41098108747044926"/>
    </g>
    <g transform="rotate(-90.0, -0.7195100073319501, -0.4955207166853305)">
      <polyline points="-0.7195100073319501,-0.4805207166853305
-0.7195100073319501,-0.5105207166853305"/>
    </g>
  </g>
  <g stroke-opacity="0.5" fill-opacity="0.5" stroke="#570d66" stroke-width="0.0" fill="#570d66">
    <rect height="0.8958566629339307" width="4.679968176216409e-3" x="-0.7078100868914091" y="-0.4955207166853305"/>
  </g>
  <g stroke-opacity="0.1" stroke="#808080" stroke-width="5.0e-3" fill="none">
    <polyline points="-0.6586704210411369,0.40481522956326993
-0.6586704210411369,-0.5"/>
  </g>
  <g stroke-opacity="0.1" stroke="#808080" stroke-width="5.0e-3" fill="none">
    <polyline points="-0.5310349253261442,0.40481522956326993
-0.5310349253261442,-0.5"/>
  </g>
  <g stroke-opacity="0.1" stroke="#808080" stroke-width="5.0e-3" fill="none">
    <polyline points="-0.4033994296111514,0.40481522956326993
-0.4033994296111514,-0.5"/>
  </g>
  <g stroke-opacity="0.1" stroke="#808080" stroke-width="5.0e-3" fill="none">
    <polyline points="-0.2757639338961586,0.40481522956326993
-0.2757639338961586,-0.5"/>
  </g>
  <g stroke-opacity="0.1" stroke="#808080" stroke-width="5.0e-3" fill="none">
    <polyline points="-0.14812843818116583,0.40481522956326993
-0.14812843818116583,-0.5"/>
  </g>
  <g stroke-opacity="0.1" stroke="#808080" stroke-width="5.0e-3" fill="none">
    <polyline points="-2.0492942466172948e-2,0.40481522956326993
-2.0492942466172948e-2,-0.5"/>
  </g>
  <g stroke-opacity="0.1" stroke="#808080" stroke-width="5.0e-3" fill="none">
    <polyline points="0.10714255324881983,0.40481522956326993
0.10714255324881983,-0.5"/>
  </g>
  <g stroke-opacity="0.1" stroke="#808080" stroke-width="5.0e-3" fill="none">
    <polyline points="0.2347780489638127,0.40481522956326993
0.2347780489638127,-0.5"/>
  </g>
  <g stroke-opacity="0.1" stroke="#808080" stroke-width="5.0e-3" fill="none">
    <polyline points="0.36241354467880527,0.40481522956326993
0.36241354467880527,-0.5"/>
  </g>
  <g stroke-opacity="0.1" stroke="#808080" stroke-width="5.0e-3" fill="none">
    <polyline points="0.49004904039379826,0.40481522956326993
0.49004904039379826,-0.5"/>
  </g>
  <g stroke-opacity="0.1" stroke="#808080" stroke-width="5.0e-3" fill="none">
    <polyline points="0.6176845361087908,0.40481522956326993
0.6176845361087908,-0.5"/>
  </g>
  <g stroke-opacity="0.1" stroke="#808080" stroke-width="5.0e-3" fill="none">
    <polyline points="0.7453200318237838,0.40481522956326993
0.7453200318237838,-0.5"/>
  </g>
  <g fill-opacity="0.8" font-size="5.0e-2" stroke="none" stroke-width="0.0" fill="#333333" text-anchor="middle">
    <text x="-0.6586704210411369" y="0.5">-10
    </text>
  </g>
  <g fill-opacity="0.8" font-size="5.0e-2" stroke="none" stroke-width="0.0" fill="#333333" text-anchor="middle">
    <text x="-0.5310349253261442" y="0.5">0
    </text>
  </g>
  <g fill-opacity="0.8" font-size="5.0e-2" stroke="none" stroke-width="0.0" fill="#333333" text-anchor="middle">
    <text x="-0.4033994296111514" y="0.5">10
    </text>
  </g>
  <g fill-opacity="0.8" font-size="5.0e-2" stroke="none" stroke-width="0.0" fill="#333333" text-anchor="middle">
    <text x="-0.2757639338961586" y="0.5">20
    </text>
  </g>
  <g fill-opacity="0.8" font-size="5.0e-2" stroke="none" stroke-width="0.0" fill="#333333" text-anchor="middle">
    <text x="-0.14812843818116583" y="0.5">30
    </text>
  </g>
  <g fill-opacity="0.8" font-size="5.0e-2" stroke="none" stroke-width="0.0" fill="#333333" text-anchor="middle">
    <text x="-2.0492942466172948e-2" y="0.5">40
    </text>
  </g>
  <g fill-opacity="0.8" font-size="5.0e-2" stroke="none" stroke-width="0.0" fill="#333333" text-anchor="middle">
    <text x="0.10714255324881983" y="0.5">50
    </text>
  </g>
  <g fill-opacity="0.8" font-size="5.0e-2" stroke="none" stroke-width="0.0" fill="#333333" text-anchor="middle">
    <text x="0.2347780489638127" y="0.5">60
    </text>
  </g>
  <g fill-opacity="0.8" font-size="5.0e-2" stroke="none" stroke-width="0.0" fill="#333333" text-anchor="middle">
    <text x="0.36241354467880527" y="0.5">70
    </text>
  </g>
  <g fill-opacity="0.8" font-size="5.0e-2" stroke="none" stroke-width="0.0" fill="#333333" text-anchor="middle">
    <text x="0.49004904039379826" y="0.5">80
    </text>
  </g>
  <g fill-opacity="0.8" font-size="5.0e-2" stroke="none" stroke-width="0.0" fill="#333333" text-anchor="middle">
    <text x="0.6176845361087908" y="0.5">90
    </text>
  </g>
  <g fill-opacity="0.8" font-size="5.0e-2" stroke="none" stroke-width="0.0" fill="#333333" text-anchor="middle">
    <text x="0.7453200318237838" y="0.5">100
    </text>
  </g>
  <g stroke-opacity="0.5" fill-opacity="0.5" stroke="#570d66" stroke-width="5.0e-3" fill="#570d66">
    <polyline points="-0.6586704210411369,0.4399720044792833
-0.6586704210411369,0.4099720044792833"/>
    <polyline points="-0.5310349253261442,0.4399720044792833
-0.5310349253261442,0.4099720044792833"/>
    <polyline points="-0.4033994296111514,0.4399720044792833
-0.4033994296111514,0.4099720044792833"/>
    <polyline points="-0.2757639338961586,0.4399720044792833
-0.2757639338961586,0.4099720044792833"/>
    <polyline points="-0.14812843818116583,0.4399720044792833
-0.14812843818116583,0.4099720044792833"/>
    <polyline points="-2.0492942466172948e-2,0.4399720044792833
-2.0492942466172948e-2,0.4099720044792833"/>
    <polyline points="0.10714255324881983,0.4399720044792833
0.10714255324881983,0.4099720044792833"/>
    <polyline points="0.2347780489638127,0.4399720044792833
0.2347780489638127,0.4099720044792833"/>
    <polyline points="0.36241354467880527,0.4399720044792833
0.36241354467880527,0.4099720044792833"/>
    <polyline points="0.49004904039379826,0.4399720044792833
0.49004904039379826,0.4099720044792833"/>
    <polyline points="0.6176845361087908,0.4399720044792833
0.6176845361087908,0.4099720044792833"/>
    <polyline points="0.7453200318237838,0.4399720044792833
0.7453200318237838,0.4099720044792833"/>
  </g>
  <g stroke-opacity="0.5" fill-opacity="0.5" stroke="#570d66" stroke-width="0.0" fill="#570d66">
    <rect height="4.47928331466968e-3" width="1.4039904528649207" x="-0.6586704210411369" y="0.40929451287793955"/>
  </g>
  <g stroke-opacity="1.0" stroke="#026062" stroke-width="1.2e-2" fill="none">
    <polyline points="-0.5310349253261442,-0.2673538485803807
-0.5182713757546449,-4.488246620144343e-2
-0.5055078261831456,5.5284742478025395e-2
-0.4927442766116463,0.1074844294346809
-0.479980727040147,0.16786211544390872
-0.4672171774686477,0.20592349170911844
-0.4544536278971485,0.22942721692195578
-0.44169007832564916,0.24127451863590232
-0.4289265287541499,0.24770370009557718
-0.4161629791826506,0.2678498514613725
-0.4033994296111514,0.28035561922289276
-0.3906358800396521,0.28731963723844905
-0.37787233046815283,0.28934208096978775
-0.36510878089665355,0.29082805391017874
-0.3523452313251543,0.30201666503136293
-0.33958168175365494,0.3080920927426847
-0.3268181321821556,0.31074317636611815
-0.31405458261065644,0.31091749190654205
-0.3012910330391571,0.31889247634941087
-0.2885274834676579,0.32440400403983316
-0.2757639338961586,0.3275357691164299
-0.2630003843246593,0.3281858651202556
-0.25023683475316005,0.3275061035306177
-0.23747328518166078,0.33323228077411426
-0.2247097356101615,0.33656740532141577
-0.2119461860386621,0.3377762292908879
-0.19918263646716283,0.3374566841179729
-0.18641908689566367,0.3365896875001463
-0.17365553732416428,0.34106217880139855
-0.160891987752665,0.3428335234307184
-0.14812843818116583,0.3432237779540432
-0.13536488860966644,0.3423019060912569
-0.12260133903816728,0.34608099778340773
-0.109837789466668,0.3485419144035812
-9.707423989516861e-2,0.34945945341686335
-8.431069032366945e-2,0.3491859759518101
-7.154714075217017e-2,0.34817101884097473
-5.878359118067078e-2,0.35131895074294917
-4.60200416091715e-2,0.3530062338880072
-3.3256492037672225e-2,0.3533302597807554
-2.0492942466172948e-2,0.3526921544991751
-7.72939289467367e-3,0.3517328910498717
5.034156676825496e-3,0.35446077530998343
1.7797706248324774e-2,0.3554426981625881
3.0561255819824162e-2,0.3550059074555448
4.332480539132333e-2,0.35383825321364015
5.6088354962822606e-2,0.3562868676156923
6.8851904534322e-2,0.3578630289529937
8.161545410582116e-2,0.3585184170504908
9.437900367732066e-2,0.35811860105132387
0.10714255324881983,0.3572606088636492
0.119906102820319,0.35943041790218655
0.1326696523918185,0.36054883136095356
0.14543320196331766,0.3606664350767324
0.15819675153481683,0.359933148882728
0.1709603011063161,0.3590832659527346
0.1837238506778155,0.36102515868700147
0.19648740024931466,0.36176888935873286
0.20925094982081416,0.361637162928679
0.22201449939231332,0.36080448609248444
0.2347780489638127,0.3625978181298227
0.24754159853531177,0.3637037716062993
0.26030514810681127,0.3641161133522446
0.2730686976783103,0.36372595673815433
0.2858322472498098,0.36280558677024644
0.2985957968213091,0.36443926265539744
0.3113593463928084,0.3652067105369037
0.32412289596430743,0.36521661753983464
0.33688644553580693,0.36459685576375633
0.349649995107306,0.3638479885722954
0.36241354467880527,0.3653526746701866
0.37517709425030477,0.36585044783156556
0.38794064382180404,0.36565553819616636
0.4007041933933033,0.3648902028539607
0.4134677429648024,0.36630895191500834
0.4262312925363019,0.3666119019848578
0.43899484210780093,0.36690138942969486
0.45175839167930043,0.36649288135565106
0.4645219412507995,0.3657926386039406
0.477285490822299,0.36711404742596093
0.49004904039379804,0.36771745032922454
0.5028125899652975,0.36767604107725277
0.5155761395367966,0.3671075361080445
0.5283396891082961,0.36639193951052274
0.5411032386797952,0.367629047482363
0.5538667882512947,0.3680218452487899
0.5666303378227937,0.3678272781637154
0.579393887394293,0.3671929015709424
0.5921574369657925,0.3683707217054091
0.6049209865372918,0.3690539901723451
0.6176845361087908,0.3692606497048171
0.6304480856802903,0.36883727243751996
0.6432116352517894,0.3681977767449338
0.6559751848232886,0.3693066559771478
0.6687387343947881,0.36978603509886165
0.6815022839662874,0.36932973813512215
0.6942658335377865,0.36882334517319476
0.707029383109286,0.368201638307174
0.719792932680785,0.3692553992821852"/>
  </g>
  <g stroke-opacity="1.0" stroke="#0ea194" stroke-width="1.2e-2" fill="none">
    <polyline points="-0.5310349253261442,-0.42763359925576827
-0.5182713757546449,-0.21329090375256865
-0.5055078261831456,-8.029446000898233e-2
-0.4927442766116463,-3.8997700564229576e-2
-0.479980727040147,-0.19244964848785606
-0.4672171774686477,-0.12769461216301736
-0.4544536278971485,-7.104296364904183e-2
-0.44169007832564916,-1.945521934183625e-2
-0.4289265287541499,2.058010322260273e-3
-0.4161629791826506,1.4482440069349789e-2
-0.4033994296111514,-6.432518315475111e-2
-0.3906358800396521,-3.249224768721659e-2
-0.37787233046815283,-1.849441525550266e-2
-0.36510878089665355,-8.64369002617238e-3
-0.3523452313251543,-6.451645615047807e-2
-0.33958168175365494,-3.93045872819362e-2
-0.3268181321821556,-2.8704460975838342e-2
-0.31405458261065644,-7.745135858098773e-2
-0.3012910330391571,-5.886542175291831e-2
-0.2885274834676579,-3.886774390195491e-2
-0.2757639338961586,-3.028884455422065e-2
-0.2630003843246593,-7.125074116953112e-2
-0.25023683475316005,-5.623276051069093e-2
-0.23747328518166078,-3.972069188120386e-2
-0.2247097356101615,-3.273865983615021e-2
-0.2119461860386621,-6.753138508513601e-2
-0.19918263646716283,-5.502403318807092e-2
-0.18641908689566367,-4.109708261654699e-2
-0.17365553732416428,-3.51632542446535e-2
-0.160891987752665,-3.134930113982415e-2
-0.14812843818116583,-6.256322118726665e-2
-0.13536488860966644,-5.044070549876367e-2
-0.12260133903816728,-4.510554129688982e-2
-0.109837789466668,-7.542417468308515e-2
-9.707423989516861e-2,-6.584258211541183e-2
-8.431069032366945e-2,-5.493616328683959e-2
-7.154714075217017e-2,-4.3224398668254116e-2
-5.878359118067078e-2,-3.7119736837998074e-2
-4.60200416091715e-2,-3.265987276311022e-2
-3.3256492037672225e-2,-5.61276959852135e-2
-2.0492942466172948e-2,-4.583642622059836e-2
-7.72939289467367e-3,-4.0633649730977606e-2
5.034156676825496e-3,-3.665541490592206e-2
1.7797706248324774e-2,-5.6350051328255435e-2
3.0561255819824162e-2,-4.750218638195236e-2
4.332480539132333e-2,-4.3042481331735605e-2
5.6088354962822606e-2,-6.218435312954118e-2
6.8851904534322e-2,-5.476304230952522e-2
8.161545410582116e-2,-4.623609349108482e-2
9.437900367732066e-2,-4.2303637733822286e-2
0.10714255324881983,-6.023601210777574e-2
0.119906102820319,-5.351453845931242e-2
0.1326696523918185,-4.575958279936365e-2
0.14543320196331766,-4.220853312362782e-2
0.15819675153481683,-3.975085283091084e-2
0.1709603011063161,-5.574236395502241e-2
0.1837238506778155,-4.8729305644172216e-2
0.19648740024931466,-4.5532937788256955e-2
0.20925094982081416,-6.122242091404606e-2
0.22201449939231332,-5.6279136817026676e-2
0.2347780489638127,-5.0343189412202505e-2
0.24754159853531177,-4.9288003559274096e-2
0.26030514810681127,-4.794694578477843e-2
0.2730686976783103,-6.45339826885043e-2
0.2858322472498098,-5.887189630750311e-2
0.2985957968213091,-5.209543819839413e-2
0.3113593463928084,-4.821527591258612e-2
0.32412289596430743,-4.572487632862643e-2
0.33688644553580693,-5.918315362449633e-2
0.349649995107306,-5.2886276850540925e-2
0.36241354467880527,-4.958709992751531e-2
0.37517709425030477,-4.711016203461471e-2
0.38794064382180404,-5.9906741314948886e-2
0.4007041933933033,-5.4031296909165305e-2
0.4134677429648024,-5.1040689923872784e-2
0.4262312925363019,-4.8606315929404786e-2
0.43899484210780093,-6.041813037674504e-2
0.45175839167930043,-5.5173699235379736e-2
0.4645219412507995,-5.2466310096760393e-2
0.477285490822299,-5.0237660459442e-2
0.49004904039379804,-6.152522300641694e-2
0.5028125899652975,-5.6630975058317934e-2
0.5155761395367966,-5.413997098628731e-2
0.5283396891082961,-6.506808795048402e-2
0.5411032386797952,-6.085081117994573e-2
0.5538667882512947,-5.596083180168343e-2
0.5666303378227937,-5.371485485078009e-2
0.579393887394293,-5.2081590363488806e-2
0.5921574369657925,-6.2224355569509004e-2
0.6049209865372918,-5.763731890449708e-2
0.6176845361087908,-5.5522862240179216e-2
0.6304480856802903,-6.55884013365059e-2
0.6432116352517894,-6.187775041238808e-2
0.6559751848232886,-5.738313344823709e-2
0.6687387343947881,-5.534195571153511e-2
0.6815022839662874,-6.538991558329066e-2
0.6942658335377865,-6.185363649438769e-2
0.707029383109286,-5.7716800608728525e-2
0.719792932680785,-5.313294759016507e-2"/>
  </g>
</svg>