<svg xmlns="http://www.w3.org/2000/svg" height="300.0" viewBox="-0.92 -0.5487807950727883 1.7228200318237838 1.0950307950727884" width="450.0" xmlns:xlink="http://www.w3.org/1999/xlink"><g stroke-opacity="0.0" fill-opacity="0.1" stroke="#000000" stroke-width="0.0" fill="#cccccc"><rect height="0.8958566629339307" width="1.4039904528649207" x="-0.6586704210411369" y="-0.4955207166853305"/></g><g stroke-opacity="0.1" stroke="#808080" stroke-width="5.0e-3" fill="none"><polyline points="-0.6633503892173533,0.40033594624860025
0.75,0.40033594624860025"/></g><g stroke-opacity="0.1" stroke="#808080" stroke-width="5.0e-3" fill="none"><polyline points="-0.6633503892173533,0.2883538633818589
0.75,0.2883538633818589"/></g><g stroke-opacity="0.1" stroke="#808080" stroke-width="5.0e-3" fill="none"><polyline points="-0.6633503892173533,0.1763717805151176
0.75,0.1763717805151176"/></g><g stroke-opacity="0.1" stroke="#808080" stroke-width="5.0e-3" fill="none"><polyline points="-0.6633503892173533,6.438969764837627e-2
0.75,6.438969764837627e-2"/></g><g stroke-opacity="0.1" stroke="#808080" stroke-width="5.0e-3" fill="none"><polyline points="-0.6633503892173533,-4.759238521836506e-2
0.75,-4.759238521836506e-2"/></g><g stroke-opacity="0.1" stroke="#808080" stroke-width="5.0e-3" fill="none"><polyline points="-0.6633503892173533,-0.15957446808510634
0.75,-0.15957446808510634"/></g><g stroke-opacity="0.1" stroke="#808080" stroke-width="5.0e-3" fill="none"><polyline points="-0.6633503892173533,-0.2715565509518477
0.75,-0.2715565509518477"/></g><g stroke-opacity="0.1" stroke="#808080" stroke-width="5.0e-3" fill="none"><polyline points="-0.6633503892173533,-0.383538633818589
0.75,-0.383538633818589"/></g><g stroke-opacity="0.1" stroke="#808080" stroke-width="5.0e-3" fill="none"><polyline points="-0.6633503892173533,-0.4955207166853305
0.75,-0.4955207166853305"/></g><g fill-opacity="0.8" font-size="5.0e-2" stroke="none" stroke-width="0.0" fill="#333333" text-anchor="end"><text x="-0.75" y="0.4133258678611422">0</text></g><g fill-opacity="0.8" font-size="5.0e-2" stroke="none" stroke-width="0.0" fill="#333333" text-anchor="end"><text x="-0.75" y="0.30134378499440095">2,000</text></g><g fill-opacity="0.8" font-size="5.0e-2" stroke="none" stroke-width="0.0" fill="#333333" text-anchor="end"><text x="-0.75" y="0.18936170212765963">4,000</text></g><g fill-opacity="0.8" font-size="5.0e-2" stroke="none" stroke-width="0.0" fill="#333333" text-anchor="end"><text x="-0.75" y="7.73796192609183e-2">6,000</text></g><g fill-opacity="0.8" font-size="5.0e-2" stroke="none" stroke-width="0.0" fill="#333333" text-anchor="end"><text x="-0.75" y="-3.4602463605823086e-2">8,000</text></g><g fill-opacity="0.8" font-size="5.0e-2" stroke="none" stroke-width="0.0" fill="#333333" text-anchor="end"><text x="-0.75" y="-0.14658454647256447">10,000</text></g><g fill-opacity="0.8" font-size="5.0e-2" stroke="none" stroke-width="0.0" fill="#333333" text-anchor="end"><text x="-0.75" y="-0.25856662933930563">12,000</text></g><g fill-opacity="0.8" font-size="5.0e-2" stroke="none" stroke-width="0.0" fill="#333333" text-anchor="end"><text x="-0.75" y="-0.370548712206047">14,000</text></g><g fill-opacity="0.8" font-size="5.0e-2" stroke="none" stroke-width="0.0" fill="#333333" text-anchor="end"><text x="-0.75" y="-0.4825307950727883">16,000</text></g><g stroke-opacity="0.5" fill-opacity="0.5" stroke="#570d66" stroke-width="5.0e-3" fill="#570d66"><g transform="rotate(-90.0, -0.7195100073319501, 0.40033594624860025)"><polyline points="-0.7195100073319501,0.41533594624860026
-0.7195100073319501,0.38533594624860024"/></g><g transform="rotate(-90.0, -0.7195100073319501, 0.2883538633818589)"><polyline points="-0.7195100073319501,0.30335386338185893
-0.7195100073319501,0.2733538633818589"/></g><g transform="rotate(-90.0, -0.7195100073319501, 0.1763717805151176)"><polyline points="-0.7195100073319501,0.1913717805151176
-0.7195100073319501,0.16137178051511758"/></g><g transform="rotate(-90.0, -0.7195100073319501, 6.438969764837627e-2)"><polyline points="-0.7195100073319501,7.938969764837626e-2
-0.7195100073319501,4.9389697648376266e-2"/></g><g transform="rotate(-90.0, -0.7195100073319501, -4.759238521836506e-2)"><polyline points="-0.7195100073319501,-3.2592385218365064e-2
-0.7195100073319501,-6.259238521836506e-2"/></g><g transform="rotate(-90.0, -0.7195100073319501, -0.15957446808510634)"><polyline points="-0.7195100073319501,-0.14457446808510632
-0.7195100073319501,-0.17457446808510635"/></g><g transform="rotate(-90.0, -0.7195100073319501, -0.2715565509518477)"><polyline points="-0.7195100073319501,-0.2565565509518477
-0.7195100073319501,-0.28655655095184773"/></g><g transform="rotate(-90.0, -0.7195100073319501, -0.383538633818589)"><polyline points="-0.7195100073319501,-0.368538633818589
-0.7195100073319501,-0.398538633818589"/></g><g transform="rotate(-90.0, -0.7195100073319501, -0.4955207166853305)"><polyline points="-0.7195100073319501,-0.4805207166853305
-0.7195100073319501,-0.5105207166853305"/></g></g><g stroke-opacity="0.5" fill-opacity="0.5" stroke="#570d66" stroke-width="0.0" fill="#570d66"><rect height="0.8958566629339307" width="4.679968176216409e-3" x="-0.7078100868914091" y="-0.4955207166853305"/></g><g stroke-opacity="0.1" stroke="#808080" stroke-width="5.0e-3" fill="none"><polyline points="-0.6586704210411369,0.40481522956326993
-0.6586704210411369,-0.5"/></g><g stroke-opacity="0.1" stroke="#808080" stroke-width="5.0e-3" fill="none"><polyline points="-0.5310349253261442,0.40481522956326993
-0.5310349253261442,-0.5"/></g><g stroke-opacity="0.1" stroke="#808080" stroke-width="5.0e-3" fill="none"><polyline points="-0.4033994296111514,0.40481522956326993
-0.4033994296111514,-0.5"/></g><g stroke-opacity="0.1" stroke="#808080" stroke-width="5.0e-3" fill="none"><polyline points="-0.2757639338961586,0.40481522956326993
-0.2757639338961586,-0.5"/></g><g stroke-opacity="0.1" stroke="#808080" stroke-width="5.0e-3" fill="none"><polyline points="-0.14812843818116583,0.40481522956326993
-0.14812843818116583,-0.5"/></g><g stroke-opacity="0.1" stroke="#808080" stroke-width="5.0e-3" fill="none"><polyline points="-2.0492942466172948e-2,0.40481522956326993
-2.0492942466172948e-2,-0.5"/></g><g stroke-opacity="0.1" stroke="#808080" stroke-width="5.0e-3" fill="none"><polyline points="0.10714255324881983,0.40481522956326993
0.10714255324881983,-0.5"/></g><g stroke-opacity="0.1" stroke="#808080" stroke-width="5.0e-3" fill="none"><polyline points="0.2347780489638127,0.40481522956326993
0.2347780489638127,-0.5"/></g><g stroke-opacity="0.1" stroke="#808080" stroke-width="5.0e-3" fill="none"><polyline points="0.36241354467880527,0.40481522956326993
0.36241354467880527,-0.5"/></g><g stroke-opacity="0.1" stroke="#808080" stroke-width="5.0e-3" fill="none"><polyline points="0.49004904039379826,0.40481522956326993
0.49004904039379826,-0.5"/></g><g stroke-opacity="0.1" stroke="#808080" stroke-width="5.0e-3" fill="none"><polyline points="0.6176845361087908,0.40481522956326993
0.6176845361087908,-0.5"/></g><g stroke-opacity="0.1" stroke="#808080" stroke-width="5.0e-3" fill="none"><polyline points="0.7453200318237838,0.40481522956326993
0.7453200318237838,-0.5"/></g><g fill-opacity="0.8" font-size="5.0e-2" stroke="none" stroke-width="0.0" fill="#333333" text-anchor="middle"><text x="-0.6586704210411369" y="0.5">-10</text></g><g fill-opacity="0.8" font-size="5.0e-2" stroke="none" stroke-width="0.0" fill="#333333" text-anchor="middle"><text x="-0.5310349253261442" y="0.5">0</text></g><g fill-opacity="0.8" font-size="5.0e-2" stroke="none" stroke-width="0.0" fill="#333333" text-anchor="middle"><text x="-0.4033994296111514" y="0.5">10</text></g><g fill-opacity="0.8" font-size="5.0e-2" stroke="none" stroke-width="0.0" fill="#333333" text-anchor="middle"><text x="-0.2757639338961586" y="0.5">20</text></g><g fill-opacity="0.8" font-size="5.0e-2" stroke="none" stroke-width="0.0" fill="#333333" text-anchor="middle"><text x="-0.14812843818116583" y="0.5">30</text></g><g fill-opacity="0.8" font-size="5.0e-2" stroke="none" stroke-width="0.0" fill="#333333" text-anchor="middle"><text x="-2.0492942466172948e-2" y="0.5">40</text></g><g fill-opacity="0.8" font-size="5.0e-2" stroke="none" stroke-width="0.0" fill="#333333" text-anchor="middle"><text x="0.10714255324881983" y="0.5">50</text></g><g fill-opacity="0.8" font-size="5.0e-2" stroke="none" stroke-width="0.0" fill="#333333" text-anchor="middle"><text x="0.2347780489638127" y="0.5">60</text></g><g fill-opacity="0.8" font-size="5.0e-2" stroke="none" stroke-width="0.0" fill="#333333" text-anchor="middle"><text x="0.36241354467880527" y="0.5">70</text></g><g fill-opacity="0.8" font-size="5.0e-2" stroke="none" stroke-width="0.0" fill="#333333" text-anchor="middle"><text x="0.49004904039379826" y="0.5">80</text></g><g fill-opacity="0.8" font-size="5.0e-2" stroke="none" stroke-width="0.0" fill="#333333" text-anchor="middle"><text x="0.6176845361087908" y="0.5">90</text></g><g fill-opacity="0.8" font-size="5.0e-2" stroke="none" stroke-width="0.0" fill="#333333" text-anchor="middle"><text x="0.7453200318237838" y="0.5">100</text></g><g stroke-opacity="0.5" fill-opacity="0.5" stroke="#570d66" stroke-width="5.0e-3" fill="#570d66"><polyline points="-0.6586704210411369,0.4399720044792833
-0.6586704210411369,0.4099720044792833"/><polyline points="-0.5310349253261442,0.4399720044792833
-0.5310349253261442,0.4099720044792833"/><polyline points="-0.4033994296111514,0.4399720044792833
-0.4033994296111514,0.4099720044792833"/><polyline points="-0.2757639338961586,0.4399720044792833
-0.2757639338961586,0.4099720044792833"/><polyline points="-0.14812843818116583,0.4399720044792833
-0.14812843818116583,0.4099720044792833"/><polyline points="-2.0492942466172948e-2,0.4399720044792833
-2.0492942466172948e-2,0.4099720044792833"/><polyline points="0.10714255324881983,0.4399720044792833
0.10714255324881983,0.4099720044792833"/><polyline points="0.2347780489638127,0.4399720044792833
0.2347780489638127,0.4099720044792833"/><polyline points="0.36241354467880527,0.4399720044792833
0.36241354467880527,0.4099720044792833"/><polyline points="0.49004904039379826,0.4399720044792833
0.49004904039379826,0.4099720044792833"/><polyline points="0.6176845361087908,0.4399720044792833
0.6176845361087908,0.4099720044792833"/><polyline points="0.7453200318237838,0.4399720044792833
0.7453200318237838,0.4099720044792833"/></g><g stroke-opacity="0.5" fill-opacity="0.5" stroke="#570d66" stroke-width="0.0" fill="#570d66"><rect height="4.47928331466968e-3" width="1.4039904528649207" x="-0.6586704210411369" y="0.40929451287793955"/></g><g stroke-opacity="1.0" stroke="#0ea194" stroke-width="1.2e-2" fill="none"><polyline points="-0.5310349253261442,0.2944173599260319
-0.5182713757546449,0.26605303260585267
-0.5055078261831456,0.2891127098692252
-0.4927442766116463,0.2776046667989408
-0.479980727040147,9.948762394634064e-2
-0.4672171774686477,8.075152514820805e-2
-0.4544536278971485,0.11432662101276447
-0.44169007832564916,0.11902500054454118
-0.4289265287541499,0.13394729400100153
-0.4161629791826506,0.14531836770915346
-0.4033994296111514,0.15374330368850064
-0.3906358800396521,0.16943460633142732
-0.37787233046815283,0.17783543477939334
-0.36510878089665355,0.18540343388293806
-0.3523452313251543,0.18061355248383704
-0.33958168175365494,0.1912362446424048
-0.3268181321821556,0.13084304975481426
-0.31405458261065644,8.342663767705666e-2
-0.3012910330391571,8.917887617774833e-2
-0.2885274834676579,9.228784161678194e-2
-0.2757639338961586,0.10459349411749636
-0.2630003843246593,0.11313825695061308
-0.25023683475316005,0.1181394049231031
-0.23747328518166078,0.12449418384711547
-0.2247097356101615,0.1299351191013502
-0.2119461860386621,0.13903979793799487
-0.19918263646716283,0.14074048311292525
-0.18641908689566367,0.10255559890580451
-0.17365553732416428,9.580235021406364e-2
-0.160891987752665,0.10451032598258125
-0.14812843818116583,0.1085045730447578
-0.13536488860966644,0.11442469510065212
-0.12260133903816728,0.11489487732198056
-0.109837789466668,0.11944807708231087
-9.707423989516861e-2,0.1266868112248457
-8.431069032366945e-2,0.13212691058596493
-7.154714075217017e-2,0.13668407147480005
-5.878359118067078e-2,0.1400227917983929
-4.60200416091715e-2,0.14283849726925135
-3.3256492037672225e-2,0.1484000088979947
-2.0492942466172948e-2,0.147936634663074
-7.72939289467367e-3,0.1261883529362654
5.034156676825496e-3,0.12894667983165092
1.7797706248324774e-2,0.13457035190861133
3.0561255819824162e-2,0.13645663168317484
4.332480539132333e-2,0.14050352108447967
5.6088354962822606e-2,0.14360278505657476
6.8851904534322e-2,0.1459911452716131
8.161545410582116e-2,0.15056005367722453
9.437900367732066e-2,0.15411853984957902
0.10714255324881983,0.15707849407181457
0.119906102820319,0.15383873901170392
0.1326696523918185,0.15578471835726032
0.14543320196331766,0.15973753334741403
0.15819675153481683,0.16268370324324888
0.1709603011063161,0.1465829398616807
0.1837238506778155,0.14730971857369524
0.19648740024931466,0.15117198233620172
0.20925094982081416,0.1539898571944942
0.22201449939231332,0.1566473868096055
0.2347780489638127,0.15589485543934312
0.24754159853531177,0.15767612679122683
0.26030514810681127,0.16124611629140678
0.2730686976783103,0.1639337739494494
0.2858322472498098,0.166299538407445
0.2985957968213091,0.16800156592137483
0.3113593463928084,0.16954908686723935
0.32412289596430743,0.1727009411975498
0.33688644553580693,0.17490940686546597
0.349649995107306,0.1585041083635222
0.36241354467880527,0.1599091649274389
0.37517709425030477,0.16302708802213411
0.38794064382180404,0.16563947891309283
0.4007041933933033,0.167722485438151
0.4134677429648024,0.1690142821543968
0.4262312925363019,0.16669735842290928
0.43899484210780093,0.16952597648012435
0.45175839167930043,0.17168328019488982
0.4645219412507995,0.17359050684472205
0.477285490822299,0.17483240468074518
0.49004904039379804,0.17591266132377903
0.5028125899652975,0.17833519941767378
0.5155761395367966,0.1800058706532594
0.5283396891082961,0.18127754231967513
0.5411032386797952,0.17278776531483148
0.5538667882512947,0.17510451992906884
0.5666303378227937,0.16746284627064872
0.579393887394293,0.16883993221432603
0.5921574369657925,0.169784013595018
0.6049209865372918,0.16994505986384084
0.6176845361087908,0.17218721804974885
0.6304480856802903,0.17362901795370905
0.6432116352517894,0.1746434571285299
0.6559751848232886,0.17243215262337347
0.6687387343947881,0.17335447022205935
0.6815022839662874,0.1754890074542338
0.6942658335377865,0.17716812695156897
0.707029383109286,0.17852182647307863"/></g><g stroke-opacity="1.0" stroke="#0a865a" stroke-width="1.2e-2" fill="none"><polyline points="-0.5310349253261442,-0.1792361712803131
-0.5182713757546449,-0.11752319852619575
-0.5055078261831456,-0.3149922735628964
-0.4927442766116463,-0.39378602792021566
-0.479980727040147,-0.3179640402029571
-0.4672171774686477,-0.39839650495723933
-0.4544536278971485,-0.43066914458450123
-0.44169007832564916,-0.3764850305288924
-0.4289265287541499,-0.33462939406900627
-0.4161629791826506,-0.4104110585160363
-0.4033994296111514,-0.36057152877980236
-0.3906358800396521,-0.344595584965829
-0.37787233046815283,-0.31587086722136815
-0.36510878089665355,-0.28883378002772175
-0.3523452313251543,-0.31381761860475754
-0.33958168175365494,-0.28006578896907275
-0.3268181321821556,-0.257703975289891
-0.31405458261065644,-0.2875800807351917
-0.3012910330391571,-0.2624702923377651
-0.2885274834676579,-0.25192576441873005
-0.2757639338961586,-0.22696530279239946
-0.2630003843246593,-0.2102200538292307
-0.25023683475316005,-0.22932029714328817
-0.23747328518166078,-0.2675325467558207
-0.2247097356101615,-0.25819248661896255
-0.2119461860386621,-0.24422216535592678
-0.19918263646716283,-0.23347722096143453
-0.18641908689566367,-0.2384793876038992
-0.17365553732416428,-0.2208082975338439
-0.160891987752665,-0.20840234498011367
-0.14812843818116583,-0.2350406376939107
-0.13536488860966644,-0.23141938288602337
-0.12260133903816728,-0.21729732009998515
-0.109837789466668,-0.2081731609416062
-9.707423989516861e-2,-0.21410981469199875
-8.431069032366945e-2,-0.2016692601184622
-7.154714075217017e-2,-0.18937119043782857
-5.878359118067078e-2,-0.21378065323738482
-4.60200416091715e-2,-0.24819778444750717
-3.3256492037672225e-2,-0.2730466438016297
-2.0492942466172948e-2,-0.3001331856375308
-7.72939289467367e-3,-0.3248592089331086
5.034156676825496e-3,-0.3140949269505473
1.7797706248324774e-2,-0.3168925741024974
3.0561255819824162e-2,-0.3060215578315125
4.332480539132333e-2,-0.29658578588752627
5.6088354962822606e-2,-0.31701920837111397
6.8851904534322e-2,-0.31759785410355124
8.161545410582116e-2,-0.30826082947470146
9.437900367732066e-2,-0.29734853026419106
0.10714255324881983,-0.290061571273291
0.119906102820319,-0.28454922717719644
0.1326696523918185,-0.29004952882885116
0.14543320196331766,-0.27893714206353426
0.15819675153481683,-0.2777757488268803
0.1709603011063161,-0.2701834902192004
0.1837238506778155,-0.2789185807749327
0.19648740024931466,-0.2717264519948662
0.20925094982081416,-0.26424110176962345
0.22201449939231332,-0.2799655549646237
0.2347780489638127,-0.27291244964774186
0.24754159853531177,-0.2645092826250245
0.26030514810681127,-0.26627170508697695
0.2730686976783103,-0.2722669946490929
0.2858322472498098,-0.2642592538103469
0.2985957968213091,-0.25579695663652746
0.3113593463928084,-0.2498208873244031
0.32412289596430743,-0.24629625095206742
0.33688644553580693,-0.2481490794938126
0.349649995107306,-0.24045990142180063
0.36241354467880527,-0.23565686380960005
0.37517709425030477,-0.23791164887260685
0.38794064382180404,-0.23134479239458317
0.4007041933933033,-0.22526098659497595
0.4134677429648024,-0.22181595058785963
0.4262312925363019,-0.22264606969341683
0.43899484210780093,-0.22629972321241998
0.45175839167930043,-0.22138659942929395
0.4645219412507995,-0.21458816944364556
0.477285490822299,-0.20946147856942376
0.49004904039379804,-0.20506689509687281
0.5028125899652975,-0.20817124392230058
0.5155761395367966,-0.20191500941464802
0.5283396891082961,-0.19749024801047332
0.5411032386797952,-0.1932739099639752
0.5538667882512947,-0.20024240784278702
0.5666303378227937,-0.19506462138255642
0.579393887394293,-0.19181747780650205
0.5921574369657925,-0.18794949954587492
0.6049209865372918,-0.20361959777731986
0.6176845361087908,-0.19798234472292497
0.6304480856802903,-0.19911475002508816
0.6432116352517894,-0.19515879796845548
0.6559751848232886,-0.19890383526090638
0.6687387343947881,-0.19364666653900298
0.6815022839662874,-0.19002394223952213
0.6942658335377865,-0.1961272041380172
0.707029383109286,-0.19162075586089078"/></g></svg>