
<svg xmlns="http://www.w3.org/2000/svg" height="300.0" viewBox="-0.895 -0.5487807950727883 1.6978200318237837 1.0950307950727884" width="450.0" xmlns:xlink="http://www.w3.org/1999/xlink">
  <g stroke-opacity="0.0" fill-opacity="0.1" stroke="#000000" stroke-width="0.0" fill="#cccccc">
    <rect height="0.8958566629339305" width="1.4039904528649207" x="-0.6586704210411369" y="-0.49552071668533026"/>
  </g>
  <g stroke-opacity="0.1" stroke="#808080" stroke-width="5.0e-3" fill="none">
    <polyline points="-0.6633503892173533,0.40033594624860025
0.75,0.40033594624860025"/>
  </g>
  <g stroke-opacity="0.1" stroke="#808080" stroke-width="5.0e-3" fill="none">
    <polyline points="-0.6633503892173533,0.27235642297232454
0.75,0.27235642297232454"/>
  </g>
  <g stroke-opacity="0.1" stroke="#808080" stroke-width="5.0e-3" fill="none">
    <polyline points="-0.6633503892173533,0.14437689969604872
0.75,0.14437689969604872"/>
  </g>
  <g stroke-opacity="0.1" stroke="#808080" stroke-width="5.0e-3" fill="none">
    <polyline points="-0.6633503892173533,1.6397376419772902e-2
0.75,1.6397376419772902e-2"/>
  </g>
  <g stroke-opacity="0.1" stroke="#808080" stroke-width="5.0e-3" fill="none">
    <polyline points="-0.6633503892173533,-0.1115821468565028
0.75,-0.1115821468565028"/>
  </g>
  <g stroke-opacity="0.1" stroke="#808080" stroke-width="5.0e-3" fill="none">
    <polyline points="-0.6633503892173533,-0.23956167013277863
0.75,-0.23956167013277863"/>
  </g>
  <g stroke-opacity="0.1" stroke="#808080" stroke-width="5.0e-3" fill="none">
    <polyline points="-0.6633503892173533,-0.36754119340905445
0.75,-0.36754119340905445"/>
  </g>
  <g stroke-opacity="0.1" stroke="#808080" stroke-width="5.0e-3" fill="none">
    <polyline points="-0.6633503892173533,-0.49552071668533026
0.75,-0.49552071668533026"/>
  </g>
  <g fill-opacity="0.8" font-size="5.0e-2" stroke="none" stroke-width="0.0" fill="#333333" text-anchor="end">
    <text x="-0.75" y="0.4133258678611422">1,000
    </text>
  </g>
  <g fill-opacity="0.8" font-size="5.0e-2" stroke="none" stroke-width="0.0" fill="#333333" text-anchor="end">
    <text x="-0.75" y="0.2853463445848665">2,000
    </text>
  </g>
  <g fill-opacity="0.8" font-size="5.0e-2" stroke="none" stroke-width="0.0" fill="#333333" text-anchor="end">
    <text x="-0.75" y="0.1573668213085907">3,000
    </text>
  </g>
  <g fill-opacity="0.8" font-size="5.0e-2" stroke="none" stroke-width="0.0" fill="#333333" text-anchor="end">
    <text x="-0.75" y="2.938729803231488e-2">4,000
    </text>
  </g>
  <g fill-opacity="0.8" font-size="5.0e-2" stroke="none" stroke-width="0.0" fill="#333333" text-anchor="end">
    <text x="-0.75" y="-9.859222524396083e-2">5,000
    </text>
  </g>
  <g fill-opacity="0.8" font-size="5.0e-2" stroke="none" stroke-width="0.0" fill="#333333" text-anchor="end">
    <text x="-0.75" y="-0.22657174852023665">6,000
    </text>
  </g>
  <g fill-opacity="0.8" font-size="5.0e-2" stroke="none" stroke-width="0.0" fill="#333333" text-anchor="end">
    <text x="-0.75" y="-0.35455127179651236">7,000
    </text>
  </g>
  <g fill-opacity="0.8" font-size="5.0e-2" stroke="none" stroke-width="0.0" fill="#333333" text-anchor="end">
    <text x="-0.75" y="-0.4825307950727883">8,000
    </text>
  </g>
  <g stroke-opacity="0.5" fill-opacity="0.5" stroke="#570d66" stroke-width="5.0e-3" fill="#570d66">
    <g transform="rotate(-90.0, -0.7195100073319501, 0.40033594624860025)">
      <polyline points="-0.7195100073319501,0.41533594624860026
-0.7195100073319501,0.38533594624860024"/>
    </g>
    <g transform="rotate(-90.0, -0.7195100073319501, 0.27235642297232454)">
      <polyline points="-0.7195100073319501,0.28735642297232455
-0.7195100073319501,0.25735642297232453"/>
    </g>
    <g transform="rotate(-90.0, -0.7195100073319501, 0.14437689969604872)">
      <polyline points="-0.7195100073319501,0.15937689969604873
-0.7195100073319501,0.1293768996960487"/>
    </g>
    <g transform="rotate(-90.0, -0.7195100073319501, 1.6397376419772902e-2)">
      <polyline points="-0.7195100073319501,3.13973764197729e-2
-0.7195100073319501,1.3973764197729027e-3"/>
    </g>
    <g transform="rotate(-90.0, -0.7195100073319501, -0.1115821468565028)">
      <polyline points="-0.7195100073319501,-9.65821468565028e-2
-0.7195100073319501,-0.12658214685650282"/>
    </g>
    <g transform="rotate(-90.0, -0.7195100073319501, -0.23956167013277863)">
      <polyline points="-0.7195100073319501,-0.2245616701327786
-0.7195100073319501,-0.25456167013277864"/>
    </g>
    <g transform="rotate(-90.0, -0.7195100073319501, -0.36754119340905445)">
      <polyline points="-0.7195100073319501,-0.35254119340905443
-0.7195100073319501,-0.38254119340905446"/>
    </g>
    <g transform="rotate(-90.0, -0.7195100073319501, -0.49552071668533026)">
      <polyline points="-0.7195100073319501,-0.48052071668533025
-0.7195100073319501,-0.5105207166853303"/>
    </g>
  </g>
  <g stroke-opacity="0.5" fill-opacity="0.5" stroke="#570d66" stroke-width="0.0" fill="#570d66">
    <rect height="0.8958566629339305" width="4.679968176216409e-3" x="-0.7078100868914091" y="-0.49552071668533026"/>
  </g>
  <g stroke-opacity="0.1" stroke="#808080" stroke-width="5.0e-3" fill="none">
    <polyline points="-0.6586704210411369,0.40481522956326993
-0.6586704210411369,-0.5"/>
  </g>
  <g stroke-opacity="0.1" stroke="#808080" stroke-width="5.0e-3" fill="none">
    <polyline points="-0.5310349253261442,0.40481522956326993
-0.5310349253261442,-0.5"/>
  </g>
  <g stroke-opacity="0.1" stroke="#808080" stroke-width="5.0e-3" fill="none">
    <polyline points="-0.4033994296111514,0.40481522956326993
-0.4033994296111514,-0.5"/>
  </g>
  <g stroke-opacity="0.1" stroke="#808080" stroke-width="5.0e-3" fill="none">
    <polyline points="-0.2757639338961586,0.40481522956326993
-0.2757639338961586,-0.5"/>
  </g>
  <g stroke-opacity="0.1" stroke="#808080" stroke-width="5.0e-3" fill="none">
    <polyline points="-0.14812843818116583,0.40481522956326993
-0.14812843818116583,-0.5"/>
  </g>
  <g stroke-opacity="0.1" stroke="#808080" stroke-width="5.0e-3" fill="none">
    <polyline points="-2.0492942466172948e-2,0.40481522956326993
-2.0492942466172948e-2,-0.5"/>
  </g>
  <g stroke-opacity="0.1" stroke="#808080" stroke-width="5.0e-3" fill="none">
    <polyline points="0.10714255324881983,0.40481522956326993
0.10714255324881983,-0.5"/>
  </g>
  <g stroke-opacity="0.1" stroke="#808080" stroke-width="5.0e-3" fill="none">
    <polyline points="0.2347780489638127,0.40481522956326993
0.2347780489638127,-0.5"/>
  </g>
  <g stroke-opacity="0.1" stroke="#808080" stroke-width="5.0e-3" fill="none">
    <polyline points="0.36241354467880527,0.40481522956326993
0.36241354467880527,-0.5"/>
  </g>
  <g stroke-opacity="0.1" stroke="#808080" stroke-width="5.0e-3" fill="none">
    <polyline points="0.49004904039379826,0.40481522956326993
0.49004904039379826,-0.5"/>
  </g>
  <g stroke-opacity="0.1" stroke="#808080" stroke-width="5.0e-3" fill="none">
    <polyline points="0.6176845361087908,0.40481522956326993
0.6176845361087908,-0.5"/>
  </g>
  <g stroke-opacity="0.1" stroke="#808080" stroke-width="5.0e-3" fill="none">
    <polyline points="0.7453200318237838,0.40481522956326993
0.7453200318237838,-0.5"/>
  </g>
  <g fill-opacity="0.8" font-size="5.0e-2" stroke="none" stroke-width="0.0" fill="#333333" text-anchor="middle">
    <text x="-0.6586704210411369" y="0.5">-10
    </text>
  </g>
  <g fill-opacity="0.8" font-size="5.0e-2" stroke="none" stroke-width="0.0" fill="#333333" text-anchor="middle">
    <text x="-0.5310349253261442" y="0.5">0
    </text>
  </g>
  <g fill-opacity="0.8" font-size="5.0e-2" stroke="none" stroke-width="0.0" fill="#333333" text-anchor="middle">
    <text x="-0.4033994296111514" y="0.5">10
    </text>
  </g>
  <g fill-opacity="0.8" font-size="5.0e-2" stroke="none" stroke-width="0.0" fill="#333333" text-anchor="middle">
    <text x="-0.2757639338961586" y="0.5">20
    </text>
  </g>
  <g fill-opacity="0.8" font-size="5.0e-2" stroke="none" stroke-width="0.0" fill="#333333" text-anchor="middle">
    <text x="-0.14812843818116583" y="0.5">30
    </text>
  </g>
  <g fill-opacity="0.8" font-size="5.0e-2" stroke="none" stroke-width="0.0" fill="#333333" text-anchor="middle">
    <text x="-2.0492942466172948e-2" y="0.5">40
    </text>
  </g>
  <g fill-opacity="0.8" font-size="5.0e-2" stroke="none" stroke-width="0.0" fill="#333333" text-anchor="middle">
    <text x="0.10714255324881983" y="0.5">50
    </text>
  </g>
  <g fill-opacity="0.8" font-size="5.0e-2" stroke="none" stroke-width="0.0" fill="#333333" text-anchor="middle">
    <text x="0.2347780489638127" y="0.5">60
    </text>
  </g>
  <g fill-opacity="0.8" font-size="5.0e-2" stroke="none" stroke-width="0.0" fill="#333333" text-anchor="middle">
    <text x="0.36241354467880527" y="0.5">70
    </text>
  </g>
  <g fill-opacity="0.8" font-size="5.0e-2" stroke="none" stroke-width="0.0" fill="#333333" text-anchor="middle">
    <text x="0.49004904039379826" y="0.5">80
    </text>
  </g>
  <g fill-opacity="0.8" font-size="5.0e-2" stroke="none" stroke-width="0.0" fill="#333333" text-anchor="middle">
    <text x="0.6176845361087908" y="0.5">90
    </text>
  </g>
  <g fill-opacity="0.8" font-size="5.0e-2" stroke="none" stroke-width="0.0" fill="#333333" text-anchor="middle">
    <text x="0.7453200318237838" y="0.5">100
    </text>
  </g>
  <g stroke-opacity="0.5" fill-opacity="0.5" stroke="#570d66" stroke-width="5.0e-3" fill="#570d66">
    <polyline points="-0.6586704210411369,0.4399720044792833
-0.6586704210411369,0.4099720044792833"/>
    <polyline points="-0.5310349253261442,0.4399720044792833
-0.5310349253261442,0.4099720044792833"/>
    <polyline points="-0.4033994296111514,0.4399720044792833
-0.4033994296111514,0.4099720044792833"/>
    <polyline points="-0.2757639338961586,0.4399720044792833
-0.2757639338961586,0.4099720044792833"/>
    <polyline points="-0.14812843818116583,0.4399720044792833
-0.14812843818116583,0.4099720044792833"/>
    <polyline points="-2.0492942466172948e-2,0.4399720044792833
-2.0492942466172948e-2,0.4099720044792833"/>
    <polyline points="0.10714255324881983,0.4399720044792833
0.10714255324881983,0.4099720044792833"/>
    <polyline points="0.2347780489638127,0.4399720044792833
0.2347780489638127,0.4099720044792833"/>
    <polyline points="0.36241354467880527,0.4399720044792833
0.36241354467880527,0.4099720044792833"/>
    <polyline points="0.49004904039379826,0.4399720044792833
0.49004904039379826,0.4099720044792833"/>
    <polyline points="0.6176845361087908,0.4399720044792833
0.6176845361087908,0.4099720044792833"/>
    <polyline points="0.7453200318237838,0.4399720044792833
0.7453200318237838,0.4099720044792833"/>
  </g>
  <g stroke-opacity="0.5" fill-opacity="0.5" stroke="#570d66" stroke-width="0.0" fill="#570d66">
    <rect height="4.47928331466968e-3" width="1.4039904528649207" x="-0.6586704210411369" y="0.40929451287793955"/>
  </g>
  <g stroke-opacity="1.0" stroke="#026062" stroke-width="1.2e-2" fill="none">
    <polyline points="-0.5310349253261442,-0.45421061969154464
-0.5182713757546449,-0.18494823084118672
-0.5055078261831456,-6.682247245035278e-2
-0.4927442766116463,1.8078022385159542e-4
-0.479980727040147,8.17318919108252e-2
-0.4672171774686477,0.12479926003636732
-0.4544536278971485,0.15104818310674356
-0.44169007832564916,0.15565723398323433
-0.4289265287541499,0.18874497787851363
-0.4161629791826506,0.21077720039657788
-0.4033994296111514,0.2250592836016081
-0.3906358800396521,0.23203723259032988
-0.37787233046815283,0.23465919466567942
-0.36510878089665355,0.2516859819359193
-0.3523452313251543,0.26203588679670864
-0.33958168175365494,0.2680628403438705
-0.3268181321821556,0.2697311304382805
-0.31405458261065644,0.2699155312586793
-0.3012910330391571,0.2809603033455855
-0.2885274834676579,0.28655988147660316
-0.2757639338961586,0.28837881414151617
-0.2630003843246593,0.28794275456590374
-0.25023683475316005,0.2964001449182925
-0.23747328518166078,0.3019508041987442
-0.2247097356101615,0.30503434865357704
-0.2119461860386621,0.30501586549881654
-0.19918263646716283,0.30380795048586473
-0.18641908689566367,0.3102678074744715
-0.17365553732416428,0.3138238325530176
-0.160891987752665,0.3147087926722383
-0.14812843818116583,0.3141363589052883
-0.13536488860966644,0.3129195268018695
-0.12260133903816728,0.3181711704452486
-0.109837789466668,0.3204317278696574
-9.707423989516861e-2,0.32077449234849226
-8.431069032366945e-2,0.31936554159779806
-7.154714075217017e-2,0.3238978920909499
-5.878359118067078e-2,0.32672537598872686
-4.60200416091715e-2,0.3280709154704403
-3.3256492037672225e-2,0.32770765765362786
-2.0492942466172948e-2,0.3263978535261871
-7.72939289467367e-3,0.33010182706860436
5.034156676825496e-3,0.332030997067043
1.7797706248324774e-2,0.33244923771516294
3.0561255819824162e-2,0.33164181690438654
4.332480539132333e-2,0.33040482487239725
5.6088354962822606e-2,0.33377499576400865
6.8851904534322e-2,0.33509396548863657
8.161545410582116e-2,0.33502842750252526
9.437900367732066e-2,0.3338757906483943
0.10714255324881983,0.33692926214378893
0.119906102820319,0.3387610557248457
0.1326696523918185,0.33951451721773296
0.14543320196331766,0.339031839901483
0.15819675153481683,0.3377986506553994
0.1709603011063161,0.34048991586219374
0.1837238506778155,0.3417684252422694
0.19648740024931466,0.34191391099699
0.20925094982081416,0.34113045062538033
0.22201449939231332,0.3399488180284951
0.2347780489638127,0.34242021215626794
0.24754159853531177,0.34328422005205367
0.26030514810681127,0.34304396311493257
0.2730686976783103,0.3415133581935974
0.2858322472498098,0.3434408905847873
0.2985957968213091,0.3442896989601926
0.3113593463928084,0.34475024747683314
0.32412289596430743,0.34412468632274906
0.33688644553580693,0.342627963732774
0.349649995107306,0.34474273713227005
0.36241354467880527,0.3456480087962731
0.37517709425030477,0.3456690425717961
0.38794064382180404,0.34491872187956923
0.4007041933933033,0.343937584200099
0.4134677429648024,0.34591122277593
0.4262312925363019,0.346559971761898
0.43899484210780093,0.34632365051461
0.45175839167930043,0.34538421616554954
0.4645219412507995,0.3472483385985673
0.477285490822299,0.3483070121125658
0.49004904039379804,0.34868629977818666
0.5028125899652975,0.3481022674374097
0.5155761395367966,0.345812229560151
0.5283396891082961,0.3471292458354177
0.5411032386797952,0.34761635022992654
0.5538667882512947,0.347572476566696
0.5666303378227937,0.3469753885584967
0.579393887394293,0.346085664146413
0.5921574369657925,0.3477187764192308
0.6049209865372918,0.3482168441271134
0.6176845361087908,0.347987144535013
0.6304480856802903,0.3471566205106841
0.6432116352517894,0.34873347104219515
0.6559751848232886,0.34960742830170805
0.6687387343947881,0.349888799900956
0.6815022839662874,0.3494521871489318
0.6942658335377865,0.3486111256339398
0.707029383109286,0.3500962877056565
0.719792932680785,0.3507209027995124"/>
  </g>
  <g stroke-opacity="1.0" stroke="#0ea194" stroke-width="1.2e-2" fill="none">
    <polyline points="-0.5310349253261442,0.2009218504629054
-0.5182713757546449,0.11194036479015029
-0.5055078261831456,-0.26519078517721806
-0.4927442766116463,-0.1466207001974057
-0.479980727040147,-0.11349388330116239
-0.4672171774686477,-0.297379093434062
-0.4544536278971485,-0.2306351115959563
-0.44169007832564916,-0.17182064602773428
-0.4289265287541499,-0.1499490149107423
-0.4161629791826506,-0.13695796025263673
-0.4033994296111514,-0.24873122682903281
-0.3906358800396521,-0.20587548695788171
-0.37787233046815283,-0.18852467507527249
-0.36510878089665355,-0.27014499729219543
-0.3523452313251543,-0.23911796445647393
-0.33958168175365494,-0.20656728151932313
-0.3268181321821556,-0.1973838076691039
-0.31405458261065644,-0.2628639436042597
-0.3012910330391571,-0.23911481069381968
-0.2885274834676579,-0.21322833564801014
-0.2757639338961586,-0.18666141311636153
-0.2630003843246593,-0.1740071409569095
-0.25023683475316005,-0.16443288367735875
-0.23747328518166078,-0.21247581057202813
-0.2247097356101615,-0.19075460694236346
-0.2119461860386621,-0.1805319222538163
-0.19918263646716283,-0.17234808940276347
-0.18641908689566367,-0.21522641170459778
-0.17365553732416428,-0.19651662866831077
-0.160891987752665,-0.18823314556335902
-0.14812843818116583,-0.22610068447268128
-0.13536488860966644,-0.21144739486226227
-0.12260133903816728,-0.19504995181016804
-0.109837789466668,-0.18780732216551788
-9.707423989516861e-2,-0.2306402249715599
-8.431069032366945e-2,-0.21984700701503046
-7.154714075217017e-2,-0.20693689390392245
-5.878359118067078e-2,-0.20429791328432545
-4.60200416091715e-2,-0.24261178965210684
-3.3256492037672225e-2,-0.23316818226075064
-2.0492942466172948e-2,-0.2405500282156371
-7.72939289467367e-3,-0.3330959460095967
5.034156676825496e-3,-0.3703435196781689
1.7797706248324774e-2,-0.36080504647273015
3.0561255819824162e-2,-0.3480879687086855
4.332480539132333e-2,-0.33989085747634906
5.6088354962822606e-2,-0.3329611149629246
6.8851904534322e-2,-0.3550063280919721
8.161545410582116e-2,-0.3416700168095328
9.437900367732066e-2,-0.32746951741714003
0.10714255324881983,-0.31864635841959466
0.119906102820319,-0.31122384815984405
0.1326696523918185,-0.29969022902121123
0.14543320196331766,-0.2873308184355653
0.15819675153481683,-0.28106638499411585
0.1709603011063161,-0.29960219058100623
0.1837238506778155,-0.28954692014022
0.19648740024931466,-0.2783667081411648
0.20925094982081416,-0.2723065023622556
0.22201449939231332,-0.26688921081484207
0.2347780489638127,-0.2829879386905222
0.24754159853531177,-0.27286415977104905
0.26030514810681127,-0.2675129715850052
0.2730686976783103,-0.26263523671480604
0.2858322472498098,-0.27767582943241664
0.2985957968213091,-0.26869829341590734
0.3113593463928084,-0.26383077818947376
0.32412289596430743,-0.27897950027345675
0.33688644553580693,-0.2714132503102614
0.349649995107306,-0.26274395202269873
0.36241354467880527,-0.258288262677013
0.37517709425030477,-0.25465309504277245
0.38794064382180404,-0.2698485652355387
0.4007041933933033,-0.2618685781106478
0.4134677429648024,-0.2578132192381959
0.4262312925363019,-0.2737176736567699
0.43899484210780093,-0.26711030545190395
0.45175839167930043,-0.25957319314356286
0.4645219412507995,-0.2567874590492524
0.477285490822299,-0.2700519651591854
0.49004904039379804,-0.2639633640272132
0.5028125899652975,-0.2569048103662157
0.5155761395367966,-0.24923053552331687
0.5283396891082961,-0.2449431539176402
0.5411032386797952,-0.24129285345899
0.5538667882512947,-0.2532006448338634
0.5666303378227937,-0.24638009058032406
0.579393887394293,-0.24338052274470146
0.5921574369657925,-0.24002157613658237
0.6049209865372918,-0.2530065635125175
0.6176845361087908,-0.246278959903785
0.6304480856802903,-0.24340875017282293
0.6432116352517894,-0.2548224955175854
0.6559751848232886,-0.24969740508647909
0.6687387343947881,-0.24333137954379602
0.6815022839662874,-0.24027813825315958
0.6942658335377865,-0.2511956264162627
0.707029383109286,-0.2459705619845246
0.719792932680785,-0.2400062409749848"/>
  </g>
</svg>