
<svg xmlns="http://www.w3.org/2000/svg" height="300.0" viewBox="-0.895 -0.5487415824915824 1.6978127197162634 1.0949915824915823" width="450.0" xmlns:xlink="http://www.w3.org/1999/xlink">
  <g stroke-opacity="0.0" fill-opacity="3.0e-2" stroke="#000000" stroke-width="0.0" fill="#666666">
    <rect height="0.8978675645342313" width="1.4061840851210101" x="-0.6608713654047467" y="-0.495510662177329"/>
  </g>
  <g stroke-opacity="0.3" stroke="#a8e5ee" stroke-width="5.0e-3" fill="none">
    <polyline points="-0.6655586456884833,0.40235690235690236
0.75,0.40235690235690236"/>
  </g>
  <g stroke-opacity="0.3" stroke="#a8e5ee" stroke-width="5.0e-3" fill="none">
    <polyline points="-0.6655586456884833,0.2901234567901234
0.75,0.2901234567901234"/>
  </g>
  <g stroke-opacity="0.3" stroke="#a8e5ee" stroke-width="5.0e-3" fill="none">
    <polyline points="-0.6655586456884833,0.17789001122334452
0.75,0.17789001122334452"/>
  </g>
  <g stroke-opacity="0.3" stroke="#a8e5ee" stroke-width="5.0e-3" fill="none">
    <polyline points="-0.6655586456884833,6.565656565656564e-2
0.75,6.565656565656564e-2"/>
  </g>
  <g stroke-opacity="0.3" stroke="#a8e5ee" stroke-width="5.0e-3" fill="none">
    <polyline points="-0.6655586456884833,-4.657687991021331e-2
0.75,-4.657687991021331e-2"/>
  </g>
  <g stroke-opacity="0.3" stroke="#a8e5ee" stroke-width="5.0e-3" fill="none">
    <polyline points="-0.6655586456884833,-0.15881032547699214
0.75,-0.15881032547699214"/>
  </g>
  <g stroke-opacity="0.3" stroke="#a8e5ee" stroke-width="5.0e-3" fill="none">
    <polyline points="-0.6655586456884833,-0.2710437710437711
0.75,-0.2710437710437711"/>
  </g>
  <g stroke-opacity="0.3" stroke="#a8e5ee" stroke-width="5.0e-3" fill="none">
    <polyline points="-0.6655586456884833,-0.38327721661055003
0.75,-0.38327721661055003"/>
  </g>
  <g stroke-opacity="0.3" stroke="#a8e5ee" stroke-width="5.0e-3" fill="none">
    <polyline points="-0.6655586456884833,-0.495510662177329
0.75,-0.495510662177329"/>
  </g>
  <g fill-opacity="1.0" font-size="5.0e-2" stroke="none" stroke-width="0.0" fill="#666666" text-anchor="end">
    <text x="-0.75" y="0.41537598204264864">1,000
    </text>
  </g>
  <g fill-opacity="1.0" font-size="5.0e-2" stroke="none" stroke-width="0.0" fill="#666666" text-anchor="end">
    <text x="-0.75" y="0.3031425364758698">2,000
    </text>
  </g>
  <g fill-opacity="1.0" font-size="5.0e-2" stroke="none" stroke-width="0.0" fill="#666666" text-anchor="end">
    <text x="-0.75" y="0.19090909090909092">3,000
    </text>
  </g>
  <g fill-opacity="1.0" font-size="5.0e-2" stroke="none" stroke-width="0.0" fill="#666666" text-anchor="end">
    <text x="-0.75" y="7.867564534231197e-2">4,000
    </text>
  </g>
  <g fill-opacity="1.0" font-size="5.0e-2" stroke="none" stroke-width="0.0" fill="#666666" text-anchor="end">
    <text x="-0.75" y="-3.355780022446697e-2">5,000
    </text>
  </g>
  <g fill-opacity="1.0" font-size="5.0e-2" stroke="none" stroke-width="0.0" fill="#666666" text-anchor="end">
    <text x="-0.75" y="-0.1457912457912458">6,000
    </text>
  </g>
  <g fill-opacity="1.0" font-size="5.0e-2" stroke="none" stroke-width="0.0" fill="#666666" text-anchor="end">
    <text x="-0.75" y="-0.25802469135802464">7,000
    </text>
  </g>
  <g fill-opacity="1.0" font-size="5.0e-2" stroke="none" stroke-width="0.0" fill="#666666" text-anchor="end">
    <text x="-0.75" y="-0.3702581369248036">8,000
    </text>
  </g>
  <g fill-opacity="1.0" font-size="5.0e-2" stroke="none" stroke-width="0.0" fill="#666666" text-anchor="end">
    <text x="-0.75" y="-0.4824915824915824">9,000
    </text>
  </g>
  <g stroke-opacity="0.4" fill-opacity="1.0" stroke="#2c429d" stroke-width="5.0e-3" fill="#5f0391">
    <g transform="rotate(-90.0, -0.7194623689514554, 0.40235690235690236)">
      <polyline points="-0.7194623689514554,0.41735690235690237
-0.7194623689514554,0.38735690235690234"/>
    </g>
    <g transform="rotate(-90.0, -0.7194623689514554, 0.2901234567901234)">
      <polyline points="-0.7194623689514554,0.3051234567901234
-0.7194623689514554,0.2751234567901234"/>
    </g>
    <g transform="rotate(-90.0, -0.7194623689514554, 0.17789001122334452)">
      <polyline points="-0.7194623689514554,0.19289001122334454
-0.7194623689514554,0.1628900112233445"/>
    </g>
    <g transform="rotate(-90.0, -0.7194623689514554, 6.565656565656564e-2)">
      <polyline points="-0.7194623689514554,8.065656565656563e-2
-0.7194623689514554,5.0656565656565636e-2"/>
    </g>
    <g transform="rotate(-90.0, -0.7194623689514554, -4.657687991021331e-2)">
      <polyline points="-0.7194623689514554,-3.157687991021331e-2
-0.7194623689514554,-6.157687991021331e-2"/>
    </g>
    <g transform="rotate(-90.0, -0.7194623689514554, -0.15881032547699214)">
      <polyline points="-0.7194623689514554,-0.14381032547699213
-0.7194623689514554,-0.17381032547699216"/>
    </g>
    <g transform="rotate(-90.0, -0.7194623689514554, -0.2710437710437711)">
      <polyline points="-0.7194623689514554,-0.2560437710437711
-0.7194623689514554,-0.2860437710437711"/>
    </g>
    <g transform="rotate(-90.0, -0.7194623689514554, -0.38327721661055003)">
      <polyline points="-0.7194623689514554,-0.36827721661055
-0.7194623689514554,-0.39827721661055004"/>
    </g>
    <g transform="rotate(-90.0, -0.7194623689514554, -0.495510662177329)">
      <polyline points="-0.7194623689514554,-0.48051066217732896
-0.7194623689514554,-0.510510662177329"/>
    </g>
  </g>
  <g stroke-opacity="0.0" fill-opacity="0.5" stroke="#666666" stroke-width="0.0" fill="#5f0391">
    <rect height="0.8978675645342313" width="4.687280283736772e-3" x="-0.710087808383982" y="-0.495510662177329"/>
  </g>
  <g stroke-opacity="0.3" stroke="#a8e5ee" stroke-width="5.0e-3" fill="none">
    <polyline points="-0.6608713654047467,0.4068462401795735
-0.6608713654047467,-0.5"/>
  </g>
  <g stroke-opacity="0.3" stroke="#a8e5ee" stroke-width="5.0e-3" fill="none">
    <polyline points="-0.5330364485755639,0.4068462401795735
-0.5330364485755639,-0.5"/>
  </g>
  <g stroke-opacity="0.3" stroke="#a8e5ee" stroke-width="5.0e-3" fill="none">
    <polyline points="-0.4052015317463812,0.4068462401795735
-0.4052015317463812,-0.5"/>
  </g>
  <g stroke-opacity="0.3" stroke="#a8e5ee" stroke-width="5.0e-3" fill="none">
    <polyline points="-0.2773666149171985,0.4068462401795735
-0.2773666149171985,-0.5"/>
  </g>
  <g stroke-opacity="0.3" stroke="#a8e5ee" stroke-width="5.0e-3" fill="none">
    <polyline points="-0.1495316980880157,0.4068462401795735
-0.1495316980880157,-0.5"/>
  </g>
  <g stroke-opacity="0.3" stroke="#a8e5ee" stroke-width="5.0e-3" fill="none">
    <polyline points="-2.169678125883301e-2,0.4068462401795735
-2.169678125883301e-2,-0.5"/>
  </g>
  <g stroke-opacity="0.3" stroke="#a8e5ee" stroke-width="5.0e-3" fill="none">
    <polyline points="0.10613813557034968,0.4068462401795735
0.10613813557034968,-0.5"/>
  </g>
  <g stroke-opacity="0.3" stroke="#a8e5ee" stroke-width="5.0e-3" fill="none">
    <polyline points="0.23397305239953248,0.4068462401795735
0.23397305239953248,-0.5"/>
  </g>
  <g stroke-opacity="0.3" stroke="#a8e5ee" stroke-width="5.0e-3" fill="none">
    <polyline points="0.36180796922871505,0.4068462401795735
0.36180796922871505,-0.5"/>
  </g>
  <g stroke-opacity="0.3" stroke="#a8e5ee" stroke-width="5.0e-3" fill="none">
    <polyline points="0.4896428860578981,0.4068462401795735
0.4896428860578981,-0.5"/>
  </g>
  <g stroke-opacity="0.3" stroke="#a8e5ee" stroke-width="5.0e-3" fill="none">
    <polyline points="0.6174778028870804,0.4068462401795735
0.6174778028870804,-0.5"/>
  </g>
  <g stroke-opacity="0.3" stroke="#a8e5ee" stroke-width="5.0e-3" fill="none">
    <polyline points="0.7453127197162634,0.4068462401795735
0.7453127197162634,-0.5"/>
  </g>
  <g fill-opacity="1.0" font-size="5.0e-2" stroke="none" stroke-width="0.0" fill="#666666" text-anchor="middle">
    <text x="-0.6608713654047467" y="0.5">-10
    </text>
  </g>
  <g fill-opacity="1.0" font-size="5.0e-2" stroke="none" stroke-width="0.0" fill="#666666" text-anchor="middle">
    <text x="-0.5330364485755639" y="0.5">0
    </text>
  </g>
  <g fill-opacity="1.0" font-size="5.0e-2" stroke="none" stroke-width="0.0" fill="#666666" text-anchor="middle">
    <text x="-0.4052015317463812" y="0.5">10
    </text>
  </g>
  <g fill-opacity="1.0" font-size="5.0e-2" stroke="none" stroke-width="0.0" fill="#666666" text-anchor="middle">
    <text x="-0.2773666149171985" y="0.5">20
    </text>
  </g>
  <g fill-opacity="1.0" font-size="5.0e-2" stroke="none" stroke-width="0.0" fill="#666666" text-anchor="middle">
    <text x="-0.1495316980880157" y="0.5">30
    </text>
  </g>
  <g fill-opacity="1.0" font-size="5.0e-2" stroke="none" stroke-width="0.0" fill="#666666" text-anchor="middle">
    <text x="-2.169678125883301e-2" y="0.5">40
    </text>
  </g>
  <g fill-opacity="1.0" font-size="5.0e-2" stroke="none" stroke-width="0.0" fill="#666666" text-anchor="middle">
    <text x="0.10613813557034968" y="0.5">50
    </text>
  </g>
  <g fill-opacity="1.0" font-size="5.0e-2" stroke="none" stroke-width="0.0" fill="#666666" text-anchor="middle">
    <text x="0.23397305239953248" y="0.5">60
    </text>
  </g>
  <g fill-opacity="1.0" font-size="5.0e-2" stroke="none" stroke-width="0.0" fill="#666666" text-anchor="middle">
    <text x="0.36180796922871505" y="0.5">70
    </text>
  </g>
  <g fill-opacity="1.0" font-size="5.0e-2" stroke="none" stroke-width="0.0" fill="#666666" text-anchor="middle">
    <text x="0.4896428860578981" y="0.5">80
    </text>
  </g>
  <g fill-opacity="1.0" font-size="5.0e-2" stroke="none" stroke-width="0.0" fill="#666666" text-anchor="middle">
    <text x="0.6174778028870804" y="0.5">90
    </text>
  </g>
  <g fill-opacity="1.0" font-size="5.0e-2" stroke="none" stroke-width="0.0" fill="#666666" text-anchor="middle">
    <text x="0.7453127197162634" y="0.5">100
    </text>
  </g>
  <g stroke-opacity="0.4" fill-opacity="1.0" stroke="#2c429d" stroke-width="5.0e-3" fill="#5f0391">
    <polyline points="-0.6608713654047467,0.43980359147025816
-0.6608713654047467,0.40980359147025813"/>
    <polyline points="-0.5330364485755639,0.43980359147025816
-0.5330364485755639,0.40980359147025813"/>
    <polyline points="-0.4052015317463812,0.43980359147025816
-0.4052015317463812,0.40980359147025813"/>
    <polyline points="-0.2773666149171985,0.43980359147025816
-0.2773666149171985,0.40980359147025813"/>
    <polyline points="-0.1495316980880157,0.43980359147025816
-0.1495316980880157,0.40980359147025813"/>
    <polyline points="-2.169678125883301e-2,0.43980359147025816
-2.169678125883301e-2,0.40980359147025813"/>
    <polyline points="0.10613813557034968,0.43980359147025816
0.10613813557034968,0.40980359147025813"/>
    <polyline points="0.23397305239953248,0.43980359147025816
0.23397305239953248,0.40980359147025813"/>
    <polyline points="0.36180796922871505,0.43980359147025816
0.36180796922871505,0.40980359147025813"/>
    <polyline points="0.4896428860578981,0.43980359147025816
0.4896428860578981,0.40980359147025813"/>
    <polyline points="0.6174778028870804,0.43980359147025816
0.6174778028870804,0.40980359147025813"/>
    <polyline points="0.7453127197162634,0.43980359147025816
0.7453127197162634,0.40980359147025813"/>
  </g>
  <g stroke-opacity="0.0" fill-opacity="0.5" stroke="#666666" stroke-width="0.0" fill="#5f0391">
    <rect height="4.489337822671191e-3" width="1.4061840851210101" x="-0.6608713654047467" y="0.41133557800224463"/>
  </g>
  <g stroke-opacity="0.5" stroke="#026062" stroke-width="2.0e-2" fill="none">
    <polyline points="-0.5330364485755639,-0.442693537902509
-0.5202529568926456,-0.162208454106058
-0.5074694652097274,-3.456151855442724e-2
-0.4946859735268091,3.183109197967238e-2
-0.4819024818438908,0.10668334873058377
-0.46911899016097247,0.15452551975447948
-0.4563354984780543,0.1828458742431246
-0.443552006795136,0.19933974515412267
-0.4307685151122177,0.20876774700844652
-0.41798502342929944,0.23348801300775252
-0.4052015317463812,0.24962070325905622
-0.3924180400634629,0.25967819896110605
-0.37963454838054467,0.2639989507749513
-0.3668510566976264,0.26604167552780417
-0.35406756501470815,0.27948578502332344
-0.3412840733317899,0.2871325502653225
-0.3285005816488715,0.29069679798564374
-0.31571708996595327,0.291251776593028
-0.302933598283035,0.3007653227735556
-0.29015010660011675,0.30763873806238357
-0.2773666149171985,0.3116742325446009
-0.2645831232342801,0.31267128775871383
-0.251799631551362,0.3119302277853728
-0.2390161398684436,0.3187190849052107
-0.22623264818552535,0.3228863049508847
-0.2134491565026071,0.32492110548582354
-0.20066566481968873,0.32466821367625565
-0.18788217313677058,0.3236622448061
-0.1750986814538522,0.32893151895911077
-0.16231518977093395,0.3316233908501951
-0.1495316980880157,0.33226297445002384
-0.13674820640509744,0.3312966149147495
-0.12396471472217918,0.335736339875263
-0.11118122303926103,0.3388790048831748
-9.839773135634267e-2,0.34047209010141827
-8.561423967342452e-2,0.3403555187975402
-7.283074799050615e-2,0.3391650535545478
-6.004725630758789e-2,0.34283556204400756
-4.7263764624669524e-2,0.3449684585367166
-3.448027294175127e-2,0.3455469736387626
-2.169678125883301e-2,0.34492313709716793
-8.913289575914751e-3,0.3436666238384456
3.8702021070035064e-3,0.3468205885162045
1.6653693789921764e-2,0.3482443400867449
2.9437185472840022e-2,0.3482490882478134
4.22206771557585e-2,0.34717147367114876
5.500416883867654e-2,0.349992443523517
6.778766052159502e-2,0.351935412322129
8.057115220451305e-2,0.35277070367776686
9.335464388743153e-2,0.35234777729451416
0.10613813557034968,0.3512471289708806
0.11892162725326805,0.3537184663824309
0.1317051189361862,0.3550812396585241
0.14448861061910467,0.3552917297157988
0.1572721023020227,0.3545811718256295
0.17005559398494108,0.35352401251286353
0.18283908566785922,0.3557668585393094
0.1956225773507776,0.3566781555307661
0.20840606903369596,0.35657014332536013
0.22118956071661422,0.35563270540500735
0.23397305239953248,0.3576964185637298
0.24675654408245062,0.3590649541293942
0.2595400357653692,0.3596072232244424
0.27232352744828736,0.3590920572034081
0.2851070191312055,0.3581593501472297
0.29789051081412365,0.36002934277605425
0.31067400249704225,0.36097553965519713
0.3234574941799604,0.36100726516530685
0.33624098586287876,0.3603561792842561
0.3490244775457967,0.35940806699459726
0.36180796922871505,0.36113505991364037
0.3745914609116334,0.36178282775369
0.3873749525945518,0.3615675681614596
0.40015844427746994,0.360737498322084
0.4129419359603881,0.36236320156515184
0.4257254276433067,0.3634052345694404
0.4385089193262248,0.36379162980228374
0.45129241100914297,0.3633806192918778
0.46407590269206134,0.36254584752743835
0.4768593943749797,0.3640479088320139
0.48964288605789785,0.36479403655313236
0.5024263777408162,0.3647676216887956
0.5152098694237344,0.36409814297903664
0.5279933611066525,0.36327611998302967
0.5407768527895711,0.36468438818116583
0.5535603444724893,0.365190041134841
0.5663438361554074,0.3649235192080126
0.5791273278383255,0.36415036529649497
0.5919108195212441,0.36548969131107356
0.6046943112041623,0.3663261001629121
0.6174778028870804,0.3666111895640437
0.6302612945699988,0.3661930978028025
0.6430447862529172,0.3654222703865683
0.6558282779358353,0.3666809638799884
0.6686117696187537,0.36728139033046503
0.6813952613016718,0.36723285893832563
0.6941787529845902,0.36668590659711353
0.7069622446675086,0.36589249564874116
0.7197457363504267,0.367089524419884"/>
  </g>
  <g stroke-opacity="0.5" stroke="#0ea194" stroke-width="2.0e-2" fill="none">
    <polyline points="-0.5330364485755639,6.1726168583730756e-2
-0.5202529568926456,-0.366153650991619
-0.5074694652097274,-0.19612866479853197
-0.4946859735268091,-0.14145591785799883
-0.4819024818438908,-0.11399828502108345
-0.46911899016097247,-0.27638354391189135
-0.4563354984780543,-0.20274206306682452
-0.443552006795136,-0.13803192656313767
-0.4307685151122177,-0.1071058742848009
-0.41798502342929944,-9.001751167185945e-2
-0.4052015317463812,-0.1854435081990019
-0.3924180400634629,-0.14310829128471036
-0.37963454838054467,-0.12312434528705785
-0.3668510566976264,-0.10876592477596247
-0.35406756501470815,-0.17715859387244615
-0.3412840733317899,-0.14584550239778893
-0.3285005816488715,-0.13062413189503097
-0.31571708996595327,-0.11983101533986562
-0.302933598283035,-0.183226110788963
-0.29015010660011675,-0.15785074260230647
-0.2773666149171985,-0.14561466757355912
-0.2645831232342801,-0.13642270365525233
-0.251799631551362,-0.18210921013108983
-0.2390161398684436,-0.16104133078491234
-0.22623264818552535,-0.15093480640498158
-0.2134491565026071,-0.19113638695933532
-0.20066566481968873,-0.1749544393716329
-0.18788217313677058,-0.15694147220863597
-0.1750986814538522,-0.14839515087232336
-0.16231518977093395,-0.14247035277381437
-0.1495316980880157,-0.1765330989591758
-0.13674820640509744,-0.16116690352086593
-0.12396471472217918,-0.15360125418195558
-0.11118122303926103,-0.1851363061335567
-9.839773135634267e-2,-0.1732489519446644
-8.561423967342452e-2,-0.15963031789470006
-7.283074799050615e-2,-0.15305346843314105
-6.004725630758789e-2,-0.18174281284768945
-4.7263764624669524e-2,-0.17122631238881691
-3.448027294175127e-2,-0.1591099201226781
-2.169678125883301e-2,-0.1459824574635714
-8.913289575914751e-3,-0.1388341132383515
3.8702021070035064e-3,-0.13328163268111126
1.6653693789921764e-2,-0.1581526786780436
2.9437185472840022e-2,-0.1466854134915363
4.22206771557585e-2,-0.1407374855296667
5.500416883867654e-2,-0.13578693847986922
6.778766052159502e-2,-0.1583062793747747
8.057115220451305e-2,-0.14793776982269657
9.335464388743153e-2,-0.14270045890036398
0.10613813557034968,-0.16393924979264307
0.11892162725326805,-0.15562680630712067
0.1317051189361862,-0.14596853583892
0.14448861061910467,-0.14118562724608952
0.1572721023020227,-0.1610592480541645
0.17005559398494108,-0.15348120819965816
0.18283908566785922,-0.14463217292962616
0.1956225773507776,-0.14031219971292752
0.20840606903369596,-0.13713720307328303
0.22118956071661422,-0.1553639156506803
0.23397305239953248,-0.14745210607424986
0.24675654408245062,-0.14352080842526116
0.2595400357653692,-0.16107109012219745
0.27232352744828736,-0.1546367288902769
0.2851070191312055,-0.1470637920675899
0.29789051081412365,-0.14346182890154313
0.31067400249704225,-0.14083660003043252
0.3234574941799604,-0.15709391467327372
0.33624098586287876,-0.15024194020174597
0.3490244775457967,-0.1424764023380305
0.36180796922871505,-0.1381652106293363
0.3745914609116334,-0.13476480426752047
0.3873749525945518,-0.15004519199282207
0.40015844427746994,-0.14302932431614301
0.4129419359603881,-0.13920663945971434
0.4257254276433067,-0.13607851886626965
0.4385089193262248,-0.15005713447861502
0.45129241100914297,-0.14346693602565874
0.46407590269206134,-0.1400249032687899
0.4768593943749797,-0.15419983047844021
0.48964288605789785,-0.1488941403860592
0.5024263777408162,-0.14258131190094614
0.5152098694237344,-0.13940979969688194
0.5279933611066525,-0.13701123594606213
0.5407768527895711,-0.14976629631609895
0.5535603444724893,-0.14394471386872632
0.5663438361554074,-0.14103776397925882
0.5791273278383255,-0.1538154023536059
0.5919108195212441,-0.14927253692673126
0.6046943112041623,-0.14368794109480532
0.6174778028870804,-0.14092447965149768
0.6302612945699988,-0.13892124364947267
0.6430447862529172,-0.1508112600892315
0.6558282779358353,-0.145570181171091
0.6686117696187537,-0.1433114971763434
0.6813952613016718,-0.14140140161434833
0.6941787529845902,-0.15185910750897336
0.7069622446675086,-0.14692390431049385
0.7197457363504267,-0.14134283511672863"/>
  </g>
</svg>