
<svg xmlns="http://www.w3.org/2000/svg" height="300.0" viewBox="-0.895 -0.5487415824915824 1.6978127197162634 1.0949915824915823" width="450.0" xmlns:xlink="http://www.w3.org/1999/xlink">
  <g stroke-opacity="0.0" fill-opacity="3.0e-2" stroke="#000000" stroke-width="0.0" fill="#666666">
    <rect height="0.8978675645342311" width="1.4061840851210101" x="-0.6608713654047467" y="-0.49551066217732875"/>
  </g>
  <g stroke-opacity="0.3" stroke="#a8e5ee" stroke-width="5.0e-3" fill="none">
    <polyline points="-0.6655586456884833,0.40235690235690236
0.75,0.40235690235690236"/>
  </g>
  <g stroke-opacity="0.3" stroke="#a8e5ee" stroke-width="5.0e-3" fill="none">
    <polyline points="-0.6655586456884833,0.2740901074234408
0.75,0.2740901074234408"/>
  </g>
  <g stroke-opacity="0.3" stroke="#a8e5ee" stroke-width="5.0e-3" fill="none">
    <polyline points="-0.6655586456884833,0.1458233124899792
0.75,0.1458233124899792"/>
  </g>
  <g stroke-opacity="0.3" stroke="#a8e5ee" stroke-width="5.0e-3" fill="none">
    <polyline points="-0.6655586456884833,1.7556517556517603e-2
0.75,1.7556517556517603e-2"/>
  </g>
  <g stroke-opacity="0.3" stroke="#a8e5ee" stroke-width="5.0e-3" fill="none">
    <polyline points="-0.6655586456884833,-0.11071027737694394
0.75,-0.11071027737694394"/>
  </g>
  <g stroke-opacity="0.3" stroke="#a8e5ee" stroke-width="5.0e-3" fill="none">
    <polyline points="-0.6655586456884833,-0.23897707231040555
0.75,-0.23897707231040555"/>
  </g>
  <g stroke-opacity="0.3" stroke="#a8e5ee" stroke-width="5.0e-3" fill="none">
    <polyline points="-0.6655586456884833,-0.36724386724386715
0.75,-0.36724386724386715"/>
  </g>
  <g stroke-opacity="0.3" stroke="#a8e5ee" stroke-width="5.0e-3" fill="none">
    <polyline points="-0.6655586456884833,-0.49551066217732875
0.75,-0.49551066217732875"/>
  </g>
  <g fill-opacity="1.0" font-size="5.0e-2" stroke="none" stroke-width="0.0" fill="#666666" text-anchor="end">
    <text x="-0.75" y="0.41537598204264864">1,000
    </text>
  </g>
  <g fill-opacity="1.0" font-size="5.0e-2" stroke="none" stroke-width="0.0" fill="#666666" text-anchor="end">
    <text x="-0.75" y="0.28710918710918715">2,000
    </text>
  </g>
  <g fill-opacity="1.0" font-size="5.0e-2" stroke="none" stroke-width="0.0" fill="#666666" text-anchor="end">
    <text x="-0.75" y="0.15884239217572554">3,000
    </text>
  </g>
  <g fill-opacity="1.0" font-size="5.0e-2" stroke="none" stroke-width="0.0" fill="#666666" text-anchor="end">
    <text x="-0.75" y="3.057559724226394e-2">4,000
    </text>
  </g>
  <g fill-opacity="1.0" font-size="5.0e-2" stroke="none" stroke-width="0.0" fill="#666666" text-anchor="end">
    <text x="-0.75" y="-9.76911976911976e-2">5,000
    </text>
  </g>
  <g fill-opacity="1.0" font-size="5.0e-2" stroke="none" stroke-width="0.0" fill="#666666" text-anchor="end">
    <text x="-0.75" y="-0.2259579926246592">6,000
    </text>
  </g>
  <g fill-opacity="1.0" font-size="5.0e-2" stroke="none" stroke-width="0.0" fill="#666666" text-anchor="end">
    <text x="-0.75" y="-0.3542247875581207">7,000
    </text>
  </g>
  <g fill-opacity="1.0" font-size="5.0e-2" stroke="none" stroke-width="0.0" fill="#666666" text-anchor="end">
    <text x="-0.75" y="-0.4824915824915824">8,000
    </text>
  </g>
  <g stroke-opacity="0.4" fill-opacity="1.0" stroke="#2c429d" stroke-width="5.0e-3" fill="#5f0391">
    <g transform="rotate(-90.0, -0.7194623689514554, 0.40235690235690236)">
      <polyline points="-0.7194623689514554,0.41735690235690237
-0.7194623689514554,0.38735690235690234"/>
    </g>
    <g transform="rotate(-90.0, -0.7194623689514554, 0.2740901074234408)">
      <polyline points="-0.7194623689514554,0.2890901074234408
-0.7194623689514554,0.2590901074234408"/>
    </g>
    <g transform="rotate(-90.0, -0.7194623689514554, 0.1458233124899792)">
      <polyline points="-0.7194623689514554,0.16082331248997922
-0.7194623689514554,0.1308233124899792"/>
    </g>
    <g transform="rotate(-90.0, -0.7194623689514554, 1.7556517556517603e-2)">
      <polyline points="-0.7194623689514554,3.25565175565176e-2
-0.7194623689514554,2.556517556517604e-3"/>
    </g>
    <g transform="rotate(-90.0, -0.7194623689514554, -0.11071027737694394)">
      <polyline points="-0.7194623689514554,-9.571027737694394e-2
-0.7194623689514554,-0.12571027737694396"/>
    </g>
    <g transform="rotate(-90.0, -0.7194623689514554, -0.23897707231040555)">
      <polyline points="-0.7194623689514554,-0.22397707231040553
-0.7194623689514554,-0.25397707231040556"/>
    </g>
    <g transform="rotate(-90.0, -0.7194623689514554, -0.36724386724386715)">
      <polyline points="-0.7194623689514554,-0.35224386724386714
-0.7194623689514554,-0.38224386724386716"/>
    </g>
    <g transform="rotate(-90.0, -0.7194623689514554, -0.49551066217732875)">
      <polyline points="-0.7194623689514554,-0.48051066217732874
-0.7194623689514554,-0.5105106621773288"/>
    </g>
  </g>
  <g stroke-opacity="0.0" fill-opacity="0.5" stroke="#666666" stroke-width="0.0" fill="#5f0391">
    <rect height="0.8978675645342311" width="4.687280283736772e-3" x="-0.710087808383982" y="-0.49551066217732875"/>
  </g>
  <g stroke-opacity="0.3" stroke="#a8e5ee" stroke-width="5.0e-3" fill="none">
    <polyline points="-0.6608713654047467,0.4068462401795735
-0.6608713654047467,-0.5"/>
  </g>
  <g stroke-opacity="0.3" stroke="#a8e5ee" stroke-width="5.0e-3" fill="none">
    <polyline points="-0.5330364485755639,0.4068462401795735
-0.5330364485755639,-0.5"/>
  </g>
  <g stroke-opacity="0.3" stroke="#a8e5ee" stroke-width="5.0e-3" fill="none">
    <polyline points="-0.4052015317463812,0.4068462401795735
-0.4052015317463812,-0.5"/>
  </g>
  <g stroke-opacity="0.3" stroke="#a8e5ee" stroke-width="5.0e-3" fill="none">
    <polyline points="-0.2773666149171985,0.4068462401795735
-0.2773666149171985,-0.5"/>
  </g>
  <g stroke-opacity="0.3" stroke="#a8e5ee" stroke-width="5.0e-3" fill="none">
    <polyline points="-0.1495316980880157,0.4068462401795735
-0.1495316980880157,-0.5"/>
  </g>
  <g stroke-opacity="0.3" stroke="#a8e5ee" stroke-width="5.0e-3" fill="none">
    <polyline points="-2.169678125883301e-2,0.4068462401795735
-2.169678125883301e-2,-0.5"/>
  </g>
  <g stroke-opacity="0.3" stroke="#a8e5ee" stroke-width="5.0e-3" fill="none">
    <polyline points="0.10613813557034968,0.4068462401795735
0.10613813557034968,-0.5"/>
  </g>
  <g stroke-opacity="0.3" stroke="#a8e5ee" stroke-width="5.0e-3" fill="none">
    <polyline points="0.23397305239953248,0.4068462401795735
0.23397305239953248,-0.5"/>
  </g>
  <g stroke-opacity="0.3" stroke="#a8e5ee" stroke-width="5.0e-3" fill="none">
    <polyline points="0.36180796922871505,0.4068462401795735
0.36180796922871505,-0.5"/>
  </g>
  <g stroke-opacity="0.3" stroke="#a8e5ee" stroke-width="5.0e-3" fill="none">
    <polyline points="0.4896428860578981,0.4068462401795735
0.4896428860578981,-0.5"/>
  </g>
  <g stroke-opacity="0.3" stroke="#a8e5ee" stroke-width="5.0e-3" fill="none">
    <polyline points="0.6174778028870804,0.4068462401795735
0.6174778028870804,-0.5"/>
  </g>
  <g stroke-opacity="0.3" stroke="#a8e5ee" stroke-width="5.0e-3" fill="none">
    <polyline points="0.7453127197162634,0.4068462401795735
0.7453127197162634,-0.5"/>
  </g>
  <g fill-opacity="1.0" font-size="5.0e-2" stroke="none" stroke-width="0.0" fill="#666666" text-anchor="middle">
    <text x="-0.6608713654047467" y="0.5">-10
    </text>
  </g>
  <g fill-opacity="1.0" font-size="5.0e-2" stroke="none" stroke-width="0.0" fill="#666666" text-anchor="middle">
    <text x="-0.5330364485755639" y="0.5">0
    </text>
  </g>
  <g fill-opacity="1.0" font-size="5.0e-2" stroke="none" stroke-width="0.0" fill="#666666" text-anchor="middle">
    <text x="-0.4052015317463812" y="0.5">10
    </text>
  </g>
  <g fill-opacity="1.0" font-size="5.0e-2" stroke="none" stroke-width="0.0" fill="#666666" text-anchor="middle">
    <text x="-0.2773666149171985" y="0.5">20
    </text>
  </g>
  <g fill-opacity="1.0" font-size="5.0e-2" stroke="none" stroke-width="0.0" fill="#666666" text-anchor="middle">
    <text x="-0.1495316980880157" y="0.5">30
    </text>
  </g>
  <g fill-opacity="1.0" font-size="5.0e-2" stroke="none" stroke-width="0.0" fill="#666666" text-anchor="middle">
    <text x="-2.169678125883301e-2" y="0.5">40
    </text>
  </g>
  <g fill-opacity="1.0" font-size="5.0e-2" stroke="none" stroke-width="0.0" fill="#666666" text-anchor="middle">
    <text x="0.10613813557034968" y="0.5">50
    </text>
  </g>
  <g fill-opacity="1.0" font-size="5.0e-2" stroke="none" stroke-width="0.0" fill="#666666" text-anchor="middle">
    <text x="0.23397305239953248" y="0.5">60
    </text>
  </g>
  <g fill-opacity="1.0" font-size="5.0e-2" stroke="none" stroke-width="0.0" fill="#666666" text-anchor="middle">
    <text x="0.36180796922871505" y="0.5">70
    </text>
  </g>
  <g fill-opacity="1.0" font-size="5.0e-2" stroke="none" stroke-width="0.0" fill="#666666" text-anchor="middle">
    <text x="0.4896428860578981" y="0.5">80
    </text>
  </g>
  <g fill-opacity="1.0" font-size="5.0e-2" stroke="none" stroke-width="0.0" fill="#666666" text-anchor="middle">
    <text x="0.6174778028870804" y="0.5">90
    </text>
  </g>
  <g fill-opacity="1.0" font-size="5.0e-2" stroke="none" stroke-width="0.0" fill="#666666" text-anchor="middle">
    <text x="0.7453127197162634" y="0.5">100
    </text>
  </g>
  <g stroke-opacity="0.4" fill-opacity="1.0" stroke="#2c429d" stroke-width="5.0e-3" fill="#5f0391">
    <polyline points="-0.6608713654047467,0.43980359147025816
-0.6608713654047467,0.40980359147025813"/>
    <polyline points="-0.5330364485755639,0.43980359147025816
-0.5330364485755639,0.40980359147025813"/>
    <polyline points="-0.4052015317463812,0.43980359147025816
-0.4052015317463812,0.40980359147025813"/>
    <polyline points="-0.2773666149171985,0.43980359147025816
-0.2773666149171985,0.40980359147025813"/>
    <polyline points="-0.1495316980880157,0.43980359147025816
-0.1495316980880157,0.40980359147025813"/>
    <polyline points="-2.169678125883301e-2,0.43980359147025816
-2.169678125883301e-2,0.40980359147025813"/>
    <polyline points="0.10613813557034968,0.43980359147025816
0.10613813557034968,0.40980359147025813"/>
    <polyline points="0.23397305239953248,0.43980359147025816
0.23397305239953248,0.40980359147025813"/>
    <polyline points="0.36180796922871505,0.43980359147025816
0.36180796922871505,0.40980359147025813"/>
    <polyline points="0.4896428860578981,0.43980359147025816
0.4896428860578981,0.40980359147025813"/>
    <polyline points="0.6174778028870804,0.43980359147025816
0.6174778028870804,0.40980359147025813"/>
    <polyline points="0.7453127197162634,0.43980359147025816
0.7453127197162634,0.40980359147025813"/>
  </g>
  <g stroke-opacity="0.0" fill-opacity="0.5" stroke="#666666" stroke-width="0.0" fill="#5f0391">
    <rect height="4.489337822671191e-3" width="1.4061840851210101" x="-0.6608713654047467" y="0.41133557800224463"/>
  </g>
  <g stroke-opacity="0.5" stroke="#026062" stroke-width="2.0e-2" fill="none">
    <polyline points="-0.5330364485755639,-0.4856504096845601
-0.5202529568926456,-0.19190529515555188
-0.5074694652097274,-6.0496234783225855e-2
-0.4946859735268091,7.853758629443985e-3
-0.4819024818438908,8.853442054470584e-2
-0.46911899016097247,0.13885372508991678
-0.4563354984780543,0.16963745375329037
-0.443552006795136,0.18488762342754056
-0.4307685151122177,0.19415525318298127
-0.41798502342929944,0.22122909045162142
-0.4052015317463812,0.2378385041102472
-0.3924180400634629,0.24686391731232754
-0.37963454838054467,0.250369516078813
-0.3668510566976264,0.252299458444901
-0.35406756501470815,0.26728799981632756
-0.3412840733317899,0.2751038441788341
-0.3285005816488715,0.2785643720727882
-0.31571708996595327,0.2787432478010341
-0.302933598283035,0.28945124077170614
-0.29015010660011675,0.2966117413841937
-0.2773666149171985,0.300558890209877
-0.2645831232342801,0.3011711691389434
-0.251799631551362,0.30037558283264154
-0.2390161398684436,0.30808101294577617
-0.22623264818552535,0.31234928415485863
-0.2134491565026071,0.3138645234324097
-0.20066566481968873,0.31332363355803505
-0.18788217313677058,0.3195390408078216
-0.1750986814538522,0.32460779135086837
-0.16231518977093395,0.3268780842172414
-0.1495316980880157,0.3269807652144784
-0.13674820640509744,0.3255717055643368
-0.12396471472217918,0.3305109224653189
-0.11118122303926103,0.33362129725376377
-9.839773135634267e-2,0.33493604233014185
-8.561423967342452e-2,0.3343814499202731
-7.283074799050615e-2,0.3330738861383338
-6.004725630758789e-2,0.33720896475967177
-4.7263764624669524e-2,0.33925862752102304
-3.448027294175127e-2,0.33966869233641717
-2.169678125883301e-2,0.33865784359084883
-8.913289575914751e-3,0.34227541139487433
3.8702021070035064e-3,0.3452031413556311
1.6653693789921764e-2,0.34639938309969165
2.9437185472840022e-2,0.3459863140251688
4.22206771557585e-2,0.34446689813485254
5.500416883867654e-2,0.34757910277409965
6.778766052159502e-2,0.3494206633411906
8.057115220451305e-2,0.35009844793661665
9.335464388743153e-2,0.3493417998869119
0.10613813557034968,0.3479948042950614
0.11892162725326805,0.3507574035153915
0.1317051189361862,0.3520370026408165
0.14448861061910467,0.35202182965239615
0.1572721023020227,0.3509389144436472
0.17005559398494108,0.3534650899354004
0.18283908566785922,0.35526070376466645
0.1956225773507776,0.3559721590059415
0.20840606903369596,0.3555325157968643
0.22118956071661422,0.35432712006859146
0.23397305239953248,0.35659496691676207
0.24675654408245062,0.35775989293318755
0.2595400357653692,0.35785911778217455
0.27232352744828736,0.35713190642718606
0.2851070191312055,0.3559900465194228
0.29789051081412365,0.3580646410611802
0.31067400249704225,0.35893656004836005
0.3234574941799604,0.35879311284954507
0.33624098586287876,0.3577699915497877
0.3490244775457967,0.35971558120075653
0.36180796922871505,0.36107021268508654
0.3745914609116334,0.36158259305811985
0.3873749525945518,0.3611696217323149
0.40015844427746994,0.3600747951011367
0.4129419359603881,0.3618581612815016
0.4257254276433067,0.3628582425710566
0.4385089193262248,0.36307332930183733
0.45129241100914297,0.36231333234591645
0.46407590269206134,0.361119879664589
0.4768593943749797,0.3627837234103102
0.48964288605789785,0.3630746316479939
0.5024263777408162,0.3627395457184349
0.5152098694237344,0.36181270542146826
0.5279933611066525,0.36338587055052574
0.5407768527895711,0.3644819184633166
0.5535603444724893,0.36489042098246205
0.5663438361554074,0.3644986507757212
0.5791273278383255,0.36356476188870945
0.5919108195212441,0.36504156774968743
0.6046943112041623,0.36582530425588167
0.6174778028870804,0.3659506080561272
0.6302612945699988,0.36531007828073137
0.6430447862529172,0.3646030884120407
0.6558282779358353,0.36598944359615565
0.6686117696187537,0.3665230034739705
0.6813952613016718,0.36632054321835217
0.6941787529845902,0.3655537520490497
0.7069622446675086,0.3668873107064
0.7197457363504267,0.36774759978414734"/>
  </g>
  <g stroke-opacity="0.5" stroke="#0ea194" stroke-width="2.0e-2" fill="none">
    <polyline points="-0.5330364485755639,-2.1311454829547882e-3
-0.5202529568926456,-0.4483097629228401
-0.5074694652097274,-0.261511105249706
-0.4946859735268091,-0.13367026422839512
-0.4819024818438908,-9.097610656080601e-2
-0.46911899016097247,-6.95342574639809e-2
-0.4563354984780543,-0.23026906687403437
-0.443552006795136,-0.16470665738547463
-0.4307685151122177,-0.14092846654689228
-0.41798502342929944,-0.1237582653843381
-0.4052015317463812,-0.22138491913462988
-0.3924180400634629,-0.17727260585415616
-0.37963454838054467,-0.15899191030377147
-0.3668510566976264,-0.2387201246035502
-0.35406756501470815,-0.20753551804061598
-0.3412840733317899,-0.17472816327297203
-0.3285005816488715,-0.16090005983394895
-0.31571708996595327,-0.15185339835641531
-0.302933598283035,-0.20982269193059655
-0.29015010660011675,-0.18381183528080658
-0.2773666149171985,-0.1727082914031679
-0.2645831232342801,-0.22393350682379287
-0.251799631551362,-0.20445747275928172
-0.2390161398684436,-0.18287396376812204
-0.22623264818552535,-0.17393042902725364
-0.2134491565026071,-0.16782968783111696
-0.20066566481968873,-0.2105469910475467
-0.18788217313677058,-0.19298550690122485
-0.1750986814538522,-0.184989282213727
-0.16231518977093395,-0.22286882161893717
-0.1495316980880157,-0.2087423263675049
-0.13674820640509744,-0.19271128564164208
-0.12396471472217918,-0.17563627863276599
-0.11118122303926103,-0.1666167396905721
-9.839773135634267e-2,-0.1607741991612136
-8.561423967342452e-2,-0.19243986961223858
-7.283074799050615e-2,-0.17750805329426267
-6.004725630758789e-2,-0.1699739350204591
-4.7263764624669524e-2,-0.16416472162722162
-3.448027294175127e-2,-0.19227000045045228
-2.169678125883301e-2,-0.1803058985379623
-8.913289575914751e-3,-0.17400067549881548
3.8702021070035064e-3,-0.16890181971495577
1.6653693789921764e-2,-0.19417388587006712
2.9437185472840022e-2,-0.18218638872013404
4.22206771557585e-2,-0.17656155409417396
5.500416883867654e-2,-0.20124845492873056
6.778766052159502e-2,-0.19175644284839688
8.057115220451305e-2,-0.1808382964006754
9.335464388743153e-2,-0.17591212075373297
0.10613813557034968,-0.17247434906686543
0.11892162725326805,-0.19426218161511655
0.1317051189361862,-0.18436077026050213
0.14448861061910467,-0.1800081053255187
0.1572721023020227,-0.20157234345318675
0.17005559398494108,-0.19379557736388053
0.18283908566785922,-0.1849681004485012
0.1956225773507776,-0.1809099577875699
0.20840606903369596,-0.20136175206284557
0.22118956071661422,-0.19410982899396267
0.23397305239953248,-0.18562275390525773
0.24675654408245062,-0.17661996905080535
0.2595400357653692,-0.17109689107460313
0.27232352744828736,-0.16479780317809023
0.2851070191312055,-0.15740585182010813
0.29789051081412365,-0.14916612304826193
0.31067400249704225,-0.14508131102927324
0.3234574941799604,-0.14215233463069032
0.33624098586287876,-0.1590273810229843
0.3490244775457967,-0.1518791184586744
0.36180796922871505,-0.14865706646898424
0.3745914609116334,-0.14591234675448783
0.3873749525945518,-0.16175268793930797
0.40015844427746994,-0.1547039964086968
0.4129419359603881,-0.15144015727877314
0.4257254276433067,-0.14882431099091686
0.4385089193262248,-0.16422621402342652
0.45129241100914297,-0.15760764888169765
0.46407590269206134,-0.1545845121830216
0.4768593943749797,-0.16995700787007473
0.48964288605789785,-0.16465541189129274
0.5024263777408162,-0.15839170321198182
0.5152098694237344,-0.15567201154603283
0.5279933611066525,-0.1707482572107556
0.5407768527895711,-0.16576535498905198
0.5535603444724893,-0.1599959358557489
0.5663438361554074,-0.15766460704374552
0.5791273278383255,-0.15588112810169852
0.5919108195212441,-0.170268063192638
0.6046943112041623,-0.1647991737498552
0.6174778028870804,-0.1624725097991051
0.6302612945699988,-0.17607320122736747
0.6430447862529172,-0.17171985529303124
0.6558282779358353,-0.16634463793490373
0.6686117696187537,-0.16040228709533133
0.6813952613016718,-0.15737357419911524
0.6941787529845902,-0.1552659422371203
0.7069622446675086,-0.16795211008737543
0.7197457363504267,-0.16251288573462563"/>
  </g>
</svg>