
<svg xmlns="http://www.w3.org/2000/svg" height="300.0" viewBox="-0.92 -0.5487807950727883 1.7228200318237838 1.0950307950727884" width="450.0" xmlns:xlink="http://www.w3.org/1999/xlink">
  <g stroke-opacity="0.0" fill-opacity="0.1" stroke="#000000" stroke-width="0.0" fill="#cccccc">
    <rect height="0.8958566629339307" width="1.4039904528649207" x="-0.6586704210411369" y="-0.4955207166853305"/>
  </g>
  <g stroke-opacity="0.1" stroke="#808080" stroke-width="5.0e-3" fill="none">
    <polyline points="-0.6633503892173533,0.40033594624860025
0.75,0.40033594624860025"/>
  </g>
  <g stroke-opacity="0.1" stroke="#808080" stroke-width="5.0e-3" fill="none">
    <polyline points="-0.6633503892173533,0.3007963170337191
0.75,0.3007963170337191"/>
  </g>
  <g stroke-opacity="0.1" stroke="#808080" stroke-width="5.0e-3" fill="none">
    <polyline points="-0.6633503892173533,0.20125668781883788
0.75,0.20125668781883788"/>
  </g>
  <g stroke-opacity="0.1" stroke="#808080" stroke-width="5.0e-3" fill="none">
    <polyline points="-0.6633503892173533,0.10171705860395674
0.75,0.10171705860395674"/>
  </g>
  <g stroke-opacity="0.1" stroke="#808080" stroke-width="5.0e-3" fill="none">
    <polyline points="-0.6633503892173533,2.177429389075558e-3
0.75,2.177429389075558e-3"/>
  </g>
  <g stroke-opacity="0.1" stroke="#808080" stroke-width="5.0e-3" fill="none">
    <polyline points="-0.6633503892173533,-9.736219982580563e-2
0.75,-9.736219982580563e-2"/>
  </g>
  <g stroke-opacity="0.1" stroke="#808080" stroke-width="5.0e-3" fill="none">
    <polyline points="-0.6633503892173533,-0.19690182904068676
0.75,-0.19690182904068676"/>
  </g>
  <g stroke-opacity="0.1" stroke="#808080" stroke-width="5.0e-3" fill="none">
    <polyline points="-0.6633503892173533,-0.296441458255568
0.75,-0.296441458255568"/>
  </g>
  <g stroke-opacity="0.1" stroke="#808080" stroke-width="5.0e-3" fill="none">
    <polyline points="-0.6633503892173533,-0.39598108747044924
0.75,-0.39598108747044924"/>
  </g>
  <g stroke-opacity="0.1" stroke="#808080" stroke-width="5.0e-3" fill="none">
    <polyline points="-0.6633503892173533,-0.4955207166853305
0.75,-0.4955207166853305"/>
  </g>
  <g fill-opacity="0.8" font-size="5.0e-2" stroke="none" stroke-width="0.0" fill="#333333" text-anchor="end">
    <text x="-0.75" y="0.4133258678611422">1,000
    </text>
  </g>
  <g fill-opacity="0.8" font-size="5.0e-2" stroke="none" stroke-width="0.0" fill="#333333" text-anchor="end">
    <text x="-0.75" y="0.3137862386462611">2,000
    </text>
  </g>
  <g fill-opacity="0.8" font-size="5.0e-2" stroke="none" stroke-width="0.0" fill="#333333" text-anchor="end">
    <text x="-0.75" y="0.2142466094313799">3,000
    </text>
  </g>
  <g fill-opacity="0.8" font-size="5.0e-2" stroke="none" stroke-width="0.0" fill="#333333" text-anchor="end">
    <text x="-0.75" y="0.11470698021649872">4,000
    </text>
  </g>
  <g fill-opacity="0.8" font-size="5.0e-2" stroke="none" stroke-width="0.0" fill="#333333" text-anchor="end">
    <text x="-0.75" y="1.5167351001617535e-2">5,000
    </text>
  </g>
  <g fill-opacity="0.8" font-size="5.0e-2" stroke="none" stroke-width="0.0" fill="#333333" text-anchor="end">
    <text x="-0.75" y="-8.437227821326376e-2">6,000
    </text>
  </g>
  <g fill-opacity="0.8" font-size="5.0e-2" stroke="none" stroke-width="0.0" fill="#333333" text-anchor="end">
    <text x="-0.75" y="-0.1839119074281449">7,000
    </text>
  </g>
  <g fill-opacity="0.8" font-size="5.0e-2" stroke="none" stroke-width="0.0" fill="#333333" text-anchor="end">
    <text x="-0.75" y="-0.283451536643026">8,000
    </text>
  </g>
  <g fill-opacity="0.8" font-size="5.0e-2" stroke="none" stroke-width="0.0" fill="#333333" text-anchor="end">
    <text x="-0.75" y="-0.38299116585790705">9,000
    </text>
  </g>
  <g fill-opacity="0.8" font-size="5.0e-2" stroke="none" stroke-width="0.0" fill="#333333" text-anchor="end">
    <text x="-0.75" y="-0.4825307950727883">10,000
    </text>
  </g>
  <g stroke-opacity="0.5" fill-opacity="0.5" stroke="#570d66" stroke-width="5.0e-3" fill="#570d66">
    <g transform="rotate(-90.0, -0.7195100073319501, 0.40033594624860025)">
      <polyline points="-0.7195100073319501,0.41533594624860026
-0.7195100073319501,0.38533594624860024"/>
    </g>
    <g transform="rotate(-90.0, -0.7195100073319501, 0.3007963170337191)">
      <polyline points="-0.7195100073319501,0.31579631703371913
-0.7195100073319501,0.2857963170337191"/>
    </g>
    <g transform="rotate(-90.0, -0.7195100073319501, 0.20125668781883788)">
      <polyline points="-0.7195100073319501,0.2162566878188379
-0.7195100073319501,0.18625668781883786"/>
    </g>
    <g transform="rotate(-90.0, -0.7195100073319501, 0.10171705860395674)">
      <polyline points="-0.7195100073319501,0.11671705860395674
-0.7195100073319501,8.671705860395675e-2"/>
    </g>
    <g transform="rotate(-90.0, -0.7195100073319501, 2.177429389075558e-3)">
      <polyline points="-0.7195100073319501,1.7177429389075557e-2
-0.7195100073319501,-1.2822570610924441e-2"/>
    </g>
    <g transform="rotate(-90.0, -0.7195100073319501, -9.736219982580563e-2)">
      <polyline points="-0.7195100073319501,-8.236219982580563e-2
-0.7195100073319501,-0.11236219982580563"/>
    </g>
    <g transform="rotate(-90.0, -0.7195100073319501, -0.19690182904068676)">
      <polyline points="-0.7195100073319501,-0.18190182904068675
-0.7195100073319501,-0.21190182904068677"/>
    </g>
    <g transform="rotate(-90.0, -0.7195100073319501, -0.296441458255568)">
      <polyline points="-0.7195100073319501,-0.281441458255568
-0.7195100073319501,-0.311441458255568"/>
    </g>
    <g transform="rotate(-90.0, -0.7195100073319501, -0.39598108747044924)">
      <polyline points="-0.7195100073319501,-0.38098108747044923
-0.7195100073319501,-0.41098108747044926"/>
    </g>
    <g transform="rotate(-90.0, -0.7195100073319501, -0.4955207166853305)">
      <polyline points="-0.7195100073319501,-0.4805207166853305
-0.7195100073319501,-0.5105207166853305"/>
    </g>
  </g>
  <g stroke-opacity="0.5" fill-opacity="0.5" stroke="#570d66" stroke-width="0.0" fill="#570d66">
    <rect height="0.8958566629339307" width="4.679968176216409e-3" x="-0.7078100868914091" y="-0.4955207166853305"/>
  </g>
  <g stroke-opacity="0.1" stroke="#808080" stroke-width="5.0e-3" fill="none">
    <polyline points="-0.6586704210411369,0.40481522956326993
-0.6586704210411369,-0.5"/>
  </g>
  <g stroke-opacity="0.1" stroke="#808080" stroke-width="5.0e-3" fill="none">
    <polyline points="-0.5310349253261442,0.40481522956326993
-0.5310349253261442,-0.5"/>
  </g>
  <g stroke-opacity="0.1" stroke="#808080" stroke-width="5.0e-3" fill="none">
    <polyline points="-0.4033994296111514,0.40481522956326993
-0.4033994296111514,-0.5"/>
  </g>
  <g stroke-opacity="0.1" stroke="#808080" stroke-width="5.0e-3" fill="none">
    <polyline points="-0.2757639338961586,0.40481522956326993
-0.2757639338961586,-0.5"/>
  </g>
  <g stroke-opacity="0.1" stroke="#808080" stroke-width="5.0e-3" fill="none">
    <polyline points="-0.14812843818116583,0.40481522956326993
-0.14812843818116583,-0.5"/>
  </g>
  <g stroke-opacity="0.1" stroke="#808080" stroke-width="5.0e-3" fill="none">
    <polyline points="-2.0492942466172948e-2,0.40481522956326993
-2.0492942466172948e-2,-0.5"/>
  </g>
  <g stroke-opacity="0.1" stroke="#808080" stroke-width="5.0e-3" fill="none">
    <polyline points="0.10714255324881983,0.40481522956326993
0.10714255324881983,-0.5"/>
  </g>
  <g stroke-opacity="0.1" stroke="#808080" stroke-width="5.0e-3" fill="none">
    <polyline points="0.2347780489638127,0.40481522956326993
0.2347780489638127,-0.5"/>
  </g>
  <g stroke-opacity="0.1" stroke="#808080" stroke-width="5.0e-3" fill="none">
    <polyline points="0.36241354467880527,0.40481522956326993
0.36241354467880527,-0.5"/>
  </g>
  <g stroke-opacity="0.1" stroke="#808080" stroke-width="5.0e-3" fill="none">
    <polyline points="0.49004904039379826,0.40481522956326993
0.49004904039379826,-0.5"/>
  </g>
  <g stroke-opacity="0.1" stroke="#808080" stroke-width="5.0e-3" fill="none">
    <polyline points="0.6176845361087908,0.40481522956326993
0.6176845361087908,-0.5"/>
  </g>
  <g stroke-opacity="0.1" stroke="#808080" stroke-width="5.0e-3" fill="none">
    <polyline points="0.7453200318237838,0.40481522956326993
0.7453200318237838,-0.5"/>
  </g>
  <g fill-opacity="0.8" font-size="5.0e-2" stroke="none" stroke-width="0.0" fill="#333333" text-anchor="middle">
    <text x="-0.6586704210411369" y="0.5">-10
    </text>
  </g>
  <g fill-opacity="0.8" font-size="5.0e-2" stroke="none" stroke-width="0.0" fill="#333333" text-anchor="middle">
    <text x="-0.5310349253261442" y="0.5">0
    </text>
  </g>
  <g fill-opacity="0.8" font-size="5.0e-2" stroke="none" stroke-width="0.0" fill="#333333" text-anchor="middle">
    <text x="-0.4033994296111514" y="0.5">10
    </text>
  </g>
  <g fill-opacity="0.8" font-size="5.0e-2" stroke="none" stroke-width="0.0" fill="#333333" text-anchor="middle">
    <text x="-0.2757639338961586" y="0.5">20
    </text>
  </g>
  <g fill-opacity="0.8" font-size="5.0e-2" stroke="none" stroke-width="0.0" fill="#333333" text-anchor="middle">
    <text x="-0.14812843818116583" y="0.5">30
    </text>
  </g>
  <g fill-opacity="0.8" font-size="5.0e-2" stroke="none" stroke-width="0.0" fill="#333333" text-anchor="middle">
    <text x="-2.0492942466172948e-2" y="0.5">40
    </text>
  </g>
  <g fill-opacity="0.8" font-size="5.0e-2" stroke="none" stroke-width="0.0" fill="#333333" text-anchor="middle">
    <text x="0.10714255324881983" y="0.5">50
    </text>
  </g>
  <g fill-opacity="0.8" font-size="5.0e-2" stroke="none" stroke-width="0.0" fill="#333333" text-anchor="middle">
    <text x="0.2347780489638127" y="0.5">60
    </text>
  </g>
  <g fill-opacity="0.8" font-size="5.0e-2" stroke="none" stroke-width="0.0" fill="#333333" text-anchor="middle">
    <text x="0.36241354467880527" y="0.5">70
    </text>
  </g>
  <g fill-opacity="0.8" font-size="5.0e-2" stroke="none" stroke-width="0.0" fill="#333333" text-anchor="middle">
    <text x="0.49004904039379826" y="0.5">80
    </text>
  </g>
  <g fill-opacity="0.8" font-size="5.0e-2" stroke="none" stroke-width="0.0" fill="#333333" text-anchor="middle">
    <text x="0.6176845361087908" y="0.5">90
    </text>
  </g>
  <g fill-opacity="0.8" font-size="5.0e-2" stroke="none" stroke-width="0.0" fill="#333333" text-anchor="middle">
    <text x="0.7453200318237838" y="0.5">100
    </text>
  </g>
  <g stroke-opacity="0.5" fill-opacity="0.5" stroke="#570d66" stroke-width="5.0e-3" fill="#570d66">
    <polyline points="-0.6586704210411369,0.4399720044792833
-0.6586704210411369,0.4099720044792833"/>
    <polyline points="-0.5310349253261442,0.4399720044792833
-0.5310349253261442,0.4099720044792833"/>
    <polyline points="-0.4033994296111514,0.4399720044792833
-0.4033994296111514,0.4099720044792833"/>
    <polyline points="-0.2757639338961586,0.4399720044792833
-0.2757639338961586,0.4099720044792833"/>
    <polyline points="-0.14812843818116583,0.4399720044792833
-0.14812843818116583,0.4099720044792833"/>
    <polyline points="-2.0492942466172948e-2,0.4399720044792833
-2.0492942466172948e-2,0.4099720044792833"/>
    <polyline points="0.10714255324881983,0.4399720044792833
0.10714255324881983,0.4099720044792833"/>
    <polyline points="0.2347780489638127,0.4399720044792833
0.2347780489638127,0.4099720044792833"/>
    <polyline points="0.36241354467880527,0.4399720044792833
0.36241354467880527,0.4099720044792833"/>
    <polyline points="0.49004904039379826,0.4399720044792833
0.49004904039379826,0.4099720044792833"/>
    <polyline points="0.6176845361087908,0.4399720044792833
0.6176845361087908,0.4099720044792833"/>
    <polyline points="0.7453200318237838,0.4399720044792833
0.7453200318237838,0.4099720044792833"/>
  </g>
  <g stroke-opacity="0.5" fill-opacity="0.5" stroke="#570d66" stroke-width="0.0" fill="#570d66">
    <rect height="4.47928331466968e-3" width="1.4039904528649207" x="-0.6586704210411369" y="0.40929451287793955"/>
  </g>
  <g stroke-opacity="1.0" stroke="#026062" stroke-width="1.2e-2" fill="none">
    <polyline points="-0.5310349253261442,-0.2831531991950934
-0.5182713757546449,-5.4081241381046086e-2
-0.5055078261831456,4.933900074825187e-2
-0.4927442766116463,0.10316013131458313
-0.479980727040147,0.1642709484435949
-0.4672171774686477,0.20343131660173314
-0.4544536278971485,0.22615554927763337
-0.44169007832564916,0.23744677113885532
-0.4289265287541499,0.24198783712187355
-0.4161629791826506,0.26099245107552715
-0.4033994296111514,0.27315882912992717
-0.3906358800396521,0.2798505230888192
-0.37787233046815283,0.280881579618544
-0.36510878089665355,0.282943349969783
-0.3523452313251543,0.2946289504247078
-0.33958168175365494,0.30142483588656566
-0.3268181321821556,0.30468800390094797
-0.31405458261065644,0.3052669372930391
-0.3012910330391571,0.31352965509288433
-0.2885274834676579,0.31942367137502314
-0.2757639338961586,0.32225777437001524
-0.2630003843246593,0.3198361686719527
-0.25023683475316005,0.3117925308049135
-0.23747328518166078,0.31808833824557053
-0.2247097356101615,0.32183141142638694
-0.2119461860386621,0.3234435399058616
-0.19918263646716283,0.32367129289161223
-0.18641908689566367,0.323358247097096
-0.17365553732416428,0.3282794938777788
-0.160891987752665,0.33078083483941967
-0.14812843818116583,0.3316149998446991
-0.13536488860966644,0.3311263029193351
-0.12260133903816728,0.33524747258986476
-0.109837789466668,0.3381148794503307
-9.707423989516861e-2,0.3396871680797141
-8.431069032366945e-2,0.3397516406254345
-7.154714075217017e-2,0.33873759522862984
-5.878359118067078e-2,0.3421320101996769
-4.60200416091715e-2,0.3440378561957379
-3.3256492037672225e-2,0.34471580769835986
-2.0492942466172948e-2,0.34439592386212114
-7.72939289467367e-3,0.34366947071044396
5.034156676825496e-3,0.346581644235726
1.7797706248324774e-2,0.34795390143173144
3.0561255819824162e-2,0.3481516685764465
4.332480539132333e-2,0.3474354698908
5.6088354962822606e-2,0.35002844384824294
6.8851904534322e-2,0.3517942745180601
8.161545410582116e-2,0.3526285449949186
9.437900367732066e-2,0.3523703362106835
0.10714255324881983,0.3515833714970297
0.119906102820319,0.35384176458946054
0.1326696523918185,0.35509638064908644
0.14543320196331766,0.35509380014679437
0.15819675153481683,0.35464268400774424
0.1709603011063161,0.35355599653048025
0.1837238506778155,0.35557616566581535
0.19648740024931466,0.35645192447522667
0.20925094982081416,0.35643947317354246
0.22201449939231332,0.3557092475957888
0.2347780489638127,0.3575901932466198
0.24754159853531177,0.35882970654125
0.26030514810681127,0.359354505256006
0.2730686976783103,0.359056776166749
0.2858322472498098,0.35830971991479726
0.2985957968213091,0.3600109875956982
0.3113593463928084,0.36091141903793256
0.32412289596430743,0.3610464484107798
0.33688644553580693,0.36042620476514214
0.349649995107306,0.35949987270675454
0.36241354467880527,0.3610631836545951
0.37517709425030477,0.3616848159055318
0.38794064382180404,0.36157455218862633
0.4007041933933033,0.3609220180104873
0.4134677429648024,0.36239459609466174
0.4262312925363019,0.3633363737148482
0.43899484210780093,0.3637112784696798
0.45175839167930043,0.36341992415861407
0.4645219412507995,0.3628061887117068
0.477285490822299,0.36416527684940403
0.49004904039379804,0.36485564041671537
0.5028125899652975,0.3649036045948526
0.5155761395367966,0.36439571270584487
0.5283396891082961,0.3637635354653968
0.5411032386797952,0.36503522848351544
0.5538667882512947,0.3654371346721859
0.5666303378227937,0.3652782389246032
0.579393887394293,0.3646675315419653
0.5921574369657925,0.36586352162308877
0.6049209865372918,0.3666196330756318
0.6176845361087908,0.36689461696831827
0.6304480856802903,0.3665919275446589
0.6432116352517894,0.3660110857865169
0.6559751848232886,0.36714247037098735
0.6687387343947881,0.3676839885985286
0.6815022839662874,0.3676786695132052
0.6942658335377865,0.3671569857771546
0.707029383109286,0.36620986529409105
0.719792932680785,0.3672399978548532"/>
  </g>
  <g stroke-opacity="1.0" stroke="#0ea194" stroke-width="1.2e-2" fill="none">
    <polyline points="-0.5310349253261442,-0.3981919053591746
-0.5182713757546449,-0.17525255642091453
-0.5055078261831456,-4.927483947110467e-2
-0.4927442766116463,-1.5186028616070657e-2
-0.479980727040147,6.553659106551257e-4
-0.4672171774686477,-0.11783709003482912
-0.4544536278971485,-6.190872360260613e-2
-0.44169007832564916,-1.2235454231804832e-2
-0.4289265287541499,8.073459747816092e-3
-0.4161629791826506,2.0419234738014214e-2
-0.4033994296111514,-5.137779240979068e-2
-0.3906358800396521,-1.8768036108251396e-2
-0.37787233046815283,-1.631755492767395e-3
-0.36510878089665355,9.199390217844494e-3
-0.3523452313251543,-4.039816220913106e-2
-0.33958168175365494,-1.6446309178285934e-2
-0.3268181321821556,-6.680566476568894e-3
-0.31405458261065644,-5.04624073473412e-2
-0.3012910330391571,-3.28760290459893e-2
-0.2885274834676579,-1.3921635955563838e-2
-0.2757639338961586,-6.333576729398049e-3
-0.2630003843246593,-2.1094289099646835e-3
-0.25023683475316005,-3.582099419015006e-2
-0.23747328518166078,-2.019620375288189e-2
-0.2247097356101615,-1.3873706598549918e-2
-0.2119461860386621,-4.484784969045463e-2
-0.19918263646716283,-3.293732096058044e-2
-0.18641908689566367,-1.9671586298935506e-2
-0.17365553732416428,-1.4994414957528956e-2
-0.160891987752665,-4.20420475055121e-2
-0.14812843818116583,-3.2313070478707795e-2
-0.13536488860966644,-2.0855821071316227e-2
-0.12260133903816728,-1.638659267104514e-2
-0.109837789466668,-1.3525723935047251e-2
-9.707423989516861e-2,-3.625323939950742e-2
-8.431069032366945e-2,-2.6202393771970645e-2
-7.154714075217017e-2,-1.5232646801354166e-2
-5.878359118067078e-2,-9.748424157075442e-3
-4.60200416091715e-2,-6.7529728736029915e-3
-3.3256492037672225e-2,-2.732812704543275e-2
-2.0492942466172948e-2,-1.7528512530283535e-2
-7.72939289467367e-3,-1.2843711915829559e-2
5.034156676825496e-3,-9.384011585780616e-3
1.7797706248324774e-2,-2.6892977754826797e-2
3.0561255819824162e-2,-1.8136794402860756e-2
4.332480539132333e-2,-1.407237429278485e-2
5.6088354962822606e-2,-1.1064106478805402e-2
6.8851904534322e-2,-2.7608259161951754e-2
8.161545410582116e-2,-1.963609917716136e-2
9.437900367732066e-2,-1.622688661748295e-2
0.10714255324881983,-1.340330152661695e-2
0.119906102820319,-2.8789711375177274e-2
0.1326696523918185,-2.152893044088755e-2
0.14543320196331766,-1.8636436093714348e-2
0.15819675153481683,-3.3660672083247856e-2
0.1709603011063161,-2.789698744358693e-2
0.1837238506778155,-2.141234936739167e-2
0.19648740024931466,-1.864588504116671e-2
0.20925094982081416,-1.6780071995811552e-2
0.22201449939231332,-3.0284488303022772e-2
0.2347780489638127,-2.4155560619677163e-2
0.24754159853531177,-2.158661065320555e-2
0.26030514810681127,-3.487017326565889e-2
0.2730686976783103,-3.003359838278219e-2
0.2858322472498098,-2.4311578731199268e-2
0.2985957968213091,-2.201859044847354e-2
0.3113593463928084,-3.455630594523895e-2
0.32412289596430743,-3.0089737932455285e-2
0.33688644553580693,-2.4790703617234455e-2
0.349649995107306,-1.886772924572855e-2
0.36241354467880527,-1.5938331421144203e-2
0.37517709425030477,-1.3700487124830185e-2
0.38794064382180404,-2.5058145213926464e-2
0.4007041933933033,-1.9579097416589475e-2
0.4134677429648024,-1.6992624216024765e-2
0.4262312925363019,-1.4988572143135759e-2
0.43899484210780093,-2.53245946042725e-2
0.45175839167930043,-2.0226310464016906e-2
0.4645219412507995,-1.7830848808275346e-2
0.477285490822299,-2.889640821899475e-2
0.49004904039379804,-2.4953976245440268e-2
0.5028125899652975,-2.028288299550518e-2
0.5155761395367966,-1.8197034805641943e-2
0.5283396891082961,-2.8353058195650038e-2
0.5411032386797952,-2.4645997432160782e-2
0.5538667882512947,-2.0132195707572298e-2
0.5666303378227937,-1.8241551404644896e-2
0.579393887394293,-1.6986105274091168e-2
0.5921574369657925,-2.629673230089724e-2
0.6049209865372918,-2.2112420799819343e-2
0.6176845361087908,-2.034347213763099e-2
0.6304480856802903,-2.9533754012541213e-2
0.6432116352517894,-2.6161118461275557e-2
0.6559751848232886,-2.216982352219299e-2
0.6687387343947881,-2.0577903889260285e-2
0.6815022839662874,-1.9594422276700163e-2
0.6942658335377865,-2.9429926837845177e-2
0.707029383109286,-2.563623061642928e-2
0.719792932680785,-2.136677709542234e-2"/>
  </g>
</svg>