<svg xmlns="http://www.w3.org/2000/svg" height="300.0" viewBox="-0.895 -0.5487807950727883 1.6978200318237837 1.0950307950727884" width="450.0" xmlns:xlink="http://www.w3.org/1999/xlink"><g stroke-opacity="0.0" fill-opacity="0.1" stroke="#000000" stroke-width="0.0" fill="#cccccc"><rect height="0.8958566629339307" width="1.4039904528649207" x="-0.6586704210411369" y="-0.4955207166853305"/></g><g stroke-opacity="0.1" stroke="#808080" stroke-width="5.0e-3" fill="none"><polyline points="-0.6633503892173533,0.40033594624860025
0.75,0.40033594624860025"/></g><g stroke-opacity="0.1" stroke="#808080" stroke-width="5.0e-3" fill="none"><polyline points="-0.6633503892173533,0.3007963170337191
0.75,0.3007963170337191"/></g><g stroke-opacity="0.1" stroke="#808080" stroke-width="5.0e-3" fill="none"><polyline points="-0.6633503892173533,0.20125668781883788
0.75,0.20125668781883788"/></g><g stroke-opacity="0.1" stroke="#808080" stroke-width="5.0e-3" fill="none"><polyline points="-0.6633503892173533,0.10171705860395674
0.75,0.10171705860395674"/></g><g stroke-opacity="0.1" stroke="#808080" stroke-width="5.0e-3" fill="none"><polyline points="-0.6633503892173533,2.177429389075558e-3
0.75,2.177429389075558e-3"/></g><g stroke-opacity="0.1" stroke="#808080" stroke-width="5.0e-3" fill="none"><polyline points="-0.6633503892173533,-9.736219982580563e-2
0.75,-9.736219982580563e-2"/></g><g stroke-opacity="0.1" stroke="#808080" stroke-width="5.0e-3" fill="none"><polyline points="-0.6633503892173533,-0.19690182904068676
0.75,-0.19690182904068676"/></g><g stroke-opacity="0.1" stroke="#808080" stroke-width="5.0e-3" fill="none"><polyline points="-0.6633503892173533,-0.296441458255568
0.75,-0.296441458255568"/></g><g stroke-opacity="0.1" stroke="#808080" stroke-width="5.0e-3" fill="none"><polyline points="-0.6633503892173533,-0.39598108747044924
0.75,-0.39598108747044924"/></g><g stroke-opacity="0.1" stroke="#808080" stroke-width="5.0e-3" fill="none"><polyline points="-0.6633503892173533,-0.4955207166853305
0.75,-0.4955207166853305"/></g><g fill-opacity="0.8" font-size="5.0e-2" stroke="none" stroke-width="0.0" fill="#333333" text-anchor="end"><text x="-0.75" y="0.4133258678611422">1,000</text></g><g fill-opacity="0.8" font-size="5.0e-2" stroke="none" stroke-width="0.0" fill="#333333" text-anchor="end"><text x="-0.75" y="0.3137862386462611">1,500</text></g><g fill-opacity="0.8" font-size="5.0e-2" stroke="none" stroke-width="0.0" fill="#333333" text-anchor="end"><text x="-0.75" y="0.2142466094313799">2,000</text></g><g fill-opacity="0.8" font-size="5.0e-2" stroke="none" stroke-width="0.0" fill="#333333" text-anchor="end"><text x="-0.75" y="0.11470698021649872">2,500</text></g><g fill-opacity="0.8" font-size="5.0e-2" stroke="none" stroke-width="0.0" fill="#333333" text-anchor="end"><text x="-0.75" y="1.5167351001617535e-2">3,000</text></g><g fill-opacity="0.8" font-size="5.0e-2" stroke="none" stroke-width="0.0" fill="#333333" text-anchor="end"><text x="-0.75" y="-8.437227821326376e-2">3,500</text></g><g fill-opacity="0.8" font-size="5.0e-2" stroke="none" stroke-width="0.0" fill="#333333" text-anchor="end"><text x="-0.75" y="-0.1839119074281449">4,000</text></g><g fill-opacity="0.8" font-size="5.0e-2" stroke="none" stroke-width="0.0" fill="#333333" text-anchor="end"><text x="-0.75" y="-0.283451536643026">4,500</text></g><g fill-opacity="0.8" font-size="5.0e-2" stroke="none" stroke-width="0.0" fill="#333333" text-anchor="end"><text x="-0.75" y="-0.38299116585790705">5,000</text></g><g fill-opacity="0.8" font-size="5.0e-2" stroke="none" stroke-width="0.0" fill="#333333" text-anchor="end"><text x="-0.75" y="-0.4825307950727883">5,500</text></g><g stroke-opacity="0.5" fill-opacity="0.5" stroke="#570d66" stroke-width="5.0e-3" fill="#570d66"><g transform="rotate(-90.0, -0.7195100073319501, 0.40033594624860025)"><polyline points="-0.7195100073319501,0.41533594624860026
-0.7195100073319501,0.38533594624860024"/></g><g transform="rotate(-90.0, -0.7195100073319501, 0.3007963170337191)"><polyline points="-0.7195100073319501,0.31579631703371913
-0.7195100073319501,0.2857963170337191"/></g><g transform="rotate(-90.0, -0.7195100073319501, 0.20125668781883788)"><polyline points="-0.7195100073319501,0.2162566878188379
-0.7195100073319501,0.18625668781883786"/></g><g transform="rotate(-90.0, -0.7195100073319501, 0.10171705860395674)"><polyline points="-0.7195100073319501,0.11671705860395674
-0.7195100073319501,8.671705860395675e-2"/></g><g transform="rotate(-90.0, -0.7195100073319501, 2.177429389075558e-3)"><polyline points="-0.7195100073319501,1.7177429389075557e-2
-0.7195100073319501,-1.2822570610924441e-2"/></g><g transform="rotate(-90.0, -0.7195100073319501, -9.736219982580563e-2)"><polyline points="-0.7195100073319501,-8.236219982580563e-2
-0.7195100073319501,-0.11236219982580563"/></g><g transform="rotate(-90.0, -0.7195100073319501, -0.19690182904068676)"><polyline points="-0.7195100073319501,-0.18190182904068675
-0.7195100073319501,-0.21190182904068677"/></g><g transform="rotate(-90.0, -0.7195100073319501, -0.296441458255568)"><polyline points="-0.7195100073319501,-0.281441458255568
-0.7195100073319501,-0.311441458255568"/></g><g transform="rotate(-90.0, -0.7195100073319501, -0.39598108747044924)"><polyline points="-0.7195100073319501,-0.38098108747044923
-0.7195100073319501,-0.41098108747044926"/></g><g transform="rotate(-90.0, -0.7195100073319501, -0.4955207166853305)"><polyline points="-0.7195100073319501,-0.4805207166853305
-0.7195100073319501,-0.5105207166853305"/></g></g><g stroke-opacity="0.5" fill-opacity="0.5" stroke="#570d66" stroke-width="0.0" fill="#570d66"><rect height="0.8958566629339307" width="4.679968176216409e-3" x="-0.7078100868914091" y="-0.4955207166853305"/></g><g stroke-opacity="0.1" stroke="#808080" stroke-width="5.0e-3" fill="none"><polyline points="-0.6586704210411369,0.40481522956326993
-0.6586704210411369,-0.5"/></g><g stroke-opacity="0.1" stroke="#808080" stroke-width="5.0e-3" fill="none"><polyline points="-0.5310349253261442,0.40481522956326993
-0.5310349253261442,-0.5"/></g><g stroke-opacity="0.1" stroke="#808080" stroke-width="5.0e-3" fill="none"><polyline points="-0.4033994296111514,0.40481522956326993
-0.4033994296111514,-0.5"/></g><g stroke-opacity="0.1" stroke="#808080" stroke-width="5.0e-3" fill="none"><polyline points="-0.2757639338961586,0.40481522956326993
-0.2757639338961586,-0.5"/></g><g stroke-opacity="0.1" stroke="#808080" stroke-width="5.0e-3" fill="none"><polyline points="-0.14812843818116583,0.40481522956326993
-0.14812843818116583,-0.5"/></g><g stroke-opacity="0.1" stroke="#808080" stroke-width="5.0e-3" fill="none"><polyline points="-2.0492942466172948e-2,0.40481522956326993
-2.0492942466172948e-2,-0.5"/></g><g stroke-opacity="0.1" stroke="#808080" stroke-width="5.0e-3" fill="none"><polyline points="0.10714255324881983,0.40481522956326993
0.10714255324881983,-0.5"/></g><g stroke-opacity="0.1" stroke="#808080" stroke-width="5.0e-3" fill="none"><polyline points="0.2347780489638127,0.40481522956326993
0.2347780489638127,-0.5"/></g><g stroke-opacity="0.1" stroke="#808080" stroke-width="5.0e-3" fill="none"><polyline points="0.36241354467880527,0.40481522956326993
0.36241354467880527,-0.5"/></g><g stroke-opacity="0.1" stroke="#808080" stroke-width="5.0e-3" fill="none"><polyline points="0.49004904039379826,0.40481522956326993
0.49004904039379826,-0.5"/></g><g stroke-opacity="0.1" stroke="#808080" stroke-width="5.0e-3" fill="none"><polyline points="0.6176845361087908,0.40481522956326993
0.6176845361087908,-0.5"/></g><g stroke-opacity="0.1" stroke="#808080" stroke-width="5.0e-3" fill="none"><polyline points="0.7453200318237838,0.40481522956326993
0.7453200318237838,-0.5"/></g><g fill-opacity="0.8" font-size="5.0e-2" stroke="none" stroke-width="0.0" fill="#333333" text-anchor="middle"><text x="-0.6586704210411369" y="0.5">-10</text></g><g fill-opacity="0.8" font-size="5.0e-2" stroke="none" stroke-width="0.0" fill="#333333" text-anchor="middle"><text x="-0.5310349253261442" y="0.5">0</text></g><g fill-opacity="0.8" font-size="5.0e-2" stroke="none" stroke-width="0.0" fill="#333333" text-anchor="middle"><text x="-0.4033994296111514" y="0.5">10</text></g><g fill-opacity="0.8" font-size="5.0e-2" stroke="none" stroke-width="0.0" fill="#333333" text-anchor="middle"><text x="-0.2757639338961586" y="0.5">20</text></g><g fill-opacity="0.8" font-size="5.0e-2" stroke="none" stroke-width="0.0" fill="#333333" text-anchor="middle"><text x="-0.14812843818116583" y="0.5">30</text></g><g fill-opacity="0.8" font-size="5.0e-2" stroke="none" stroke-width="0.0" fill="#333333" text-anchor="middle"><text x="-2.0492942466172948e-2" y="0.5">40</text></g><g fill-opacity="0.8" font-size="5.0e-2" stroke="none" stroke-width="0.0" fill="#333333" text-anchor="middle"><text x="0.10714255324881983" y="0.5">50</text></g><g fill-opacity="0.8" font-size="5.0e-2" stroke="none" stroke-width="0.0" fill="#333333" text-anchor="middle"><text x="0.2347780489638127" y="0.5">60</text></g><g fill-opacity="0.8" font-size="5.0e-2" stroke="none" stroke-width="0.0" fill="#333333" text-anchor="middle"><text x="0.36241354467880527" y="0.5">70</text></g><g fill-opacity="0.8" font-size="5.0e-2" stroke="none" stroke-width="0.0" fill="#333333" text-anchor="middle"><text x="0.49004904039379826" y="0.5">80</text></g><g fill-opacity="0.8" font-size="5.0e-2" stroke="none" stroke-width="0.0" fill="#333333" text-anchor="middle"><text x="0.6176845361087908" y="0.5">90</text></g><g fill-opacity="0.8" font-size="5.0e-2" stroke="none" stroke-width="0.0" fill="#333333" text-anchor="middle"><text x="0.7453200318237838" y="0.5">100</text></g><g stroke-opacity="0.5" fill-opacity="0.5" stroke="#570d66" stroke-width="5.0e-3" fill="#570d66"><polyline points="-0.6586704210411369,0.4399720044792833
-0.6586704210411369,0.4099720044792833"/><polyline points="-0.5310349253261442,0.4399720044792833
-0.5310349253261442,0.4099720044792833"/><polyline points="-0.4033994296111514,0.4399720044792833
-0.4033994296111514,0.4099720044792833"/><polyline points="-0.2757639338961586,0.4399720044792833
-0.2757639338961586,0.4099720044792833"/><polyline points="-0.14812843818116583,0.4399720044792833
-0.14812843818116583,0.4099720044792833"/><polyline points="-2.0492942466172948e-2,0.4399720044792833
-2.0492942466172948e-2,0.4099720044792833"/><polyline points="0.10714255324881983,0.4399720044792833
0.10714255324881983,0.4099720044792833"/><polyline points="0.2347780489638127,0.4399720044792833
0.2347780489638127,0.4099720044792833"/><polyline points="0.36241354467880527,0.4399720044792833
0.36241354467880527,0.4099720044792833"/><polyline points="0.49004904039379826,0.4399720044792833
0.49004904039379826,0.4099720044792833"/><polyline points="0.6176845361087908,0.4399720044792833
0.6176845361087908,0.4099720044792833"/><polyline points="0.7453200318237838,0.4399720044792833
0.7453200318237838,0.4099720044792833"/></g><g stroke-opacity="0.5" fill-opacity="0.5" stroke="#570d66" stroke-width="0.0" fill="#570d66"><rect height="4.47928331466968e-3" width="1.4039904528649207" x="-0.6586704210411369" y="0.40929451287793955"/></g><g stroke-opacity="1.0" stroke="#0ea194" stroke-width="1.2e-2" fill="none"><polyline points="-0.5310349253261442,0.2197886900231864
-0.5182713757546449,0.2985252771638406
-0.5055078261831456,0.33010052947260843
-0.4927442766116463,0.33796718672355275
-0.479980727040147,0.32937153781339246
-0.4672171774686477,0.31748732599888235
-0.4544536278971485,0.3419453515658374
-0.44169007832564916,0.350835663434967
-0.4289265287541499,0.3493840547645617
-0.4161629791826506,0.3408937277788895
-0.4033994296111514,0.35602556949736197
-0.3906358800396521,0.3666506851122381
-0.37787233046815283,0.36921599987771414
-0.36510878089665355,0.3651158055543106
-0.3523452313251543,0.35725984701606517
-0.33958168175365494,0.36732593243864964
-0.3268181321821556,0.37135862623100346
-0.31405458261065644,0.3716721776981794
-0.3012910330391571,0.3662222890463819
-0.2885274834676579,0.3594089079261784
-0.2757639338961586,0.367169252649338
-0.2630003843246593,0.36856269295696953
-0.25023683475316005,0.365374681662296
-0.23747328518166078,0.35982329655668494
-0.2247097356101615,0.3665008266458202
-0.2119461860386621,0.3704158022959269
-0.19918263646716283,0.3707702388446291
-0.18641908689566367,0.3677416726064237
-0.17365553732416428,0.36237133454397974
-0.160891987752665,0.3679091048664096
-0.14812843818116583,0.3699969068116403
-0.13536488860966644,0.3695867521074305
-0.12260133903816728,0.36616925766914993
-0.109837789466668,0.36234521119056373
-9.707423989516861e-2,0.3671629345299126
-8.431069032366945e-2,0.36887349026864913
-7.154714075217017e-2,0.3680101272953549
-5.878359118067078e-2,0.3650597630750922
-4.60200416091715e-2,0.36936158195822
-3.3256492037672225e-2,0.37264826204968193
-2.0492942466172948e-2,0.37340480894002104
-7.72939289467367e-3,0.3718317713910535
5.034156676825496e-3,0.3687826384860893
1.7797706248324774e-2,0.37251718421158014
3.0561255819824162e-2,0.37435002556457925
4.332480539132333e-2,0.3744251605405956
5.6088354962822606e-2,0.37237235520544953
6.8851904534322e-2,0.36945347018416347
8.161545410582116e-2,0.3728154295598357
9.437900367732066e-2,0.373922860676366
0.10714255324881983,0.3730543316800625
0.119906102820319,0.3707584932606265
0.1326696523918185,0.3738660975623709
0.14543320196331766,0.3759518484854532
0.15819675153481683,0.376460587176824
0.1709603011063161,0.37493272356137725
0.1837238506778155,0.37245775968473527
0.19648740024931466,0.37527526328722044
0.20925094982081416,0.37660758208514583
0.22201449939231332,0.3765741007325182
0.2347780489638127,0.3748108899777558
0.24754159853531177,0.37239724369835225
0.26030514810681127,0.3750153130061556
0.2730686976783103,0.37578948681442587
0.2858322472498098,0.3750567736910054
0.2985957968213091,0.3730336833977106
0.3113593463928084,0.3754310571848589
0.32412289596430743,0.37699519950072474
0.33688644553580693,0.3773362368718519
0.349649995107306,0.37615229111478693
0.36241354467880527,0.373982334425521
0.37517709425030477,0.37627215475181397
0.38794064382180404,0.3772974214713628
0.4007041933933033,0.3772090864037586
0.4134677429648024,0.3757921879905237
0.4262312925363019,0.3738642737491314
0.43899484210780093,0.37600493396608886
0.45175839167930043,0.37663186752309297
0.4645219412507995,0.3759896436334925
0.477285490822299,0.3740858998134659
0.49004904039379804,0.3759944309551372
0.5028125899652975,0.37725563433833326
0.5155761395367966,0.37750683450943073
0.5283396891082961,0.3764711075213206
0.5411032386797952,0.37477604401341374
0.5538667882512947,0.3766949052910832
0.5666303378227937,0.377583190131015
0.579393887394293,0.3774809476886717
0.5921574369657925,0.37620519380739154
0.6049209865372918,0.37459074594493336
0.6176845361087908,0.37642266388065615
0.6304480856802903,0.37692738676395915
0.6432116352517894,0.37637301442598775
0.6559751848232886,0.3749369744080442
0.6687387343947881,0.3766924051253382
0.6815022839662874,0.37776949752469924
0.6942658335377865,0.37795148113737503
0.707029383109286,0.3770538289449972"/></g><g stroke-opacity="1.0" stroke="#0a865a" stroke-width="1.2e-2" fill="none"><polyline points="-0.5310349253261442,0.12775143210765572
-0.5182713757546449,-0.4595139435333152
-0.5055078261831456,-0.33556411511426587
-0.4927442766116463,-0.23091716355526304
-0.479980727040147,-0.213915233188266
-0.4672171774686477,-0.21407779040833297
-0.4544536278971485,-0.41990354114746664
-0.44169007832564916,-0.35089385208406465
-0.4289265287541499,-0.28432993092811865
-0.4161629791826506,-0.25834343785767433
-0.4033994296111514,-0.22715516254145796
-0.3906358800396521,-0.19164440482076361
-0.37787233046815283,-0.15450389141588527
-0.36510878089665355,-0.146469472111164
-0.3523452313251543,-0.14361559051358364
-0.33958168175365494,-0.247778249983443
-0.3268181321821556,-0.21672156785152652
-0.31405458261065644,-0.20778169267001256
-0.3012910330391571,-0.20271459203405617
-0.2885274834676579,-0.2879108193852957
-0.2757639338961586,-0.26118978282671423
-0.2630003843246593,-0.2530982515726047
-0.25023683475316005,-0.24788060420683755
-0.23747328518166078,-0.3175242192753147
-0.2247097356101615,-0.2939565105568155
-0.2119461860386621,-0.28685259386038076
-0.19918263646716283,-0.3493453683694975
-0.18641908689566367,-0.3312869966013402
-0.17365553732416428,-0.3105112477521632
-0.160891987752665,-0.3032925787569881
-0.14812843818116583,-0.2997368062250356
-0.13536488860966644,-0.35248857461045213
-0.12260133903816728,-0.3339144024044469
-0.109837789466668,-0.32798775904291866
-9.707423989516861e-2,-0.37708590105598017
-8.431069032366945e-2,-0.36275872094342765
-7.154714075217017e-2,-0.345937787454369
-5.878359118067078e-2,-0.3400785623789938
-4.60200416091715e-2,-0.38474983696325127
-3.3256492037672225e-2,-0.37195416245953716
-2.0492942466172948e-2,-0.3566639498823819
-7.72939289467367e-3,-0.3398955756655373
5.034156676825496e-3,-0.3323620018269098
1.7797706248324774e-2,-0.3268321710003995
3.0561255819824162e-2,-0.3655740834844273
4.332480539132333e-2,-0.3505586101725746
5.6088354962822606e-2,-0.3439857066756786
6.8851904534322e-2,-0.34020254944588924
8.161545410582116e-2,-0.3812282666490884
9.437900367732066e-2,-0.368583492390531
0.10714255324881983,-0.3634280125128202
0.119906102820319,-0.4035412708659829
0.1326696523918185,-0.39326064764648827
0.14543320196331766,-0.3801327453236034
0.15819675153481683,-0.37461471122446866
0.1709603011063161,-0.37098823881097864
0.1837238506778155,-0.4003391207636846
0.19648740024931466,-0.3882891850340321
0.20925094982081416,-0.3832871738177991
0.22201449939231332,-0.3799331707019227
0.2347780489638127,-0.407955860810718
0.24754159853531177,-0.396839105667538
0.26030514810681127,-0.39232590783178634
0.2730686976783103,-0.4192486886114226
0.2858322472498098,-0.41027794621289315
0.2985957968213091,-0.3997211356421755
0.3113593463928084,-0.39551303107098346
0.32412289596430743,-0.3926996757291986
0.33688644553580693,-0.41739898241935924
0.349649995107306,-0.40756696737605924
0.36241354467880527,-0.39652983517412277
0.37517709425030477,-0.3909992322699315
0.38794064382180404,-0.3868218678886013
0.4007041933933033,-0.4100687203753136
0.4134677429648024,-0.39992074926412813
0.4262312925363019,-0.39491843289190676
0.43899484210780093,-0.3911704667441648
0.45175839167930043,-0.4128060312425368
0.4645219412507995,-0.4033804685365142
0.477285490822299,-0.3993390951217104
0.49004904039379804,-0.42047839753630023
0.5028125899652975,-0.41267599823415124
0.5155761395367966,-0.4035328501899852
0.5283396891082961,-0.3996546462748706
0.5411032386797952,-0.39690961636568356
0.5538667882512947,-0.4164889544012149
0.5666303378227937,-0.4079892372307925
0.579393887394293,-0.4042680687412856
0.5921574369657925,-0.4236399768327408
0.6049209865372918,-0.4168798809953699
0.6176845361087908,-0.40873519259195445
0.6304480856802903,-0.40524748053938364
0.6432116352517894,-0.4028958008820934
0.6559751848232886,-0.4210156812499507
0.6687387343947881,-0.413490635882946
0.6815022839662874,-0.41033325330060455
0.6942658335377865,-0.42846156054202467
0.707029383109286,-0.42230047479484967"/></g></svg>