
<svg xmlns="http://www.w3.org/2000/svg" height="300.0" viewBox="-0.895 -0.5487415824915824 1.6978127197162634 1.0949915824915823" width="450.0" xmlns:xlink="http://www.w3.org/1999/xlink">
  <g stroke-opacity="0.0" fill-opacity="3.0e-2" stroke="#000000" stroke-width="0.0" fill="#666666">
    <rect height="0.8978675645342311" width="1.4061840851210101" x="-0.6608713654047467" y="-0.49551066217732875"/>
  </g>
  <g stroke-opacity="0.3" stroke="#a8e5ee" stroke-width="5.0e-3" fill="none">
    <polyline points="-0.6655586456884833,0.40235690235690236
0.75,0.40235690235690236"/>
  </g>
  <g stroke-opacity="0.3" stroke="#a8e5ee" stroke-width="5.0e-3" fill="none">
    <polyline points="-0.6655586456884833,0.2740901074234408
0.75,0.2740901074234408"/>
  </g>
  <g stroke-opacity="0.3" stroke="#a8e5ee" stroke-width="5.0e-3" fill="none">
    <polyline points="-0.6655586456884833,0.1458233124899792
0.75,0.1458233124899792"/>
  </g>
  <g stroke-opacity="0.3" stroke="#a8e5ee" stroke-width="5.0e-3" fill="none">
    <polyline points="-0.6655586456884833,1.7556517556517603e-2
0.75,1.7556517556517603e-2"/>
  </g>
  <g stroke-opacity="0.3" stroke="#a8e5ee" stroke-width="5.0e-3" fill="none">
    <polyline points="-0.6655586456884833,-0.11071027737694394
0.75,-0.11071027737694394"/>
  </g>
  <g stroke-opacity="0.3" stroke="#a8e5ee" stroke-width="5.0e-3" fill="none">
    <polyline points="-0.6655586456884833,-0.23897707231040555
0.75,-0.23897707231040555"/>
  </g>
  <g stroke-opacity="0.3" stroke="#a8e5ee" stroke-width="5.0e-3" fill="none">
    <polyline points="-0.6655586456884833,-0.36724386724386715
0.75,-0.36724386724386715"/>
  </g>
  <g stroke-opacity="0.3" stroke="#a8e5ee" stroke-width="5.0e-3" fill="none">
    <polyline points="-0.6655586456884833,-0.49551066217732875
0.75,-0.49551066217732875"/>
  </g>
  <g fill-opacity="1.0" font-size="5.0e-2" stroke="none" stroke-width="0.0" fill="#666666" text-anchor="end">
    <text x="-0.75" y="0.41537598204264864">1,000
    </text>
  </g>
  <g fill-opacity="1.0" font-size="5.0e-2" stroke="none" stroke-width="0.0" fill="#666666" text-anchor="end">
    <text x="-0.75" y="0.28710918710918715">2,000
    </text>
  </g>
  <g fill-opacity="1.0" font-size="5.0e-2" stroke="none" stroke-width="0.0" fill="#666666" text-anchor="end">
    <text x="-0.75" y="0.15884239217572554">3,000
    </text>
  </g>
  <g fill-opacity="1.0" font-size="5.0e-2" stroke="none" stroke-width="0.0" fill="#666666" text-anchor="end">
    <text x="-0.75" y="3.057559724226394e-2">4,000
    </text>
  </g>
  <g fill-opacity="1.0" font-size="5.0e-2" stroke="none" stroke-width="0.0" fill="#666666" text-anchor="end">
    <text x="-0.75" y="-9.76911976911976e-2">5,000
    </text>
  </g>
  <g fill-opacity="1.0" font-size="5.0e-2" stroke="none" stroke-width="0.0" fill="#666666" text-anchor="end">
    <text x="-0.75" y="-0.2259579926246592">6,000
    </text>
  </g>
  <g fill-opacity="1.0" font-size="5.0e-2" stroke="none" stroke-width="0.0" fill="#666666" text-anchor="end">
    <text x="-0.75" y="-0.3542247875581207">7,000
    </text>
  </g>
  <g fill-opacity="1.0" font-size="5.0e-2" stroke="none" stroke-width="0.0" fill="#666666" text-anchor="end">
    <text x="-0.75" y="-0.4824915824915824">8,000
    </text>
  </g>
  <g stroke-opacity="0.4" fill-opacity="1.0" stroke="#2c429d" stroke-width="5.0e-3" fill="#5f0391">
    <g transform="rotate(-90.0, -0.7194623689514554, 0.40235690235690236)">
      <polyline points="-0.7194623689514554,0.41735690235690237
-0.7194623689514554,0.38735690235690234"/>
    </g>
    <g transform="rotate(-90.0, -0.7194623689514554, 0.2740901074234408)">
      <polyline points="-0.7194623689514554,0.2890901074234408
-0.7194623689514554,0.2590901074234408"/>
    </g>
    <g transform="rotate(-90.0, -0.7194623689514554, 0.1458233124899792)">
      <polyline points="-0.7194623689514554,0.16082331248997922
-0.7194623689514554,0.1308233124899792"/>
    </g>
    <g transform="rotate(-90.0, -0.7194623689514554, 1.7556517556517603e-2)">
      <polyline points="-0.7194623689514554,3.25565175565176e-2
-0.7194623689514554,2.556517556517604e-3"/>
    </g>
    <g transform="rotate(-90.0, -0.7194623689514554, -0.11071027737694394)">
      <polyline points="-0.7194623689514554,-9.571027737694394e-2
-0.7194623689514554,-0.12571027737694396"/>
    </g>
    <g transform="rotate(-90.0, -0.7194623689514554, -0.23897707231040555)">
      <polyline points="-0.7194623689514554,-0.22397707231040553
-0.7194623689514554,-0.25397707231040556"/>
    </g>
    <g transform="rotate(-90.0, -0.7194623689514554, -0.36724386724386715)">
      <polyline points="-0.7194623689514554,-0.35224386724386714
-0.7194623689514554,-0.38224386724386716"/>
    </g>
    <g transform="rotate(-90.0, -0.7194623689514554, -0.49551066217732875)">
      <polyline points="-0.7194623689514554,-0.48051066217732874
-0.7194623689514554,-0.5105106621773288"/>
    </g>
  </g>
  <g stroke-opacity="0.0" fill-opacity="0.5" stroke="#666666" stroke-width="0.0" fill="#5f0391">
    <rect height="0.8978675645342311" width="4.687280283736772e-3" x="-0.710087808383982" y="-0.49551066217732875"/>
  </g>
  <g stroke-opacity="0.3" stroke="#a8e5ee" stroke-width="5.0e-3" fill="none">
    <polyline points="-0.6608713654047467,0.4068462401795735
-0.6608713654047467,-0.5"/>
  </g>
  <g stroke-opacity="0.3" stroke="#a8e5ee" stroke-width="5.0e-3" fill="none">
    <polyline points="-0.5330364485755639,0.4068462401795735
-0.5330364485755639,-0.5"/>
  </g>
  <g stroke-opacity="0.3" stroke="#a8e5ee" stroke-width="5.0e-3" fill="none">
    <polyline points="-0.4052015317463812,0.4068462401795735
-0.4052015317463812,-0.5"/>
  </g>
  <g stroke-opacity="0.3" stroke="#a8e5ee" stroke-width="5.0e-3" fill="none">
    <polyline points="-0.2773666149171985,0.4068462401795735
-0.2773666149171985,-0.5"/>
  </g>
  <g stroke-opacity="0.3" stroke="#a8e5ee" stroke-width="5.0e-3" fill="none">
    <polyline points="-0.1495316980880157,0.4068462401795735
-0.1495316980880157,-0.5"/>
  </g>
  <g stroke-opacity="0.3" stroke="#a8e5ee" stroke-width="5.0e-3" fill="none">
    <polyline points="-2.169678125883301e-2,0.4068462401795735
-2.169678125883301e-2,-0.5"/>
  </g>
  <g stroke-opacity="0.3" stroke="#a8e5ee" stroke-width="5.0e-3" fill="none">
    <polyline points="0.10613813557034968,0.4068462401795735
0.10613813557034968,-0.5"/>
  </g>
  <g stroke-opacity="0.3" stroke="#a8e5ee" stroke-width="5.0e-3" fill="none">
    <polyline points="0.23397305239953248,0.4068462401795735
0.23397305239953248,-0.5"/>
  </g>
  <g stroke-opacity="0.3" stroke="#a8e5ee" stroke-width="5.0e-3" fill="none">
    <polyline points="0.36180796922871505,0.4068462401795735
0.36180796922871505,-0.5"/>
  </g>
  <g stroke-opacity="0.3" stroke="#a8e5ee" stroke-width="5.0e-3" fill="none">
    <polyline points="0.4896428860578981,0.4068462401795735
0.4896428860578981,-0.5"/>
  </g>
  <g stroke-opacity="0.3" stroke="#a8e5ee" stroke-width="5.0e-3" fill="none">
    <polyline points="0.6174778028870804,0.4068462401795735
0.6174778028870804,-0.5"/>
  </g>
  <g stroke-opacity="0.3" stroke="#a8e5ee" stroke-width="5.0e-3" fill="none">
    <polyline points="0.7453127197162634,0.4068462401795735
0.7453127197162634,-0.5"/>
  </g>
  <g fill-opacity="1.0" font-size="5.0e-2" stroke="none" stroke-width="0.0" fill="#666666" text-anchor="middle">
    <text x="-0.6608713654047467" y="0.5">-10
    </text>
  </g>
  <g fill-opacity="1.0" font-size="5.0e-2" stroke="none" stroke-width="0.0" fill="#666666" text-anchor="middle">
    <text x="-0.5330364485755639" y="0.5">0
    </text>
  </g>
  <g fill-opacity="1.0" font-size="5.0e-2" stroke="none" stroke-width="0.0" fill="#666666" text-anchor="middle">
    <text x="-0.4052015317463812" y="0.5">10
    </text>
  </g>
  <g fill-opacity="1.0" font-size="5.0e-2" stroke="none" stroke-width="0.0" fill="#666666" text-anchor="middle">
    <text x="-0.2773666149171985" y="0.5">20
    </text>
  </g>
  <g fill-opacity="1.0" font-size="5.0e-2" stroke="none" stroke-width="0.0" fill="#666666" text-anchor="middle">
    <text x="-0.1495316980880157" y="0.5">30
    </text>
  </g>
  <g fill-opacity="1.0" font-size="5.0e-2" stroke="none" stroke-width="0.0" fill="#666666" text-anchor="middle">
    <text x="-2.169678125883301e-2" y="0.5">40
    </text>
  </g>
  <g fill-opacity="1.0" font-size="5.0e-2" stroke="none" stroke-width="0.0" fill="#666666" text-anchor="middle">
    <text x="0.10613813557034968" y="0.5">50
    </text>
  </g>
  <g fill-opacity="1.0" font-size="5.0e-2" stroke="none" stroke-width="0.0" fill="#666666" text-anchor="middle">
    <text x="0.23397305239953248" y="0.5">60
    </text>
  </g>
  <g fill-opacity="1.0" font-size="5.0e-2" stroke="none" stroke-width="0.0" fill="#666666" text-anchor="middle">
    <text x="0.36180796922871505" y="0.5">70
    </text>
  </g>
  <g fill-opacity="1.0" font-size="5.0e-2" stroke="none" stroke-width="0.0" fill="#666666" text-anchor="middle">
    <text x="0.4896428860578981" y="0.5">80
    </text>
  </g>
  <g fill-opacity="1.0" font-size="5.0e-2" stroke="none" stroke-width="0.0" fill="#666666" text-anchor="middle">
    <text x="0.6174778028870804" y="0.5">90
    </text>
  </g>
  <g fill-opacity="1.0" font-size="5.0e-2" stroke="none" stroke-width="0.0" fill="#666666" text-anchor="middle">
    <text x="0.7453127197162634" y="0.5">100
    </text>
  </g>
  <g stroke-opacity="0.4" fill-opacity="1.0" stroke="#2c429d" stroke-width="5.0e-3" fill="#5f0391">
    <polyline points="-0.6608713654047467,0.43980359147025816
-0.6608713654047467,0.40980359147025813"/>
    <polyline points="-0.5330364485755639,0.43980359147025816
-0.5330364485755639,0.40980359147025813"/>
    <polyline points="-0.4052015317463812,0.43980359147025816
-0.4052015317463812,0.40980359147025813"/>
    <polyline points="-0.2773666149171985,0.43980359147025816
-0.2773666149171985,0.40980359147025813"/>
    <polyline points="-0.1495316980880157,0.43980359147025816
-0.1495316980880157,0.40980359147025813"/>
    <polyline points="-2.169678125883301e-2,0.43980359147025816
-2.169678125883301e-2,0.40980359147025813"/>
    <polyline points="0.10613813557034968,0.43980359147025816
0.10613813557034968,0.40980359147025813"/>
    <polyline points="0.23397305239953248,0.43980359147025816
0.23397305239953248,0.40980359147025813"/>
    <polyline points="0.36180796922871505,0.43980359147025816
0.36180796922871505,0.40980359147025813"/>
    <polyline points="0.4896428860578981,0.43980359147025816
0.4896428860578981,0.40980359147025813"/>
    <polyline points="0.6174778028870804,0.43980359147025816
0.6174778028870804,0.40980359147025813"/>
    <polyline points="0.7453127197162634,0.43980359147025816
0.7453127197162634,0.40980359147025813"/>
  </g>
  <g stroke-opacity="0.0" fill-opacity="0.5" stroke="#666666" stroke-width="0.0" fill="#5f0391">
    <rect height="4.489337822671191e-3" width="1.4061840851210101" x="-0.6608713654047467" y="0.41133557800224463"/>
  </g>
  <g stroke-opacity="0.5" stroke="#026062" stroke-width="2.0e-2" fill="none">
    <polyline points="-0.5330364485755639,-0.47425958231641063
-0.5202529568926456,-0.1880061422190129
-0.5074694652097274,-5.961256152177974e-2
-0.4946859735268091,5.728866015152989e-3
-0.4819024818438908,8.62037915510841e-2
-0.46911899016097247,0.1360346622326512
-0.4563354984780543,0.16835475178715298
-0.443552006795136,0.18473773768453178
-0.4307685151122177,0.1933450693502739
-0.41798502342929944,0.22035047207735575
-0.4052015317463812,0.23796678335837623
-0.3924180400634629,0.24847561865580103
-0.37963454838054467,0.25274859205148326
-0.3668510566976264,0.2548084431437603
-0.35406756501470815,0.2696314658148225
-0.3412840733317899,0.2769577783981182
-0.3285005816488715,0.281342086023682
-0.31571708996595327,0.28333506662539365
-0.302933598283035,0.29381794861745675
-0.29015010660011675,0.3020023840167386
-0.2773666149171985,0.306232426981878
-0.2645831232342801,0.3064361000307305
-0.251799631551362,0.3023741360753498
-0.2390161398684436,0.3094772394479026
-0.22623264818552535,0.31124774280664935
-0.2134491565026071,0.31324685687608156
-0.20066566481968873,0.3128428524434843
-0.18788217313677058,0.3116915307767526
-0.1750986814538522,0.317734477805897
-0.16231518977093395,0.32074469941128037
-0.1495316980880157,0.32153851168770187
-0.13674820640509744,0.32038466785936237
-0.12396471472217918,0.3254692890004534
-0.11118122303926103,0.3290693594057812
-9.839773135634267e-2,0.3309309984553078
-8.561423967342452e-2,0.33071597001153274
-7.283074799050615e-2,0.3294187451710898
-6.004725630758789e-2,0.33362259059502675
-4.7263764624669524e-2,0.33604611651632027
-3.448027294175127e-2,0.3366660123517913
-2.169678125883301e-2,0.3357372712110008
-8.913289575914751e-3,0.33449132487390015
3.8702021070035064e-3,0.33811084460946417
1.6653693789921764e-2,0.3397850834183871
2.9437185472840022e-2,0.3396240899587346
4.22206771557585e-2,0.33813010538445154
5.500416883867654e-2,0.341382290701662
6.778766052159502e-2,0.3436100759659121
8.057115220451305e-2,0.34447481728776763
9.335464388743153e-2,0.3440421399675271
0.10613813557034968,0.34274814410382665
0.11892162725326805,0.34561158386830704
0.1317051189361862,0.3471615767569657
0.14448861061910467,0.3471602460944236
0.1572721023020227,0.3462201946846859
0.17005559398494108,0.3449061882615607
0.18283908566785922,0.34748231153859843
0.1956225773507776,0.3485346572167354
0.20840606903369596,0.34839042836463335
0.22118956071661422,0.34570261247670864
0.23397305239953248,0.348108741890858
0.24675654408245062,0.349499852447574
0.2595400357653692,0.34923194256166623
0.27232352744828736,0.34829373593101576
0.2851070191312055,0.3467634840326184
0.29789051081412365,0.3489497164622861
0.31067400249704225,0.3499129088630195
0.3234574941799604,0.3498252879676531
0.33624098586287876,0.34905282486716926
0.3490244775457967,0.3480267980353263
0.36180796922871505,0.3500496847559282
0.3745914609116334,0.3508467905688285
0.3873749525945518,0.3506875877623191
0.40015844427746994,0.34977618612603967
0.4129419359603881,0.35170142988178854
0.4257254276433067,0.3529650004222302
0.4385089193262248,0.35347514408920605
0.45129241100914297,0.3529293586413321
0.46407590269206134,0.3520247304471495
0.4768593943749797,0.35379825830110756
0.48964288605789785,0.35473406315921396
0.5024263777408162,0.3548108740505197
0.5152098694237344,0.35414581710647647
0.5279933611066525,0.35320565446527064
0.5407768527895711,0.35487010638163385
0.5535603444724893,0.3555011265903243
0.5663438361554074,0.3552998726218123
0.5791273278383255,0.35431085595415557
0.5919108195212441,0.3558972044157174
0.6046943112041623,0.35690846472367466
0.6174778028870804,0.3572526612099424
0.6302612945699988,0.35682655888466513
0.6430447862529172,0.35597227897194605
0.6558282779358353,0.35745698060526976
0.6686117696187537,0.3581934337038829
0.6813952613016718,0.35816640327507515
0.6941787529845902,0.35755159725168073
0.7069622446675086,0.3567279002660805
0.7197457363504267,0.3581323935383632"/>
  </g>
  <g stroke-opacity="0.5" stroke="#0ea194" stroke-width="2.0e-2" fill="none">
    <polyline points="-0.5330364485755639,1.2666639941744162e-2
-0.5202529568926456,-0.44854059673040014
-0.5074694652097274,-0.2589527126936896
-0.4946859735268091,-0.19811039068453073
-0.4819024818438908,-0.1712522250437294
-0.46911899016097247,-0.3490516784776708
-0.4563354984780543,-0.267133227033337
-0.443552006795136,-0.1949926955016703
-0.4307685151122177,-0.16122074723153001
-0.41798502342929944,-0.14271844667366773
-0.4052015317463812,-0.2454660014504979
-0.3924180400634629,-0.19839013611900813
-0.37963454838054467,-0.17628171823142202
-0.3668510566976264,-0.16140605324120616
-0.35406756501470815,-0.23211630109145454
-0.3412840733317899,-0.19741007524325493
-0.3285005816488715,-0.18164168007111225
-0.31571708996595327,-0.1693620296031999
-0.302933598283035,-0.23139705263620136
-0.29015010660011675,-0.20695185743405842
-0.2773666149171985,-0.2004155873543333
-0.2645831232342801,-0.19114080695064106
-0.251799631551362,-0.25283306463484245
-0.2390161398684436,-0.23427963151191544
-0.22623264818552535,-0.2239844260555347
-0.2134491565026071,-0.2768520628107365
-0.20066566481968873,-0.2578834208576901
-0.18788217313677058,-0.2371640845529558
-0.1750986814538522,-0.22730387789892947
-0.16231518977093395,-0.2200463410328618
-0.1495316980880157,-0.2579437387099899
-0.13674820640509744,-0.2404146275212904
-0.12396471472217918,-0.23199329356659537
-0.11118122303926103,-0.2648923001246868
-9.839773135634267e-2,-0.25109216485196295
-8.561423967342452e-2,-0.23552633823213265
-7.283074799050615e-2,-0.22828999102885528
-6.004725630758789e-2,-0.25914046584470884
-4.7263764624669524e-2,-0.24697481369502405
-3.448027294175127e-2,-0.23323113530795647
-2.169678125883301e-2,-0.21845426209773888
-8.913289575914751e-3,-0.21053533248058343
3.8702021070035064e-3,-0.20432990307133614
1.6653693789921764e-2,-0.23206836334460634
2.9437185472840022e-2,-0.2195380599875617
4.22206771557585e-2,-0.21307353449597588
5.500416883867654e-2,-0.20765031520639032
6.778766052159502e-2,-0.23059503870756237
8.057115220451305e-2,-0.21869447240581819
9.335464388743153e-2,-0.21275160059940146
0.10613813557034968,-0.2352124527441899
0.11892162725326805,-0.22574525298583492
0.1317051189361862,-0.21488418508736784
0.14448861061910467,-0.20993943729585485
0.1572721023020227,-0.23127280718618615
0.17005559398494108,-0.22260206979869934
0.18283908566785922,-0.21271242222775344
0.1956225773507776,-0.20824851987048587
0.20840606903369596,-0.205282130998385
0.22118956071661422,-0.2257649775684013
0.23397305239953248,-0.21668657729859198
0.24675654408245062,-0.2123070291991077
0.2595400357653692,-0.2310042292579071
0.27232352744828736,-0.2237438411846443
0.2851070191312055,-0.21526416002461457
0.29789051081412365,-0.21131371120119935
0.31067400249704225,-0.20850853408615388
0.3234574941799604,-0.22553655071390966
0.33624098586287876,-0.21808550528156967
0.3490244775457967,-0.209415124014959
0.36180796922871505,-0.20476048185107887
0.3745914609116334,-0.2012054348361566
0.3873749525945518,-0.2176873001877624
0.40015844427746994,-0.2097023293001008
0.4129419359603881,-0.20558879159840016
0.4257254276433067,-0.20219805893664533
0.4385089193262248,-0.21752429345017144
0.45129241100914297,-0.21075537069935346
0.46407590269206134,-0.20893375541479353
0.4768593943749797,-0.2243775256290511
0.48964288605789785,-0.22027060498958462
0.5024263777408162,-0.2136078752637538
0.5152098694237344,-0.21203969894040098
0.5279933611066525,-0.20950682677189092
0.5407768527895711,-0.22606738544630978
0.5535603444724893,-0.2194731417893686
0.5663438361554074,-0.21711428266430655
0.5791273278383255,-0.23070859133541866
0.5919108195212441,-0.22527131228721908
0.6046943112041623,-0.2188757929643801
0.6174778028870804,-0.21576948147878783
0.6302612945699988,-0.21349831852068102
0.6430447862529172,-0.22653078190575826
0.6558282779358353,-0.2205913456715436
0.6686117696187537,-0.21775130939844667
0.6813952613016718,-0.21565424269656952
0.6941787529845902,-0.22850838351164982
0.7069622446675086,-0.22287732856147957
0.7197457363504267,-0.21655755424522738"/>
  </g>
</svg>