
<svg xmlns="http://www.w3.org/2000/svg" height="300.0" viewBox="-0.92 -0.5487415824915824 1.7228127197162635 1.0949915824915823" width="450.0" xmlns:xlink="http://www.w3.org/1999/xlink">
  <g stroke-opacity="0.0" fill-opacity="3.0e-2" stroke="#000000" stroke-width="0.0" fill="#666666">
    <rect height="0.8978675645342313" width="1.4061840851210101" x="-0.6608713654047467" y="-0.495510662177329"/>
  </g>
  <g stroke-opacity="0.3" stroke="#a8e5ee" stroke-width="5.0e-3" fill="none">
    <polyline points="-0.6655586456884833,0.40235690235690236
0.75,0.40235690235690236"/>
  </g>
  <g stroke-opacity="0.3" stroke="#a8e5ee" stroke-width="5.0e-3" fill="none">
    <polyline points="-0.6655586456884833,0.32073257830833585
0.75,0.32073257830833585"/>
  </g>
  <g stroke-opacity="0.3" stroke="#a8e5ee" stroke-width="5.0e-3" fill="none">
    <polyline points="-0.6655586456884833,0.2391082542597694
0.75,0.2391082542597694"/>
  </g>
  <g stroke-opacity="0.3" stroke="#a8e5ee" stroke-width="5.0e-3" fill="none">
    <polyline points="-0.6655586456884833,0.15748393021120294
0.75,0.15748393021120294"/>
  </g>
  <g stroke-opacity="0.3" stroke="#a8e5ee" stroke-width="5.0e-3" fill="none">
    <polyline points="-0.6655586456884833,7.585960616263643e-2
0.75,7.585960616263643e-2"/>
  </g>
  <g stroke-opacity="0.3" stroke="#a8e5ee" stroke-width="5.0e-3" fill="none">
    <polyline points="-0.6655586456884833,-5.764717885929915e-3
0.75,-5.764717885929915e-3"/>
  </g>
  <g stroke-opacity="0.3" stroke="#a8e5ee" stroke-width="5.0e-3" fill="none">
    <polyline points="-0.6655586456884833,-8.738904193449648e-2
0.75,-8.738904193449648e-2"/>
  </g>
  <g stroke-opacity="0.3" stroke="#a8e5ee" stroke-width="5.0e-3" fill="none">
    <polyline points="-0.6655586456884833,-0.16901336598306294
0.75,-0.16901336598306294"/>
  </g>
  <g stroke-opacity="0.3" stroke="#a8e5ee" stroke-width="5.0e-3" fill="none">
    <polyline points="-0.6655586456884833,-0.2506376900316295
0.75,-0.2506376900316295"/>
  </g>
  <g stroke-opacity="0.3" stroke="#a8e5ee" stroke-width="5.0e-3" fill="none">
    <polyline points="-0.6655586456884833,-0.33226201408019596
0.75,-0.33226201408019596"/>
  </g>
  <g stroke-opacity="0.3" stroke="#a8e5ee" stroke-width="5.0e-3" fill="none">
    <polyline points="-0.6655586456884833,-0.4138863381287624
0.75,-0.4138863381287624"/>
  </g>
  <g stroke-opacity="0.3" stroke="#a8e5ee" stroke-width="5.0e-3" fill="none">
    <polyline points="-0.6655586456884833,-0.495510662177329
0.75,-0.495510662177329"/>
  </g>
  <g fill-opacity="1.0" font-size="5.0e-2" stroke="none" stroke-width="0.0" fill="#666666" text-anchor="end">
    <text x="-0.75" y="0.41537598204264864">2,000
    </text>
  </g>
  <g fill-opacity="1.0" font-size="5.0e-2" stroke="none" stroke-width="0.0" fill="#666666" text-anchor="end">
    <text x="-0.75" y="0.33375165799408224">4,000
    </text>
  </g>
  <g fill-opacity="1.0" font-size="5.0e-2" stroke="none" stroke-width="0.0" fill="#666666" text-anchor="end">
    <text x="-0.75" y="0.2521273339455158">6,000
    </text>
  </g>
  <g fill-opacity="1.0" font-size="5.0e-2" stroke="none" stroke-width="0.0" fill="#666666" text-anchor="end">
    <text x="-0.75" y="0.17050300989694928">8,000
    </text>
  </g>
  <g fill-opacity="1.0" font-size="5.0e-2" stroke="none" stroke-width="0.0" fill="#666666" text-anchor="end">
    <text x="-0.75" y="8.887868584838282e-2">10,000
    </text>
  </g>
  <g fill-opacity="1.0" font-size="5.0e-2" stroke="none" stroke-width="0.0" fill="#666666" text-anchor="end">
    <text x="-0.75" y="7.254361799816367e-3">12,000
    </text>
  </g>
  <g fill-opacity="1.0" font-size="5.0e-2" stroke="none" stroke-width="0.0" fill="#666666" text-anchor="end">
    <text x="-0.75" y="-7.436996224875014e-2">14,000
    </text>
  </g>
  <g fill-opacity="1.0" font-size="5.0e-2" stroke="none" stroke-width="0.0" fill="#666666" text-anchor="end">
    <text x="-0.75" y="-0.1559942862973167">16,000
    </text>
  </g>
  <g fill-opacity="1.0" font-size="5.0e-2" stroke="none" stroke-width="0.0" fill="#666666" text-anchor="end">
    <text x="-0.75" y="-0.23761861034588305">18,000
    </text>
  </g>
  <g fill-opacity="1.0" font-size="5.0e-2" stroke="none" stroke-width="0.0" fill="#666666" text-anchor="end">
    <text x="-0.75" y="-0.3192429343944496">20,000
    </text>
  </g>
  <g fill-opacity="1.0" font-size="5.0e-2" stroke="none" stroke-width="0.0" fill="#666666" text-anchor="end">
    <text x="-0.75" y="-0.4008672584430161">22,000
    </text>
  </g>
  <g fill-opacity="1.0" font-size="5.0e-2" stroke="none" stroke-width="0.0" fill="#666666" text-anchor="end">
    <text x="-0.75" y="-0.4824915824915824">24,000
    </text>
  </g>
  <g stroke-opacity="0.4" fill-opacity="1.0" stroke="#2c429d" stroke-width="5.0e-3" fill="#5f0391">
    <g transform="rotate(-90.0, -0.7194623689514554, 0.40235690235690236)">
      <polyline points="-0.7194623689514554,0.41735690235690237
-0.7194623689514554,0.38735690235690234"/>
    </g>
    <g transform="rotate(-90.0, -0.7194623689514554, 0.32073257830833585)">
      <polyline points="-0.7194623689514554,0.33573257830833586
-0.7194623689514554,0.30573257830833583"/>
    </g>
    <g transform="rotate(-90.0, -0.7194623689514554, 0.2391082542597694)">
      <polyline points="-0.7194623689514554,0.2541082542597694
-0.7194623689514554,0.22410825425976938"/>
    </g>
    <g transform="rotate(-90.0, -0.7194623689514554, 0.15748393021120294)">
      <polyline points="-0.7194623689514554,0.17248393021120295
-0.7194623689514554,0.14248393021120292"/>
    </g>
    <g transform="rotate(-90.0, -0.7194623689514554, 7.585960616263643e-2)">
      <polyline points="-0.7194623689514554,9.085960616263643e-2
-0.7194623689514554,6.085960616263643e-2"/>
    </g>
    <g transform="rotate(-90.0, -0.7194623689514554, -5.764717885929915e-3)">
      <polyline points="-0.7194623689514554,9.235282114070084e-3
-0.7194623689514554,-2.0764717885929915e-2"/>
    </g>
    <g transform="rotate(-90.0, -0.7194623689514554, -8.738904193449648e-2)">
      <polyline points="-0.7194623689514554,-7.238904193449648e-2
-0.7194623689514554,-0.10238904193449648"/>
    </g>
    <g transform="rotate(-90.0, -0.7194623689514554, -0.16901336598306294)">
      <polyline points="-0.7194623689514554,-0.15401336598306292
-0.7194623689514554,-0.18401336598306295"/>
    </g>
    <g transform="rotate(-90.0, -0.7194623689514554, -0.2506376900316295)">
      <polyline points="-0.7194623689514554,-0.2356376900316295
-0.7194623689514554,-0.2656376900316295"/>
    </g>
    <g transform="rotate(-90.0, -0.7194623689514554, -0.33226201408019596)">
      <polyline points="-0.7194623689514554,-0.31726201408019594
-0.7194623689514554,-0.34726201408019597"/>
    </g>
    <g transform="rotate(-90.0, -0.7194623689514554, -0.4138863381287624)">
      <polyline points="-0.7194623689514554,-0.3988863381287624
-0.7194623689514554,-0.4288863381287624"/>
    </g>
    <g transform="rotate(-90.0, -0.7194623689514554, -0.495510662177329)">
      <polyline points="-0.7194623689514554,-0.48051066217732896
-0.7194623689514554,-0.510510662177329"/>
    </g>
  </g>
  <g stroke-opacity="0.0" fill-opacity="0.5" stroke="#666666" stroke-width="0.0" fill="#5f0391">
    <rect height="0.8978675645342313" width="4.687280283736772e-3" x="-0.710087808383982" y="-0.495510662177329"/>
  </g>
  <g stroke-opacity="0.3" stroke="#a8e5ee" stroke-width="5.0e-3" fill="none">
    <polyline points="-0.6608713654047467,0.4068462401795735
-0.6608713654047467,-0.5"/>
  </g>
  <g stroke-opacity="0.3" stroke="#a8e5ee" stroke-width="5.0e-3" fill="none">
    <polyline points="-0.5330364485755639,0.4068462401795735
-0.5330364485755639,-0.5"/>
  </g>
  <g stroke-opacity="0.3" stroke="#a8e5ee" stroke-width="5.0e-3" fill="none">
    <polyline points="-0.4052015317463812,0.4068462401795735
-0.4052015317463812,-0.5"/>
  </g>
  <g stroke-opacity="0.3" stroke="#a8e5ee" stroke-width="5.0e-3" fill="none">
    <polyline points="-0.2773666149171985,0.4068462401795735
-0.2773666149171985,-0.5"/>
  </g>
  <g stroke-opacity="0.3" stroke="#a8e5ee" stroke-width="5.0e-3" fill="none">
    <polyline points="-0.1495316980880157,0.4068462401795735
-0.1495316980880157,-0.5"/>
  </g>
  <g stroke-opacity="0.3" stroke="#a8e5ee" stroke-width="5.0e-3" fill="none">
    <polyline points="-2.169678125883301e-2,0.4068462401795735
-2.169678125883301e-2,-0.5"/>
  </g>
  <g stroke-opacity="0.3" stroke="#a8e5ee" stroke-width="5.0e-3" fill="none">
    <polyline points="0.10613813557034968,0.4068462401795735
0.10613813557034968,-0.5"/>
  </g>
  <g stroke-opacity="0.3" stroke="#a8e5ee" stroke-width="5.0e-3" fill="none">
    <polyline points="0.23397305239953248,0.4068462401795735
0.23397305239953248,-0.5"/>
  </g>
  <g stroke-opacity="0.3" stroke="#a8e5ee" stroke-width="5.0e-3" fill="none">
    <polyline points="0.36180796922871505,0.4068462401795735
0.36180796922871505,-0.5"/>
  </g>
  <g stroke-opacity="0.3" stroke="#a8e5ee" stroke-width="5.0e-3" fill="none">
    <polyline points="0.4896428860578981,0.4068462401795735
0.4896428860578981,-0.5"/>
  </g>
  <g stroke-opacity="0.3" stroke="#a8e5ee" stroke-width="5.0e-3" fill="none">
    <polyline points="0.6174778028870804,0.4068462401795735
0.6174778028870804,-0.5"/>
  </g>
  <g stroke-opacity="0.3" stroke="#a8e5ee" stroke-width="5.0e-3" fill="none">
    <polyline points="0.7453127197162634,0.4068462401795735
0.7453127197162634,-0.5"/>
  </g>
  <g fill-opacity="1.0" font-size="5.0e-2" stroke="none" stroke-width="0.0" fill="#666666" text-anchor="middle">
    <text x="-0.6608713654047467" y="0.5">-10
    </text>
  </g>
  <g fill-opacity="1.0" font-size="5.0e-2" stroke="none" stroke-width="0.0" fill="#666666" text-anchor="middle">
    <text x="-0.5330364485755639" y="0.5">0
    </text>
  </g>
  <g fill-opacity="1.0" font-size="5.0e-2" stroke="none" stroke-width="0.0" fill="#666666" text-anchor="middle">
    <text x="-0.4052015317463812" y="0.5">10
    </text>
  </g>
  <g fill-opacity="1.0" font-size="5.0e-2" stroke="none" stroke-width="0.0" fill="#666666" text-anchor="middle">
    <text x="-0.2773666149171985" y="0.5">20
    </text>
  </g>
  <g fill-opacity="1.0" font-size="5.0e-2" stroke="none" stroke-width="0.0" fill="#666666" text-anchor="middle">
    <text x="-0.1495316980880157" y="0.5">30
    </text>
  </g>
  <g fill-opacity="1.0" font-size="5.0e-2" stroke="none" stroke-width="0.0" fill="#666666" text-anchor="middle">
    <text x="-2.169678125883301e-2" y="0.5">40
    </text>
  </g>
  <g fill-opacity="1.0" font-size="5.0e-2" stroke="none" stroke-width="0.0" fill="#666666" text-anchor="middle">
    <text x="0.10613813557034968" y="0.5">50
    </text>
  </g>
  <g fill-opacity="1.0" font-size="5.0e-2" stroke="none" stroke-width="0.0" fill="#666666" text-anchor="middle">
    <text x="0.23397305239953248" y="0.5">60
    </text>
  </g>
  <g fill-opacity="1.0" font-size="5.0e-2" stroke="none" stroke-width="0.0" fill="#666666" text-anchor="middle">
    <text x="0.36180796922871505" y="0.5">70
    </text>
  </g>
  <g fill-opacity="1.0" font-size="5.0e-2" stroke="none" stroke-width="0.0" fill="#666666" text-anchor="middle">
    <text x="0.4896428860578981" y="0.5">80
    </text>
  </g>
  <g fill-opacity="1.0" font-size="5.0e-2" stroke="none" stroke-width="0.0" fill="#666666" text-anchor="middle">
    <text x="0.6174778028870804" y="0.5">90
    </text>
  </g>
  <g fill-opacity="1.0" font-size="5.0e-2" stroke="none" stroke-width="0.0" fill="#666666" text-anchor="middle">
    <text x="0.7453127197162634" y="0.5">100
    </text>
  </g>
  <g stroke-opacity="0.4" fill-opacity="1.0" stroke="#2c429d" stroke-width="5.0e-3" fill="#5f0391">
    <polyline points="-0.6608713654047467,0.43980359147025816
-0.6608713654047467,0.40980359147025813"/>
    <polyline points="-0.5330364485755639,0.43980359147025816
-0.5330364485755639,0.40980359147025813"/>
    <polyline points="-0.4052015317463812,0.43980359147025816
-0.4052015317463812,0.40980359147025813"/>
    <polyline points="-0.2773666149171985,0.43980359147025816
-0.2773666149171985,0.40980359147025813"/>
    <polyline points="-0.1495316980880157,0.43980359147025816
-0.1495316980880157,0.40980359147025813"/>
    <polyline points="-2.169678125883301e-2,0.43980359147025816
-2.169678125883301e-2,0.40980359147025813"/>
    <polyline points="0.10613813557034968,0.43980359147025816
0.10613813557034968,0.40980359147025813"/>
    <polyline points="0.23397305239953248,0.43980359147025816
0.23397305239953248,0.40980359147025813"/>
    <polyline points="0.36180796922871505,0.43980359147025816
0.36180796922871505,0.40980359147025813"/>
    <polyline points="0.4896428860578981,0.43980359147025816
0.4896428860578981,0.40980359147025813"/>
    <polyline points="0.6174778028870804,0.43980359147025816
0.6174778028870804,0.40980359147025813"/>
    <polyline points="0.7453127197162634,0.43980359147025816
0.7453127197162634,0.40980359147025813"/>
  </g>
  <g stroke-opacity="0.0" fill-opacity="0.5" stroke="#666666" stroke-width="0.0" fill="#5f0391">
    <rect height="4.489337822671191e-3" width="1.4061840851210101" x="-0.6608713654047467" y="0.41133557800224463"/>
  </g>
  <g stroke-opacity="0.5" stroke="#026062" stroke-width="2.0e-2" fill="none">
    <polyline points="-0.5330364485755639,-0.23044286134496705
-0.5202529568926456,-3.196100232302557e-2
-0.5074694652097274,6.072835696033324e-2
-0.4946859735268091,0.10816294916671226
-0.4819024818438908,0.16576494914229978
-0.46911899016097247,0.20219665521853392
-0.4563354984780543,0.22417403691114757
-0.443552006795136,0.2339488755761353
-0.4307685151122177,0.23537259687086493
-0.41798502342929944,0.2546046201070382
-0.4052015317463812,0.2667275321996765
-0.3924180400634629,0.27030365808401957
-0.37963454838054467,0.27290759507931894
-0.3668510566976264,0.2749496251093132
-0.35406756501470815,0.2857734339543854
-0.3412840733317899,0.2922575987543823
-0.3285005816488715,0.29530565570733647
-0.31571708996595327,0.29352163678333765
-0.302933598283035,0.30097547192890683
-0.29015010660011675,0.30391976412243227
-0.2773666149171985,0.305722335243771
-0.2645831232342801,0.3040813324028995
-0.251799631551362,0.3028890646661333
-0.2390161398684436,0.30891357598251956
-0.22623264818552535,0.3111710712951288
-0.2134491565026071,0.3119670502973372
-0.20066566481968873,0.31037456390791673
-0.18788217313677058,0.3149117242863211
-0.1750986814538522,0.3161596393679239
-0.16231518977093395,0.3176078182672614
-0.1495316980880157,0.31703626325932655
-0.13674820640509744,0.31195349682516804
-0.12396471472217918,0.31581354676277684
-0.11118122303926103,0.31581979767944574
-9.839773135634267e-2,0.3153248239153929
-8.561423967342452e-2,0.3138095188591954
-7.283074799050615e-2,0.3103344112859423
-6.004725630758789e-2,0.31370960134457326
-4.7263764624669524e-2,0.3135188645746956
-3.448027294175127e-2,0.3118760837014809
-2.169678125883301e-2,0.31110783040981316
-8.913289575914751e-3,0.3144519159853618
3.8702021070035064e-3,0.3168535795668407
1.6653693789921764e-2,0.31687296325481334
2.9437185472840022e-2,0.316642136199845
4.22206771557585e-2,0.3152464743058129
5.500416883867654e-2,0.31814710668503043
6.778766052159502e-2,0.319607529715402
8.057115220451305e-2,0.32027390400593675
9.335464388743153e-2,0.3194777152375057
0.10613813557034968,0.3179867068979433
0.11892162725326805,0.3204380906893961
0.1317051189361862,0.3215633884153849
0.14448861061910467,0.3206741182590329
0.1572721023020227,0.3204531334741756
0.17005559398494108,0.3228431601506072
0.18283908566785922,0.32487614813048005
0.1956225773507776,0.3254219018758836
0.20840606903369596,0.32491747731629805
0.22118956071661422,0.3237826977139475
0.23397305239953248,0.3258804036524404
0.24675654408245062,0.32703536655747845
0.2595400357653692,0.32710585356555255
0.27232352744828736,0.32591125057292863
0.2851070191312055,0.32484575477416977
0.29789051081412365,0.3267901373191898
0.31067400249704225,0.3279695974745048
0.3234574941799604,0.3281927798159128
0.33624098586287876,0.32773130144684326
0.3490244775457967,0.3295673154306452
0.36180796922871505,0.3310184053689078
0.3745914609116334,0.33187294247284344
0.3873749525945518,0.33199742244063
0.40015844427746994,0.33099381122442917
0.4129419359603881,0.3326267763595179
0.4257254276433067,0.33378754327053084
0.4385089193262248,0.334354651018937
0.45129241100914297,0.33420716385167587
0.46407590269206134,0.3334723952104537
0.4768593943749797,0.3349178169911259
0.48964288605789785,0.33513791284896854
0.5024263777408162,0.33503602532015864
0.5152098694237344,0.33448493328331985
0.5279933611066525,0.3357816704310689
0.5407768527895711,0.33692358061773436
0.5535603444724893,0.3375316897449272
0.5663438361554074,0.3374599686134151
0.5791273278383255,0.33665723744941456
0.5919108195212441,0.33795890751944396
0.6046943112041623,0.3381934042504807
0.6174778028870804,0.33821758245742506
0.6302612945699988,0.3379128878379601
0.6430447862529172,0.3372074541212364
0.6558282779358353,0.33844986940481714
0.6686117696187537,0.33863263096543544
0.6813952613016718,0.3382997989211395
0.6941787529845902,0.3376844712857425
0.7069622446675086,0.338905925951405
0.7197457363504267,0.33911496195598034"/>
  </g>
  <g stroke-opacity="0.5" stroke="#0ea194" stroke-width="2.0e-2" fill="none">
    <polyline points="-0.5330364485755639,1.489682296510031e-3
-0.5202529568926456,-0.42415072546446186
-0.5074694652097274,-0.24590899611614447
-0.4946859735268091,-0.13122264072719647
-0.4819024818438908,-9.212796078731533e-2
-0.46911899016097247,-6.848859570193944e-2
-0.4563354984780543,-0.20128836167979614
-0.443552006795136,-0.1425493010219604
-0.4307685151122177,-0.12263802573773097
-0.41798502342929944,-0.10299410125929964
-0.4052015317463812,-0.16662178988708265
-0.3924180400634629,-0.12713623349441439
-0.37963454838054467,-0.1089603999691805
-0.3668510566976264,-0.1602810823043298
-0.35406756501470815,-0.1355421712559648
-0.3412840733317899,-0.11054134129322934
-0.3285005816488715,-9.758828506219797e-2
-0.31571708996595327,-9.687306099171944e-2
-0.302933598283035,-0.16287026634305013
-0.29015010660011675,-0.14173745184515607
-0.2773666149171985,-0.1332616313761028
-0.2645831232342801,-0.17404300535990325
-0.251799631551362,-0.15579284282232675
-0.2390161398684436,-0.1381234042983266
-0.22623264818552535,-0.1324988502480292
-0.2134491565026071,-0.12958068926012356
-0.20066566481968873,-0.1607089713109665
-0.18788217313677058,-0.1459483130910082
-0.1750986814538522,-0.14258097385705726
-0.16231518977093395,-0.19995601234207394
-0.1495316980880157,-0.1952169560151844
-0.13674820640509744,-0.18109759443768403
-0.12396471472217918,-0.16888050833420554
-0.11118122303926103,-0.1624684111249507
-9.839773135634267e-2,-0.15990452651971343
-8.561423967342452e-2,-0.1834102920196048
-7.283074799050615e-2,-0.16947598731945435
-6.004725630758789e-2,-0.1765166064929059
-4.7263764624669524e-2,-0.1726636116864797
-3.448027294175127e-2,-0.19381133462791977
-2.169678125883301e-2,-0.18045474729643407
-8.913289575914751e-3,-0.17300536075383688
3.8702021070035064e-3,-0.1662886818144328
1.6653693789921764e-2,-0.1914276531114738
2.9437185472840022e-2,-0.1937536314033771
4.22206771557585e-2,-0.18888360295748075
5.500416883867654e-2,-0.25192389002238635
6.778766052159502e-2,-0.257729974507258
8.057115220451305e-2,-0.24759994622235648
9.335464388743153e-2,-0.24088623711431112
0.10613813557034968,-0.23874237345615523
0.11892162725326805,-0.25324413434196336
0.1317051189361862,-0.24362298923959602
0.14448861061910467,-0.2388647228485512
0.1572721023020227,-0.2521002548618906
0.17005559398494108,-0.242883980292388
0.18283908566785922,-0.2335227020063052
0.1956225773507776,-0.22904505400773656
0.20840606903369596,-0.24236063486202908
0.22118956071661422,-0.23980424336519912
0.23397305239953248,-0.2347090173945201
0.24675654408245062,-0.23697031658051015
0.2595400357653692,-0.2310085523467369
0.27232352744828736,-0.22439552155898845
0.2851070191312055,-0.21725973738680515
0.29789051081412365,-0.2087079039256592
0.31067400249704225,-0.2034441327047537
0.3234574941799604,-0.1992980973661661
0.33624098586287876,-0.21395900063800288
0.3490244775457967,-0.20642355568618886
0.36180796922871505,-0.20305896771670318
0.3745914609116334,-0.19944441490554554
0.3873749525945518,-0.2082555105408298
0.40015844427746994,-0.20094159798367506
0.4129419359603881,-0.19657372748242563
0.4257254276433067,-0.19325977911235603
0.4385089193262248,-0.20429226752886553
0.45129241100914297,-0.19732257371062945
0.46407590269206134,-0.19576941125555614
0.4768593943749797,-0.21047177227814673
0.48964288605789785,-0.20456700899859237
0.5024263777408162,-0.1985823520253508
0.5152098694237344,-0.19588121917899715
0.5279933611066525,-0.209153046103283
0.5407768527895711,-0.20585768058696274
0.5535603444724893,-0.19949538155883262
0.5663438361554074,-0.19595819133890668
0.5791273278383255,-0.19324192376870353
0.5919108195212441,-0.2015723084648694
0.6046943112041623,-0.19573023684844415
0.6174778028870804,-0.1925700968204167
0.6302612945699988,-0.2036519389611171
0.6430447862529172,-0.19974278358707165
0.6558282779358353,-0.1945407391228221
0.6686117696187537,-0.1887165731227699
0.6813952613016718,-0.18541987342976496
0.6941787529845902,-0.1828828544004868
0.7069622446675086,-0.19267373269335752
0.7197457363504267,-0.18769596831797541"/>
  </g>
</svg>