
<svg xmlns="http://www.w3.org/2000/svg" height="300.0" viewBox="-0.92 -0.5487415824915824 1.7228127197162635 1.0949915824915823" width="450.0" xmlns:xlink="http://www.w3.org/1999/xlink">
  <g stroke-opacity="0.0" fill-opacity="3.0e-2" stroke="#000000" stroke-width="0.0" fill="#666666">
    <rect height="0.8978675645342313" width="1.4061840851210101" x="-0.6608713654047467" y="-0.495510662177329"/>
  </g>
  <g stroke-opacity="0.3" stroke="#a8e5ee" stroke-width="5.0e-3" fill="none">
    <polyline points="-0.6655586456884833,0.40235690235690236
0.75,0.40235690235690236"/>
  </g>
  <g stroke-opacity="0.3" stroke="#a8e5ee" stroke-width="5.0e-3" fill="none">
    <polyline points="-0.6655586456884833,0.30259383963087666
0.75,0.30259383963087666"/>
  </g>
  <g stroke-opacity="0.3" stroke="#a8e5ee" stroke-width="5.0e-3" fill="none">
    <polyline points="-0.6655586456884833,0.20283077690485096
0.75,0.20283077690485096"/>
  </g>
  <g stroke-opacity="0.3" stroke="#a8e5ee" stroke-width="5.0e-3" fill="none">
    <polyline points="-0.6655586456884833,0.10306771417882526
0.75,0.10306771417882526"/>
  </g>
  <g stroke-opacity="0.3" stroke="#a8e5ee" stroke-width="5.0e-3" fill="none">
    <polyline points="-0.6655586456884833,3.304651452799623e-3
0.75,3.304651452799623e-3"/>
  </g>
  <g stroke-opacity="0.3" stroke="#a8e5ee" stroke-width="5.0e-3" fill="none">
    <polyline points="-0.6655586456884833,-9.645841127322619e-2
0.75,-9.645841127322619e-2"/>
  </g>
  <g stroke-opacity="0.3" stroke="#a8e5ee" stroke-width="5.0e-3" fill="none">
    <polyline points="-0.6655586456884833,-0.19622147399925172
0.75,-0.19622147399925172"/>
  </g>
  <g stroke-opacity="0.3" stroke="#a8e5ee" stroke-width="5.0e-3" fill="none">
    <polyline points="-0.6655586456884833,-0.29598453672527747
0.75,-0.29598453672527747"/>
  </g>
  <g stroke-opacity="0.3" stroke="#a8e5ee" stroke-width="5.0e-3" fill="none">
    <polyline points="-0.6655586456884833,-0.3957475994513031
0.75,-0.3957475994513031"/>
  </g>
  <g stroke-opacity="0.3" stroke="#a8e5ee" stroke-width="5.0e-3" fill="none">
    <polyline points="-0.6655586456884833,-0.495510662177329
0.75,-0.495510662177329"/>
  </g>
  <g fill-opacity="1.0" font-size="5.0e-2" stroke="none" stroke-width="0.0" fill="#666666" text-anchor="end">
    <text x="-0.75" y="0.41537598204264864">1,000
    </text>
  </g>
  <g fill-opacity="1.0" font-size="5.0e-2" stroke="none" stroke-width="0.0" fill="#666666" text-anchor="end">
    <text x="-0.75" y="0.31561291931662305">2,000
    </text>
  </g>
  <g fill-opacity="1.0" font-size="5.0e-2" stroke="none" stroke-width="0.0" fill="#666666" text-anchor="end">
    <text x="-0.75" y="0.21584985659059736">3,000
    </text>
  </g>
  <g fill-opacity="1.0" font-size="5.0e-2" stroke="none" stroke-width="0.0" fill="#666666" text-anchor="end">
    <text x="-0.75" y="0.11608679386457166">4,000
    </text>
  </g>
  <g fill-opacity="1.0" font-size="5.0e-2" stroke="none" stroke-width="0.0" fill="#666666" text-anchor="end">
    <text x="-0.75" y="1.6323731138545905e-2">5,000
    </text>
  </g>
  <g fill-opacity="1.0" font-size="5.0e-2" stroke="none" stroke-width="0.0" fill="#666666" text-anchor="end">
    <text x="-0.75" y="-8.343933158747985e-2">6,000
    </text>
  </g>
  <g fill-opacity="1.0" font-size="5.0e-2" stroke="none" stroke-width="0.0" fill="#666666" text-anchor="end">
    <text x="-0.75" y="-0.1832023943135055">7,000
    </text>
  </g>
  <g fill-opacity="1.0" font-size="5.0e-2" stroke="none" stroke-width="0.0" fill="#666666" text-anchor="end">
    <text x="-0.75" y="-0.28296545703953124">8,000
    </text>
  </g>
  <g fill-opacity="1.0" font-size="5.0e-2" stroke="none" stroke-width="0.0" fill="#666666" text-anchor="end">
    <text x="-0.75" y="-0.3827285197655568">9,000
    </text>
  </g>
  <g fill-opacity="1.0" font-size="5.0e-2" stroke="none" stroke-width="0.0" fill="#666666" text-anchor="end">
    <text x="-0.75" y="-0.4824915824915824">10,000
    </text>
  </g>
  <g stroke-opacity="0.4" fill-opacity="1.0" stroke="#2c429d" stroke-width="5.0e-3" fill="#5f0391">
    <g transform="rotate(-90.0, -0.7194623689514554, 0.40235690235690236)">
      <polyline points="-0.7194623689514554,0.41735690235690237
-0.7194623689514554,0.38735690235690234"/>
    </g>
    <g transform="rotate(-90.0, -0.7194623689514554, 0.30259383963087666)">
      <polyline points="-0.7194623689514554,0.3175938396308767
-0.7194623689514554,0.28759383963087665"/>
    </g>
    <g transform="rotate(-90.0, -0.7194623689514554, 0.20283077690485096)">
      <polyline points="-0.7194623689514554,0.21783077690485098
-0.7194623689514554,0.18783077690485095"/>
    </g>
    <g transform="rotate(-90.0, -0.7194623689514554, 0.10306771417882526)">
      <polyline points="-0.7194623689514554,0.11806771417882526
-0.7194623689514554,8.806771417882527e-2"/>
    </g>
    <g transform="rotate(-90.0, -0.7194623689514554, 3.304651452799623e-3)">
      <polyline points="-0.7194623689514554,1.8304651452799622e-2
-0.7194623689514554,-1.1695348547200377e-2"/>
    </g>
    <g transform="rotate(-90.0, -0.7194623689514554, -9.645841127322619e-2)">
      <polyline points="-0.7194623689514554,-8.145841127322619e-2
-0.7194623689514554,-0.11145841127322619"/>
    </g>
    <g transform="rotate(-90.0, -0.7194623689514554, -0.19622147399925172)">
      <polyline points="-0.7194623689514554,-0.1812214739992517
-0.7194623689514554,-0.21122147399925173"/>
    </g>
    <g transform="rotate(-90.0, -0.7194623689514554, -0.29598453672527747)">
      <polyline points="-0.7194623689514554,-0.28098453672527746
-0.7194623689514554,-0.3109845367252775"/>
    </g>
    <g transform="rotate(-90.0, -0.7194623689514554, -0.3957475994513031)">
      <polyline points="-0.7194623689514554,-0.3807475994513031
-0.7194623689514554,-0.4107475994513031"/>
    </g>
    <g transform="rotate(-90.0, -0.7194623689514554, -0.495510662177329)">
      <polyline points="-0.7194623689514554,-0.48051066217732896
-0.7194623689514554,-0.510510662177329"/>
    </g>
  </g>
  <g stroke-opacity="0.0" fill-opacity="0.5" stroke="#666666" stroke-width="0.0" fill="#5f0391">
    <rect height="0.8978675645342313" width="4.687280283736772e-3" x="-0.710087808383982" y="-0.495510662177329"/>
  </g>
  <g stroke-opacity="0.3" stroke="#a8e5ee" stroke-width="5.0e-3" fill="none">
    <polyline points="-0.6608713654047467,0.4068462401795735
-0.6608713654047467,-0.5"/>
  </g>
  <g stroke-opacity="0.3" stroke="#a8e5ee" stroke-width="5.0e-3" fill="none">
    <polyline points="-0.5330364485755639,0.4068462401795735
-0.5330364485755639,-0.5"/>
  </g>
  <g stroke-opacity="0.3" stroke="#a8e5ee" stroke-width="5.0e-3" fill="none">
    <polyline points="-0.4052015317463812,0.4068462401795735
-0.4052015317463812,-0.5"/>
  </g>
  <g stroke-opacity="0.3" stroke="#a8e5ee" stroke-width="5.0e-3" fill="none">
    <polyline points="-0.2773666149171985,0.4068462401795735
-0.2773666149171985,-0.5"/>
  </g>
  <g stroke-opacity="0.3" stroke="#a8e5ee" stroke-width="5.0e-3" fill="none">
    <polyline points="-0.1495316980880157,0.4068462401795735
-0.1495316980880157,-0.5"/>
  </g>
  <g stroke-opacity="0.3" stroke="#a8e5ee" stroke-width="5.0e-3" fill="none">
    <polyline points="-2.169678125883301e-2,0.4068462401795735
-2.169678125883301e-2,-0.5"/>
  </g>
  <g stroke-opacity="0.3" stroke="#a8e5ee" stroke-width="5.0e-3" fill="none">
    <polyline points="0.10613813557034968,0.4068462401795735
0.10613813557034968,-0.5"/>
  </g>
  <g stroke-opacity="0.3" stroke="#a8e5ee" stroke-width="5.0e-3" fill="none">
    <polyline points="0.23397305239953248,0.4068462401795735
0.23397305239953248,-0.5"/>
  </g>
  <g stroke-opacity="0.3" stroke="#a8e5ee" stroke-width="5.0e-3" fill="none">
    <polyline points="0.36180796922871505,0.4068462401795735
0.36180796922871505,-0.5"/>
  </g>
  <g stroke-opacity="0.3" stroke="#a8e5ee" stroke-width="5.0e-3" fill="none">
    <polyline points="0.4896428860578981,0.4068462401795735
0.4896428860578981,-0.5"/>
  </g>
  <g stroke-opacity="0.3" stroke="#a8e5ee" stroke-width="5.0e-3" fill="none">
    <polyline points="0.6174778028870804,0.4068462401795735
0.6174778028870804,-0.5"/>
  </g>
  <g stroke-opacity="0.3" stroke="#a8e5ee" stroke-width="5.0e-3" fill="none">
    <polyline points="0.7453127197162634,0.4068462401795735
0.7453127197162634,-0.5"/>
  </g>
  <g fill-opacity="1.0" font-size="5.0e-2" stroke="none" stroke-width="0.0" fill="#666666" text-anchor="middle">
    <text x="-0.6608713654047467" y="0.5">-10
    </text>
  </g>
  <g fill-opacity="1.0" font-size="5.0e-2" stroke="none" stroke-width="0.0" fill="#666666" text-anchor="middle">
    <text x="-0.5330364485755639" y="0.5">0
    </text>
  </g>
  <g fill-opacity="1.0" font-size="5.0e-2" stroke="none" stroke-width="0.0" fill="#666666" text-anchor="middle">
    <text x="-0.4052015317463812" y="0.5">10
    </text>
  </g>
  <g fill-opacity="1.0" font-size="5.0e-2" stroke="none" stroke-width="0.0" fill="#666666" text-anchor="middle">
    <text x="-0.2773666149171985" y="0.5">20
    </text>
  </g>
  <g fill-opacity="1.0" font-size="5.0e-2" stroke="none" stroke-width="0.0" fill="#666666" text-anchor="middle">
    <text x="-0.1495316980880157" y="0.5">30
    </text>
  </g>
  <g fill-opacity="1.0" font-size="5.0e-2" stroke="none" stroke-width="0.0" fill="#666666" text-anchor="middle">
    <text x="-2.169678125883301e-2" y="0.5">40
    </text>
  </g>
  <g fill-opacity="1.0" font-size="5.0e-2" stroke="none" stroke-width="0.0" fill="#666666" text-anchor="middle">
    <text x="0.10613813557034968" y="0.5">50
    </text>
  </g>
  <g fill-opacity="1.0" font-size="5.0e-2" stroke="none" stroke-width="0.0" fill="#666666" text-anchor="middle">
    <text x="0.23397305239953248" y="0.5">60
    </text>
  </g>
  <g fill-opacity="1.0" font-size="5.0e-2" stroke="none" stroke-width="0.0" fill="#666666" text-anchor="middle">
    <text x="0.36180796922871505" y="0.5">70
    </text>
  </g>
  <g fill-opacity="1.0" font-size="5.0e-2" stroke="none" stroke-width="0.0" fill="#666666" text-anchor="middle">
    <text x="0.4896428860578981" y="0.5">80
    </text>
  </g>
  <g fill-opacity="1.0" font-size="5.0e-2" stroke="none" stroke-width="0.0" fill="#666666" text-anchor="middle">
    <text x="0.6174778028870804" y="0.5">90
    </text>
  </g>
  <g fill-opacity="1.0" font-size="5.0e-2" stroke="none" stroke-width="0.0" fill="#666666" text-anchor="middle">
    <text x="0.7453127197162634" y="0.5">100
    </text>
  </g>
  <g stroke-opacity="0.4" fill-opacity="1.0" stroke="#2c429d" stroke-width="5.0e-3" fill="#5f0391">
    <polyline points="-0.6608713654047467,0.43980359147025816
-0.6608713654047467,0.40980359147025813"/>
    <polyline points="-0.5330364485755639,0.43980359147025816
-0.5330364485755639,0.40980359147025813"/>
    <polyline points="-0.4052015317463812,0.43980359147025816
-0.4052015317463812,0.40980359147025813"/>
    <polyline points="-0.2773666149171985,0.43980359147025816
-0.2773666149171985,0.40980359147025813"/>
    <polyline points="-0.1495316980880157,0.43980359147025816
-0.1495316980880157,0.40980359147025813"/>
    <polyline points="-2.169678125883301e-2,0.43980359147025816
-2.169678125883301e-2,0.40980359147025813"/>
    <polyline points="0.10613813557034968,0.43980359147025816
0.10613813557034968,0.40980359147025813"/>
    <polyline points="0.23397305239953248,0.43980359147025816
0.23397305239953248,0.40980359147025813"/>
    <polyline points="0.36180796922871505,0.43980359147025816
0.36180796922871505,0.40980359147025813"/>
    <polyline points="0.4896428860578981,0.43980359147025816
0.4896428860578981,0.40980359147025813"/>
    <polyline points="0.6174778028870804,0.43980359147025816
0.6174778028870804,0.40980359147025813"/>
    <polyline points="0.7453127197162634,0.43980359147025816
0.7453127197162634,0.40980359147025813"/>
  </g>
  <g stroke-opacity="0.0" fill-opacity="0.5" stroke="#666666" stroke-width="0.0" fill="#5f0391">
    <rect height="4.489337822671191e-3" width="1.4061840851210101" x="-0.6608713654047467" y="0.41133557800224463"/>
  </g>
  <g stroke-opacity="0.5" stroke="#026062" stroke-width="2.0e-2" fill="none">
    <polyline points="-0.5330364485755639,-0.33354107461512283
-0.5202529568926456,-8.989827466477729e-2
-0.5074694652097274,2.0882196829057564e-2
-0.4946859735268091,7.77119833187433e-2
-0.4819024818438908,0.14331664617885465
-0.46911899016097247,0.1847716829250628
-0.4563354984780543,0.20938527837279103
-0.443552006795136,0.22375891910537699
-0.4307685151122177,0.232170978975063
-0.41798502342929944,0.25397692540518957
-0.4052015317463812,0.2678435337193356
-0.3924180400634629,0.2754109251862513
-0.37963454838054467,0.2787954415910151
-0.3668510566976264,0.2809048299182009
-0.35406756501470815,0.29287450169327145
-0.3412840733317899,0.2994553588400172
-0.3285005816488715,0.3024059871305954
-0.31571708996595327,0.3027961657291598
-0.302933598283035,0.3112693358441726
-0.29015010660011675,0.31709663912555247
-0.2773666149171985,0.32043897996478377
-0.2645831232342801,0.32118312035699553
-0.251799631551362,0.32061920539034505
-0.2390161398684436,0.326704957008361
-0.22623264818552535,0.32998120043405865
-0.2134491565026071,0.33133953525176063
-0.20066566481968873,0.3309666625942112
-0.18788217313677058,0.33012997156138923
-0.1750986814538522,0.33489694191149233
-0.16231518977093395,0.33711978880552884
-0.1495316980880157,0.337501834910387
-0.13674820640509744,0.3365114079936329
-0.12396471472217918,0.34052855966285245
-0.11118122303926103,0.3431512775282527
-9.839773135634267e-2,0.3443535367852063
-8.561423967342452e-2,0.34400682351767387
-7.283074799050615e-2,0.34300755152815776
-6.004725630758789e-2,0.3463505295225088
-4.7263764624669524e-2,0.34817651586598025
-3.448027294175127e-2,0.34860379233320427
-2.169678125883301e-2,0.347868742098785
-8.913289575914751e-3,0.3469317661745406
3.8702021070035064e-3,0.3498117966819968
1.6653693789921764e-2,0.3509845758116231
2.9437185472840022e-2,0.3509570319868256
4.22206771557585e-2,0.3498846813791884
5.500416883867654e-2,0.352461627015205
6.778766052159502e-2,0.35408493249368445
8.057115220451305e-2,0.35474646683895844
9.335464388743153e-2,0.35432468345902896
0.10613813557034968,0.3532908661141133
0.11892162725326805,0.3555621039004981
0.1317051189361862,0.35669078640264373
0.14448861061910467,0.35683016489693103
0.1572721023020227,0.3561033782172789
0.17005559398494108,0.3551774812294408
0.18283908566785922,0.3572287631006845
0.1956225773507776,0.3579580036701587
0.20840606903369596,0.35775865037452004
0.22118956071661422,0.3568690040675333
0.23397305239953248,0.3587645258419305
0.24675654408245062,0.35991381421612645
0.2595400357653692,0.3603289680954189
0.27232352744828736,0.35991269193312286
0.2851070191312055,0.35910373768222953
0.29789051081412365,0.36082652980727237
0.31067400249704225,0.3616302216214299
0.3234574941799604,0.3615888003066026
0.33624098586287876,0.36088258728541045
0.3490244775457967,0.3611505915105397
0.36180796922871505,0.3627252004846657
0.3745914609116334,0.36325777008179305
0.3873749525945518,0.3630209786362204
0.40015844427746994,0.3622584896508585
0.4129419359603881,0.3637429357099761
0.4257254276433067,0.3646245259780323
0.4385089193262248,0.3649137512366092
0.45129241100914297,0.36445120900665984
0.46407590269206134,0.3637087545449522
0.4768593943749797,0.36508532405673405
0.48964288605789785,0.3656824230141106
0.5024263777408162,0.3656348867937554
0.5152098694237344,0.36500445475382703
0.5279933611066525,0.3663057473916056
0.5407768527895711,0.367382734767056
0.5535603444724893,0.36777338964682754
0.5663438361554074,0.36751204904190404
0.5791273278383255,0.36677481916027443
0.5919108195212441,0.36789934416941206
0.6046943112041623,0.3684919186849836
0.6174778028870804,0.36854004597609114
0.6302612945699988,0.3681169978609965
0.6430447862529172,0.3674021077024534
0.6558282779358353,0.3685414936730767
0.6686117696187537,0.3690205601226023
0.6813952613016718,0.3689276801982331
0.6941787529845902,0.3683790727531804
0.7069622446675086,0.3694659969182503
0.7197457363504267,0.3703359054005455"/>
  </g>
  <g stroke-opacity="0.5" stroke="#0ea194" stroke-width="2.0e-2" fill="none">
    <polyline points="-0.5330364485755639,-0.44249168779426484
-0.5202529568926456,-0.21258077755881755
-0.5074694652097274,-7.685979669400733e-2
-0.4946859735268091,1.5429376057783162e-2
-0.4819024818438908,4.538094436962131e-2
-0.46911899016097247,5.856984049233149e-2
-0.4563354984780543,9.196790140032046e-2
-0.443552006795136,0.12396630107591639
-0.4307685151122177,0.12863998437969287
-0.41798502342929944,2.8903360309055992e-2
-0.4052015317463812,5.190805318592623e-2
-0.3924180400634629,7.668742221113067e-2
-0.37963454838054467,8.266550049627341e-2
-0.3668510566976264,8.506956431065843e-2
-0.35406756501470815,2.080181318724722e-2
-0.3412840733317899,4.086914686915066e-2
-0.3285005816488715,4.633698292921462e-2
-0.31571708996595327,5.011315518410203e-2
-0.302933598283035,3.8832919684667067e-4
-0.29015010660011675,1.7072154178628285e-2
-0.2773666149171985,2.2446598400407136e-2
-0.2645831232342801,-2.087116174654191e-2
-0.251799631551362,-8.373243245880735e-3
-0.2390161398684436,6.148863224807177e-3
-0.22623264818552535,1.095290774641744e-2
-0.2134491565026071,1.3564498298694827e-2
-0.20066566481968873,-2.1023016141767714e-2
-0.18788217313677058,-8.426988886488296e-3
-0.1750986814538522,-4.191400467029038e-3
-0.16231518977093395,-3.6074985551031946e-2
-0.1495316980880157,-2.7510686008408447e-2
-0.13674820640509744,-1.7576414698943554e-2
-0.12396471472217918,-1.6581399459177026e-2
-0.11118122303926103,-4.901838015632065e-2
-9.839773135634267e-2,-5.0856239033914896e-2
-8.561423967342452e-2,-4.11503049194164e-2
-7.283074799050615e-2,-2.9961848168194027e-2
-6.004725630758789e-2,-2.4757791774514426e-2
-4.7263764624669524e-2,-2.078880542466588e-2
-3.448027294175127e-2,-4.4410987731876905e-2
-2.169678125883301e-2,-3.44783180214745e-2
-8.913289575914751e-3,-2.9938223038061484e-2
3.8702021070035064e-3,-2.6505206876095366e-2
1.6653693789921764e-2,-4.667789662824284e-2
2.9437185472840022e-2,-3.7609485429654366e-2
4.22206771557585e-2,-3.358271605952434e-2
5.500416883867654e-2,-5.423872085352088e-2
6.778766052159502e-2,-4.7062326007419664e-2
8.057115220451305e-2,-3.876077103684061e-2
9.335464388743153e-2,-3.5494610439724905e-2
0.10613813557034968,-5.369664763889448e-2
0.11892162725326805,-4.725727179451944e-2
0.1317051189361862,-3.972987709735509e-2
0.14448861061910467,-3.65334480656232e-2
0.1572721023020227,-3.428619088513818e-2
0.17005559398494108,-5.063485084581021e-2
0.18283908566785922,-4.374761973414565e-2
0.1956225773507776,-4.074106822617596e-2
0.20840606903369596,-5.651081363825872e-2
0.22118956071661422,-5.105264877891624e-2
0.23397305239953248,-4.467039233447534e-2
0.24675654408245062,-4.198898188374478e-2
0.2595400357653692,-4.021527036314365e-2
0.27232352744828736,-5.560399962052898e-2
0.2851070191312055,-4.976831199835963e-2
0.29789051081412365,-4.309453883451564e-2
0.31067400249704225,-3.967043016964744e-2
0.3234574941799604,-3.7095127551101004e-2
0.33624098586287876,-5.083542627408777e-2
0.3490244775457967,-4.4616225706308965e-2
0.36180796922871505,-4.156532969258797e-2
0.3745914609116334,-3.923148817309763e-2
0.3873749525945518,-5.153046032934294e-2
0.40015844427746994,-4.580190038657239e-2
0.4129419359603881,-4.315878505381365e-2
0.4257254276433067,-5.594144335856421e-2
0.4385089193262248,-5.1338807313499935e-2
0.45129241100914297,-4.5945702466691385e-2
0.46407590269206134,-4.3469578205399095e-2
0.4768593943749797,-4.1708280573892864e-2
0.48964288605789785,-5.3040359393509484e-2
0.5024263777408162,-4.802133015063614e-2
0.5152098694237344,-4.572268193336326e-2
0.5279933611066525,-5.696648134343352e-2
0.5407768527895711,-5.291007785919377e-2
0.5535603444724893,-4.811912233252069e-2
0.5663438361554074,-4.598090563279056e-2
0.5791273278383255,-4.457003520080394e-2
0.5919108195212441,-5.528870741283076e-2
0.6046943112041623,-5.084577814966296e-2
0.6174778028870804,-4.890479557935401e-2
0.6302612945699988,-4.7578175782935994e-2
0.6430447862529172,-5.764528284493142e-2
0.6558282779358353,-5.3432943794183174e-2
0.6686117696187537,-4.864890102910624e-2
0.6813952613016718,-4.6060167320197354e-2
0.6941787529845902,-4.4274869686860896e-2
0.7069622446675086,-5.430915281210613e-2
0.7197457363504267,-4.985310188808445e-2"/>
  </g>
</svg>