<svg xmlns="http://www.w3.org/2000/svg" height="300.0" viewBox="-0.92 -0.5515056667387501 1.7228200318237838 1.0715056667387501" width="450.0" xmlns:xlink="http://www.w3.org/1999/xlink"><g stroke-opacity="0.0" fill-opacity="0.1" stroke="#000000" stroke-width="0.0" fill="#cccccc"><rect height="0.7561196544230733" width="1.4039904528649207" x="-0.6586704210411369" y="-0.4962194017278847"/></g><g stroke-opacity="0.1" stroke="#808080" stroke-width="5.0e-3" fill="none"><polyline points="-0.6633503892173533,0.2599002526951885
0.75,0.2599002526951885"/></g><g stroke-opacity="0.1" stroke="#808080" stroke-width="5.0e-3" fill="none"><polyline points="-0.6633503892173533,0.16538529589230438
0.75,0.16538529589230438"/></g><g stroke-opacity="0.1" stroke="#808080" stroke-width="5.0e-3" fill="none"><polyline points="-0.6633503892173533,7.08703390894202e-2
0.75,7.08703390894202e-2"/></g><g stroke-opacity="0.1" stroke="#808080" stroke-width="5.0e-3" fill="none"><polyline points="-0.6633503892173533,-2.3644617713463933e-2
0.75,-2.3644617713463933e-2"/></g><g stroke-opacity="0.1" stroke="#808080" stroke-width="5.0e-3" fill="none"><polyline points="-0.6633503892173533,-0.11815957451634806
0.75,-0.11815957451634806"/></g><g stroke-opacity="0.1" stroke="#808080" stroke-width="5.0e-3" fill="none"><polyline points="-0.6633503892173533,-0.2126745313192322
0.75,-0.2126745313192322"/></g><g stroke-opacity="0.1" stroke="#808080" stroke-width="5.0e-3" fill="none"><polyline points="-0.6633503892173533,-0.3071894881221163
0.75,-0.3071894881221163"/></g><g stroke-opacity="0.1" stroke="#808080" stroke-width="5.0e-3" fill="none"><polyline points="-0.6633503892173533,-0.40170444492500046
0.75,-0.40170444492500046"/></g><g stroke-opacity="0.1" stroke="#808080" stroke-width="5.0e-3" fill="none"><polyline points="-0.6633503892173533,-0.4962194017278847
0.75,-0.4962194017278847"/></g><g fill-opacity="0.8" font-size="5.0e-2" stroke="none" stroke-width="0.0" fill="#333333" text-anchor="end"><text x="-0.75" y="0.27086398768432307">0</text></g><g fill-opacity="0.8" font-size="5.0e-2" stroke="none" stroke-width="0.0" fill="#333333" text-anchor="end"><text x="-0.75" y="0.17634903088143894">5,000</text></g><g fill-opacity="0.8" font-size="5.0e-2" stroke="none" stroke-width="0.0" fill="#333333" text-anchor="end"><text x="-0.75" y="8.183407407855475e-2">10,000</text></g><g fill-opacity="0.8" font-size="5.0e-2" stroke="none" stroke-width="0.0" fill="#333333" text-anchor="end"><text x="-0.75" y="-1.2680882724329434e-2">15,000</text></g><g fill-opacity="0.8" font-size="5.0e-2" stroke="none" stroke-width="0.0" fill="#333333" text-anchor="end"><text x="-0.75" y="-0.10719583952721357">20,000</text></g><g fill-opacity="0.8" font-size="5.0e-2" stroke="none" stroke-width="0.0" fill="#333333" text-anchor="end"><text x="-0.75" y="-0.2017107963300977">25,000</text></g><g fill-opacity="0.8" font-size="5.0e-2" stroke="none" stroke-width="0.0" fill="#333333" text-anchor="end"><text x="-0.75" y="-0.29622575313298183">30,000</text></g><g fill-opacity="0.8" font-size="5.0e-2" stroke="none" stroke-width="0.0" fill="#333333" text-anchor="end"><text x="-0.75" y="-0.39074070993586596">35,000</text></g><g fill-opacity="0.8" font-size="5.0e-2" stroke="none" stroke-width="0.0" fill="#333333" text-anchor="end"><text x="-0.75" y="-0.4852556667387501">40,000</text></g><g stroke-opacity="0.5" fill-opacity="0.5" stroke="#570d66" stroke-width="5.0e-3" fill="#570d66"><g transform="rotate(-90.0, -0.7195100073319501, 0.2599002526951885)"><polyline points="-0.7195100073319501,0.27490025269518853
-0.7195100073319501,0.2449002526951885"/></g><g transform="rotate(-90.0, -0.7195100073319501, 0.16538529589230438)"><polyline points="-0.7195100073319501,0.1803852958923044
-0.7195100073319501,0.15038529589230437"/></g><g transform="rotate(-90.0, -0.7195100073319501, 7.08703390894202e-2)"><polyline points="-0.7195100073319501,8.58703390894202e-2
-0.7195100073319501,5.58703390894202e-2"/></g><g transform="rotate(-90.0, -0.7195100073319501, -2.3644617713463933e-2)"><polyline points="-0.7195100073319501,-8.644617713463934e-3
-0.7195100073319501,-3.864461771346393e-2"/></g><g transform="rotate(-90.0, -0.7195100073319501, -0.11815957451634806)"><polyline points="-0.7195100073319501,-0.10315957451634807
-0.7195100073319501,-0.13315957451634808"/></g><g transform="rotate(-90.0, -0.7195100073319501, -0.2126745313192322)"><polyline points="-0.7195100073319501,-0.19767453131923218
-0.7195100073319501,-0.2276745313192322"/></g><g transform="rotate(-90.0, -0.7195100073319501, -0.3071894881221163)"><polyline points="-0.7195100073319501,-0.2921894881221163
-0.7195100073319501,-0.32218948812211634"/></g><g transform="rotate(-90.0, -0.7195100073319501, -0.40170444492500046)"><polyline points="-0.7195100073319501,-0.38670444492500045
-0.7195100073319501,-0.4167044449250005"/></g><g transform="rotate(-90.0, -0.7195100073319501, -0.4962194017278847)"><polyline points="-0.7195100073319501,-0.4812194017278847
-0.7195100073319501,-0.5112194017278847"/></g></g><g stroke-opacity="0.5" fill-opacity="0.5" stroke="#570d66" stroke-width="0.0" fill="#570d66"><rect height="0.7561196544230733" width="4.679968176216409e-3" x="-0.7078100868914091" y="-0.4962194017278847"/></g><g stroke-opacity="0.1" stroke="#808080" stroke-width="5.0e-3" fill="none"><polyline points="-0.6586704210411369,0.26368085096730387
-0.6586704210411369,-0.4999999999999999"/></g><g stroke-opacity="0.1" stroke="#808080" stroke-width="5.0e-3" fill="none"><polyline points="-0.5310349253261442,0.26368085096730387
-0.5310349253261442,-0.4999999999999999"/></g><g stroke-opacity="0.1" stroke="#808080" stroke-width="5.0e-3" fill="none"><polyline points="-0.4033994296111514,0.26368085096730387
-0.4033994296111514,-0.4999999999999999"/></g><g stroke-opacity="0.1" stroke="#808080" stroke-width="5.0e-3" fill="none"><polyline points="-0.2757639338961586,0.26368085096730387
-0.2757639338961586,-0.4999999999999999"/></g><g stroke-opacity="0.1" stroke="#808080" stroke-width="5.0e-3" fill="none"><polyline points="-0.14812843818116583,0.26368085096730387
-0.14812843818116583,-0.4999999999999999"/></g><g stroke-opacity="0.1" stroke="#808080" stroke-width="5.0e-3" fill="none"><polyline points="-2.0492942466172948e-2,0.26368085096730387
-2.0492942466172948e-2,-0.4999999999999999"/></g><g stroke-opacity="0.1" stroke="#808080" stroke-width="5.0e-3" fill="none"><polyline points="0.10714255324881983,0.26368085096730387
0.10714255324881983,-0.4999999999999999"/></g><g stroke-opacity="0.1" stroke="#808080" stroke-width="5.0e-3" fill="none"><polyline points="0.2347780489638127,0.26368085096730387
0.2347780489638127,-0.4999999999999999"/></g><g stroke-opacity="0.1" stroke="#808080" stroke-width="5.0e-3" fill="none"><polyline points="0.36241354467880527,0.26368085096730387
0.36241354467880527,-0.4999999999999999"/></g><g stroke-opacity="0.1" stroke="#808080" stroke-width="5.0e-3" fill="none"><polyline points="0.49004904039379826,0.26368085096730387
0.49004904039379826,-0.4999999999999999"/></g><g stroke-opacity="0.1" stroke="#808080" stroke-width="5.0e-3" fill="none"><polyline points="0.6176845361087908,0.26368085096730387
0.6176845361087908,-0.4999999999999999"/></g><g stroke-opacity="0.1" stroke="#808080" stroke-width="5.0e-3" fill="none"><polyline points="0.7453200318237838,0.26368085096730387
0.7453200318237838,-0.4999999999999999"/></g><g fill-opacity="0.8" font-size="5.0e-2" stroke="none" stroke-width="0.0" fill="#333333" text-anchor="middle"><text x="-0.6586704210411369" y="0.3505529503032796">-10</text></g><g fill-opacity="0.8" font-size="5.0e-2" stroke="none" stroke-width="0.0" fill="#333333" text-anchor="middle"><text x="-0.5310349253261442" y="0.3505529503032796">0</text></g><g fill-opacity="0.8" font-size="5.0e-2" stroke="none" stroke-width="0.0" fill="#333333" text-anchor="middle"><text x="-0.4033994296111514" y="0.3505529503032796">10</text></g><g fill-opacity="0.8" font-size="5.0e-2" stroke="none" stroke-width="0.0" fill="#333333" text-anchor="middle"><text x="-0.2757639338961586" y="0.3505529503032796">20</text></g><g fill-opacity="0.8" font-size="5.0e-2" stroke="none" stroke-width="0.0" fill="#333333" text-anchor="middle"><text x="-0.14812843818116583" y="0.3505529503032796">30</text></g><g fill-opacity="0.8" font-size="5.0e-2" stroke="none" stroke-width="0.0" fill="#333333" text-anchor="middle"><text x="-2.0492942466172948e-2" y="0.3505529503032796">40</text></g><g fill-opacity="0.8" font-size="5.0e-2" stroke="none" stroke-width="0.0" fill="#333333" text-anchor="middle"><text x="0.10714255324881983" y="0.3505529503032796">50</text></g><g fill-opacity="0.8" font-size="5.0e-2" stroke="none" stroke-width="0.0" fill="#333333" text-anchor="middle"><text x="0.2347780489638127" y="0.3505529503032796">60</text></g><g fill-opacity="0.8" font-size="5.0e-2" stroke="none" stroke-width="0.0" fill="#333333" text-anchor="middle"><text x="0.36241354467880527" y="0.3505529503032796">70</text></g><g fill-opacity="0.8" font-size="5.0e-2" stroke="none" stroke-width="0.0" fill="#333333" text-anchor="middle"><text x="0.49004904039379826" y="0.3505529503032796">80</text></g><g fill-opacity="0.8" font-size="5.0e-2" stroke="none" stroke-width="0.0" fill="#333333" text-anchor="middle"><text x="0.6176845361087908" y="0.3505529503032796">90</text></g><g fill-opacity="0.8" font-size="5.0e-2" stroke="none" stroke-width="0.0" fill="#333333" text-anchor="middle"><text x="0.7453200318237838" y="0.3505529503032796">100</text></g><g stroke-opacity="0.5" fill-opacity="0.5" stroke="#570d66" stroke-width="5.0e-3" fill="#570d66"><polyline points="-0.6586704210411369,0.30222792924534725
-0.6586704210411369,0.2722279292453472"/><polyline points="-0.5310349253261442,0.30222792924534725
-0.5310349253261442,0.2722279292453472"/><polyline points="-0.4033994296111514,0.30222792924534725
-0.4033994296111514,0.2722279292453472"/><polyline points="-0.2757639338961586,0.30222792924534725
-0.2757639338961586,0.2722279292453472"/><polyline points="-0.14812843818116583,0.30222792924534725
-0.14812843818116583,0.2722279292453472"/><polyline points="-2.0492942466172948e-2,0.30222792924534725
-2.0492942466172948e-2,0.2722279292453472"/><polyline points="0.10714255324881983,0.30222792924534725
0.10714255324881983,0.2722279292453472"/><polyline points="0.2347780489638127,0.30222792924534725
0.2347780489638127,0.2722279292453472"/><polyline points="0.36241354467880527,0.30222792924534725
0.36241354467880527,0.2722279292453472"/><polyline points="0.49004904039379826,0.30222792924534725
0.49004904039379826,0.2722279292453472"/><polyline points="0.6176845361087908,0.30222792924534725
0.6176845361087908,0.2722279292453472"/><polyline points="0.7453200318237838,0.30222792924534725
0.7453200318237838,0.2722279292453472"/></g><g stroke-opacity="0.5" fill-opacity="0.5" stroke="#570d66" stroke-width="0.0" fill="#570d66"><rect height="3.7805982721154097e-3" width="1.4039904528649207" x="-0.6586704210411369" y="0.27399583529294347"/></g><g stroke-opacity="0.4" fill-opacity="1.0" stroke="#0a865a" stroke-width="3.0e-3" fill="#0ea194"><circle cy="0.23398398689795863" r="1.5e-2" cx="-0.5310349253261442"/><circle cy="0.21871604077602075" r="1.5e-2" cx="-0.5182713757546449"/><circle cy="0.21973827674281798" r="1.5e-2" cx="-0.5055078261831456"/><circle cy="0.18589473907066845" r="1.5e-2" cx="-0.4927442766116463"/><circle cy="0.25341316192604846" r="1.5e-2" cx="-0.479980727040147"/><circle cy="0.1990974577744979" r="1.5e-2" cx="-0.4672171774686477"/><circle cy="-0.2012094889992151" r="1.5e-2" cx="-0.4544536278971485"/><circle cy="0.10790481512118333" r="1.5e-2" cx="-0.44169007832564916"/><circle cy="0.2536158776053993" r="1.5e-2" cx="-0.4289265287541499"/><circle cy="0.1791322695233875" r="1.5e-2" cx="-0.4161629791826506"/><circle cy="0.22006798271812922" r="1.5e-2" cx="-0.4033994296111514"/><circle cy="0.21578044402370583" r="1.5e-2" cx="-0.3906358800396521"/><circle cy="0.21055955122786274" r="1.5e-2" cx="-0.37787233046815283"/><circle cy="0.2503335999915315" r="1.5e-2" cx="-0.36510878089665355"/><circle cy="0.22419246420907618" r="1.5e-2" cx="-0.3523452313251543"/><circle cy="0.2253574555666285" r="1.5e-2" cx="-0.33958168175365494"/><circle cy="0.16006557825762813" r="1.5e-2" cx="-0.3268181321821556"/><circle cy="0.2497279481483386" r="1.5e-2" cx="-0.31405458261065644"/><circle cy="-0.1946211160023651" r="1.5e-2" cx="-0.3012910330391571"/><circle cy="-0.14822183340869322" r="1.5e-2" cx="-0.2885274834676579"/><circle cy="0.19328603552855034" r="1.5e-2" cx="-0.2757639338961586"/><circle cy="0.17770188016713268" r="1.5e-2" cx="-0.2630003843246593"/><circle cy="0.25041019491252453" r="1.5e-2" cx="-0.25023683475316005"/><circle cy="0.22849962420853176" r="1.5e-2" cx="-0.23747328518166078"/><circle cy="0.20464813215761768" r="1.5e-2" cx="-0.2247097356101615"/><circle cy="0.21971782370616583" r="1.5e-2" cx="-0.2119461860386621"/><circle cy="0.21573091818634116" r="1.5e-2" cx="-0.19918263646716283"/><circle cy="0.2535256347246439" r="1.5e-2" cx="-0.18641908689566367"/><circle cy="0.18810446095473715" r="1.5e-2" cx="-0.17365553732416428"/><circle cy="-0.20893030240249455" r="1.5e-2" cx="-0.160891987752665"/><circle cy="8.973904042366893e-2" r="1.5e-2" cx="-0.14812843818116583"/><circle cy="0.24971981986205355" r="1.5e-2" cx="-0.13536488860966644"/><circle cy="0.20382271413686676" r="1.5e-2" cx="-0.12260133903816728"/><circle cy="0.2282214477876695" r="1.5e-2" cx="-0.109837789466668"/><circle cy="0.16883686869679754" r="1.5e-2" cx="-9.707423989516861e-2"/><circle cy="0.21791466736028042" r="1.5e-2" cx="-8.431069032366945e-2"/><circle cy="0.2538841110528059" r="1.5e-2" cx="-7.154714075217017e-2"/><circle cy="0.23602997107086204" r="1.5e-2" cx="-5.878359118067078e-2"/><circle cy="0.2282274967449049" r="1.5e-2" cx="-4.60200416091715e-2"/><circle cy="0.2151083292628892" r="1.5e-2" cx="-3.3256492037672225e-2"/><circle cy="0.21022186819019734" r="1.5e-2" cx="-2.0492942466172948e-2"/><circle cy="0.2502314482262189" r="1.5e-2" cx="-7.72939289467367e-3"/><circle cy="0.16825730298168223" r="1.5e-2" cx="5.034156676825496e-3"/><circle cy="-0.1415267719286042" r="1.5e-2" cx="1.7797706248324774e-2"/><circle cy="0.20834257059511152" r="1.5e-2" cx="3.0561255819824162e-2"/><circle cy="0.25367598911792594" r="1.5e-2" cx="4.332480539132333e-2"/><circle cy="0.199428260123308" r="1.5e-2" cx="5.6088354962822606e-2"/><circle cy="0.2348753385525753" r="1.5e-2" cx="6.8851904534322e-2"/><circle cy="0.2222378570964098" r="1.5e-2" cx="8.161545410582116e-2"/><circle cy="0.21256950629923282" r="1.5e-2" cx="9.437900367732066e-2"/><circle cy="0.2507639832988291" r="1.5e-2" cx="0.10714255324881983"/><circle cy="0.23647857686183127" r="1.5e-2" cx="0.119906102820319"/><circle cy="0.22838454279712855" r="1.5e-2" cx="0.1326696523918185"/><circle cy="0.12024979168903521" r="1.5e-2" cx="0.14543320196331766"/><circle cy="0.21185610740528465" r="1.5e-2" cx="0.15819675153481683"/><circle cy="0.2500513027185526" r="1.5e-2" cx="0.1709603011063161"/><circle cy="0.23380868055608062" r="1.5e-2" cx="0.1837238506778155"/><circle cy="-0.12678584120579917" r="1.5e-2" cx="0.19648740024931466"/><circle cy="0.18829598606320253" r="1.5e-2" cx="0.20925094982081416"/><circle cy="0.250448492373021" r="1.5e-2" cx="0.22201449939231332"/><circle cy="0.23210491613876916" r="1.5e-2" cx="0.2347780489638127"/><circle cy="0.2306953200730109" r="1.5e-2" cx="0.24754159853531177"/><circle cy="0.1621096343254127" r="1.5e-2" cx="0.26030514810681127"/><circle cy="0.2146751483128702" r="1.5e-2" cx="0.2730686976783103"/><circle cy="0.25386297750846476" r="1.5e-2" cx="0.2858322472498098"/><circle cy="0.23716294076104955" r="1.5e-2" cx="0.2985957968213091"/><circle cy="0.23187373255442928" r="1.5e-2" cx="0.3113593463928084"/><circle cy="0.21868114585396908" r="1.5e-2" cx="0.32412289596430743"/><circle cy="0.21631305470828144" r="1.5e-2" cx="0.33688644553580693"/><circle cy="0.253958664450732" r="1.5e-2" cx="0.349649995107306"/><circle cy="0.23417528517052766" r="1.5e-2" cx="0.36241354467880527"/><circle cy="-0.20114922626275755" r="1.5e-2" cx="0.37517709425030477"/><circle cy="0.21166651040193807" r="1.5e-2" cx="0.38794064382180404"/><circle cy="0.25384917832477155" r="1.5e-2" cx="0.4007041933933033"/><circle cy="0.24354126371790086" r="1.5e-2" cx="0.4134677429648024"/><circle cy="0.23215542493168462" r="1.5e-2" cx="0.4262312925363019"/><circle cy="0.21370470654240092" r="1.5e-2" cx="0.43899484210780093"/><circle cy="0.1230824805563831" r="1.5e-2" cx="0.45175839167930043"/><circle cy="0.2535960294644707" r="1.5e-2" cx="0.4645219412507995"/><circle cy="0.23800004083046133" r="1.5e-2" cx="0.477285490822299"/><circle cy="0.23282848484206925" r="1.5e-2" cx="0.49004904039379804"/><circle cy="0.21637377111653167" r="1.5e-2" cx="0.5028125899652975"/><circle cy="0.21283067002787054" r="1.5e-2" cx="0.5155761395367966"/><circle cy="0.25005939319885495" r="1.5e-2" cx="0.5283396891082961"/><circle cy="0.23093478316756672" r="1.5e-2" cx="0.5411032386797952"/><circle cy="0.22091105613281092" r="1.5e-2" cx="0.5538667882512947"/><circle cy="-5.299094471101862e-2" r="1.5e-2" cx="0.5666303378227937"/><circle cy="0.24899776339806223" r="1.5e-2" cx="0.579393887394293"/><circle cy="-3.593333897902673e-2" r="1.5e-2" cx="0.5921574369657925"/><circle cy="0.22131433255049743" r="1.5e-2" cx="0.6049209865372918"/><circle cy="0.20948249658611978" r="1.5e-2" cx="0.6176845361087908"/><circle cy="0.18684537050619188" r="1.5e-2" cx="0.6304480856802903"/><circle cy="0.2493744622098958" r="1.5e-2" cx="0.6432116352517894"/><circle cy="0.2265673604316536" r="1.5e-2" cx="0.6559751848232886"/><circle cy="0.21441526998764504" r="1.5e-2" cx="0.6687387343947881"/><circle cy="0.11533577005493972" r="1.5e-2" cx="0.6815022839662874"/><circle cy="0.2117572825664516" r="1.5e-2" cx="0.6942658335377865"/><circle cy="0.25057378139975894" r="1.5e-2" cx="0.707029383109286"/><circle cy="0.23744856496050787" r="1.5e-2" cx="0.719792932680785"/><circle cy="0.2280689384533724" r="1.5e-2" cx="0.7325564822522845"/></g><g stroke-opacity="0.4" fill-opacity="1.0" stroke="#0a865a" stroke-width="3.0e-3" fill="#0a865a"><rect height="3.0000000000000027e-2" width="3.0000000000000027e-2" x="-0.5460349253261442" y="0.19654072989742477"/><rect height="3.0000000000000027e-2" width="3.0000000000000027e-2" x="-0.5332713757546449" y="0.2091920483432662"/><rect height="3.0000000000000027e-2" width="3.0000000000000027e-2" x="-0.5205078261831456" y="-0.25758114298071444"/><rect height="3.0000000000000027e-2" width="3.0000000000000027e-2" x="-0.5077442766116463" y="0.13244650831504784"/><rect height="3.0000000000000027e-2" width="3.0000000000000027e-2" x="-0.494980727040147" y="-0.2626019665159972"/><rect height="3.0000000000000027e-2" width="3.0000000000000027e-2" x="-0.48221717746864773" y="-0.15580951682441846"/><rect height="3.0000000000000027e-2" width="3.0000000000000027e-2" x="-0.4694536278971485" y="0.15544857554618302"/><rect height="3.0000000000000027e-2" width="3.0000000000000027e-2" x="-0.4566900783256492" y="-0.21408112558996228"/><rect height="3.0e-2" width="3.0000000000000027e-2" x="-0.4439265287541499" y="-0.12242577551412358"/><rect height="3.0000000000000027e-2" width="3.0000000000000027e-2" x="-0.4311629791826506" y="0.14645536398844045"/><rect height="3.0000000000000027e-2" width="3.0000000000000027e-2" x="-0.4183994296111514" y="0.13730336730326897"/><rect height="3.0000000000000027e-2" width="3.0000000000000027e-2" x="-0.4056358800396521" y="-0.30855997767934773"/><rect height="3.0000000000000027e-2" width="3.0000000000000027e-2" x="-0.39287233046815284" y="0.18861893988999967"/><rect height="3.0e-2" width="3.0000000000000027e-2" x="-0.38010878089665356" y="6.303374108345901e-2"/><rect height="3.0000000000000027e-2" width="3.0000000000000027e-2" x="-0.3673452313251543" y="0.13785714933816845"/><rect height="3.0000000000000027e-2" width="3.0000000000000027e-2" x="-0.35458168175365495" y="0.1480600011190571"/><rect height="3.0000000000000013e-2" width="3.0000000000000027e-2" x="-0.3418181321821556" y="-0.1300175570983757"/><rect height="3.0000000000000027e-2" width="3.0000000000000027e-2" x="-0.32905458261065645" y="0.20717018438733892"/><rect height="3.0000000000000027e-2" width="3.0000000000000027e-2" x="-0.3162910330391571" y="0.15734866643176548"/><rect height="3.0000000000000027e-2" width="3.0000000000000027e-2" x="-0.3035274834676579" y="-0.17708184692811269"/><rect height="3.0000000000000027e-2" width="3.0000000000000027e-2" x="-0.2907639338961586" y="0.18890796662790293"/><rect height="3.0000000000000013e-2" width="3.0000000000000027e-2" x="-0.2780003843246593" y="9.863310201112709e-2"/><rect height="3.0000000000000027e-2" width="3.0000000000000027e-2" x="-0.26523683475316007" y="0.2163919709166136"/><rect height="3.0000000000000027e-2" width="3.0000000000000027e-2" x="-0.2524732851816608" y="0.1672494484107121"/><rect height="3.0e-2" width="3.0000000000000027e-2" x="-0.2397097356101615" y="-0.12051782098413509"/><rect height="3.0000000000000027e-2" width="3.0000000000000027e-2" x="-0.22694618603866212" y="-0.298936200135799"/><rect height="3.0000000000000013e-2" width="3.0000000000000027e-2" x="-0.21418263646716285" y="0.10346364803537429"/><rect height="3.0000000000000027e-2" width="3.0000000000000027e-2" x="-0.20141908689566368" y="0.15287024533058308"/><rect height="3.0000000000000027e-2" width="3.0000000000000027e-2" x="-0.1886555373241643" y="0.13103264017324212"/><rect height="3.0e-2" width="3.0000000000000027e-2" x="-0.175891987752665" y="-1.9015033170969295e-2"/><rect height="3.0000000000000027e-2" width="3.0000000000000027e-2" x="-0.16312843818116585" y="0.21142657095200001"/><rect height="3.0000000000000027e-2" width="3.0000000000000013e-2" x="-0.15036488860966646" y="0.16716748504017265"/><rect height="3.0000000000000027e-2" width="3.0000000000000013e-2" x="-0.1376013390381673" y="-0.2526929806388002"/><rect height="3.0e-2" width="3.0e-2" x="-0.124837789466668" y="7.128092718416502e-2"/><rect height="3.0000000000000027e-2" width="3.0e-2" x="-0.11207423989516861" y="0.19567909374522696"/><rect height="3.0000000000000027e-2" width="3.0e-2" x="-9.931069032366945e-2" y="0.14535766728013172"/><rect height="3.0e-2" width="3.0e-2" x="-8.654714075217017e-2" y="-3.3375106423841436e-2"/><rect height="3.0000000000000027e-2" width="3.0e-2" x="-7.378359118067078e-2" y="0.19414220493564666"/><rect height="3.0000000000000027e-2" width="3.0e-2" x="-6.10200416091715e-2" y="0.20054472372143944"/><rect height="3.0000000000000027e-2" width="3.0e-2" x="-4.8256492037672225e-2" y="-0.27747472670055073"/><rect height="3.0000000000000027e-2" width="3.0e-2" x="-3.549294246617295e-2" y="-0.42942343607991285"/><rect height="3.0000000000000027e-2" width="3.0e-2" x="-2.272939289467367e-2" y="-0.31926655637401313"/><rect height="3.0000000000000027e-2" width="3.0e-2" x="-9.965843323174503e-3" y="-0.36751141362618356"/><rect height="3.0000000000000027e-2" width="3.0e-2" x="2.7977062483247744e-3" y="-0.35109416562952256"/><rect height="3.0000000000000027e-2" width="3.0e-2" x="1.5561255819824163e-2" y="0.1600568223920299"/><rect height="3.0e-2" width="3.0e-2" x="2.832480539132333e-2" y="-3.878083266920827e-2"/><rect height="3.0000000000000027e-2" width="3.0e-2" x="4.108835496282261e-2" y="0.17134640714623806"/><rect height="3.0000000000000027e-2" width="3.0e-2" x="5.3851904534321995e-2" y="0.15579801624447465"/><rect height="3.0000000000000027e-2" width="3.0e-2" x="6.661545410582116e-2" y="-0.3204240243410038"/><rect height="3.0e-2" width="3.0e-2" x="7.937900367732066e-2" y="-6.8164035622308855e-3"/><rect height="3.0000000000000027e-2" width="3.0e-2" x="9.214255324881983e-2" y="0.159330909717801"/><rect height="3.0000000000000027e-2" width="3.0000000000000013e-2" x="0.104906102820319" y="0.19243987714567856"/><rect height="3.0000000000000027e-2" width="3.0000000000000013e-2" x="0.1176696523918185" y="0.13641061682729166"/><rect height="3.0000000000000013e-2" width="3.0000000000000027e-2" x="0.13043320196331765" y="0.10969384715192411"/><rect height="3.0e-2" width="3.0000000000000027e-2" x="0.1431967515348168" y="-8.574444516695877e-2"/><rect height="3.0000000000000027e-2" width="3.0000000000000027e-2" x="0.1559603011063161" y="0.21623707980540507"/><rect height="3.0e-2" width="3.0000000000000027e-2" x="0.16872385067781548" y="3.7307563767351073e-2"/><rect height="3.0000000000000027e-2" width="3.0000000000000027e-2" x="0.18148740024931465" y="0.16047151621649824"/><rect height="3.0000000000000013e-2" width="3.0000000000000027e-2" x="0.19425094982081414" y="-0.15051369257082192"/><rect height="3.0000000000000027e-2" width="3.0000000000000027e-2" x="0.2070144993923133" y="0.15704999916826834"/><rect height="3.0000000000000027e-2" width="3.0000000000000027e-2" x="0.2197780489638127" y="0.16762573135673575"/><rect height="3.0000000000000027e-2" width="3.0000000000000027e-2" x="0.23254159853531176" y="-0.2987639182725388"/><rect height="3.0000000000000027e-2" width="3.0000000000000027e-2" x="0.24530514810681125" y="0.16068251140606493"/><rect height="3.0000000000000027e-2" width="3.0000000000000027e-2" x="0.2580686976783103" y="0.19356986016323108"/><rect height="3.0e-2" width="3.0000000000000027e-2" x="0.2708322472498098" y="-1.701986023884304e-2"/><rect height="3.0e-2" width="3.0000000000000027e-2" x="0.2835957968213091" y="-0.10948860603292741"/><rect height="3.0000000000000027e-2" width="3.0000000000000027e-2" x="0.29635934639280836" y="0.19310726615865503"/><rect height="3.0000000000000027e-2" width="3.0000000000000027e-2" x="0.3091228959643074" y="0.2084322993145019"/><rect height="3.0000000000000027e-2" width="3.0000000000000027e-2" x="0.3218864455358069" y="0.15796770159284168"/><rect height="3.0000000000000013e-2" width="3.0000000000000027e-2" x="0.334649995107306" y="0.10588886402095356"/><rect height="3.0e-2" width="3.0000000000000027e-2" x="0.34741354467880525" y="-1.6300828253469443e-2"/><rect height="3.0000000000000027e-2" width="3.0000000000000027e-2" x="0.36017709425030475" y="0.20639039818773242"/><rect height="3.0000000000000027e-2" width="3.0000000000000027e-2" x="0.37294064382180403" y="0.14277302346541737"/><rect height="3.0e-2" width="3.0000000000000027e-2" x="0.3857041933933033" y="-2.4139218263011672e-2"/><rect height="3.0000000000000027e-2" width="3.0000000000000027e-2" x="0.39846774296480236" y="0.18969440668046839"/><rect height="3.0000000000000027e-2" width="3.0000000000000027e-2" x="0.41123129253630186" y="0.18202750460854927"/><rect height="3.0000000000000013e-2" width="3.0000000000000027e-2" x="0.4239948421078009" y="0.11993083773520997"/><rect height="3.0e-2" width="3.0000000000000027e-2" x="0.4367583916793004" y="1.3817988389026606e-2"/><rect height="3.0e-2" width="3.0000000000000027e-2" x="0.4495219412507995" y="-5.9164949014851684e-2"/><rect height="3.0000000000000027e-2" width="3.0000000000000027e-2" x="0.462285490822299" y="0.16093214430997277"/><rect height="3.0000000000000027e-2" width="3.0000000000000027e-2" x="0.475049040393798" y="0.2136689572051398"/><rect height="3.0000000000000027e-2" width="3.0000000000000027e-2" x="0.4878125899652975" y="0.17362591887441003"/><rect height="3.0000000000000027e-2" width="3.0000000000000027e-2" x="0.5005761395367966" y="0.15725536126640965"/><rect height="3.0e-2" width="3.0000000000000027e-2" x="0.5133396891082961" y="-4.3968909872049475e-2"/><rect height="3.0000000000000027e-2" width="3.0000000000000027e-2" x="0.5261032386797951" y="0.21166058998504395"/><rect height="3.0000000000000027e-2" width="3.0000000000000027e-2" x="0.5388667882512946" y="0.1647352371418072"/><rect height="3.0000000000000027e-2" width="3.0000000000000027e-2" x="0.5516303378227937" y="0.16173389578554026"/><rect height="3.0000000000000013e-2" width="3.0000000000000027e-2" x="0.564393887394293" y="-0.15378406130013267"/><rect height="3.0000000000000027e-2" width="3.0000000000000027e-2" x="0.5771574369657925" y="0.1910667260472635"/><rect height="3.0000000000000027e-2" width="3.0000000000000027e-2" x="0.5899209865372917" y="0.13828749483948338"/><rect height="3.0000000000000027e-2" width="3.0000000000000027e-2" x="0.6026845361087908" y="0.15862567691612062"/><rect height="3.0000000000000027e-2" width="3.0000000000000027e-2" x="0.6154480856802903" y="-0.418925168350041"/><rect height="3.0000000000000027e-2" width="3.0000000000000027e-2" x="0.6282116352517894" y="0.21009568694226727"/><rect height="3.0e-2" width="3.0000000000000027e-2" x="0.6409751848232886" y="8.587530679554936e-3"/><rect height="3.0000000000000027e-2" width="3.0000000000000027e-2" x="0.6537387343947881" y="0.1636167471430019"/><rect height="3.0e-2" width="3.0000000000000027e-2" x="0.6665022839662874" y="-7.193210499175072e-2"/><rect height="3.0000000000000027e-2" width="3.0000000000000027e-2" x="0.6792658335377865" y="0.2067456988133458"/><rect height="3.0000000000000027e-2" width="3.0000000000000027e-2" x="0.692029383109286" y="0.15859554554789185"/><rect height="3.0000000000000013e-2" width="3.0000000000000027e-2" x="0.704792932680785" y="-0.14871983649668596"/><rect height="3.0000000000000027e-2" width="3.0000000000000027e-2" x="0.7175564822522845" y="0.18838008169116743"/></g><g stroke-opacity="1.0" fill-opacity="1.0" stroke="#0ea194" stroke-width="4.0e-3" fill="#ffffff"><rect height="7.727542868203807e-2" width="0.1462958051885248" x="-7.370949877540833e-2" y="0.4060899389206543"/></g><g fill-opacity="1.0" font-size="1.6e-2" stroke="none" stroke-width="0.0" fill="#808080" text-anchor="start"><text x="-5.4989626070542696e-2" y="0.4618915694170771">Dynamic</text></g><g stroke-opacity="0.4" fill-opacity="1.0" stroke="#0a865a" stroke-width="3.0e-3" fill="#0a865a"><rect height="2.0000000000000018e-2" width="2.0000000000000004e-2" x="3.4225699265245e-2" y="0.4469011796978848"/></g><g fill-opacity="1.0" font-size="1.6e-2" stroke="none" stroke-width="0.0" fill="#808080" text-anchor="start"><text x="-5.4989626070542696e-2" y="0.4339907541688657">Fixed</text></g><g stroke-opacity="0.4" fill-opacity="1.0" stroke="#0a865a" stroke-width="3.0e-3" fill="#0ea194"><circle cy="0.42900036444967343" r="1.0000000000000002e-2" cx="4.4225699265245e-2"/></g></svg>