
<svg xmlns="http://www.w3.org/2000/svg" height="300.0" viewBox="-0.92 -0.5514086878757898 1.7228200318237838 1.0714086878757898" width="450.0" xmlns:xlink="http://www.w3.org/1999/xlink">
  <g stroke-opacity="0.0" fill-opacity="0.1" stroke="#000000" stroke-width="0.0" fill="#cccccc">
    <rect height="0.7610929294466855" width="1.4039904528649207" x="-0.6586704210411369" y="-0.4961945353527666"/>
  </g>
  <g stroke-opacity="0.1" stroke="#808080" stroke-width="5.0e-3" fill="none">
    <polyline points="-0.6633503892173533,0.2648983940939189
0.75,0.2648983940939189"/>
  </g>
  <g stroke-opacity="0.1" stroke="#808080" stroke-width="5.0e-3" fill="none">
    <polyline points="-0.6633503892173533,0.16976177791308322
0.75,0.16976177791308322"/>
  </g>
  <g stroke-opacity="0.1" stroke="#808080" stroke-width="5.0e-3" fill="none">
    <polyline points="-0.6633503892173533,7.462516173224754e-2
0.75,7.462516173224754e-2"/>
  </g>
  <g stroke-opacity="0.1" stroke="#808080" stroke-width="5.0e-3" fill="none">
    <polyline points="-0.6633503892173533,-2.051145444858815e-2
0.75,-2.051145444858815e-2"/>
  </g>
  <g stroke-opacity="0.1" stroke="#808080" stroke-width="5.0e-3" fill="none">
    <polyline points="-0.6633503892173533,-0.11564807062942384
0.75,-0.11564807062942384"/>
  </g>
  <g stroke-opacity="0.1" stroke="#808080" stroke-width="5.0e-3" fill="none">
    <polyline points="-0.6633503892173533,-0.21078468681025953
0.75,-0.21078468681025953"/>
  </g>
  <g stroke-opacity="0.1" stroke="#808080" stroke-width="5.0e-3" fill="none">
    <polyline points="-0.6633503892173533,-0.3059213029910952
0.75,-0.3059213029910952"/>
  </g>
  <g stroke-opacity="0.1" stroke="#808080" stroke-width="5.0e-3" fill="none">
    <polyline points="-0.6633503892173533,-0.4010579191719309
0.75,-0.4010579191719309"/>
  </g>
  <g stroke-opacity="0.1" stroke="#808080" stroke-width="5.0e-3" fill="none">
    <polyline points="-0.6633503892173533,-0.4961945353527666
0.75,-0.4961945353527666"/>
  </g>
  <g fill-opacity="0.8" font-size="5.0e-2" stroke="none" stroke-width="0.0" fill="#333333" text-anchor="end">
    <text x="-0.75" y="0.2759342415708958">0
    </text>
  </g>
  <g fill-opacity="0.8" font-size="5.0e-2" stroke="none" stroke-width="0.0" fill="#333333" text-anchor="end">
    <text x="-0.75" y="0.18079762539006017">2,000
    </text>
  </g>
  <g fill-opacity="0.8" font-size="5.0e-2" stroke="none" stroke-width="0.0" fill="#333333" text-anchor="end">
    <text x="-0.75" y="8.566100920922443e-2">4,000
    </text>
  </g>
  <g fill-opacity="0.8" font-size="5.0e-2" stroke="none" stroke-width="0.0" fill="#333333" text-anchor="end">
    <text x="-0.75" y="-9.475606971611317e-3">6,000
    </text>
  </g>
  <g fill-opacity="0.8" font-size="5.0e-2" stroke="none" stroke-width="0.0" fill="#333333" text-anchor="end">
    <text x="-0.75" y="-0.104612223152447">8,000
    </text>
  </g>
  <g fill-opacity="0.8" font-size="5.0e-2" stroke="none" stroke-width="0.0" fill="#333333" text-anchor="end">
    <text x="-0.75" y="-0.1997488393332827">10,000
    </text>
  </g>
  <g fill-opacity="0.8" font-size="5.0e-2" stroke="none" stroke-width="0.0" fill="#333333" text-anchor="end">
    <text x="-0.75" y="-0.2948854555141184">12,000
    </text>
  </g>
  <g fill-opacity="0.8" font-size="5.0e-2" stroke="none" stroke-width="0.0" fill="#333333" text-anchor="end">
    <text x="-0.75" y="-0.39002207169495406">14,000
    </text>
  </g>
  <g fill-opacity="0.8" font-size="5.0e-2" stroke="none" stroke-width="0.0" fill="#333333" text-anchor="end">
    <text x="-0.75" y="-0.48515868787578975">16,000
    </text>
  </g>
  <g stroke-opacity="0.5" fill-opacity="0.5" stroke="#570d66" stroke-width="5.0e-3" fill="#570d66">
    <g transform="rotate(-90.0, -0.7195100073319501, 0.2648983940939189)">
      <polyline points="-0.7195100073319501,0.2798983940939189
-0.7195100073319501,0.2498983940939189"/>
    </g>
    <g transform="rotate(-90.0, -0.7195100073319501, 0.16976177791308322)">
      <polyline points="-0.7195100073319501,0.18476177791308324
-0.7195100073319501,0.1547617779130832"/>
    </g>
    <g transform="rotate(-90.0, -0.7195100073319501, 7.462516173224754e-2)">
      <polyline points="-0.7195100073319501,8.962516173224754e-2
-0.7195100073319501,5.9625161732247536e-2"/>
    </g>
    <g transform="rotate(-90.0, -0.7195100073319501, -2.051145444858815e-2)">
      <polyline points="-0.7195100073319501,-5.511454448588152e-3
-0.7195100073319501,-3.551145444858815e-2"/>
    </g>
    <g transform="rotate(-90.0, -0.7195100073319501, -0.11564807062942384)">
      <polyline points="-0.7195100073319501,-0.10064807062942384
-0.7195100073319501,-0.13064807062942385"/>
    </g>
    <g transform="rotate(-90.0, -0.7195100073319501, -0.21078468681025953)">
      <polyline points="-0.7195100073319501,-0.1957846868102595
-0.7195100073319501,-0.22578468681025954"/>
    </g>
    <g transform="rotate(-90.0, -0.7195100073319501, -0.3059213029910952)">
      <polyline points="-0.7195100073319501,-0.2909213029910952
-0.7195100073319501,-0.3209213029910952"/>
    </g>
    <g transform="rotate(-90.0, -0.7195100073319501, -0.4010579191719309)">
      <polyline points="-0.7195100073319501,-0.3860579191719309
-0.7195100073319501,-0.4160579191719309"/>
    </g>
    <g transform="rotate(-90.0, -0.7195100073319501, -0.4961945353527666)">
      <polyline points="-0.7195100073319501,-0.4811945353527666
-0.7195100073319501,-0.5111945353527666"/>
    </g>
  </g>
  <g stroke-opacity="0.5" fill-opacity="0.5" stroke="#570d66" stroke-width="0.0" fill="#570d66">
    <rect height="0.7610929294466855" width="4.679968176216409e-3" x="-0.7078100868914091" y="-0.4961945353527666"/>
  </g>
  <g stroke-opacity="0.1" stroke="#808080" stroke-width="5.0e-3" fill="none">
    <polyline points="-0.6586704210411369,0.2687038587411523
-0.6586704210411369,-0.5"/>
  </g>
  <g stroke-opacity="0.1" stroke="#808080" stroke-width="5.0e-3" fill="none">
    <polyline points="-0.5310349253261442,0.2687038587411523
-0.5310349253261442,-0.5"/>
  </g>
  <g stroke-opacity="0.1" stroke="#808080" stroke-width="5.0e-3" fill="none">
    <polyline points="-0.4033994296111514,0.2687038587411523
-0.4033994296111514,-0.5"/>
  </g>
  <g stroke-opacity="0.1" stroke="#808080" stroke-width="5.0e-3" fill="none">
    <polyline points="-0.2757639338961586,0.2687038587411523
-0.2757639338961586,-0.5"/>
  </g>
  <g stroke-opacity="0.1" stroke="#808080" stroke-width="5.0e-3" fill="none">
    <polyline points="-0.14812843818116583,0.2687038587411523
-0.14812843818116583,-0.5"/>
  </g>
  <g stroke-opacity="0.1" stroke="#808080" stroke-width="5.0e-3" fill="none">
    <polyline points="-2.0492942466172948e-2,0.2687038587411523
-2.0492942466172948e-2,-0.5"/>
  </g>
  <g stroke-opacity="0.1" stroke="#808080" stroke-width="5.0e-3" fill="none">
    <polyline points="0.10714255324881983,0.2687038587411523
0.10714255324881983,-0.5"/>
  </g>
  <g stroke-opacity="0.1" stroke="#808080" stroke-width="5.0e-3" fill="none">
    <polyline points="0.2347780489638127,0.2687038587411523
0.2347780489638127,-0.5"/>
  </g>
  <g stroke-opacity="0.1" stroke="#808080" stroke-width="5.0e-3" fill="none">
    <polyline points="0.36241354467880527,0.2687038587411523
0.36241354467880527,-0.5"/>
  </g>
  <g stroke-opacity="0.1" stroke="#808080" stroke-width="5.0e-3" fill="none">
    <polyline points="0.49004904039379826,0.2687038587411523
0.49004904039379826,-0.5"/>
  </g>
  <g stroke-opacity="0.1" stroke="#808080" stroke-width="5.0e-3" fill="none">
    <polyline points="0.6176845361087908,0.2687038587411523
0.6176845361087908,-0.5"/>
  </g>
  <g stroke-opacity="0.1" stroke="#808080" stroke-width="5.0e-3" fill="none">
    <polyline points="0.7453200318237838,0.2687038587411523
0.7453200318237838,-0.5"/>
  </g>
  <g fill-opacity="0.8" font-size="5.0e-2" stroke="none" stroke-width="0.0" fill="#333333" text-anchor="middle">
    <text x="-0.6586704210411369" y="0.3495699824948626">-10
    </text>
  </g>
  <g fill-opacity="0.8" font-size="5.0e-2" stroke="none" stroke-width="0.0" fill="#333333" text-anchor="middle">
    <text x="-0.5310349253261442" y="0.3495699824948626">0
    </text>
  </g>
  <g fill-opacity="0.8" font-size="5.0e-2" stroke="none" stroke-width="0.0" fill="#333333" text-anchor="middle">
    <text x="-0.4033994296111514" y="0.3495699824948626">10
    </text>
  </g>
  <g fill-opacity="0.8" font-size="5.0e-2" stroke="none" stroke-width="0.0" fill="#333333" text-anchor="middle">
    <text x="-0.2757639338961586" y="0.3495699824948626">20
    </text>
  </g>
  <g fill-opacity="0.8" font-size="5.0e-2" stroke="none" stroke-width="0.0" fill="#333333" text-anchor="middle">
    <text x="-0.14812843818116583" y="0.3495699824948626">30
    </text>
  </g>
  <g fill-opacity="0.8" font-size="5.0e-2" stroke="none" stroke-width="0.0" fill="#333333" text-anchor="middle">
    <text x="-2.0492942466172948e-2" y="0.3495699824948626">40
    </text>
  </g>
  <g fill-opacity="0.8" font-size="5.0e-2" stroke="none" stroke-width="0.0" fill="#333333" text-anchor="middle">
    <text x="0.10714255324881983" y="0.3495699824948626">50
    </text>
  </g>
  <g fill-opacity="0.8" font-size="5.0e-2" stroke="none" stroke-width="0.0" fill="#333333" text-anchor="middle">
    <text x="0.2347780489638127" y="0.3495699824948626">60
    </text>
  </g>
  <g fill-opacity="0.8" font-size="5.0e-2" stroke="none" stroke-width="0.0" fill="#333333" text-anchor="middle">
    <text x="0.36241354467880527" y="0.3495699824948626">70
    </text>
  </g>
  <g fill-opacity="0.8" font-size="5.0e-2" stroke="none" stroke-width="0.0" fill="#333333" text-anchor="middle">
    <text x="0.49004904039379826" y="0.3495699824948626">80
    </text>
  </g>
  <g fill-opacity="0.8" font-size="5.0e-2" stroke="none" stroke-width="0.0" fill="#333333" text-anchor="middle">
    <text x="0.6176845361087908" y="0.3495699824948626">90
    </text>
  </g>
  <g fill-opacity="0.8" font-size="5.0e-2" stroke="none" stroke-width="0.0" fill="#333333" text-anchor="middle">
    <text x="0.7453200318237838" y="0.3495699824948626">100
    </text>
  </g>
  <g stroke-opacity="0.5" fill-opacity="0.5" stroke="#570d66" stroke-width="5.0e-3" fill="#570d66">
    <polyline points="-0.6586704210411369,0.3008284496537027
-0.6586704210411369,0.2708284496537027"/>
    <polyline points="-0.5310349253261442,0.3008284496537027
-0.5310349253261442,0.2708284496537027"/>
    <polyline points="-0.4033994296111514,0.3008284496537027
-0.4033994296111514,0.2708284496537027"/>
    <polyline points="-0.2757639338961586,0.3008284496537027
-0.2757639338961586,0.2708284496537027"/>
    <polyline points="-0.14812843818116583,0.3008284496537027
-0.14812843818116583,0.2708284496537027"/>
    <polyline points="-2.0492942466172948e-2,0.3008284496537027
-2.0492942466172948e-2,0.2708284496537027"/>
    <polyline points="0.10714255324881983,0.3008284496537027
0.10714255324881983,0.2708284496537027"/>
    <polyline points="0.2347780489638127,0.3008284496537027
0.2347780489638127,0.2708284496537027"/>
    <polyline points="0.36241354467880527,0.3008284496537027
0.36241354467880527,0.2708284496537027"/>
    <polyline points="0.49004904039379826,0.3008284496537027
0.49004904039379826,0.2708284496537027"/>
    <polyline points="0.6176845361087908,0.3008284496537027
0.6176845361087908,0.2708284496537027"/>
    <polyline points="0.7453200318237838,0.3008284496537027
0.7453200318237838,0.2708284496537027"/>
  </g>
  <g stroke-opacity="0.5" fill-opacity="0.5" stroke="#570d66" stroke-width="0.0" fill="#570d66">
    <rect height="3.805464647233414e-3" width="1.4039904528649207" x="-0.6586704210411369" y="0.27250932338838574"/>
  </g>
  <g stroke-opacity="0.4" fill-opacity="1.0" stroke="#0ea194" stroke-width="3.0e-3" fill="#026062">
    <circle cy="-0.4675036151914148" r="1.5e-2" cx="-0.5310349253261442"/>
    <circle cy="0.24854973742293934" r="1.5e-2" cx="-0.5182713757546449"/>
    <circle cy="0.21878272699596624" r="1.5e-2" cx="-0.5055078261831456"/>
    <circle cy="0.1975665956313266" r="1.5e-2" cx="-0.4927442766116463"/>
    <circle cy="0.17793867493720988" r="1.5e-2" cx="-0.479980727040147"/>
    <circle cy="0.2501002739934546" r="1.5e-2" cx="-0.4672171774686477"/>
    <circle cy="0.23512481924042927" r="1.5e-2" cx="-0.4544536278971485"/>
    <circle cy="0.2098054456199102" r="1.5e-2" cx="-0.44169007832564916"/>
    <circle cy="0.1824613745338306" r="1.5e-2" cx="-0.4289265287541499"/>
    <circle cy="0.16109169267067508" r="1.5e-2" cx="-0.4161629791826506"/>
    <circle cy="0.2410620100464267" r="1.5e-2" cx="-0.4033994296111514"/>
    <circle cy="0.22012700738260144" r="1.5e-2" cx="-0.3906358800396521"/>
    <circle cy="0.19787778750285412" r="1.5e-2" cx="-0.37787233046815283"/>
    <circle cy="0.16660562067128398" r="1.5e-2" cx="-0.36510878089665355"/>
    <circle cy="0.1749211317451861" r="1.5e-2" cx="-0.3523452313251543"/>
    <circle cy="0.24991275972296217" r="1.5e-2" cx="-0.33958168175365494"/>
    <circle cy="0.22158488088895656" r="1.5e-2" cx="-0.3268181321821556"/>
    <circle cy="0.19789424613745338" r="1.5e-2" cx="-0.31405458261065644"/>
    <circle cy="0.1768310944516326" r="1.5e-2" cx="-0.3012910330391571"/>
    <circle cy="0.25012472410381315" r="1.5e-2" cx="-0.2885274834676579"/>
    <circle cy="0.23440872593043616" r="1.5e-2" cx="-0.2757639338961586"/>
    <circle cy="0.20814883172235332" r="1.5e-2" cx="-0.2630003843246593"/>
    <circle cy="0.1536919666641297" r="1.5e-2" cx="-0.25023683475316005"/>
    <circle cy="8.765973437856761e-2" r="1.5e-2" cx="-0.23747328518166078"/>
    <circle cy="0.24933746860491668" r="1.5e-2" cx="-0.2247097356101615"/>
    <circle cy="0.2239561610472639" r="1.5e-2" cx="-0.2119461860386621"/>
    <circle cy="0.20034696323921153" r="1.5e-2" cx="-0.19918263646716283"/>
    <circle cy="0.18359121698759417" r="1.5e-2" cx="-0.18641908689566367"/>
    <circle cy="0.17641515716568995" r="1.5e-2" cx="-0.17365553732416428"/>
    <circle cy="0.250083625085623" r="1.5e-2" cx="-0.160891987752665"/>
    <circle cy="0.2194008295912931" r="1.5e-2" cx="-0.14812843818116583"/>
    <circle cy="0.19665138138366695" r="1.5e-2" cx="-0.13536488860966644"/>
    <circle cy="0.17690473019255654" r="1.5e-2" cx="-0.12260133903816728"/>
    <circle cy="0.2501236776010351" r="1.5e-2" cx="-0.109837789466668"/>
    <circle cy="0.23337896719689477" r="1.5e-2" cx="-9.707423989516861e-2"/>
    <circle cy="0.2141769731334196" r="1.5e-2" cx="-8.431069032366945e-2"/>
    <circle cy="0.18946675926630646" r="1.5e-2" cx="-7.154714075217017e-2"/>
    <circle cy="0.17029987061420204" r="1.5e-2" cx="-5.878359118067078e-2"/>
    <circle cy="0.2499691757363574" r="1.5e-2" cx="-4.60200416091715e-2"/>
    <circle cy="0.22524478651343333" r="1.5e-2" cx="-3.3256492037672225e-2"/>
    <circle cy="0.2034471801506964" r="1.5e-2" cx="-2.0492942466172948e-2"/>
    <circle cy="0.18445962402009292" r="1.5e-2" cx="-7.72939289467367e-3"/>
    <circle cy="0.1759786703706523" r="1.5e-2" cx="5.034156676825496e-3"/>
    <circle cy="0.250185706674785" r="1.5e-2" cx="1.7797706248324774e-2"/>
    <circle cy="0.22051183499505295" r="1.5e-2" cx="3.0561255819824162e-2"/>
    <circle cy="0.19654863383819166" r="1.5e-2" cx="4.332480539132333e-2"/>
    <circle cy="0.17667040870690315" r="1.5e-2" cx="5.6088354962822606e-2"/>
    <circle cy="0.25015193317604084" r="1.5e-2" cx="6.8851904534322e-2"/>
    <circle cy="0.23366114240048713" r="1.5e-2" cx="8.161545410582116e-2"/>
    <circle cy="0.21358636502016898" r="1.5e-2" cx="9.437900367732066e-2"/>
    <circle cy="0.18839323768932187" r="1.5e-2" cx="0.10714255324881983"/>
    <circle cy="0.1753425869548672" r="1.5e-2" cx="0.119906102820319"/>
    <circle cy="0.24976995966207477" r="1.5e-2" cx="0.1326696523918185"/>
    <circle cy="0.22664424613745343" r="1.5e-2" cx="0.14543320196331766"/>
    <circle cy="0.19564483598447374" r="1.5e-2" cx="0.15819675153481683"/>
    <circle cy="0.18396320115686127" r="1.5e-2" cx="0.1709603011063161"/>
    <circle cy="0.16670722657736514" r="1.5e-2" cx="0.1837238506778155"/>
    <circle cy="0.2494017809574549" r="1.5e-2" cx="0.19648740024931466"/>
    <circle cy="0.2199295989040262" r="1.5e-2" cx="0.20925094982081416"/>
    <circle cy="0.1960119681863156" r="1.5e-2" cx="0.22201449939231332"/>
    <circle cy="0.17569221401933177" r="1.5e-2" cx="0.2347780489638127"/>
    <circle cy="0.25006754699748845" r="1.5e-2" cx="0.24754159853531177"/>
    <circle cy="0.23308651723875484" r="1.5e-2" cx="0.26030514810681127"/>
    <circle cy="0.21305036532460614" r="1.5e-2" cx="0.2730686976783103"/>
    <circle cy="0.1887873886901591" r="1.5e-2" cx="0.2858322472498098"/>
    <circle cy="0.17479079458101837" r="1.5e-2" cx="0.2985957968213091"/>
    <circle cy="0.24995871070857756" r="1.5e-2" cx="0.3113593463928084"/>
    <circle cy="0.22636092929446688" r="1.5e-2" cx="0.32412289596430743"/>
    <circle cy="0.20279416241723114" r="1.5e-2" cx="0.33688644553580693"/>
    <circle cy="0.17850587944288" r="1.5e-2" cx="0.349649995107306"/>
    <circle cy="0.16790290356952586" r="1.5e-2" cx="0.36241354467880527"/>
    <circle cy="0.24973923053504837" r="1.5e-2" cx="0.37517709425030477"/>
    <circle cy="0.2194856914529264" r="1.5e-2" cx="0.38794064382180404"/>
    <circle cy="0.19509903721744426" r="1.5e-2" cx="0.4007041933933033"/>
    <circle cy="0.17626369967273003" r="1.5e-2" cx="0.4134677429648024"/>
    <circle cy="0.2500205495090951" r="1.5e-2" cx="0.4262312925363019"/>
    <circle cy="0.23256859350026643" r="1.5e-2" cx="0.43899484210780093"/>
    <circle cy="0.21309850445239364" r="1.5e-2" cx="0.45175839167930043"/>
    <circle cy="0.18924651799984776" r="1.5e-2" cx="0.4645219412507995"/>
    <circle cy="0.1771282061039653" r="1.5e-2" cx="0.477285490822299"/>
    <circle cy="0.2499535733313038" r="1.5e-2" cx="0.49004904039379804"/>
    <circle cy="0.22603061496308702" r="1.5e-2" cx="0.5028125899652975"/>
    <circle cy="0.202201175888576" r="1.5e-2" cx="0.5155761395367966"/>
    <circle cy="0.1808331113478956" r="1.5e-2" cx="0.5283396891082961"/>
    <circle cy="0.17552505898470205" r="1.5e-2" cx="0.5411032386797952"/>
    <circle cy="0.24995642742978919" r="1.5e-2" cx="0.5538667882512947"/>
    <circle cy="0.21647147804246902" r="1.5e-2" cx="0.5666303378227937"/>
    <circle cy="0.1942528921531319" r="1.5e-2" cx="0.579393887394293"/>
    <circle cy="0.17571266839181066" r="1.5e-2" cx="0.5921574369657925"/>
    <circle cy="0.24950034249181824" r="1.5e-2" cx="0.6049209865372918"/>
    <circle cy="0.2323008790623335" r="1.5e-2" cx="0.6176845361087908"/>
    <circle cy="0.21277342263490379" r="1.5e-2" cx="0.6304480856802903"/>
    <circle cy="0.18849703173757515" r="1.5e-2" cx="0.6432116352517894"/>
    <circle cy="0.17628929142248267" r="1.5e-2" cx="0.6559751848232886"/>
    <circle cy="0.24994948245680798" r="1.5e-2" cx="0.6687387343947881"/>
    <circle cy="0.22516667935154883" r="1.5e-2" cx="0.6815022839662874"/>
    <circle cy="0.20149117132201844" r="1.5e-2" cx="0.6942658335377865"/>
    <circle cy="0.17843985463125045" r="1.5e-2" cx="0.707029383109286"/>
    <circle cy="0.1587920503843519" r="1.5e-2" cx="0.719792932680785"/>
    <circle cy="0.24789101149250325" r="1.5e-2" cx="0.7325564822522845"/>
  </g>
  <g stroke-opacity="0.4" fill-opacity="1.0" stroke="#0ea194" stroke-width="3.0e-3" fill="#0ea194">
    <rect height="3.0e-2" width="3.0000000000000027e-2" x="-0.5460349253261442" y="7.630489382753632e-2"/>
    <rect height="3.0000000000000027e-2" width="3.0000000000000027e-2" x="-0.5332713757546449" y="-0.43459509856153444"/>
    <rect height="3.0000000000000027e-2" width="3.0000000000000027e-2" x="-0.5205078261831456" y="0.14002445011035852"/>
    <rect height="3.0000000000000027e-2" width="3.0000000000000027e-2" x="-0.5077442766116463" y="0.1677155795722658"/>
    <rect height="3.0e-2" width="3.0000000000000027e-2" x="-0.494980727040147" y="6.875827688560777e-2"/>
    <rect height="3.0e-2" width="3.0000000000000027e-2" x="-0.48221717746864773" y="4.9067756298044066e-2"/>
    <rect height="3.0000000000000027e-2" width="3.0000000000000027e-2" x="-0.4694536278971485" y="-0.3838621660704772"/>
    <rect height="3.0000000000000027e-2" width="3.0000000000000027e-2" x="-0.4566900783256492" y="0.1677748496841464"/>
    <rect height="3.0000000000000027e-2" width="3.0000000000000027e-2" x="-0.4439265287541499" y="0.1942207359768628"/>
    <rect height="3.0000000000000013e-2" width="3.0000000000000027e-2" x="-0.4311629791826506" y="0.10178647537864373"/>
    <rect height="3.0e-2" width="3.0000000000000027e-2" x="-0.4183994296111514" y="7.944915899231299e-2"/>
    <rect height="3.0000000000000027e-2" width="3.0000000000000027e-2" x="-0.4056358800396521" y="-0.38869577212877704"/>
    <rect height="3.0000000000000027e-2" width="3.0000000000000027e-2" x="-0.39287233046815284" y="0.1878401134028465"/>
    <rect height="3.0000000000000013e-2" width="3.0000000000000027e-2" x="-0.38010878089665356" y="0.11595307862089967"/>
    <rect height="3.0e-2" width="3.0000000000000027e-2" x="-0.3673452313251543" y="8.73356990638557e-2"/>
    <rect height="3.0000000000000027e-2" width="3.0000000000000027e-2" x="-0.35458168175365495" y="-0.360985805616866"/>
    <rect height="3.0000000000000027e-2" width="3.0000000000000027e-2" x="-0.3418181321821556" y="0.18474693660095898"/>
    <rect height="3.0e-2" width="3.0000000000000027e-2" x="-0.32905458261065645" y="8.645054798690922e-2"/>
    <rect height="3.0000000000000027e-2" width="3.0000000000000027e-2" x="-0.3162910330391571" y="-0.38614810868407023"/>
    <rect height="3.0000000000000027e-2" width="3.0000000000000027e-2" x="-0.3035274834676579" y="0.15339856533982799"/>
    <rect height="3.0000000000000027e-2" width="3.0000000000000027e-2" x="-0.2907639338961586" y="0.1836328868254814"/>
    <rect height="3.0e-2" width="3.0000000000000027e-2" x="-0.2780003843246593" y="8.330780500799147e-2"/>
    <rect height="3.0e-2" width="3.0000000000000027e-2" x="-0.26523683475316007" y="5.3911351701042734e-2"/>
    <rect height="3.0000000000000027e-2" width="3.0000000000000027e-2" x="-0.2524732851816608" y="-0.37222229621736813"/>
    <rect height="3.0000000000000027e-2" width="3.0000000000000027e-2" x="-0.2397097356101615" y="0.17834566938123148"/>
    <rect height="3.0e-2" width="3.0000000000000027e-2" x="-0.22694618603866212" y="7.894750361519144e-2"/>
    <rect height="3.0000000000000027e-2" width="3.0000000000000027e-2" x="-0.21418263646716285" y="-0.39011578126189206"/>
    <rect height="3.0000000000000027e-2" width="3.0000000000000027e-2" x="-0.20141908689566368" y="0.14682281756602483"/>
    <rect height="3.0000000000000027e-2" width="3.0000000000000027e-2" x="-0.1886555373241643" y="0.17656994444021618"/>
    <rect height="3.0e-2" width="3.0000000000000027e-2" x="-0.175891987752665" y="6.770654159372864e-2"/>
    <rect height="3.0000000000000027e-2" width="3.0000000000000027e-2" x="-0.16312843818116585" y="-0.3908903835908364"/>
    <rect height="3.0000000000000027e-2" width="3.0000000000000013e-2" x="-0.15036488860966646" y="0.13741999010579192"/>
    <rect height="3.0000000000000027e-2" width="3.0000000000000013e-2" x="-0.1376013390381673" y="0.17339561610472642"/>
    <rect height="3.0e-2" width="3.0e-2" x="-0.124837789466668" y="7.24803067204506e-2"/>
    <rect height="3.0e-2" width="3.0e-2" x="-0.11207423989516861" y="5.023146738716795e-2"/>
    <rect height="3.0000000000000027e-2" width="3.0e-2" x="-9.931069032366945e-2" y="-0.3796812923357942"/>
    <rect height="3.0000000000000027e-2" width="3.0e-2" x="-8.654714075217017e-2" y="0.16824539538777683"/>
    <rect height="3.0000000000000027e-2" width="3.0e-2" x="-7.378359118067078e-2" y="0.19405890859273917"/>
    <rect height="3.0000000000000013e-2" width="3.0e-2" x="-6.10200416091715e-2" y="0.10403046274450108"/>
    <rect height="3.0e-2" width="3.0e-2" x="-4.8256492037672225e-2" y="6.251417535581096e-2"/>
    <rect height="3.0000000000000027e-2" width="3.0e-2" x="-3.549294246617295e-2" y="-0.3873852652408859"/>
    <rect height="3.0000000000000027e-2" width="3.0e-2" x="-2.272939289467367e-2" y="0.19066671740619534"/>
    <rect height="3.0000000000000013e-2" width="3.0e-2" x="-9.965843323174503e-3" y="9.691329248801285e-2"/>
    <rect height="3.0e-2" width="3.0e-2" x="2.7977062483247744e-3" y="7.608274982875414e-2"/>
    <rect height="3.0000000000000027e-2" width="3.0e-2" x="1.5561255819824163e-2" y="-0.36182785980668253"/>
    <rect height="3.0000000000000027e-2" width="3.0e-2" x="2.832480539132333e-2" y="0.18638043230078394"/>
    <rect height="3.0e-2" width="3.0e-2" x="4.108835496282261e-2" y="9.156946875713524e-2"/>
    <rect height="3.0e-2" width="3.0e-2" x="5.3851904534321995e-2" y="7.169913996498974e-2"/>
    <rect height="3.0000000000000027e-2" width="3.0e-2" x="6.661545410582116e-2" y="-0.37251978841616573"/>
    <rect height="3.0000000000000027e-2" width="3.0e-2" x="7.937900367732066e-2" y="0.18371765355049852"/>
    <rect height="3.0e-2" width="3.0e-2" x="9.214255324881983e-2" y="8.267828601872286e-2"/>
    <rect height="3.0e-2" width="3.0000000000000013e-2" x="0.104906102820319" y="7.166784001826627e-2"/>
    <rect height="3.0000000000000027e-2" width="3.0000000000000013e-2" x="0.1176696523918185" y="-0.37513071771063244"/>
    <rect height="3.0000000000000027e-2" width="3.0000000000000027e-2" x="0.13043320196331765" y="0.17974731714742376"/>
    <rect height="3.0e-2" width="3.0000000000000027e-2" x="0.1431967515348168" y="7.473618616333051e-2"/>
    <rect height="3.0000000000000027e-2" width="3.0000000000000027e-2" x="0.1559603011063161" y="-0.38909962706446455"/>
    <rect height="3.0000000000000027e-2" width="3.0000000000000027e-2" x="0.16872385067781548" y="0.14761292716340668"/>
    <rect height="3.0000000000000027e-2" width="3.0000000000000027e-2" x="0.18148740024931465" y="0.1723927810335642"/>
    <rect height="3.0e-2" width="3.0000000000000027e-2" x="0.19425094982081414" y="7.656480706294234e-2"/>
    <rect height="3.0e-2" width="3.0000000000000027e-2" x="0.2070144993923133" y="5.405605449425373e-2"/>
    <rect height="3.0000000000000027e-2" width="3.0000000000000027e-2" x="0.2197780489638127" y="-0.37908706903112865"/>
    <rect height="3.0000000000000027e-2" width="3.0000000000000027e-2" x="0.23254159853531176" y="0.17270692214019334"/>
    <rect height="3.0e-2" width="3.0000000000000027e-2" x="0.24530514810681125" y="7.44656176269123e-2"/>
    <rect height="3.0000000000000027e-2" width="3.0000000000000027e-2" x="0.2580686976783103" y="-0.3930339066900068"/>
    <rect height="3.0000000000000027e-2" width="3.0000000000000027e-2" x="0.2708322472498098" y="0.1398799375903798"/>
    <rect height="3.0000000000000027e-2" width="3.0000000000000027e-2" x="0.2835957968213091" y="0.17139565415937286"/>
    <rect height="3.0e-2" width="3.0000000000000027e-2" x="0.29635934639280836" y="7.044438313418074e-2"/>
    <rect height="3.0000000000000027e-2" width="3.0000000000000027e-2" x="0.3091228959643074" y="-0.3935789443641069"/>
    <rect height="3.0000000000000027e-2" width="3.0000000000000027e-2" x="0.3218864455358069" y="0.13688522718623947"/>
    <rect height="3.0000000000000027e-2" width="3.0000000000000027e-2" x="0.334649995107306" y="0.16792002816043838"/>
    <rect height="3.0000000000000027e-2" width="3.0000000000000027e-2" x="0.34741354467880525" y="0.19325928533373926"/>
    <rect height="3.0000000000000013e-2" width="3.0000000000000027e-2" x="0.36017709425030475" y="9.929713067965597e-2"/>
    <rect height="3.0e-2" width="3.0000000000000027e-2" x="0.37294064382180403" y="7.87227909277723e-2"/>
    <rect height="3.0000000000000027e-2" width="3.0000000000000027e-2" x="0.3857041933933033" y="-0.382861424004871"/>
    <rect height="3.0000000000000027e-2" width="3.0000000000000027e-2" x="0.39846774296480236" y="0.1883250247355202"/>
    <rect height="3.0e-2" width="3.0000000000000027e-2" x="0.41123129253630186" y="9.216083796331533e-2"/>
    <rect height="3.0e-2" width="3.0000000000000027e-2" x="0.4239948421078009" y="7.390545323083948e-2"/>
    <rect height="3.0000000000000027e-2" width="3.0000000000000027e-2" x="0.4367583916793004" y="-0.3669562942385265"/>
    <rect height="3.0000000000000027e-2" width="3.0000000000000027e-2" x="0.4495219412507995" y="0.18407099094299417"/>
    <rect height="3.0e-2" width="3.0000000000000027e-2" x="0.462285490822299" y="8.940539614886979e-2"/>
    <rect height="3.0000000000000027e-2" width="3.0000000000000027e-2" x="0.475049040393798" y="-0.40914557805008"/>
    <rect height="3.0000000000000027e-2" width="3.0000000000000027e-2" x="0.4878125899652975" y="0.1456037369662836"/>
    <rect height="3.0000000000000027e-2" width="3.0000000000000027e-2" x="0.5005761395367966" y="0.17697161123373162"/>
    <rect height="3.0e-2" width="3.0000000000000027e-2" x="0.5133396891082961" y="8.167221630261053e-2"/>
    <rect height="3.0000000000000027e-2" width="3.0000000000000027e-2" x="0.5261032386797951" y="-0.3933611766496691"/>
    <rect height="3.0000000000000027e-2" width="3.0000000000000027e-2" x="0.5388667882512946" y="0.14352205266763074"/>
    <rect height="3.0000000000000027e-2" width="3.0000000000000027e-2" x="0.5516303378227937" y="0.17905776695334502"/>
    <rect height="3.0e-2" width="3.0000000000000027e-2" x="0.564393887394293" y="7.754252606743285e-2"/>
    <rect height="3.0e-2" width="3.0000000000000027e-2" x="0.5771574369657925" y="5.341236014917429e-2"/>
    <rect height="3.0000000000000027e-2" width="3.0000000000000027e-2" x="0.5899209865372917" y="-0.38023803181368454"/>
    <rect height="3.0000000000000027e-2" width="3.0000000000000027e-2" x="0.6026845361087908" y="0.17246346753938657"/>
    <rect height="3.0e-2" width="3.0000000000000027e-2" x="0.6154480856802903" y="7.478660856990639e-2"/>
    <rect height="3.0000000000000027e-2" width="3.0000000000000027e-2" x="0.6282116352517894" y="-0.38891924804018563"/>
    <rect height="3.0000000000000027e-2" width="3.0000000000000027e-2" x="0.6409751848232886" y="0.14157118121622647"/>
    <rect height="3.0000000000000027e-2" width="3.0000000000000027e-2" x="0.6537387343947881" y="0.17145635132049625"/>
    <rect height="3.0e-2" width="3.0000000000000027e-2" x="0.6665022839662874" y="7.009104574168502e-2"/>
    <rect height="3.0e-2" width="3.0000000000000027e-2" x="0.6792658335377865" y="4.465084861861636e-2"/>
    <rect height="3.0000000000000027e-2" width="3.0000000000000027e-2" x="0.692029383109286" y="-0.4373273270416318"/>
    <rect height="3.0000000000000027e-2" width="3.0000000000000027e-2" x="0.704792932680785" y="0.16791669837887208"/>
    <rect height="3.0000000000000027e-2" width="3.0000000000000027e-2" x="0.7175564822522845" y="0.19301773346525608"/>
  </g>
  <g stroke-opacity="1.0" fill-opacity="1.0" stroke="#026062" stroke-width="4.0e-3" fill="#000000">
    <rect height="7.778369738945123e-2" width="0.1462958051885248" x="-7.370949877540833e-2" y="0.4054722581627217"/>
  </g>
  <g fill-opacity="1.0" font-size="1.6e-2" stroke="none" stroke-width="0.0" fill="#808080" text-anchor="start">
    <text x="-5.4989626070542696e-2" y="0.46164091635588705">Dynamic
    </text>
  </g>
  <g stroke-opacity="0.4" fill-opacity="1.0" stroke="#0ea194" stroke-width="3.0e-3" fill="#0ea194">
    <rect height="2.0000000000000018e-2" width="2.0000000000000004e-2" x="3.4225699265245e-2" y="0.44661770302153886"/>
  </g>
  <g fill-opacity="1.0" font-size="1.6e-2" stroke="none" stroke-width="0.0" fill="#808080" text-anchor="start">
    <text x="-5.4989626070542696e-2" y="0.43355658725930435">Fixed
    </text>
  </g>
  <g stroke-opacity="0.4" fill-opacity="1.0" stroke="#0ea194" stroke-width="3.0e-3" fill="#026062">
    <circle cy="0.4285333739249563" r="1.0000000000000002e-2" cx="4.4225699265245e-2"/>
  </g>
</svg>