
<svg xmlns="http://www.w3.org/2000/svg" height="300.0" viewBox="-0.92 -0.5514789797872223 1.7228127197162635 1.0714789797872224" width="450.0" xmlns:xlink="http://www.w3.org/1999/xlink">
  <g stroke-opacity="0.0" fill-opacity="3.0e-2" stroke="#000000" stroke-width="0.0" fill="#666666">
    <rect height="0.7574882160398813" width="1.4061840851210101" x="-0.6608713654047467" y="-0.49621255891980065"/>
  </g>
  <g stroke-opacity="0.3" stroke="#a8e5ee" stroke-width="5.0e-3" fill="none">
    <polyline points="-0.6655586456884833,0.2612756571200806
0.75,0.2612756571200806"/>
  </g>
  <g stroke-opacity="0.3" stroke="#a8e5ee" stroke-width="5.0e-3" fill="none">
    <polyline points="-0.6655586456884833,0.16658963011509542
0.75,0.16658963011509542"/>
  </g>
  <g stroke-opacity="0.3" stroke="#a8e5ee" stroke-width="5.0e-3" fill="none">
    <polyline points="-0.6655586456884833,7.190360311011029e-2
0.75,7.190360311011029e-2"/>
  </g>
  <g stroke-opacity="0.3" stroke="#a8e5ee" stroke-width="5.0e-3" fill="none">
    <polyline points="-0.6655586456884833,-2.2782423894874837e-2
0.75,-2.2782423894874837e-2"/>
  </g>
  <g stroke-opacity="0.3" stroke="#a8e5ee" stroke-width="5.0e-3" fill="none">
    <polyline points="-0.6655586456884833,-0.11746845089986002
0.75,-0.11746845089986002"/>
  </g>
  <g stroke-opacity="0.3" stroke="#a8e5ee" stroke-width="5.0e-3" fill="none">
    <polyline points="-0.6655586456884833,-0.2121544779048451
0.75,-0.2121544779048451"/>
  </g>
  <g stroke-opacity="0.3" stroke="#a8e5ee" stroke-width="5.0e-3" fill="none">
    <polyline points="-0.6655586456884833,-0.3068405049098304
0.75,-0.3068405049098304"/>
  </g>
  <g stroke-opacity="0.3" stroke="#a8e5ee" stroke-width="5.0e-3" fill="none">
    <polyline points="-0.6655586456884833,-0.40152653191481547
0.75,-0.40152653191481547"/>
  </g>
  <g stroke-opacity="0.3" stroke="#a8e5ee" stroke-width="5.0e-3" fill="none">
    <polyline points="-0.6655586456884833,-0.49621255891980065
0.75,-0.49621255891980065"/>
  </g>
  <g fill-opacity="1.0" font-size="5.0e-2" stroke="none" stroke-width="0.0" fill="#666666" text-anchor="end">
    <text x="-0.75" y="0.2722592362526588">0
    </text>
  </g>
  <g fill-opacity="1.0" font-size="5.0e-2" stroke="none" stroke-width="0.0" fill="#666666" text-anchor="end">
    <text x="-0.75" y="0.17757320924767372">5,000
    </text>
  </g>
  <g fill-opacity="1.0" font-size="5.0e-2" stroke="none" stroke-width="0.0" fill="#666666" text-anchor="end">
    <text x="-0.75" y="8.28871822426886e-2">10,000
    </text>
  </g>
  <g fill-opacity="1.0" font-size="5.0e-2" stroke="none" stroke-width="0.0" fill="#666666" text-anchor="end">
    <text x="-0.75" y="-1.1798844762296534e-2">15,000
    </text>
  </g>
  <g fill-opacity="1.0" font-size="5.0e-2" stroke="none" stroke-width="0.0" fill="#666666" text-anchor="end">
    <text x="-0.75" y="-0.10648487176728172">20,000
    </text>
  </g>
  <g fill-opacity="1.0" font-size="5.0e-2" stroke="none" stroke-width="0.0" fill="#666666" text-anchor="end">
    <text x="-0.75" y="-0.2011708987722669">25,000
    </text>
  </g>
  <g fill-opacity="1.0" font-size="5.0e-2" stroke="none" stroke-width="0.0" fill="#666666" text-anchor="end">
    <text x="-0.75" y="-0.295856925777252">30,000
    </text>
  </g>
  <g fill-opacity="1.0" font-size="5.0e-2" stroke="none" stroke-width="0.0" fill="#666666" text-anchor="end">
    <text x="-0.75" y="-0.39054295278223705">35,000
    </text>
  </g>
  <g fill-opacity="1.0" font-size="5.0e-2" stroke="none" stroke-width="0.0" fill="#666666" text-anchor="end">
    <text x="-0.75" y="-0.48522897978722224">40,000
    </text>
  </g>
  <g stroke-opacity="0.4" fill-opacity="1.0" stroke="#2c429d" stroke-width="5.0e-3" fill="#5f0391">
    <g transform="rotate(-90.0, -0.7194623689514554, 0.2612756571200806)">
      <polyline points="-0.7194623689514554,0.2762756571200806
-0.7194623689514554,0.2462756571200806"/>
    </g>
    <g transform="rotate(-90.0, -0.7194623689514554, 0.16658963011509542)">
      <polyline points="-0.7194623689514554,0.18158963011509544
-0.7194623689514554,0.1515896301150954"/>
    </g>
    <g transform="rotate(-90.0, -0.7194623689514554, 7.190360311011029e-2)">
      <polyline points="-0.7194623689514554,8.690360311011029e-2
-0.7194623689514554,5.690360311011029e-2"/>
    </g>
    <g transform="rotate(-90.0, -0.7194623689514554, -2.2782423894874837e-2)">
      <polyline points="-0.7194623689514554,-7.7824238948748375e-3
-0.7194623689514554,-3.7782423894874836e-2"/>
    </g>
    <g transform="rotate(-90.0, -0.7194623689514554, -0.11746845089986002)">
      <polyline points="-0.7194623689514554,-0.10246845089986002
-0.7194623689514554,-0.13246845089986004"/>
    </g>
    <g transform="rotate(-90.0, -0.7194623689514554, -0.2121544779048451)">
      <polyline points="-0.7194623689514554,-0.19715447790484508
-0.7194623689514554,-0.2271544779048451"/>
    </g>
    <g transform="rotate(-90.0, -0.7194623689514554, -0.3068405049098304)">
      <polyline points="-0.7194623689514554,-0.2918405049098304
-0.7194623689514554,-0.3218405049098304"/>
    </g>
    <g transform="rotate(-90.0, -0.7194623689514554, -0.40152653191481547)">
      <polyline points="-0.7194623689514554,-0.38652653191481545
-0.7194623689514554,-0.4165265319148155"/>
    </g>
    <g transform="rotate(-90.0, -0.7194623689514554, -0.49621255891980065)">
      <polyline points="-0.7194623689514554,-0.48121255891980064
-0.7194623689514554,-0.5112125589198007"/>
    </g>
  </g>
  <g stroke-opacity="0.0" fill-opacity="0.5" stroke="#666666" stroke-width="0.0" fill="#5f0391">
    <rect height="0.7574882160398813" width="4.687280283736772e-3" x="-0.710087808383982" y="-0.49621255891980065"/>
  </g>
  <g stroke-opacity="0.3" stroke="#a8e5ee" stroke-width="5.0e-3" fill="none">
    <polyline points="-0.6608713654047467,0.26506309820027996
-0.6608713654047467,-0.5"/>
  </g>
  <g stroke-opacity="0.3" stroke="#a8e5ee" stroke-width="5.0e-3" fill="none">
    <polyline points="-0.5330364485755639,0.26506309820027996
-0.5330364485755639,-0.5"/>
  </g>
  <g stroke-opacity="0.3" stroke="#a8e5ee" stroke-width="5.0e-3" fill="none">
    <polyline points="-0.4052015317463812,0.26506309820027996
-0.4052015317463812,-0.5"/>
  </g>
  <g stroke-opacity="0.3" stroke="#a8e5ee" stroke-width="5.0e-3" fill="none">
    <polyline points="-0.2773666149171985,0.26506309820027996
-0.2773666149171985,-0.5"/>
  </g>
  <g stroke-opacity="0.3" stroke="#a8e5ee" stroke-width="5.0e-3" fill="none">
    <polyline points="-0.1495316980880157,0.26506309820027996
-0.1495316980880157,-0.5"/>
  </g>
  <g stroke-opacity="0.3" stroke="#a8e5ee" stroke-width="5.0e-3" fill="none">
    <polyline points="-2.169678125883301e-2,0.26506309820027996
-2.169678125883301e-2,-0.5"/>
  </g>
  <g stroke-opacity="0.3" stroke="#a8e5ee" stroke-width="5.0e-3" fill="none">
    <polyline points="0.10613813557034968,0.26506309820027996
0.10613813557034968,-0.5"/>
  </g>
  <g stroke-opacity="0.3" stroke="#a8e5ee" stroke-width="5.0e-3" fill="none">
    <polyline points="0.23397305239953248,0.26506309820027996
0.23397305239953248,-0.5"/>
  </g>
  <g stroke-opacity="0.3" stroke="#a8e5ee" stroke-width="5.0e-3" fill="none">
    <polyline points="0.36180796922871505,0.26506309820027996
0.36180796922871505,-0.5"/>
  </g>
  <g stroke-opacity="0.3" stroke="#a8e5ee" stroke-width="5.0e-3" fill="none">
    <polyline points="0.4896428860578981,0.26506309820027996
0.4896428860578981,-0.5"/>
  </g>
  <g stroke-opacity="0.3" stroke="#a8e5ee" stroke-width="5.0e-3" fill="none">
    <polyline points="0.6174778028870804,0.26506309820027996
0.6174778028870804,-0.5"/>
  </g>
  <g stroke-opacity="0.3" stroke="#a8e5ee" stroke-width="5.0e-3" fill="none">
    <polyline points="0.7453127197162634,0.26506309820027996
0.7453127197162634,-0.5"/>
  </g>
  <g fill-opacity="1.0" font-size="5.0e-2" stroke="none" stroke-width="0.0" fill="#666666" text-anchor="middle">
    <text x="-0.6608713654047467" y="0.3502824540997175">-10
    </text>
  </g>
  <g fill-opacity="1.0" font-size="5.0e-2" stroke="none" stroke-width="0.0" fill="#666666" text-anchor="middle">
    <text x="-0.5330364485755639" y="0.3502824540997175">0
    </text>
  </g>
  <g fill-opacity="1.0" font-size="5.0e-2" stroke="none" stroke-width="0.0" fill="#666666" text-anchor="middle">
    <text x="-0.4052015317463812" y="0.3502824540997175">10
    </text>
  </g>
  <g fill-opacity="1.0" font-size="5.0e-2" stroke="none" stroke-width="0.0" fill="#666666" text-anchor="middle">
    <text x="-0.2773666149171985" y="0.3502824540997175">20
    </text>
  </g>
  <g fill-opacity="1.0" font-size="5.0e-2" stroke="none" stroke-width="0.0" fill="#666666" text-anchor="middle">
    <text x="-0.1495316980880157" y="0.3502824540997175">30
    </text>
  </g>
  <g fill-opacity="1.0" font-size="5.0e-2" stroke="none" stroke-width="0.0" fill="#666666" text-anchor="middle">
    <text x="-2.169678125883301e-2" y="0.3502824540997175">40
    </text>
  </g>
  <g fill-opacity="1.0" font-size="5.0e-2" stroke="none" stroke-width="0.0" fill="#666666" text-anchor="middle">
    <text x="0.10613813557034968" y="0.3502824540997175">50
    </text>
  </g>
  <g fill-opacity="1.0" font-size="5.0e-2" stroke="none" stroke-width="0.0" fill="#666666" text-anchor="middle">
    <text x="0.23397305239953248" y="0.3502824540997175">60
    </text>
  </g>
  <g fill-opacity="1.0" font-size="5.0e-2" stroke="none" stroke-width="0.0" fill="#666666" text-anchor="middle">
    <text x="0.36180796922871505" y="0.3502824540997175">70
    </text>
  </g>
  <g fill-opacity="1.0" font-size="5.0e-2" stroke="none" stroke-width="0.0" fill="#666666" text-anchor="middle">
    <text x="0.4896428860578981" y="0.3502824540997175">80
    </text>
  </g>
  <g fill-opacity="1.0" font-size="5.0e-2" stroke="none" stroke-width="0.0" fill="#666666" text-anchor="middle">
    <text x="0.6174778028870804" y="0.3502824540997175">90
    </text>
  </g>
  <g fill-opacity="1.0" font-size="5.0e-2" stroke="none" stroke-width="0.0" fill="#666666" text-anchor="middle">
    <text x="0.7453127197162634" y="0.3502824540997175">100
    </text>
  </g>
  <g stroke-opacity="0.4" fill-opacity="1.0" stroke="#2c429d" stroke-width="5.0e-3" fill="#5f0391">
    <polyline points="-0.6608713654047467,0.30184281600637747
-0.6608713654047467,0.27184281600637744"/>
    <polyline points="-0.5330364485755639,0.30184281600637747
-0.5330364485755639,0.27184281600637744"/>
    <polyline points="-0.4052015317463812,0.30184281600637747
-0.4052015317463812,0.27184281600637744"/>
    <polyline points="-0.2773666149171985,0.30184281600637747
-0.2773666149171985,0.27184281600637744"/>
    <polyline points="-0.1495316980880157,0.30184281600637747
-0.1495316980880157,0.27184281600637744"/>
    <polyline points="-2.169678125883301e-2,0.30184281600637747
-2.169678125883301e-2,0.27184281600637744"/>
    <polyline points="0.10613813557034968,0.30184281600637747
0.10613813557034968,0.27184281600637744"/>
    <polyline points="0.23397305239953248,0.30184281600637747
0.23397305239953248,0.27184281600637744"/>
    <polyline points="0.36180796922871505,0.30184281600637747
0.36180796922871505,0.27184281600637744"/>
    <polyline points="0.4896428860578981,0.30184281600637747
0.4896428860578981,0.27184281600637744"/>
    <polyline points="0.6174778028870804,0.30184281600637747
0.6174778028870804,0.27184281600637744"/>
    <polyline points="0.7453127197162634,0.30184281600637747
0.7453127197162634,0.27184281600637744"/>
  </g>
  <g stroke-opacity="0.0" fill-opacity="0.5" stroke="#666666" stroke-width="0.0" fill="#5f0391">
    <rect height="3.787441080199405e-3" width="1.4061840851210101" x="-0.6608713654047467" y="0.27548049276577924"/>
  </g>
  <g stroke-opacity="0.4" fill-opacity="0.8" stroke="#2c429d" stroke-width="3.0e-3" fill="#026062">
    <circle cy="-6.717263470801149e-2" r="1.5e-2" cx="-0.5330364485755639"/>
    <circle cy="0.25432316515239095" r="1.5e-2" cx="-0.5202529568926456"/>
    <circle cy="0.24083733732135731" r="1.5e-2" cx="-0.5074694652097274"/>
    <circle cy="0.2322392400787318" r="1.5e-2" cx="-0.4946859735268091"/>
    <circle cy="0.22368053222334044" r="1.5e-2" cx="-0.4819024818438908"/>
    <circle cy="0.25537717213059963" r="1.5e-2" cx="-0.46911899016097247"/>
    <circle cy="0.24555467093556727" r="1.5e-2" cx="-0.4563354984780543"/>
    <circle cy="0.23944920229105343" r="1.5e-2" cx="-0.443552006795136"/>
    <circle cy="0.2288908012941383" r="1.5e-2" cx="-0.4307685151122177"/>
    <circle cy="0.2248097199069911" r="1.5e-2" cx="-0.41798502342929944"/>
    <circle cy="0.25516265146781714" r="1.5e-2" cx="-0.4052015317463812"/>
    <circle cy="0.24530140475053436" r="1.5e-2" cx="-0.3924180400634629"/>
    <circle cy="0.23467464044212166" r="1.5e-2" cx="-0.37963454838054467"/>
    <circle cy="0.2272656103266248" r="1.5e-2" cx="-0.3668510566976264"/>
    <circle cy="0.22345885329691634" r="1.5e-2" cx="-0.35406756501470815"/>
    <circle cy="0.25526684397193344" r="1.5e-2" cx="-0.3412840733317899"/>
    <circle cy="0.23362964757368387" r="1.5e-2" cx="-0.3285005816488715"/>
    <circle cy="0.22381078232208845" r="1.5e-2" cx="-0.31571708996595327"/>
    <circle cy="0.22184578214085943" r="1.5e-2" cx="-0.302933598283035"/>
    <circle cy="0.25523870328470755" r="1.5e-2" cx="-0.29015010660011675"/>
    <circle cy="0.24783088515035634" r="1.5e-2" cx="-0.2773666149171985"/>
    <circle cy="0.23940401811896667" r="1.5e-2" cx="-0.2645831232342801"/>
    <circle cy="0.22927325709441687" r="1.5e-2" cx="-0.251799631551362"/>
    <circle cy="0.2245343350660498" r="1.5e-2" cx="-0.2390161398684436"/>
    <circle cy="0.25534388052350465" r="1.5e-2" cx="-0.22623264818552535"/>
    <circle cy="0.24490069348424925" r="1.5e-2" cx="-0.2134491565026071"/>
    <circle cy="0.2348458706533575" r="1.5e-2" cx="-0.20066566481968873"/>
    <circle cy="0.22657088000928377" r="1.5e-2" cx="-0.18788217313677058"/>
    <circle cy="0.22408222822430635" r="1.5e-2" cx="-0.1750986814538522"/>
    <circle cy="0.2553156262130464" r="1.5e-2" cx="-0.16231518977093395"/>
    <circle cy="0.2421137428397953" r="1.5e-2" cx="-0.1495316980880157"/>
    <circle cy="0.2318658741370458" r="1.5e-2" cx="-0.13674820640509744"/>
    <circle cy="0.22468337087255563" r="1.5e-2" cx="-0.12396471472217918"/>
    <circle cy="0.2553647114494458" r="1.5e-2" cx="-0.11118122303926103"/>
    <circle cy="0.24777449015267217" r="1.5e-2" cx="-9.839773135634267e-2"/>
    <circle cy="0.23919972354710067" r="1.5e-2" cx="-8.561423967342452e-2"/>
    <circle cy="0.22957231344210943" r="1.5e-2" cx="-7.283074799050615e-2"/>
    <circle cy="0.22400591128654035" r="1.5e-2" cx="-6.004725630758789e-2"/>
    <circle cy="0.2553872467238729" r="1.5e-2" cx="-4.7263764624669524e-2"/>
    <circle cy="0.24504514648704806" r="1.5e-2" cx="-3.448027294175127e-2"/>
    <circle cy="0.23257280001466496" r="1.5e-2" cx="-2.169678125883301e-2"/>
    <circle cy="0.21847442933773076" r="1.5e-2" cx="-8.913289575914751e-3"/>
    <circle cy="0.21318310902781656" r="1.5e-2" cx="3.8702021070035064e-3"/>
    <circle cy="0.25407448177106506" r="1.5e-2" cx="1.6653693789921764e-2"/>
    <circle cy="0.2404972629867662" r="1.5e-2" cx="2.9437185472840022e-2"/>
    <circle cy="0.23194143358659575" r="1.5e-2" cx="4.22206771557585e-2"/>
    <circle cy="0.22282532802743144" r="1.5e-2" cx="5.500416883867654e-2"/>
    <circle cy="0.2552863492934965" r="1.5e-2" cx="6.778766052159502e-2"/>
    <circle cy="0.24775994637892418" r="1.5e-2" cx="8.057115220451305e-2"/>
    <circle cy="0.2389011216923378" r="1.5e-2" cx="9.335464388743153e-2"/>
    <circle cy="0.2295313712040325" r="1.5e-2" cx="0.10613813557034968"/>
    <circle cy="0.2248408526726703" r="1.5e-2" cx="0.11892162725326805"/>
    <circle cy="0.2553617193709924" r="1.5e-2" cx="0.1317051189361862"/>
    <circle cy="0.24482180108654866" r="1.5e-2" cx="0.14448861061910467"/>
    <circle cy="0.2350002846261972" r="1.5e-2" cx="0.1572721023020227"/>
    <circle cy="0.2266353422564688" r="1.5e-2" cx="0.17005559398494108"/>
    <circle cy="0.25537425580096784" r="1.5e-2" cx="0.18283908566785922"/>
    <circle cy="0.2523988420883632" r="1.5e-2" cx="0.1956225773507776"/>
    <circle cy="0.2423720841958757" r="1.5e-2" cx="0.20840606903369596"/>
    <circle cy="0.23203377140013104" r="1.5e-2" cx="0.22118956071661422"/>
    <circle cy="0.22431704957127874" r="1.5e-2" cx="0.23397305239953248"/>
    <circle cy="0.2553877390912134" r="1.5e-2" cx="0.24675654408245062"/>
    <circle cy="0.24763321860038073" r="1.5e-2" cx="0.2595400357653692"/>
    <circle cy="0.23923206829392563" r="1.5e-2" cx="0.27232352744828736"/>
    <circle cy="0.22922284625363942" r="1.5e-2" cx="0.2851070191312055"/>
    <circle cy="0.22445377619427392" r="1.5e-2" cx="0.29789051081412365"/>
    <circle cy="0.25533240457703166" r="1.5e-2" cx="0.31067400249704225"/>
    <circle cy="0.24482377055591042" r="1.5e-2" cx="0.3234574941799604"/>
    <circle cy="0.2345977553881936" r="1.5e-2" cx="0.33624098586287876"/>
    <circle cy="0.22360686649433054" r="1.5e-2" cx="0.3490244775457967"/>
    <circle cy="0.25419287717923206" r="1.5e-2" cx="0.36180796922871505"/>
    <circle cy="0.2521047094140749" r="1.5e-2" cx="0.3745914609116334"/>
    <circle cy="0.24215339734790503" r="1.5e-2" cx="0.3873749525945518"/>
    <circle cy="0.23122197127900107" r="1.5e-2" cx="0.40015844427746994"/>
    <circle cy="0.22456376348324292" r="1.5e-2" cx="0.4129419359603881"/>
    <circle cy="0.2553542959864752" r="1.5e-2" cx="0.4257254276433067"/>
    <circle cy="0.24726697304792544" r="1.5e-2" cx="0.4385089193262248"/>
    <circle cy="0.23833463412997236" r="1.5e-2" cx="0.45129241100914297"/>
    <circle cy="0.22903896598919576" r="1.5e-2" cx="0.46407590269206134"/>
    <circle cy="0.2245410009623509" r="1.5e-2" cx="0.4768593943749797"/>
    <circle cy="0.2553904660487911" r="1.5e-2" cx="0.48964288605789785"/>
    <circle cy="0.24439033579869235" r="1.5e-2" cx="0.5024263777408162"/>
    <circle cy="0.23462279037373368" r="1.5e-2" cx="0.5152098694237344"/>
    <circle cy="0.2258153612626056" r="1.5e-2" cx="0.5279933611066525"/>
    <circle cy="0.2553750132891839" r="1.5e-2" cx="0.5407768527895711"/>
    <circle cy="0.250249090531242" r="1.5e-2" cx="0.5535603444724893"/>
    <circle cy="0.24163368468288005" r="1.5e-2" cx="0.5663438361554074"/>
    <circle cy="0.2319310181236252" r="1.5e-2" cx="0.5791273278383255"/>
    <circle cy="0.22427489535205614" r="1.5e-2" cx="0.5919108195212441"/>
    <circle cy="0.2553293746241675" r="1.5e-2" cx="0.6046943112041623"/>
    <circle cy="0.2472608373933755" r="1.5e-2" cx="0.6174778028870804"/>
    <circle cy="0.23903769681768977" r="1.5e-2" cx="0.6302612945699988"/>
    <circle cy="0.22904142782589787" r="1.5e-2" cx="0.6430447862529172"/>
    <circle cy="0.22444097464342289" r="1.5e-2" cx="0.6558282779358353"/>
    <circle cy="0.2553255871830873" r="1.5e-2" cx="0.6686117696187537"/>
    <circle cy="0.24416206672478874" r="1.5e-2" cx="0.6813952613016718"/>
    <circle cy="0.23395824596180193" r="1.5e-2" cx="0.6941787529845902"/>
    <circle cy="0.22537893442693424" r="1.5e-2" cx="0.7069622446675086"/>
    <circle cy="0.25540705504072236" r="1.5e-2" cx="0.7197457363504267"/>
    <circle cy="0.24999029468223205" r="1.5e-2" cx="0.7325292280333451"/>
  </g>
  <g stroke-opacity="0.4" fill-opacity="0.8" stroke="#2c429d" stroke-width="3.0e-3" fill="#0ea194">
    <rect height="3.0000000000000027e-2" width="3.0000000000000027e-2" x="-0.5480364485755639" y="0.17263390261223976"/>
    <rect height="3.0000000000000027e-2" width="3.0000000000000027e-2" x="-0.5352529568926456" y="0.16086662617134667"/>
    <rect height="3.0e-2" width="3.0000000000000027e-2" x="-0.5224694652097274" y="-4.453581008497841e-2"/>
    <rect height="3.0000000000000027e-2" width="3.0000000000000027e-2" x="-0.5096859735268091" y="0.2123619249532942"/>
    <rect height="3.0000000000000027e-2" width="3.0000000000000027e-2" x="-0.4969024818438908" y="0.22365611212885966"/>
    <rect height="3.0000000000000027e-2" width="3.0000000000000027e-2" x="-0.4841189901609725" y="0.18626872837536845"/>
    <rect height="3.0000000000000027e-2" width="3.0000000000000027e-2" x="-0.47133549847805434" y="0.16971196756768753"/>
    <rect height="3.0e-2" width="3.0000000000000027e-2" x="-0.458552006795136" y="-5.8040650870234564e-2"/>
    <rect height="3.0000000000000027e-2" width="3.0000000000000027e-2" x="-0.4457685151122177" y="0.20681995179269247"/>
    <rect height="3.0000000000000027e-2" width="3.0000000000000027e-2" x="-0.43298502342929945" y="0.15052944960792602"/>
    <rect height="3.0000000000000027e-2" width="3.0000000000000027e-2" x="-0.4202015317463812" y="0.15827582710043625"/>
    <rect height="3.0e-2" width="3.0000000000000027e-2" x="-0.40741804006346294" y="-2.4119078700412286e-2"/>
    <rect height="3.0000000000000027e-2" width="3.0000000000000027e-2" x="-0.3946345483805447" y="0.2195042813423343"/>
    <rect height="3.0000000000000027e-2" width="3.0000000000000027e-2" x="-0.3818510566976264" y="0.18014591325070728"/>
    <rect height="3.0000000000000027e-2" width="3.0000000000000027e-2" x="-0.36906756501470817" y="0.17356951418228145"/>
    <rect height="3.0e-2" width="3.0000000000000027e-2" x="-0.3562840733317899" y="-4.918417439711796e-2"/>
    <rect height="3.0000000000000027e-2" width="3.0000000000000027e-2" x="-0.34350058164887154" y="0.2177992889912609"/>
    <rect height="3.0000000000000027e-2" width="3.0000000000000027e-2" x="-0.3307170899659533" y="0.17887916570702378"/>
    <rect height="3.0e-2" width="3.0000000000000027e-2" x="-0.317933598283035" y="-3.2503640014936094e-2"/>
    <rect height="3.0000000000000027e-2" width="3.0000000000000027e-2" x="-0.30515010660011677" y="0.2051985482662591"/>
    <rect height="3.0000000000000027e-2" width="3.0000000000000027e-2" x="-0.2923666149171985" y="0.2182484416289618"/>
    <rect height="3.0000000000000027e-2" width="3.0000000000000027e-2" x="-0.27958312323428014" y="0.17653099011171097"/>
    <rect height="3.0000000000000027e-2" width="3.0000000000000027e-2" x="-0.266799631551362" y="0.1595653371650117"/>
    <rect height="3.0e-2" width="3.0000000000000027e-2" x="-0.2540161398684436" y="-8.444869742515736e-2"/>
    <rect height="3.0000000000000027e-2" width="3.0000000000000027e-2" x="-0.24123264818552537" y="0.21534987509587433"/>
    <rect height="3.0000000000000027e-2" width="3.0000000000000027e-2" x="-0.2284491565026071" y="0.17532722771319115"/>
    <rect height="3.0e-2" width="3.0000000000000027e-2" x="-0.21566566481968874" y="-5.118788222618663e-2"/>
    <rect height="3.0000000000000027e-2" width="3.0000000000000027e-2" x="-0.2028821731367706" y="0.20227418925941548"/>
    <rect height="3.0000000000000027e-2" width="3.0000000000000027e-2" x="-0.19009868145385223" y="0.2156093905586896"/>
    <rect height="3.0000000000000027e-2" width="3.0000000000000027e-2" x="-0.17731518977093397" y="0.17457064848301057"/>
    <rect height="3.0e-2" width="3.0000000000000027e-2" x="-0.1645316980880157" y="-8.348320294499288e-2"/>
    <rect height="3.0000000000000027e-2" width="3.0000000000000013e-2" x="-0.15174820640509745" y="0.20031115854754816"/>
    <rect height="3.0000000000000027e-2" width="3.0000000000000013e-2" x="-0.1389647147221792" y="0.21394897638913019"/>
    <rect height="3.0000000000000027e-2" width="3.0000000000000013e-2" x="-0.12618122303926105" y="0.22133115354736843"/>
    <rect height="3.0000000000000027e-2" width="3.0e-2" x="-0.11339773135634267" y="0.191358556819816"/>
    <rect height="3.0000000000000027e-2" width="3.0e-2" x="-0.10061423967342452" y="0.20118700429734426"/>
    <rect height="3.0000000000000027e-2" width="3.0e-2" x="-8.783074799050615e-2" y="0.213010978731208"/>
    <rect height="3.0000000000000027e-2" width="3.0e-2" x="-7.504725630758789e-2" y="0.22268887542579835"/>
    <rect height="3.0000000000000027e-2" width="3.0e-2" x="-6.2263764624669524e-2" y="0.18453264113302664"/>
    <rect height="3.0000000000000027e-2" width="3.0e-2" x="-4.9480272941751266e-2" y="0.17592954446817533"/>
    <rect height="3.0e-2" width="3.0e-2" x="-3.669678125883301e-2" y="-2.293645022312006e-2"/>
    <rect height="3.0000000000000027e-2" width="3.0e-2" x="-2.391328957591475e-2" y="0.21978462773109064"/>
    <rect height="3.0000000000000027e-2" width="3.0e-2" x="-1.1129797892996493e-2" y="0.18004164499776942"/>
    <rect height="3.0000000000000027e-2" width="3.0e-2" x="1.6536937899217646e-3" y="0.17182494307191998"/>
    <rect height="3.0e-2" width="3.0e-2" x="1.4437185472840022e-2" y="-4.445775092431546e-2"/>
    <rect height="3.0000000000000027e-2" width="3.0e-2" x="2.7220677155758502e-2" y="0.2188212163435203"/>
    <rect height="3.0000000000000027e-2" width="3.0e-2" x="4.000416883867654e-2" y="0.17794825056392155"/>
    <rect height="3.0000000000000027e-2" width="3.0e-2" x="5.278766052159502e-2" y="0.172246333766503"/>
    <rect height="3.0e-2" width="3.0e-2" x="6.557115220451305e-2" y="-2.7050406598843377e-2"/>
    <rect height="3.0000000000000027e-2" width="3.0e-2" x="7.835464388743153e-2" y="0.21774084877539346"/>
    <rect height="3.0000000000000027e-2" width="3.0e-2" x="9.113813557034968e-2" y="0.17706233022085216"/>
    <rect height="3.0e-2" width="3.0000000000000013e-2" x="0.10392162725326805" y="-7.929709581669174e-2"/>
    <rect height="3.0000000000000027e-2" width="3.0000000000000013e-2" x="0.1167051189361862" y="0.2009701354210921"/>
    <rect height="3.0000000000000027e-2" width="3.0000000000000027e-2" x="0.12948861061910466" y="0.21322311330610993"/>
    <rect height="3.0000000000000027e-2" width="3.0000000000000027e-2" x="0.1422721023020227" y="0.15649569191833174"/>
    <rect height="3.0000000000000013e-2" width="3.0000000000000027e-2" x="0.15505559398494106" y="-0.1251726273982503"/>
    <rect height="3.0000000000000027e-2" width="3.0000000000000027e-2" x="0.1678390856678592" y="0.17875232430524796"/>
    <rect height="3.0000000000000027e-2" width="3.0000000000000027e-2" x="0.18062257735077758" y="-0.20991927277646805"/>
    <rect height="3.0000000000000027e-2" width="3.0000000000000027e-2" x="0.19340606903369595" y="-0.3875099989391376"/>
    <rect height="3.0000000000000027e-2" width="3.0000000000000027e-2" x="0.2061895607166142" y="-0.4759462557944535"/>
    <rect height="3.0000000000000027e-2" width="3.0000000000000027e-2" x="0.21897305239953246" y="-0.38776443923090553"/>
    <rect height="3.0000000000000027e-2" width="3.0000000000000027e-2" x="0.2317565440824506" y="-0.1720531185960289"/>
    <rect height="3.0e-2" width="3.0000000000000027e-2" x="0.2445400357653692" y="6.0293779495407554e-2"/>
    <rect height="3.0000000000000027e-2" width="3.0000000000000027e-2" x="0.25732352744828735" y="-0.2927871958812639"/>
    <rect height="3.0e-2" width="3.0000000000000027e-2" x="0.2701070191312055" y="3.8537695321650536e-2"/>
    <rect height="3.0000000000000027e-2" width="3.0000000000000027e-2" x="0.28289051081412364" y="0.2077576085809174"/>
    <rect height="3.0000000000000027e-2" width="3.0000000000000027e-2" x="0.29567400249704223" y="0.22311291732913746"/>
    <rect height="3.0000000000000027e-2" width="3.0000000000000027e-2" x="0.3084574941799604" y="0.18148280420319607"/>
    <rect height="3.0000000000000027e-2" width="3.0000000000000027e-2" x="0.32124098586287875" y="0.17577138092866618"/>
    <rect height="3.0e-2" width="3.0000000000000027e-2" x="0.33402447754579667" y="-5.137293659736518e-2"/>
    <rect height="3.0000000000000027e-2" width="3.0000000000000027e-2" x="0.34680796922871504" y="0.22030528725638565"/>
    <rect height="3.0000000000000027e-2" width="3.0000000000000027e-2" x="0.3595914609116334" y="0.18198244343049597"/>
    <rect height="3.0000000000000027e-2" width="3.0000000000000027e-2" x="0.3723749525945518" y="0.17455693794630023"/>
    <rect height="3.0e-2" width="3.0000000000000027e-2" x="0.3851584442774699" y="-2.2691857278160685e-2"/>
    <rect height="3.0000000000000027e-2" width="3.0000000000000027e-2" x="0.39794193596038807" y="0.21894824711735023"/>
    <rect height="3.0000000000000027e-2" width="3.0000000000000027e-2" x="0.41072542764330666" y="0.17723882497518945"/>
    <rect height="3.0000000000000027e-2" width="3.0000000000000027e-2" x="0.4235089193262248" y="0.17199026487507074"/>
    <rect height="3.0e-2" width="3.0000000000000027e-2" x="0.43629241100914296" y="-3.932925270643904e-2"/>
    <rect height="3.0000000000000027e-2" width="3.0000000000000027e-2" x="0.4490759026920613" y="0.2152294723439348"/>
    <rect height="3.0000000000000027e-2" width="3.0000000000000027e-2" x="0.4618593943749797" y="0.17695934969788152"/>
    <rect height="3.0e-2" width="3.0000000000000027e-2" x="0.47464288605789784" y="-4.416293651063273e-2"/>
    <rect height="3.0000000000000027e-2" width="3.0000000000000027e-2" x="0.4874263777408162" y="0.20123703639401375"/>
    <rect height="3.0000000000000027e-2" width="3.0000000000000027e-2" x="0.5002098694237344" y="0.21477145709410628"/>
    <rect height="3.0000000000000027e-2" width="3.0000000000000027e-2" x="0.5129933611066525" y="0.17635680569643258"/>
    <rect height="3.0000000000000027e-2" width="3.0000000000000027e-2" x="0.5257768527895711" y="0.1662014263048615"/>
    <rect height="3.0e-2" width="3.0000000000000027e-2" x="0.5385603444724892" y="-2.672968608817204e-2"/>
    <rect height="3.0000000000000027e-2" width="3.0000000000000027e-2" x="0.5513438361554074" y="0.21441744497634008"/>
    <rect height="3.0000000000000027e-2" width="3.0000000000000027e-2" x="0.5641273278383255" y="0.1753501796061372"/>
    <rect height="3.0e-2" width="3.0000000000000027e-2" x="0.5769108195212441" y="-4.224221151563122e-2"/>
    <rect height="3.0000000000000027e-2" width="3.0000000000000027e-2" x="0.5896943112041623" y="0.20145538237228722"/>
    <rect height="3.0000000000000027e-2" width="3.0000000000000027e-2" x="0.6024778028870804" y="0.2143075334361927"/>
    <rect height="3.0000000000000027e-2" width="3.0000000000000027e-2" x="0.6152612945699988" y="0.17286152782115977"/>
    <rect height="3.0e-2" width="3.0000000000000027e-2" x="0.6280447862529172" y="-3.393873931463452e-2"/>
    <rect height="3.0000000000000027e-2" width="3.0000000000000027e-2" x="0.6408282779358353" y="0.19971414421007633"/>
    <rect height="3.0000000000000027e-2" width="3.0000000000000027e-2" x="0.6536117696187537" y="0.2077763564142644"/>
    <rect height="3.0000000000000027e-2" width="3.0000000000000027e-2" x="0.6663952613016718" y="0.21109029161061726"/>
    <rect height="3.0000000000000027e-2" width="3.0000000000000027e-2" x="0.6791787529845902" y="0.16891384010885713"/>
    <rect height="3.0000000000000027e-2" width="3.0000000000000027e-2" x="0.6919622446675086" y="0.17178089513215727"/>
    <rect height="3.0e-2" width="3.0000000000000027e-2" x="0.7047457363504267" y="-4.359436585567332e-2"/>
    <rect height="3.0000000000000027e-2" width="3.0000000000000027e-2" x="0.7175292280333451" y="0.22100001757372661"/>
  </g>
  <g stroke-opacity="0.5" fill-opacity="1.0" stroke="#3764a0" stroke-width="4.0e-3" fill="#ffffff">
    <rect height="7.741529567927585e-2" width="0.14652438166960913" x="-7.382466446885294e-2" y="0.40591996356784676"/>
  </g>
  <g fill-opacity="1.0" font-size="1.6e-2" stroke="none" stroke-width="0.0" fill="#666666" text-anchor="start">
    <text x="-5.5075543333906185e-2" y="0.46182259391159">Dynamic
    </text>
  </g>
  <g stroke-opacity="0.4" fill-opacity="0.8" stroke="#2c429d" stroke-width="3.0e-3" fill="#0ea194">
    <rect height="2.0000000000000018e-2" width="2.0000000000000004e-2" x="3.429479868131181e-2" y="0.4468231716857267"/>
  </g>
  <g fill-opacity="1.0" font-size="1.6e-2" stroke="none" stroke-width="0.0" fill="#666666" text-anchor="start">
    <text x="-5.5075543333906185e-2" y="0.4338712787397183">Fixed
    </text>
  </g>
  <g stroke-opacity="0.4" fill-opacity="0.8" stroke="#2c429d" stroke-width="3.0e-3" fill="#026062">
    <circle cy="0.4288718565138552" r="1.0000000000000002e-2" cx="4.429479868131181e-2"/>
  </g>
</svg>