
<svg xmlns="http://www.w3.org/2000/svg" height="300.0" viewBox="-0.92 -0.5514086878757898 1.7228200318237838 1.0714086878757898" width="450.0" xmlns:xlink="http://www.w3.org/1999/xlink">
  <g stroke-opacity="0.0" fill-opacity="0.1" stroke="#000000" stroke-width="0.0" fill="#cccccc">
    <rect height="0.7610929294466855" width="1.4039904528649207" x="-0.6586704210411369" y="-0.4961945353527666"/>
  </g>
  <g stroke-opacity="0.1" stroke="#808080" stroke-width="5.0e-3" fill="none">
    <polyline points="-0.6633503892173533,0.2648983940939189
0.75,0.2648983940939189"/>
  </g>
  <g stroke-opacity="0.1" stroke="#808080" stroke-width="5.0e-3" fill="none">
    <polyline points="-0.6633503892173533,0.16976177791308322
0.75,0.16976177791308322"/>
  </g>
  <g stroke-opacity="0.1" stroke="#808080" stroke-width="5.0e-3" fill="none">
    <polyline points="-0.6633503892173533,7.462516173224754e-2
0.75,7.462516173224754e-2"/>
  </g>
  <g stroke-opacity="0.1" stroke="#808080" stroke-width="5.0e-3" fill="none">
    <polyline points="-0.6633503892173533,-2.051145444858815e-2
0.75,-2.051145444858815e-2"/>
  </g>
  <g stroke-opacity="0.1" stroke="#808080" stroke-width="5.0e-3" fill="none">
    <polyline points="-0.6633503892173533,-0.11564807062942384
0.75,-0.11564807062942384"/>
  </g>
  <g stroke-opacity="0.1" stroke="#808080" stroke-width="5.0e-3" fill="none">
    <polyline points="-0.6633503892173533,-0.21078468681025953
0.75,-0.21078468681025953"/>
  </g>
  <g stroke-opacity="0.1" stroke="#808080" stroke-width="5.0e-3" fill="none">
    <polyline points="-0.6633503892173533,-0.3059213029910952
0.75,-0.3059213029910952"/>
  </g>
  <g stroke-opacity="0.1" stroke="#808080" stroke-width="5.0e-3" fill="none">
    <polyline points="-0.6633503892173533,-0.4010579191719309
0.75,-0.4010579191719309"/>
  </g>
  <g stroke-opacity="0.1" stroke="#808080" stroke-width="5.0e-3" fill="none">
    <polyline points="-0.6633503892173533,-0.4961945353527666
0.75,-0.4961945353527666"/>
  </g>
  <g fill-opacity="0.8" font-size="5.0e-2" stroke="none" stroke-width="0.0" fill="#333333" text-anchor="end">
    <text x="-0.75" y="0.2759342415708958">0
    </text>
  </g>
  <g fill-opacity="0.8" font-size="5.0e-2" stroke="none" stroke-width="0.0" fill="#333333" text-anchor="end">
    <text x="-0.75" y="0.18079762539006017">2,000
    </text>
  </g>
  <g fill-opacity="0.8" font-size="5.0e-2" stroke="none" stroke-width="0.0" fill="#333333" text-anchor="end">
    <text x="-0.75" y="8.566100920922443e-2">4,000
    </text>
  </g>
  <g fill-opacity="0.8" font-size="5.0e-2" stroke="none" stroke-width="0.0" fill="#333333" text-anchor="end">
    <text x="-0.75" y="-9.475606971611317e-3">6,000
    </text>
  </g>
  <g fill-opacity="0.8" font-size="5.0e-2" stroke="none" stroke-width="0.0" fill="#333333" text-anchor="end">
    <text x="-0.75" y="-0.104612223152447">8,000
    </text>
  </g>
  <g fill-opacity="0.8" font-size="5.0e-2" stroke="none" stroke-width="0.0" fill="#333333" text-anchor="end">
    <text x="-0.75" y="-0.1997488393332827">10,000
    </text>
  </g>
  <g fill-opacity="0.8" font-size="5.0e-2" stroke="none" stroke-width="0.0" fill="#333333" text-anchor="end">
    <text x="-0.75" y="-0.2948854555141184">12,000
    </text>
  </g>
  <g fill-opacity="0.8" font-size="5.0e-2" stroke="none" stroke-width="0.0" fill="#333333" text-anchor="end">
    <text x="-0.75" y="-0.39002207169495406">14,000
    </text>
  </g>
  <g fill-opacity="0.8" font-size="5.0e-2" stroke="none" stroke-width="0.0" fill="#333333" text-anchor="end">
    <text x="-0.75" y="-0.48515868787578975">16,000
    </text>
  </g>
  <g stroke-opacity="0.5" fill-opacity="0.5" stroke="#570d66" stroke-width="5.0e-3" fill="#570d66">
    <g transform="rotate(-90.0, -0.7195100073319501, 0.2648983940939189)">
      <polyline points="-0.7195100073319501,0.2798983940939189
-0.7195100073319501,0.2498983940939189"/>
    </g>
    <g transform="rotate(-90.0, -0.7195100073319501, 0.16976177791308322)">
      <polyline points="-0.7195100073319501,0.18476177791308324
-0.7195100073319501,0.1547617779130832"/>
    </g>
    <g transform="rotate(-90.0, -0.7195100073319501, 7.462516173224754e-2)">
      <polyline points="-0.7195100073319501,8.962516173224754e-2
-0.7195100073319501,5.9625161732247536e-2"/>
    </g>
    <g transform="rotate(-90.0, -0.7195100073319501, -2.051145444858815e-2)">
      <polyline points="-0.7195100073319501,-5.511454448588152e-3
-0.7195100073319501,-3.551145444858815e-2"/>
    </g>
    <g transform="rotate(-90.0, -0.7195100073319501, -0.11564807062942384)">
      <polyline points="-0.7195100073319501,-0.10064807062942384
-0.7195100073319501,-0.13064807062942385"/>
    </g>
    <g transform="rotate(-90.0, -0.7195100073319501, -0.21078468681025953)">
      <polyline points="-0.7195100073319501,-0.1957846868102595
-0.7195100073319501,-0.22578468681025954"/>
    </g>
    <g transform="rotate(-90.0, -0.7195100073319501, -0.3059213029910952)">
      <polyline points="-0.7195100073319501,-0.2909213029910952
-0.7195100073319501,-0.3209213029910952"/>
    </g>
    <g transform="rotate(-90.0, -0.7195100073319501, -0.4010579191719309)">
      <polyline points="-0.7195100073319501,-0.3860579191719309
-0.7195100073319501,-0.4160579191719309"/>
    </g>
    <g transform="rotate(-90.0, -0.7195100073319501, -0.4961945353527666)">
      <polyline points="-0.7195100073319501,-0.4811945353527666
-0.7195100073319501,-0.5111945353527666"/>
    </g>
  </g>
  <g stroke-opacity="0.5" fill-opacity="0.5" stroke="#570d66" stroke-width="0.0" fill="#570d66">
    <rect height="0.7610929294466855" width="4.679968176216409e-3" x="-0.7078100868914091" y="-0.4961945353527666"/>
  </g>
  <g stroke-opacity="0.1" stroke="#808080" stroke-width="5.0e-3" fill="none">
    <polyline points="-0.6586704210411369,0.2687038587411523
-0.6586704210411369,-0.5"/>
  </g>
  <g stroke-opacity="0.1" stroke="#808080" stroke-width="5.0e-3" fill="none">
    <polyline points="-0.5310349253261442,0.2687038587411523
-0.5310349253261442,-0.5"/>
  </g>
  <g stroke-opacity="0.1" stroke="#808080" stroke-width="5.0e-3" fill="none">
    <polyline points="-0.4033994296111514,0.2687038587411523
-0.4033994296111514,-0.5"/>
  </g>
  <g stroke-opacity="0.1" stroke="#808080" stroke-width="5.0e-3" fill="none">
    <polyline points="-0.2757639338961586,0.2687038587411523
-0.2757639338961586,-0.5"/>
  </g>
  <g stroke-opacity="0.1" stroke="#808080" stroke-width="5.0e-3" fill="none">
    <polyline points="-0.14812843818116583,0.2687038587411523
-0.14812843818116583,-0.5"/>
  </g>
  <g stroke-opacity="0.1" stroke="#808080" stroke-width="5.0e-3" fill="none">
    <polyline points="-2.0492942466172948e-2,0.2687038587411523
-2.0492942466172948e-2,-0.5"/>
  </g>
  <g stroke-opacity="0.1" stroke="#808080" stroke-width="5.0e-3" fill="none">
    <polyline points="0.10714255324881983,0.2687038587411523
0.10714255324881983,-0.5"/>
  </g>
  <g stroke-opacity="0.1" stroke="#808080" stroke-width="5.0e-3" fill="none">
    <polyline points="0.2347780489638127,0.2687038587411523
0.2347780489638127,-0.5"/>
  </g>
  <g stroke-opacity="0.1" stroke="#808080" stroke-width="5.0e-3" fill="none">
    <polyline points="0.36241354467880527,0.2687038587411523
0.36241354467880527,-0.5"/>
  </g>
  <g stroke-opacity="0.1" stroke="#808080" stroke-width="5.0e-3" fill="none">
    <polyline points="0.49004904039379826,0.2687038587411523
0.49004904039379826,-0.5"/>
  </g>
  <g stroke-opacity="0.1" stroke="#808080" stroke-width="5.0e-3" fill="none">
    <polyline points="0.6176845361087908,0.2687038587411523
0.6176845361087908,-0.5"/>
  </g>
  <g stroke-opacity="0.1" stroke="#808080" stroke-width="5.0e-3" fill="none">
    <polyline points="0.7453200318237838,0.2687038587411523
0.7453200318237838,-0.5"/>
  </g>
  <g fill-opacity="0.8" font-size="5.0e-2" stroke="none" stroke-width="0.0" fill="#333333" text-anchor="middle">
    <text x="-0.6586704210411369" y="0.3495699824948626">-10
    </text>
  </g>
  <g fill-opacity="0.8" font-size="5.0e-2" stroke="none" stroke-width="0.0" fill="#333333" text-anchor="middle">
    <text x="-0.5310349253261442" y="0.3495699824948626">0
    </text>
  </g>
  <g fill-opacity="0.8" font-size="5.0e-2" stroke="none" stroke-width="0.0" fill="#333333" text-anchor="middle">
    <text x="-0.4033994296111514" y="0.3495699824948626">10
    </text>
  </g>
  <g fill-opacity="0.8" font-size="5.0e-2" stroke="none" stroke-width="0.0" fill="#333333" text-anchor="middle">
    <text x="-0.2757639338961586" y="0.3495699824948626">20
    </text>
  </g>
  <g fill-opacity="0.8" font-size="5.0e-2" stroke="none" stroke-width="0.0" fill="#333333" text-anchor="middle">
    <text x="-0.14812843818116583" y="0.3495699824948626">30
    </text>
  </g>
  <g fill-opacity="0.8" font-size="5.0e-2" stroke="none" stroke-width="0.0" fill="#333333" text-anchor="middle">
    <text x="-2.0492942466172948e-2" y="0.3495699824948626">40
    </text>
  </g>
  <g fill-opacity="0.8" font-size="5.0e-2" stroke="none" stroke-width="0.0" fill="#333333" text-anchor="middle">
    <text x="0.10714255324881983" y="0.3495699824948626">50
    </text>
  </g>
  <g fill-opacity="0.8" font-size="5.0e-2" stroke="none" stroke-width="0.0" fill="#333333" text-anchor="middle">
    <text x="0.2347780489638127" y="0.3495699824948626">60
    </text>
  </g>
  <g fill-opacity="0.8" font-size="5.0e-2" stroke="none" stroke-width="0.0" fill="#333333" text-anchor="middle">
    <text x="0.36241354467880527" y="0.3495699824948626">70
    </text>
  </g>
  <g fill-opacity="0.8" font-size="5.0e-2" stroke="none" stroke-width="0.0" fill="#333333" text-anchor="middle">
    <text x="0.49004904039379826" y="0.3495699824948626">80
    </text>
  </g>
  <g fill-opacity="0.8" font-size="5.0e-2" stroke="none" stroke-width="0.0" fill="#333333" text-anchor="middle">
    <text x="0.6176845361087908" y="0.3495699824948626">90
    </text>
  </g>
  <g fill-opacity="0.8" font-size="5.0e-2" stroke="none" stroke-width="0.0" fill="#333333" text-anchor="middle">
    <text x="0.7453200318237838" y="0.3495699824948626">100
    </text>
  </g>
  <g stroke-opacity="0.5" fill-opacity="0.5" stroke="#570d66" stroke-width="5.0e-3" fill="#570d66">
    <polyline points="-0.6586704210411369,0.3008284496537027
-0.6586704210411369,0.2708284496537027"/>
    <polyline points="-0.5310349253261442,0.3008284496537027
-0.5310349253261442,0.2708284496537027"/>
    <polyline points="-0.4033994296111514,0.3008284496537027
-0.4033994296111514,0.2708284496537027"/>
    <polyline points="-0.2757639338961586,0.3008284496537027
-0.2757639338961586,0.2708284496537027"/>
    <polyline points="-0.14812843818116583,0.3008284496537027
-0.14812843818116583,0.2708284496537027"/>
    <polyline points="-2.0492942466172948e-2,0.3008284496537027
-2.0492942466172948e-2,0.2708284496537027"/>
    <polyline points="0.10714255324881983,0.3008284496537027
0.10714255324881983,0.2708284496537027"/>
    <polyline points="0.2347780489638127,0.3008284496537027
0.2347780489638127,0.2708284496537027"/>
    <polyline points="0.36241354467880527,0.3008284496537027
0.36241354467880527,0.2708284496537027"/>
    <polyline points="0.49004904039379826,0.3008284496537027
0.49004904039379826,0.2708284496537027"/>
    <polyline points="0.6176845361087908,0.3008284496537027
0.6176845361087908,0.2708284496537027"/>
    <polyline points="0.7453200318237838,0.3008284496537027
0.7453200318237838,0.2708284496537027"/>
  </g>
  <g stroke-opacity="0.5" fill-opacity="0.5" stroke="#570d66" stroke-width="0.0" fill="#570d66">
    <rect height="3.805464647233414e-3" width="1.4039904528649207" x="-0.6586704210411369" y="0.27250932338838574"/>
  </g>
  <g stroke-opacity="0.4" fill-opacity="1.0" stroke="#0ea194" stroke-width="3.0e-3" fill="#026062">
    <circle cy="-0.45131745186087224" r="1.5e-2" cx="-0.5310349253261442"/>
    <circle cy="0.24747269579115616" r="1.5e-2" cx="-0.5182713757546449"/>
    <circle cy="0.2168795189892686" r="1.5e-2" cx="-0.5055078261831456"/>
    <circle cy="0.1957535771367684" r="1.5e-2" cx="-0.4927442766116463"/>
    <circle cy="0.17691348276124513" r="1.5e-2" cx="-0.479980727040147"/>
    <circle cy="0.25006992541289297" r="1.5e-2" cx="-0.4672171774686477"/>
    <circle cy="0.2331756602481163" r="1.5e-2" cx="-0.4544536278971485"/>
    <circle cy="0.21396605525534673" r="1.5e-2" cx="-0.44169007832564916"/>
    <circle cy="0.18640697541669843" r="1.5e-2" cx="-0.4289265287541499"/>
    <circle cy="0.17190339827993" r="1.5e-2" cx="-0.4161629791826506"/>
    <circle cy="0.2497643466017201" r="1.5e-2" cx="-0.4033994296111514"/>
    <circle cy="0.22533963771976562" r="1.5e-2" cx="-0.3906358800396521"/>
    <circle cy="0.20299870614201992" r="1.5e-2" cx="-0.37787233046815283"/>
    <circle cy="0.17676478423015451" r="1.5e-2" cx="-0.36510878089665355"/>
    <circle cy="0.17486557196133645" r="1.5e-2" cx="-0.3523452313251543"/>
    <circle cy="0.24990904939493114" r="1.5e-2" cx="-0.33958168175365494"/>
    <circle cy="0.21930892762006243" r="1.5e-2" cx="-0.3268181321821556"/>
    <circle cy="0.19585984473704243" r="1.5e-2" cx="-0.31405458261065644"/>
    <circle cy="0.1760837963315321" r="1.5e-2" cx="-0.3012910330391571"/>
    <circle cy="0.2501009399497679" r="1.5e-2" cx="-0.2885274834676579"/>
    <circle cy="0.23317118882715582" r="1.5e-2" cx="-0.2757639338961586"/>
    <circle cy="0.2136256564426517" r="1.5e-2" cx="-0.2630003843246593"/>
    <circle cy="0.18960746632163789" r="1.5e-2" cx="-0.25023683475316005"/>
    <circle cy="0.1751434660172007" r="1.5e-2" cx="-0.23747328518166078"/>
    <circle cy="0.2501223456884085" r="1.5e-2" cx="-0.2247097356101615"/>
    <circle cy="0.2261873049699369" r="1.5e-2" cx="-0.2119461860386621"/>
    <circle cy="0.20225235938808134" r="1.5e-2" cx="-0.19918263646716283"/>
    <circle cy="0.1832153322170637" r="1.5e-2" cx="-0.18641908689566367"/>
    <circle cy="0.17543249105715808" r="1.5e-2" cx="-0.17365553732416428"/>
    <circle cy="0.2500655491285486" r="1.5e-2" cx="-0.160891987752665"/>
    <circle cy="0.21485567775325365" r="1.5e-2" cx="-0.14812843818116583"/>
    <circle cy="0.19572693888423776" r="1.5e-2" cx="-0.13536488860966644"/>
    <circle cy="0.1757293172996423" r="1.5e-2" cx="-0.12260133903816728"/>
    <circle cy="0.24999695562828222" r="1.5e-2" cx="-0.109837789466668"/>
    <circle cy="0.23187152751350942" r="1.5e-2" cx="-9.707423989516861e-2"/>
    <circle cy="0.20809060811325064" r="1.5e-2" cx="-8.431069032366945e-2"/>
    <circle cy="0.18826756221934698" r="1.5e-2" cx="-7.154714075217017e-2"/>
    <circle cy="0.1747921264936449" r="1.5e-2" cx="-5.878359118067078e-2"/>
    <circle cy="0.24996965141943833" r="1.5e-2" cx="-4.60200416091715e-2"/>
    <circle cy="0.22553761701803793" r="1.5e-2" cx="-3.3256492037672225e-2"/>
    <circle cy="0.20093538321029003" r="1.5e-2" cx="-2.0492942466172948e-2"/>
    <circle cy="0.182318479336327" r="1.5e-2" cx="-7.72939289467367e-3"/>
    <circle cy="0.17525839104954716" r="1.5e-2" cx="5.034156676825496e-3"/>
    <circle cy="0.25024621356267607" r="1.5e-2" cx="1.7797706248324774e-2"/>
    <circle cy="0.21606514955476064" r="1.5e-2" cx="3.0561255819824162e-2"/>
    <circle cy="0.1864874609939874" r="1.5e-2" cx="4.332480539132333e-2"/>
    <circle cy="0.17003577136768405" r="1.5e-2" cx="5.6088354962822606e-2"/>
    <circle cy="0.24997697693888427" r="1.5e-2" cx="6.8851904534322e-2"/>
    <circle cy="0.2323155301012254" r="1.5e-2" cx="8.161545410582116e-2"/>
    <circle cy="0.212315339827993" r="1.5e-2" cx="9.437900367732066e-2"/>
    <circle cy="0.18784154045208917" r="1.5e-2" cx="0.10714255324881983"/>
    <circle cy="0.1763688256336099" r="1.5e-2" cx="0.119906102820319"/>
    <circle cy="0.25029673110586803" r="1.5e-2" cx="0.1326696523918185"/>
    <circle cy="0.225891715503463" r="1.5e-2" cx="0.14543320196331766"/>
    <circle cy="0.20132553847324763" r="1.5e-2" cx="0.15819675153481683"/>
    <circle cy="0.17927895958596546" r="1.5e-2" cx="0.1709603011063161"/>
    <circle cy="0.1755085052134866" r="1.5e-2" cx="0.1837238506778155"/>
    <circle cy="0.24993426059821905" r="1.5e-2" cx="0.19648740024931466"/>
    <circle cy="0.21891696476139738" r="1.5e-2" cx="0.20925094982081416"/>
    <circle cy="0.19523184793363269" r="1.5e-2" cx="0.22201449939231332"/>
    <circle cy="0.17527741837278332" r="1.5e-2" cx="0.2347780489638127"/>
    <circle cy="0.249984207321714" r="1.5e-2" cx="0.24754159853531177"/>
    <circle cy="0.2315806948778446" r="1.5e-2" cx="0.26030514810681127"/>
    <circle cy="0.2120462934774336" r="1.5e-2" cx="0.2730686976783103"/>
    <circle cy="0.18828183271177412" r="1.5e-2" cx="0.2858322472498098"/>
    <circle cy="0.17172967881878382" r="1.5e-2" cx="0.2985957968213091"/>
    <circle cy="0.25001293857980056" r="1.5e-2" cx="0.3113593463928084"/>
    <circle cy="0.2242973209528884" r="1.5e-2" cx="0.32412289596430743"/>
    <circle cy="0.20085822741456733" r="1.5e-2" cx="0.33688644553580693"/>
    <circle cy="0.18051430854707362" r="1.5e-2" cx="0.349649995107306"/>
    <circle cy="0.17571133647918413" r="1.5e-2" cx="0.36241354467880527"/>
    <circle cy="0.24986994824568082" r="1.5e-2" cx="0.37517709425030477"/>
    <circle cy="0.21736661846411448" r="1.5e-2" cx="0.38794064382180404"/>
    <circle cy="0.19420304056625315" r="1.5e-2" cx="0.4007041933933033"/>
    <circle cy="0.17431701423243784" r="1.5e-2" cx="0.4134677429648024"/>
    <circle cy="0.2500333929522795" r="1.5e-2" cx="0.4262312925363019"/>
    <circle cy="0.21180359996955628" r="1.5e-2" cx="0.43899484210780093"/>
    <circle cy="0.21159943679123228" r="1.5e-2" cx="0.45175839167930043"/>
    <circle cy="0.1865162873886902" r="1.5e-2" cx="0.4645219412507995"/>
    <circle cy="0.17541679351548828" r="1.5e-2" cx="0.477285490822299"/>
    <circle cy="0.2499790699444402" r="1.5e-2" cx="0.49004904039379804"/>
    <circle cy="0.2241665081056397" r="1.5e-2" cx="0.5028125899652975"/>
    <circle cy="0.20016534743892228" r="1.5e-2" cx="0.5155761395367966"/>
    <circle cy="0.17982314103051983" r="1.5e-2" cx="0.5283396891082961"/>
    <circle cy="0.17357095288834767" r="1.5e-2" cx="0.5411032386797952"/>
    <circle cy="0.24984987441966666" r="1.5e-2" cx="0.5538667882512947"/>
    <circle cy="0.21734816196057538" r="1.5e-2" cx="0.5666303378227937"/>
    <circle cy="0.1940513928000609" r="1.5e-2" cx="0.579393887394293"/>
    <circle cy="0.1759671588400944" r="1.5e-2" cx="0.5921574369657925"/>
    <circle cy="0.24995947180150696" r="1.5e-2" cx="0.6049209865372918"/>
    <circle cy="0.2304696894740848" r="1.5e-2" cx="0.6176845361087908"/>
    <circle cy="0.21106553010122536" r="1.5e-2" cx="0.6304480856802903"/>
    <circle cy="0.18450338686353607" r="1.5e-2" cx="0.6432116352517894"/>
    <circle cy="0.17484635436486795" r="1.5e-2" cx="0.6559751848232886"/>
    <circle cy="0.25001931273308475" r="1.5e-2" cx="0.6687387343947881"/>
    <circle cy="0.22348142933252152" r="1.5e-2" cx="0.6815022839662874"/>
    <circle cy="0.1825631707131441" r="1.5e-2" cx="0.6942658335377865"/>
    <circle cy="0.17991133267371945" r="1.5e-2" cx="0.707029383109286"/>
    <circle cy="0.17425327269959662" r="1.5e-2" cx="0.719792932680785"/>
    <circle cy="0.249917897100236" r="1.5e-2" cx="0.7325564822522845"/>
  </g>
  <g stroke-opacity="0.4" fill-opacity="1.0" stroke="#0ea194" stroke-width="3.0e-3" fill="#0ea194">
    <rect height="3.0e-2" width="3.0000000000000027e-2" x="-0.5460349253261442" y="6.904863383819167e-2"/>
    <rect height="3.0000000000000027e-2" width="3.0000000000000027e-2" x="-0.5332713757546449" y="-0.45547140193317603"/>
    <rect height="3.0000000000000013e-2" width="3.0000000000000027e-2" x="-0.5205078261831456" y="0.11364249562371566"/>
    <rect height="3.0000000000000027e-2" width="3.0000000000000027e-2" x="-0.5077442766116463" y="0.16293410837963312"/>
    <rect height="3.0e-2" width="3.0000000000000027e-2" x="-0.494980727040147" y="7.112289748078245e-2"/>
    <rect height="3.0000000000000027e-2" width="3.0000000000000027e-2" x="-0.48221717746864773" y="-0.4465140992465181"/>
    <rect height="3.0000000000000027e-2" width="3.0000000000000027e-2" x="-0.4694536278971485" y="0.13501645863459927"/>
    <rect height="3.0000000000000027e-2" width="3.0000000000000027e-2" x="-0.4566900783256492" y="0.1658196019483979"/>
    <rect height="3.0000000000000027e-2" width="3.0000000000000027e-2" x="-0.4439265287541499" y="0.19805683461450646"/>
    <rect height="3.0000000000000013e-2" width="3.0000000000000027e-2" x="-0.4311629791826506" y="0.10406566329248802"/>
    <rect height="3.0e-2" width="3.0000000000000027e-2" x="-0.4183994296111514" y="7.698588172615879e-2"/>
    <rect height="3.0000000000000027e-2" width="3.0000000000000027e-2" x="-0.4056358800396521" y="-0.4315154311591445"/>
    <rect height="3.0000000000000027e-2" width="3.0000000000000027e-2" x="-0.39287233046815284" y="0.17685563969860718"/>
    <rect height="3.0e-2" width="3.0000000000000027e-2" x="-0.38010878089665356" y="8.853308851510767e-2"/>
    <rect height="3.0e-2" width="3.0000000000000027e-2" x="-0.3673452313251543" y="7.229840551031282e-2"/>
    <rect height="3.0000000000000027e-2" width="3.0000000000000027e-2" x="-0.35458168175365495" y="-0.41713562676002736"/>
    <rect height="3.0000000000000027e-2" width="3.0000000000000027e-2" x="-0.3418181321821556" y="0.18337611309840934"/>
    <rect height="3.0e-2" width="3.0000000000000027e-2" x="-0.32905458261065645" y="8.26435611538169e-2"/>
    <rect height="3.0000000000000027e-2" width="3.0000000000000027e-2" x="-0.3162910330391571" y="-0.4413511302230001"/>
    <rect height="3.0000000000000027e-2" width="3.0000000000000027e-2" x="-0.3035274834676579" y="0.149964228632316"/>
    <rect height="3.0000000000000027e-2" width="3.0000000000000027e-2" x="-0.2907639338961586" y="0.18157888728213717"/>
    <rect height="3.0e-2" width="3.0000000000000027e-2" x="-0.2780003843246593" y="8.169495395387778e-2"/>
    <rect height="3.0000000000000027e-2" width="3.0000000000000027e-2" x="-0.26523683475316007" y="-0.4487652218585889"/>
    <rect height="3.0000000000000027e-2" width="3.0000000000000027e-2" x="-0.2524732851816608" y="0.14724455818555443"/>
    <rect height="3.0000000000000027e-2" width="3.0000000000000027e-2" x="-0.2397097356101615" y="0.1790653778826395"/>
    <rect height="3.0e-2" width="3.0000000000000027e-2" x="-0.22694618603866212" y="7.77101567851435e-2"/>
    <rect height="3.0000000000000027e-2" width="3.0000000000000027e-2" x="-0.21418263646716285" y="-0.4477663825253062"/>
    <rect height="3.0000000000000027e-2" width="3.0000000000000027e-2" x="-0.20141908689566368" y="0.14386178552401246"/>
    <rect height="3.0000000000000027e-2" width="3.0000000000000027e-2" x="-0.1886555373241643" y="0.1750514689093538"/>
    <rect height="3.0e-2" width="3.0000000000000027e-2" x="-0.175891987752665" y="7.52249029606515e-2"/>
    <rect height="3.0e-2" width="3.0000000000000027e-2" x="-0.16312843818116585" y="4.987432453002512e-2"/>
    <rect height="3.0000000000000027e-2" width="3.0000000000000013e-2" x="-0.15036488860966646" y="-0.47397119263262033"/>
    <rect height="3.0000000000000027e-2" width="3.0000000000000013e-2" x="-0.1376013390381673" y="0.1692647842301545"/>
    <rect height="3.0e-2" width="3.0e-2" x="-0.124837789466668" y="7.218224370195604e-2"/>
    <rect height="3.0000000000000027e-2" width="3.0e-2" x="-0.11207423989516861" y="-0.5091188446609332"/>
    <rect height="3.0000000000000027e-2" width="3.0e-2" x="-9.931069032366945e-2" y="0.1369598142933252"/>
    <rect height="3.0000000000000027e-2" width="3.0e-2" x="-8.654714075217017e-2" y="0.1689639622497907"/>
    <rect height="3.0000000000000027e-2" width="3.0e-2" x="-7.378359118067078e-2" y="0.1935559213029911"/>
    <rect height="3.0000000000000013e-2" width="3.0e-2" x="-6.10200416091715e-2" y="0.1020000570819697"/>
    <rect height="3.0e-2" width="3.0e-2" x="-4.8256492037672225e-2" y="7.688760560164394e-2"/>
    <rect height="3.0000000000000027e-2" width="3.0e-2" x="-3.549294246617295e-2" y="-0.4553234644950148"/>
    <rect height="3.0000000000000027e-2" width="3.0e-2" x="-2.272939289467367e-2" y="0.1865723228556207"/>
    <rect height="3.0e-2" width="3.0e-2" x="-9.965843323174503e-3" y="9.380879442879976e-2"/>
    <rect height="3.0e-2" width="3.0e-2" x="2.7977062483247744e-3" y="7.347438922292411e-2"/>
    <rect height="3.0000000000000027e-2" width="3.0e-2" x="1.5561255819824163e-2" y="-0.42084329096582695"/>
    <rect height="3.0000000000000027e-2" width="3.0e-2" x="2.832480539132333e-2" y="0.17427410761854023"/>
    <rect height="3.0e-2" width="3.0e-2" x="4.108835496282261e-2" y="8.621337240277045e-2"/>
    <rect height="3.0000000000000027e-2" width="3.0e-2" x="5.3851904534321995e-2" y="-0.4384746746327728"/>
    <rect height="3.0000000000000027e-2" width="3.0e-2" x="6.661545410582116e-2" y="0.15097277190044905"/>
    <rect height="3.0000000000000027e-2" width="3.0e-2" x="7.937900367732066e-2" y="0.183677410761854"/>
    <rect height="3.0e-2" width="3.0e-2" x="9.214255324881983e-2" y="8.240543420351627e-2"/>
    <rect height="3.0000000000000027e-2" width="3.0000000000000013e-2" x="0.104906102820319" y="-0.4436418296674024"/>
    <rect height="3.0000000000000027e-2" width="3.0000000000000013e-2" x="0.1176696523918185" y="0.14811876855164013"/>
    <rect height="3.0000000000000027e-2" width="3.0000000000000027e-2" x="0.13043320196331765" y="0.18035210061648527"/>
    <rect height="3.0e-2" width="3.0000000000000027e-2" x="0.1431967515348168" y="8.00067546997489e-2"/>
    <rect height="3.0e-2" width="3.0000000000000027e-2" x="0.1559603011063161" y="5.484007534819997e-2"/>
    <rect height="3.0000000000000027e-2" width="3.0000000000000027e-2" x="0.16872385067781548" y="-0.43160200547986916"/>
    <rect height="3.0000000000000027e-2" width="3.0000000000000027e-2" x="0.18148740024931465" y="0.17332255118349948"/>
    <rect height="3.0e-2" width="3.0000000000000027e-2" x="0.19425094982081414" y="7.528674176116902e-2"/>
    <rect height="3.0000000000000027e-2" width="3.0000000000000027e-2" x="0.2070144993923133" y="-0.44758942841921"/>
    <rect height="3.0000000000000013e-2" width="3.0000000000000027e-2" x="0.2197780489638127" y="0.12162093766648908"/>
    <rect height="3.0000000000000027e-2" width="3.0000000000000027e-2" x="0.23254159853531176" y="0.15473770834918943"/>
    <rect height="3.0e-2" width="3.0000000000000027e-2" x="0.24530514810681125" y="1.7761150011416385e-2"/>
    <rect height="3.0e-2" width="3.0000000000000027e-2" x="0.2580686976783103" y="2.7212306872669192e-2"/>
    <rect height="3.0000000000000027e-2" width="3.0000000000000027e-2" x="0.2708322472498098" y="-0.5109834272014613"/>
    <rect height="3.0000000000000027e-2" width="3.0000000000000027e-2" x="0.2835957968213091" y="0.1530783354897633"/>
    <rect height="3.0000000000000027e-2" width="3.0000000000000027e-2" x="0.29635934639280836" y="0.19284487023365554"/>
    <rect height="3.0000000000000013e-2" width="3.0000000000000027e-2" x="0.3091228959643074" y="0.10807814521653099"/>
    <rect height="3.0e-2" width="3.0000000000000027e-2" x="0.3218864455358069" y="6.73626227262349e-2"/>
    <rect height="3.0000000000000027e-2" width="3.0000000000000027e-2" x="0.334649995107306" y="-0.4458528997640613"/>
    <rect height="3.0000000000000027e-2" width="3.0000000000000027e-2" x="0.34741354467880525" y="0.18907612832026793"/>
    <rect height="3.0000000000000013e-2" width="3.0000000000000027e-2" x="0.36017709425030475" y="9.532213258238832e-2"/>
    <rect height="3.0e-2" width="3.0000000000000027e-2" x="0.37294064382180403" y="7.069021615039196e-2"/>
    <rect height="3.0000000000000027e-2" width="3.0000000000000027e-2" x="0.3857041933933033" y="-0.4478989078316462"/>
    <rect height="3.0000000000000027e-2" width="3.0000000000000027e-2" x="0.39846774296480236" y="0.18536570515259915"/>
    <rect height="3.0e-2" width="3.0000000000000027e-2" x="0.41123129253630186" y="8.983741152294701e-2"/>
    <rect height="3.0e-2" width="3.0000000000000027e-2" x="0.4239948421078009" y="7.288206865058224e-2"/>
    <rect height="3.0000000000000027e-2" width="3.0000000000000027e-2" x="0.4367583916793004" y="-0.43596639774716484"/>
    <rect height="3.0000000000000027e-2" width="3.0000000000000027e-2" x="0.4495219412507995" y="0.17260807519598143"/>
    <rect height="3.0e-2" width="3.0000000000000027e-2" x="0.462285490822299" y="8.417078925336781e-2"/>
    <rect height="3.0e-2" width="3.0000000000000027e-2" x="0.475049040393798" y="6.884970317375756e-2"/>
    <rect height="3.0000000000000027e-2" width="3.0000000000000027e-2" x="0.4878125899652975" y="-0.43786503919628594"/>
    <rect height="3.0000000000000027e-2" width="3.0000000000000027e-2" x="0.5005761395367966" y="0.16799280767181674"/>
    <rect height="3.0e-2" width="3.0000000000000027e-2" x="0.5133396891082961" y="7.990904939493111e-2"/>
    <rect height="3.0000000000000027e-2" width="3.0000000000000027e-2" x="0.5261032386797951" y="-0.44061867341502403"/>
    <rect height="3.0000000000000027e-2" width="3.0000000000000027e-2" x="0.5388667882512946" y="0.1460786589542583"/>
    <rect height="3.0000000000000027e-2" width="3.0000000000000027e-2" x="0.5516303378227937" y="0.17674214171550345"/>
    <rect height="3.0e-2" width="3.0000000000000027e-2" x="0.564393887394293" y="7.473190501560241e-2"/>
    <rect height="3.0e-2" width="3.0000000000000027e-2" x="0.5771574369657925" y="5.1842510845574244e-2"/>
    <rect height="3.0000000000000027e-2" width="3.0000000000000027e-2" x="0.5899209865372917" y="-0.4312524735520208"/>
    <rect height="3.0000000000000027e-2" width="3.0000000000000027e-2" x="0.6026845361087908" y="0.17204248801278638"/>
    <rect height="3.0e-2" width="3.0000000000000027e-2" x="0.6154480856802903" y="7.23293249105716e-2"/>
    <rect height="3.0000000000000027e-2" width="3.0000000000000027e-2" x="0.6282116352517894" y="-0.4428937704543725"/>
    <rect height="3.0000000000000027e-2" width="3.0000000000000027e-2" x="0.6409751848232886" y="0.13884037978537178"/>
    <rect height="3.0000000000000027e-2" width="3.0000000000000027e-2" x="0.6537387343947881" y="0.1761968186315549"/>
    <rect height="3.0e-2" width="3.0000000000000027e-2" x="0.6665022839662874" y="7.292468985463126e-2"/>
    <rect height="3.0000000000000027e-2" width="3.0000000000000027e-2" x="0.6792658335377865" y="-0.45953516249334037"/>
    <rect height="3.0000000000000027e-2" width="3.0000000000000027e-2" x="0.692029383109286" y="0.1375993226272928"/>
    <rect height="3.0000000000000027e-2" width="3.0000000000000027e-2" x="0.704792932680785" y="0.16788568384199715"/>
    <rect height="3.0000000000000027e-2" width="3.0000000000000027e-2" x="0.7175564822522845" y="0.1919915899231296"/>
  </g>
  <g stroke-opacity="1.0" fill-opacity="1.0" stroke="#026062" stroke-width="4.0e-3" fill="#000000">
    <rect height="7.778369738945123e-2" width="0.1462958051885248" x="-7.370949877540833e-2" y="0.4054722581627217"/>
  </g>
  <g fill-opacity="1.0" font-size="1.6e-2" stroke="none" stroke-width="0.0" fill="#808080" text-anchor="start">
    <text x="-5.4989626070542696e-2" y="0.46164091635588705">Dynamic
    </text>
  </g>
  <g stroke-opacity="0.4" fill-opacity="1.0" stroke="#0ea194" stroke-width="3.0e-3" fill="#0ea194">
    <rect height="2.0000000000000018e-2" width="2.0000000000000004e-2" x="3.4225699265245e-2" y="0.44661770302153886"/>
  </g>
  <g fill-opacity="1.0" font-size="1.6e-2" stroke="none" stroke-width="0.0" fill="#808080" text-anchor="start">
    <text x="-5.4989626070542696e-2" y="0.43355658725930435">Fixed
    </text>
  </g>
  <g stroke-opacity="0.4" fill-opacity="1.0" stroke="#0ea194" stroke-width="3.0e-3" fill="#026062">
    <circle cy="0.4285333739249563" r="1.0000000000000002e-2" cx="4.4225699265245e-2"/>
  </g>
</svg>