
<svg xmlns="http://www.w3.org/2000/svg" height="300.0" viewBox="-0.92 -0.5515071576971907 1.7228200318237838 1.0715071576971908" width="450.0" xmlns:xlink="http://www.w3.org/1999/xlink">
  <g stroke-opacity="0.0" fill-opacity="0.1" stroke="#000000" stroke-width="0.0" fill="#cccccc">
    <rect height="0.7560431950158608" width="1.4039904528649207" x="-0.6586704210411369" y="-0.4962197840249206"/>
  </g>
  <g stroke-opacity="0.1" stroke="#808080" stroke-width="5.0e-3" fill="none">
    <polyline points="-0.6633503892173533,0.2598234109909402
0.75,0.2598234109909402"/>
  </g>
  <g stroke-opacity="0.1" stroke="#808080" stroke-width="5.0e-3" fill="none">
    <polyline points="-0.6633503892173533,0.16531801161395754
0.75,0.16531801161395754"/>
  </g>
  <g stroke-opacity="0.1" stroke="#808080" stroke-width="5.0e-3" fill="none">
    <polyline points="-0.6633503892173533,7.081261223697494e-2
0.75,7.081261223697494e-2"/>
  </g>
  <g stroke-opacity="0.1" stroke="#808080" stroke-width="5.0e-3" fill="none">
    <polyline points="-0.6633503892173533,-2.3692787140007665e-2
0.75,-2.3692787140007665e-2"/>
  </g>
  <g stroke-opacity="0.1" stroke="#808080" stroke-width="5.0e-3" fill="none">
    <polyline points="-0.6633503892173533,-0.11819818651699032
0.75,-0.11819818651699032"/>
  </g>
  <g stroke-opacity="0.1" stroke="#808080" stroke-width="5.0e-3" fill="none">
    <polyline points="-0.6633503892173533,-0.21270358589397287
0.75,-0.21270358589397287"/>
  </g>
  <g stroke-opacity="0.1" stroke="#808080" stroke-width="5.0e-3" fill="none">
    <polyline points="-0.6633503892173533,-0.3072089852709554
0.75,-0.3072089852709554"/>
  </g>
  <g stroke-opacity="0.1" stroke="#808080" stroke-width="5.0e-3" fill="none">
    <polyline points="-0.6633503892173533,-0.40171438464793807
0.75,-0.40171438464793807"/>
  </g>
  <g stroke-opacity="0.1" stroke="#808080" stroke-width="5.0e-3" fill="none">
    <polyline points="-0.6633503892173533,-0.4962197840249206
0.75,-0.4962197840249206"/>
  </g>
  <g fill-opacity="0.8" font-size="5.0e-2" stroke="none" stroke-width="0.0" fill="#333333" text-anchor="end">
    <text x="-0.75" y="0.2707860373186701">0
    </text>
  </g>
  <g fill-opacity="0.8" font-size="5.0e-2" stroke="none" stroke-width="0.0" fill="#333333" text-anchor="end">
    <text x="-0.75" y="0.17628063794168758">5,000
    </text>
  </g>
  <g fill-opacity="0.8" font-size="5.0e-2" stroke="none" stroke-width="0.0" fill="#333333" text-anchor="end">
    <text x="-0.75" y="8.177523856470498e-2">10,000
    </text>
  </g>
  <g fill-opacity="0.8" font-size="5.0e-2" stroke="none" stroke-width="0.0" fill="#333333" text-anchor="end">
    <text x="-0.75" y="-1.2730160812277624e-2">15,000
    </text>
  </g>
  <g fill-opacity="0.8" font-size="5.0e-2" stroke="none" stroke-width="0.0" fill="#333333" text-anchor="end">
    <text x="-0.75" y="-0.10723556018926028">20,000
    </text>
  </g>
  <g fill-opacity="0.8" font-size="5.0e-2" stroke="none" stroke-width="0.0" fill="#333333" text-anchor="end">
    <text x="-0.75" y="-0.20174095956624294">25,000
    </text>
  </g>
  <g fill-opacity="0.8" font-size="5.0e-2" stroke="none" stroke-width="0.0" fill="#333333" text-anchor="end">
    <text x="-0.75" y="-0.2962463589432255">30,000
    </text>
  </g>
  <g fill-opacity="0.8" font-size="5.0e-2" stroke="none" stroke-width="0.0" fill="#333333" text-anchor="end">
    <text x="-0.75" y="-0.39075175832020814">35,000
    </text>
  </g>
  <g fill-opacity="0.8" font-size="5.0e-2" stroke="none" stroke-width="0.0" fill="#333333" text-anchor="end">
    <text x="-0.75" y="-0.4852571576971907">40,000
    </text>
  </g>
  <g stroke-opacity="0.5" fill-opacity="0.5" stroke="#570d66" stroke-width="5.0e-3" fill="#570d66">
    <g transform="rotate(-90.0, -0.7195100073319501, 0.2598234109909402)">
      <polyline points="-0.7195100073319501,0.2748234109909402
-0.7195100073319501,0.24482341099094018"/>
    </g>
    <g transform="rotate(-90.0, -0.7195100073319501, 0.16531801161395754)">
      <polyline points="-0.7195100073319501,0.18031801161395755
-0.7195100073319501,0.15031801161395753"/>
    </g>
    <g transform="rotate(-90.0, -0.7195100073319501, 7.081261223697494e-2)">
      <polyline points="-0.7195100073319501,8.581261223697494e-2
-0.7195100073319501,5.581261223697494e-2"/>
    </g>
    <g transform="rotate(-90.0, -0.7195100073319501, -2.3692787140007665e-2)">
      <polyline points="-0.7195100073319501,-8.692787140007666e-3
-0.7195100073319501,-3.8692787140007665e-2"/>
    </g>
    <g transform="rotate(-90.0, -0.7195100073319501, -0.11819818651699032)">
      <polyline points="-0.7195100073319501,-0.10319818651699032
-0.7195100073319501,-0.13319818651699034"/>
    </g>
    <g transform="rotate(-90.0, -0.7195100073319501, -0.21270358589397287)">
      <polyline points="-0.7195100073319501,-0.19770358589397286
-0.7195100073319501,-0.22770358589397288"/>
    </g>
    <g transform="rotate(-90.0, -0.7195100073319501, -0.3072089852709554)">
      <polyline points="-0.7195100073319501,-0.2922089852709554
-0.7195100073319501,-0.32220898527095543"/>
    </g>
    <g transform="rotate(-90.0, -0.7195100073319501, -0.40171438464793807)">
      <polyline points="-0.7195100073319501,-0.38671438464793806
-0.7195100073319501,-0.4167143846479381"/>
    </g>
    <g transform="rotate(-90.0, -0.7195100073319501, -0.4962197840249206)">
      <polyline points="-0.7195100073319501,-0.4812197840249206
-0.7195100073319501,-0.5112197840249206"/>
    </g>
  </g>
  <g stroke-opacity="0.5" fill-opacity="0.5" stroke="#570d66" stroke-width="0.0" fill="#570d66">
    <rect height="0.7560431950158608" width="4.679968176216409e-3" x="-0.7078100868914091" y="-0.4962197840249206"/>
  </g>
  <g stroke-opacity="0.1" stroke="#808080" stroke-width="5.0e-3" fill="none">
    <polyline points="-0.6586704210411369,0.26360362696601947
-0.6586704210411369,-0.5"/>
  </g>
  <g stroke-opacity="0.1" stroke="#808080" stroke-width="5.0e-3" fill="none">
    <polyline points="-0.5310349253261442,0.26360362696601947
-0.5310349253261442,-0.5"/>
  </g>
  <g stroke-opacity="0.1" stroke="#808080" stroke-width="5.0e-3" fill="none">
    <polyline points="-0.4033994296111514,0.26360362696601947
-0.4033994296111514,-0.5"/>
  </g>
  <g stroke-opacity="0.1" stroke="#808080" stroke-width="5.0e-3" fill="none">
    <polyline points="-0.2757639338961586,0.26360362696601947
-0.2757639338961586,-0.5"/>
  </g>
  <g stroke-opacity="0.1" stroke="#808080" stroke-width="5.0e-3" fill="none">
    <polyline points="-0.14812843818116583,0.26360362696601947
-0.14812843818116583,-0.5"/>
  </g>
  <g stroke-opacity="0.1" stroke="#808080" stroke-width="5.0e-3" fill="none">
    <polyline points="-2.0492942466172948e-2,0.26360362696601947
-2.0492942466172948e-2,-0.5"/>
  </g>
  <g stroke-opacity="0.1" stroke="#808080" stroke-width="5.0e-3" fill="none">
    <polyline points="0.10714255324881983,0.26360362696601947
0.10714255324881983,-0.5"/>
  </g>
  <g stroke-opacity="0.1" stroke="#808080" stroke-width="5.0e-3" fill="none">
    <polyline points="0.2347780489638127,0.26360362696601947
0.2347780489638127,-0.5"/>
  </g>
  <g stroke-opacity="0.1" stroke="#808080" stroke-width="5.0e-3" fill="none">
    <polyline points="0.36241354467880527,0.26360362696601947
0.36241354467880527,-0.5"/>
  </g>
  <g stroke-opacity="0.1" stroke="#808080" stroke-width="5.0e-3" fill="none">
    <polyline points="0.49004904039379826,0.26360362696601947
0.49004904039379826,-0.5"/>
  </g>
  <g stroke-opacity="0.1" stroke="#808080" stroke-width="5.0e-3" fill="none">
    <polyline points="0.6176845361087908,0.26360362696601947
0.6176845361087908,-0.5"/>
  </g>
  <g stroke-opacity="0.1" stroke="#808080" stroke-width="5.0e-3" fill="none">
    <polyline points="0.7453200318237838,0.26360362696601947
0.7453200318237838,-0.5"/>
  </g>
  <g fill-opacity="0.8" font-size="5.0e-2" stroke="none" stroke-width="0.0" fill="#333333" text-anchor="middle">
    <text x="-0.6586704210411369" y="0.3505680625051151">-10
    </text>
  </g>
  <g fill-opacity="0.8" font-size="5.0e-2" stroke="none" stroke-width="0.0" fill="#333333" text-anchor="middle">
    <text x="-0.5310349253261442" y="0.3505680625051151">0
    </text>
  </g>
  <g fill-opacity="0.8" font-size="5.0e-2" stroke="none" stroke-width="0.0" fill="#333333" text-anchor="middle">
    <text x="-0.4033994296111514" y="0.3505680625051151">10
    </text>
  </g>
  <g fill-opacity="0.8" font-size="5.0e-2" stroke="none" stroke-width="0.0" fill="#333333" text-anchor="middle">
    <text x="-0.2757639338961586" y="0.3505680625051151">20
    </text>
  </g>
  <g fill-opacity="0.8" font-size="5.0e-2" stroke="none" stroke-width="0.0" fill="#333333" text-anchor="middle">
    <text x="-0.14812843818116583" y="0.3505680625051151">30
    </text>
  </g>
  <g fill-opacity="0.8" font-size="5.0e-2" stroke="none" stroke-width="0.0" fill="#333333" text-anchor="middle">
    <text x="-2.0492942466172948e-2" y="0.3505680625051151">40
    </text>
  </g>
  <g fill-opacity="0.8" font-size="5.0e-2" stroke="none" stroke-width="0.0" fill="#333333" text-anchor="middle">
    <text x="0.10714255324881983" y="0.3505680625051151">50
    </text>
  </g>
  <g fill-opacity="0.8" font-size="5.0e-2" stroke="none" stroke-width="0.0" fill="#333333" text-anchor="middle">
    <text x="0.2347780489638127" y="0.3505680625051151">60
    </text>
  </g>
  <g fill-opacity="0.8" font-size="5.0e-2" stroke="none" stroke-width="0.0" fill="#333333" text-anchor="middle">
    <text x="0.36241354467880527" y="0.3505680625051151">70
    </text>
  </g>
  <g fill-opacity="0.8" font-size="5.0e-2" stroke="none" stroke-width="0.0" fill="#333333" text-anchor="middle">
    <text x="0.49004904039379826" y="0.3505680625051151">80
    </text>
  </g>
  <g fill-opacity="0.8" font-size="5.0e-2" stroke="none" stroke-width="0.0" fill="#333333" text-anchor="middle">
    <text x="0.6176845361087908" y="0.3505680625051151">90
    </text>
  </g>
  <g fill-opacity="0.8" font-size="5.0e-2" stroke="none" stroke-width="0.0" fill="#333333" text-anchor="middle">
    <text x="0.7453200318237838" y="0.3505680625051151">100
    </text>
  </g>
  <g stroke-opacity="0.5" fill-opacity="0.5" stroke="#570d66" stroke-width="5.0e-3" fill="#570d66">
    <polyline points="-0.6586704210411369,0.3022494449225368
-0.6586704210411369,0.2722494449225368"/>
    <polyline points="-0.5310349253261442,0.3022494449225368
-0.5310349253261442,0.2722494449225368"/>
    <polyline points="-0.4033994296111514,0.3022494449225368
-0.4033994296111514,0.2722494449225368"/>
    <polyline points="-0.2757639338961586,0.3022494449225368
-0.2757639338961586,0.2722494449225368"/>
    <polyline points="-0.14812843818116583,0.3022494449225368
-0.14812843818116583,0.2722494449225368"/>
    <polyline points="-2.0492942466172948e-2,0.3022494449225368
-2.0492942466172948e-2,0.2722494449225368"/>
    <polyline points="0.10714255324881983,0.3022494449225368
0.10714255324881983,0.2722494449225368"/>
    <polyline points="0.2347780489638127,0.3022494449225368
0.2347780489638127,0.2722494449225368"/>
    <polyline points="0.36241354467880527,0.3022494449225368
0.36241354467880527,0.2722494449225368"/>
    <polyline points="0.49004904039379826,0.3022494449225368
0.49004904039379826,0.2722494449225368"/>
    <polyline points="0.6176845361087908,0.3022494449225368
0.6176845361087908,0.2722494449225368"/>
    <polyline points="0.7453200318237838,0.3022494449225368
0.7453200318237838,0.2722494449225368"/>
  </g>
  <g stroke-opacity="0.5" fill-opacity="0.5" stroke="#570d66" stroke-width="0.0" fill="#570d66">
    <rect height="3.7802159750792708e-3" width="1.4039904528649207" x="-0.6586704210411369" y="0.27401868900975923"/>
  </g>
  <g stroke-opacity="0.4" fill-opacity="1.0" stroke="#0ea194" stroke-width="3.0e-3" fill="#026062">
    <circle cy="0.2514926844315396" r="1.5e-2" cx="-0.5310349253261442"/>
    <circle cy="-2.1924326502546054e-2" r="1.5e-2" cx="-0.5182713757546449"/>
    <circle cy="0.2338972533517758" r="1.5e-2" cx="-0.5055078261831456"/>
    <circle cy="0.22416126930579927" r="1.5e-2" cx="-0.4927442766116463"/>
    <circle cy="0.22130762206837168" r="1.5e-2" cx="-0.479980727040147"/>
    <circle cy="0.2539085448568933" r="1.5e-2" cx="-0.4672171774686477"/>
    <circle cy="0.23825871533518328" r="1.5e-2" cx="-0.4544536278971485"/>
    <circle cy="0.23113372646319408" r="1.5e-2" cx="-0.44169007832564916"/>
    <circle cy="0.2102073202748293" r="1.5e-2" cx="-0.4289265287541499"/>
    <circle cy="0.25343356071962464" r="1.5e-2" cx="-0.4161629791826506"/>
    <circle cy="0.24528730869980797" r="1.5e-2" cx="-0.4033994296111514"/>
    <circle cy="0.23809953044047266" r="1.5e-2" cx="-0.3906358800396521"/>
    <circle cy="0.2283532264048842" r="1.5e-2" cx="-0.37787233046815283"/>
    <circle cy="0.22145274455965497" r="1.5e-2" cx="-0.36510878089665355"/>
    <circle cy="0.2539107751843186" r="1.5e-2" cx="-0.3523452313251543"/>
    <circle cy="0.24324285449400584" r="1.5e-2" cx="-0.33958168175365494"/>
    <circle cy="0.2355084570046741" r="1.5e-2" cx="-0.3268181321821556"/>
    <circle cy="0.2257846074519776" r="1.5e-2" cx="-0.31405458261065644"/>
    <circle cy="0.22214633858676253" r="1.5e-2" cx="-0.3012910330391571"/>
    <circle cy="0.25397636193148626" r="1.5e-2" cx="-0.2885274834676579"/>
    <circle cy="0.24048620759849876" r="1.5e-2" cx="-0.2757639338961586"/>
    <circle cy="0.2299672652197638" r="1.5e-2" cx="-0.2630003843246593"/>
    <circle cy="0.22292253033292553" r="1.5e-2" cx="-0.25023683475316005"/>
    <circle cy="0.2539583303012851" r="1.5e-2" cx="-0.23747328518166078"/>
    <circle cy="0.2458223604689207" r="1.5e-2" cx="-0.2247097356101615"/>
    <circle cy="0.23808565704784412" r="1.5e-2" cx="-0.2119461860386621"/>
    <circle cy="0.22677464601585084" r="1.5e-2" cx="-0.19918263646716283"/>
    <circle cy="0.22191646365331796" r="1.5e-2" cx="-0.18641908689566367"/>
    <circle cy="0.2539497114088619" r="1.5e-2" cx="-0.17365553732416428"/>
    <circle cy="0.24314948315942136" r="1.5e-2" cx="-0.160891987752665"/>
    <circle cy="0.23213695798082035" r="1.5e-2" cx="-0.14812843818116583"/>
    <circle cy="0.22561238081215296" r="1.5e-2" cx="-0.13536488860966644"/>
    <circle cy="0.2223550821129064" r="1.5e-2" cx="-0.12260133903816728"/>
    <circle cy="0.25395205514276653" r="1.5e-2" cx="-0.109837789466668"/>
    <circle cy="0.24027610319460385" r="1.5e-2" cx="-9.707423989516861e-2"/>
    <circle cy="0.23091228141137393" r="1.5e-2" cx="-8.431069032366945e-2"/>
    <circle cy="0.22160985033557923" r="1.5e-2" cx="-7.154714075217017e-2"/>
    <circle cy="0.25393523318167743" r="1.5e-2" cx="-5.878359118067078e-2"/>
    <circle cy="0.2456135413384573" r="1.5e-2" cx="-4.60200416091715e-2"/>
    <circle cy="0.23784667179389962" r="1.5e-2" cx="-3.3256492037672225e-2"/>
    <circle cy="0.2280934499630768" r="1.5e-2" cx="-2.0492942466172948e-2"/>
    <circle cy="0.22223574069457314" r="1.5e-2" cx="-7.72939289467367e-3"/>
    <circle cy="0.2530376965027143" r="1.5e-2" cx="5.034156676825496e-3"/>
    <circle cy="0.24282007513935294" r="1.5e-2" cx="1.7797706248324774e-2"/>
    <circle cy="0.23355382073043984" r="1.5e-2" cx="3.0561255819824162e-2"/>
    <circle cy="0.22553254265075928" r="1.5e-2" cx="4.332480539132333e-2"/>
    <circle cy="0.22238517263206803" r="1.5e-2" cx="5.6088354962822606e-2"/>
    <circle cy="0.2539326626348144" r="1.5e-2" cx="6.8851904534322e-2"/>
    <circle cy="0.24041154833299094" r="1.5e-2" cx="8.161545410582116e-2"/>
    <circle cy="0.2308145628284181" r="1.5e-2" cx="9.437900367732066e-2"/>
    <circle cy="0.2228089348428744" r="1.5e-2" cx="0.10714255324881983"/>
    <circle cy="0.25396883930169584" r="1.5e-2" cx="0.119906102820319"/>
    <circle cy="0.24552969614813008" r="1.5e-2" cx="0.1326696523918185"/>
    <circle cy="0.23768090932339242" r="1.5e-2" cx="0.14543320196331766"/>
    <circle cy="0.2281230112520019" r="1.5e-2" cx="0.15819675153481683"/>
    <circle cy="0.2219447774709713" r="1.5e-2" cx="0.1709603011063161"/>
    <circle cy="0.2537191182343821" r="1.5e-2" cx="0.1837238506778155"/>
    <circle cy="0.2427290097365133" r="1.5e-2" cx="0.19648740024931466"/>
    <circle cy="0.2335042242968468" r="1.5e-2" cx="0.20925094982081416"/>
    <circle cy="0.22555250219110767" r="1.5e-2" cx="0.22201449939231332"/>
    <circle cy="0.22184622724050096" r="1.5e-2" cx="0.2347780489638127"/>
    <circle cy="0.25395700722569386" r="1.5e-2" cx="0.24754159853531177"/>
    <circle cy="0.24016367957150497" r="1.5e-2" cx="0.26030514810681127"/>
    <circle cy="0.23029561477935917" r="1.5e-2" cx="0.2730686976783103"/>
    <circle cy="0.21822803132211355" r="1.5e-2" cx="0.2858322472498098"/>
    <circle cy="0.2504256050660943" r="1.5e-2" cx="0.2985957968213091"/>
    <circle cy="0.24064739600767615" r="1.5e-2" cx="0.3113593463928084"/>
    <circle cy="0.2371185643949396" r="1.5e-2" cx="0.32412289596430743"/>
    <circle cy="0.22655017679125067" r="1.5e-2" cx="0.33688644553580693"/>
    <circle cy="0.2176691263901981" r="1.5e-2" cx="0.349649995107306"/>
    <circle cy="0.2538161941806222" r="1.5e-2" cx="0.36241354467880527"/>
    <circle cy="0.24200422892761136" r="1.5e-2" cx="0.37517709425030477"/>
    <circle cy="0.23306435836598655" r="1.5e-2" cx="0.38794064382180404"/>
    <circle cy="0.22494071203770089" r="1.5e-2" cx="0.4007041933933033"/>
    <circle cy="0.2222626558323157" r="1.5e-2" cx="0.4134677429648024"/>
    <circle cy="0.2539350819730384" r="1.5e-2" cx="0.4262312925363019"/>
    <circle cy="0.23998854216537957" r="1.5e-2" cx="0.43899484210780093"/>
    <circle cy="0.23036010526389405" r="1.5e-2" cx="0.45175839167930043"/>
    <circle cy="0.2224013141542816" r="1.5e-2" cx="0.4645219412507995"/>
    <circle cy="0.2539835443418389" r="1.5e-2" cx="0.477285490822299"/>
    <circle cy="0.24525305994307378" r="1.5e-2" cx="0.49004904039379804"/>
    <circle cy="0.23765044078263325" r="1.5e-2" cx="0.5028125899652975"/>
    <circle cy="0.2264208934049029" r="1.5e-2" cx="0.5155761395367966"/>
    <circle cy="0.2059456559931639" r="1.5e-2" cx="0.5283396891082961"/>
    <circle cy="0.24872741864360942" r="1.5e-2" cx="0.5411032386797952"/>
    <circle cy="0.23899540382440676" r="1.5e-2" cx="0.5538667882512947"/>
    <circle cy="0.23259610301315348" r="1.5e-2" cx="0.5666303378227937"/>
    <circle cy="0.22569777589103002" r="1.5e-2" cx="0.579393887394293"/>
    <circle cy="0.22184679427289722" r="1.5e-2" cx="0.5921574369657925"/>
    <circle cy="0.2536791991536853" r="1.5e-2" cx="0.6049209865372918"/>
    <circle cy="0.23955275886777244" r="1.5e-2" cx="0.6176845361087908"/>
    <circle cy="0.23024178450387406" r="1.5e-2" cx="0.6304480856802903"/>
    <circle cy="0.22229293536227607" r="1.5e-2" cx="0.6432116352517894"/>
    <circle cy="0.2539719012766357" r="1.5e-2" cx="0.6559751848232886"/>
    <circle cy="0.2450043595340733" r="1.5e-2" cx="0.6687387343947881"/>
    <circle cy="0.23723594010096583" r="1.5e-2" cx="0.6815022839662874"/>
    <circle cy="0.22750800791501624" r="1.5e-2" cx="0.6942658335377865"/>
    <circle cy="0.2218062703576444" r="1.5e-2" cx="0.707029383109286"/>
    <circle cy="0.2539675162261046" r="1.5e-2" cx="0.719792932680785"/>
    <circle cy="0.24228528798535848" r="1.5e-2" cx="0.7325564822522845"/>
  </g>
  <g stroke-opacity="0.4" fill-opacity="1.0" stroke="#0ea194" stroke-width="3.0e-3" fill="#0ea194">
    <rect height="3.0000000000000027e-2" width="3.0000000000000027e-2" x="-0.5460349253261442" y="0.21657782623594635"/>
    <rect height="3.0000000000000027e-2" width="3.0000000000000027e-2" x="-0.5332713757546449" y="0.1763846798809156"/>
    <rect height="3.0000000000000027e-2" width="3.0000000000000027e-2" x="-0.5205078261831456" y="0.15708603469142002"/>
    <rect height="3.0e-2" width="3.0000000000000027e-2" x="-0.5077442766116463" y="-3.91278143944198e-2"/>
    <rect height="3.0000000000000027e-2" width="3.0000000000000027e-2" x="-0.494980727040147" y="0.21501395088705605"/>
    <rect height="3.0000000000000027e-2" width="3.0000000000000027e-2" x="-0.48221717746864773" y="0.17442460009567728"/>
    <rect height="3.0e-2" width="3.0000000000000027e-2" x="-0.4694536278971485" y="-3.949884259237378e-2"/>
    <rect height="3.0000000000000027e-2" width="3.0000000000000027e-2" x="-0.4566900783256492" y="0.2014609693645627"/>
    <rect height="3.0000000000000027e-2" width="3.0000000000000027e-2" x="-0.4439265287541499" y="0.21059918785839993"/>
    <rect height="3.0000000000000027e-2" width="3.0000000000000027e-2" x="-0.4311629791826506" y="0.173578360947496"/>
    <rect height="3.0000000000000027e-2" width="3.0000000000000027e-2" x="-0.4183994296111514" y="0.16565136145423398"/>
    <rect height="3.0e-2" width="3.0000000000000027e-2" x="-0.4056358800396521" y="-5.043508301259779e-2"/>
    <rect height="3.0000000000000027e-2" width="3.0000000000000027e-2" x="-0.39287233046815284" y="0.21185161121310342"/>
    <rect height="3.0000000000000027e-2" width="3.0000000000000027e-2" x="-0.38010878089665356" y="0.17203489876487116"/>
    <rect height="3.0e-2" width="3.0000000000000027e-2" x="-0.3673452313251543" y="-4.0600775549109444e-2"/>
    <rect height="3.0000000000000027e-2" width="3.0000000000000027e-2" x="-0.35458168175365495" y="0.19967009204636893"/>
    <rect height="3.0000000000000027e-2" width="3.0000000000000027e-2" x="-0.3418181321821556" y="0.21255696171189348"/>
    <rect height="3.0000000000000027e-2" width="3.0000000000000027e-2" x="-0.32905458261065645" y="0.16049665895061588"/>
    <rect height="3.0e-2" width="3.0000000000000027e-2" x="-0.3162910330391571" y="-4.44519083758813e-2"/>
    <rect height="3.0000000000000027e-2" width="3.0000000000000027e-2" x="-0.3035274834676579" y="0.19746240811476284"/>
    <rect height="3.0000000000000027e-2" width="3.0000000000000027e-2" x="-0.2907639338961586" y="0.2109708586930697"/>
    <rect height="3.0000000000000027e-2" width="3.0000000000000027e-2" x="-0.2780003843246593" y="0.22072544140164363"/>
    <rect height="3.0000000000000027e-2" width="3.0000000000000027e-2" x="-0.26523683475316007" y="0.18174457250766107"/>
    <rect height="3.0000000000000027e-2" width="3.0000000000000027e-2" x="-0.2524732851816608" y="0.1746472926187692"/>
    <rect height="3.0e-2" width="3.0000000000000027e-2" x="-0.2397097356101615" y="-3.2759511354162094e-2"/>
    <rect height="3.0000000000000027e-2" width="3.0000000000000027e-2" x="-0.22694618603866212" y="0.2177900658948348"/>
    <rect height="3.0000000000000027e-2" width="3.0000000000000027e-2" x="-0.21418263646716285" y="0.17886344310009467"/>
    <rect height="3.0000000000000027e-2" width="3.0000000000000027e-2" x="-0.20141908689566368" y="0.1735243794633719"/>
    <rect height="3.0e-2" width="3.0000000000000027e-2" x="-0.1886555373241643" y="-3.975453640092817e-2"/>
    <rect height="3.0000000000000027e-2" width="3.0000000000000027e-2" x="-0.175891987752665" y="0.21671659796439152"/>
    <rect height="3.0000000000000027e-2" width="3.0000000000000027e-2" x="-0.16312843818116585" y="0.17513535630331167"/>
    <rect height="3.0e-2" width="3.0000000000000013e-2" x="-0.15036488860966646" y="-3.7219032139963235e-2"/>
    <rect height="3.0000000000000027e-2" width="3.0000000000000013e-2" x="-0.1376013390381673" y="0.20368997371426822"/>
    <rect height="3.0000000000000027e-2" width="3.0e-2" x="-0.124837789466668" y="0.21656304559148382"/>
    <rect height="3.0000000000000027e-2" width="3.0e-2" x="-0.11207423989516861" y="0.1747991060923284"/>
    <rect height="3.0e-2" width="3.0e-2" x="-9.931069032366945e-2" y="-8.473211310481797e-2"/>
    <rect height="3.0000000000000027e-2" width="3.0e-2" x="-8.654714075217017e-2" y="0.19066437012245818"/>
    <rect height="3.0000000000000027e-2" width="3.0e-2" x="-7.378359118067078e-2" y="0.20545767830853479"/>
    <rect height="3.0000000000000027e-2" width="3.0e-2" x="-6.10200416091715e-2" y="0.15115007495223226"/>
    <rect height="3.0e-2" width="3.0e-2" x="-4.8256492037672225e-2" y="-8.535724742061689e-2"/>
    <rect height="3.0000000000000027e-2" width="3.0e-2" x="-3.549294246617295e-2" y="0.18702065774623905"/>
    <rect height="3.0e-2" width="3.0e-2" x="-2.272939289467367e-2" y="8.74985337487287e-2"/>
    <rect height="3.0000000000000027e-2" width="3.0e-2" x="-9.965843323174503e-3" y="-0.4442757503114426"/>
    <rect height="3.0e-2" width="3.0e-2" x="2.7977062483247744e-3" y="-0.11931050467206337"/>
    <rect height="3.0000000000000027e-2" width="3.0e-2" x="1.5561255819824163e-2" y="0.17411957446864812"/>
    <rect height="3.0000000000000027e-2" width="3.0e-2" x="2.832480539132333e-2" y="0.19799054208864114"/>
    <rect height="3.0000000000000027e-2" width="3.0e-2" x="4.108835496282261e-2" y="0.17099862815962263"/>
    <rect height="3.0000000000000027e-2" width="3.0e-2" x="5.3851904534321995e-2" y="0.16458775988748564"/>
    <rect height="3.0e-2" width="3.0e-2" x="6.661545410582116e-2" y="-3.8142727913473826e-2"/>
    <rect height="3.0000000000000027e-2" width="3.0e-2" x="7.937900367732066e-2" y="0.21047334446858956"/>
    <rect height="3.0000000000000027e-2" width="3.0e-2" x="9.214255324881983e-2" y="0.2206655249784386"/>
    <rect height="3.0000000000000027e-2" width="3.0000000000000013e-2" x="0.104906102820319" y="0.184494566223052"/>
    <rect height="3.0000000000000027e-2" width="3.0000000000000013e-2" x="0.1176696523918185" y="0.1763513761781752"/>
    <rect height="3.0000000000000027e-2" width="3.0000000000000027e-2" x="0.13043320196331765" y="0.21042000562118118"/>
    <rect height="3.0000000000000027e-2" width="3.0000000000000027e-2" x="0.1431967515348168" y="0.22026701461034576"/>
    <rect height="3.0000000000000027e-2" width="3.0000000000000027e-2" x="0.1559603011063161" y="0.17477279578914184"/>
    <rect height="3.0e-2" width="3.0000000000000027e-2" x="0.16872385067781548" y="-2.6461520331041086e-2"/>
    <rect height="3.0000000000000027e-2" width="3.0000000000000027e-2" x="0.18148740024931465" y="0.20627273067492163"/>
    <rect height="3.0000000000000027e-2" width="3.0000000000000027e-2" x="0.19425094982081414" y="0.21868246148007175"/>
    <rect height="3.0000000000000027e-2" width="3.0000000000000027e-2" x="0.2070144993923133" y="0.17783318303824652"/>
    <rect height="3.0000000000000027e-2" width="3.0000000000000027e-2" x="0.2197780489638127" y="0.17394946474976958"/>
    <rect height="3.0e-2" width="3.0000000000000027e-2" x="0.23254159853531176" y="-1.5622431461376748e-2"/>
    <rect height="3.0000000000000027e-2" width="3.0000000000000027e-2" x="0.24530514810681125" y="0.21633713988481307"/>
    <rect height="3.0000000000000027e-2" width="3.0000000000000027e-2" x="0.2580686976783103" y="0.17551742273191295"/>
    <rect height="3.0000000000000027e-2" width="3.0000000000000027e-2" x="0.2708322472498098" y="0.17264642430315974"/>
    <rect height="3.0e-2" width="3.0000000000000027e-2" x="0.2835957968213091" y="-1.3933204150752762e-2"/>
    <rect height="3.0000000000000027e-2" width="3.0000000000000027e-2" x="0.29635934639280836" y="0.21175268296103567"/>
    <rect height="3.0000000000000027e-2" width="3.0000000000000027e-2" x="0.3091228959643074" y="0.17439515221323143"/>
    <rect height="3.0e-2" width="3.0000000000000027e-2" x="0.3218864455358069" y="-2.140691794644299e-2"/>
    <rect height="3.0000000000000027e-2" width="3.0000000000000027e-2" x="0.334649995107306" y="0.20117817140746702"/>
    <rect height="3.0000000000000027e-2" width="3.0000000000000027e-2" x="0.34741354467880525" y="0.2145082335939099"/>
    <rect height="3.0000000000000027e-2" width="3.0000000000000027e-2" x="0.36017709425030475" y="0.17372960738865895"/>
    <rect height="3.0000000000000027e-2" width="3.0000000000000027e-2" x="0.37294064382180403" y="0.16646478832775152"/>
    <rect height="3.0e-2" width="3.0000000000000027e-2" x="0.3857041933933033" y="-3.096356854656178e-2"/>
    <rect height="3.0000000000000027e-2" width="3.0000000000000027e-2" x="0.39846774296480236" y="0.2121429146561431"/>
    <rect height="3.0000000000000027e-2" width="3.0000000000000027e-2" x="0.41123129253630186" y="0.17197547376974287"/>
    <rect height="3.0e-2" width="3.0000000000000027e-2" x="0.4239948421078009" y="-4.543986782096819e-2"/>
    <rect height="3.0000000000000027e-2" width="3.0000000000000027e-2" x="0.4367583916793004" y="0.19962975714191483"/>
    <rect height="3.0000000000000027e-2" width="3.0000000000000027e-2" x="0.4495219412507995" y="0.21194343265913812"/>
    <rect height="3.0000000000000027e-2" width="3.0000000000000027e-2" x="0.462285490822299" y="0.16010816615485696"/>
    <rect height="3.0e-2" width="3.0000000000000027e-2" x="0.475049040393798" y="-2.3623863407188014e-2"/>
    <rect height="3.0000000000000027e-2" width="3.0000000000000027e-2" x="0.4878125899652975" y="0.19774131244940418"/>
    <rect height="3.0000000000000027e-2" width="3.0000000000000027e-2" x="0.5005761395367966" y="0.21088414053860144"/>
    <rect height="3.0000000000000027e-2" width="3.0000000000000027e-2" x="0.5133396891082961" y="0.22021601949684194"/>
    <rect height="3.0000000000000027e-2" width="3.0000000000000027e-2" x="0.5261032386797951" y="0.18161139549885907"/>
    <rect height="3.0000000000000027e-2" width="3.0000000000000027e-2" x="0.5388667882512946" y="0.17506893790862954"/>
    <rect height="3.0e-2" width="3.0000000000000027e-2" x="0.5516303378227937" y="-1.5444043069512622e-2"/>
    <rect height="3.0000000000000027e-2" width="3.0000000000000027e-2" x="0.564393887394293" y="0.21429865842025153"/>
    <rect height="3.0000000000000027e-2" width="3.0000000000000027e-2" x="0.5771574369657925" y="0.16815148289367216"/>
    <rect height="3.0000000000000027e-2" width="3.0000000000000027e-2" x="0.5899209865372917" y="0.17357012007667033"/>
    <rect height="3.0e-2" width="3.0000000000000027e-2" x="0.6026845361087908" y="-3.55393309735965e-2"/>
    <rect height="3.0000000000000027e-2" width="3.0000000000000027e-2" x="0.6154480856802903" y="0.21680429897501335"/>
    <rect height="3.0000000000000027e-2" width="3.0000000000000027e-2" x="0.6282116352517894" y="0.16808759724369332"/>
    <rect height="3.0e-2" width="3.0000000000000027e-2" x="0.6409751848232886" y="-2.0457667912940777e-2"/>
    <rect height="3.0000000000000027e-2" width="3.0000000000000027e-2" x="0.6537387343947881" y="0.19779287459530426"/>
    <rect height="3.0000000000000027e-2" width="3.0000000000000027e-2" x="0.6665022839662874" y="0.21602202108113044"/>
    <rect height="3.0000000000000027e-2" width="3.0000000000000027e-2" x="0.6792658335377865" y="0.17256564108777228"/>
    <rect height="3.0e-2" width="3.0000000000000027e-2" x="0.692029383109286" y="-1.9278505143834432e-2"/>
    <rect height="3.0000000000000027e-2" width="3.0000000000000027e-2" x="0.704792932680785" y="0.2024699090083114"/>
    <rect height="3.0000000000000027e-2" width="3.0000000000000027e-2" x="0.7175564822522845" y="0.21433525091089028"/>
  </g>
  <g stroke-opacity="1.0" fill-opacity="1.0" stroke="#026062" stroke-width="4.0e-3" fill="#000000">
    <rect height="7.726761453062098e-2" width="0.1462958051885248" x="-7.370949877540833e-2" y="0.4060994351790301"/>
  </g>
  <g fill-opacity="1.0" font-size="1.6e-2" stroke="none" stroke-width="0.0" fill="#808080" text-anchor="start">
    <text x="-5.4989626070542696e-2" y="0.4618954229712006">Dynamic
    </text>
  </g>
  <g stroke-opacity="0.4" fill-opacity="1.0" stroke="#0ea194" stroke-width="3.0e-3" fill="#0ea194">
    <rect height="2.0000000000000018e-2" width="2.0000000000000004e-2" x="3.4225699265245e-2" y="0.44690553788409587"/>
  </g>
  <g fill-opacity="1.0" font-size="1.6e-2" stroke="none" stroke-width="0.0" fill="#808080" text-anchor="start">
    <text x="-5.4989626070542696e-2" y="0.4339974290751153">Fixed
    </text>
  </g>
  <g stroke-opacity="0.4" fill-opacity="1.0" stroke="#0ea194" stroke-width="3.0e-3" fill="#026062">
    <circle cy="0.42900754398801066" r="1.0000000000000002e-2" cx="4.4225699265245e-2"/>
  </g>
</svg>