
<svg xmlns="http://www.w3.org/2000/svg" height="300.0" viewBox="-0.92 -0.5513803949977125 1.7228127197162635 1.0713803949977125" width="450.0" xmlns:xlink="http://www.w3.org/1999/xlink">
  <g stroke-opacity="0.0" fill-opacity="3.0e-2" stroke="#000000" stroke-width="0.0" fill="#666666">
    <rect height="0.7625438462711607" width="1.4061840851210101" x="-0.6608713654047467" y="-0.49618728076864427"/>
  </g>
  <g stroke-opacity="0.3" stroke="#a8e5ee" stroke-width="5.0e-3" fill="none">
    <polyline points="-0.6655586456884833,0.26635656550251635
0.75,0.26635656550251635"/>
  </g>
  <g stroke-opacity="0.3" stroke="#a8e5ee" stroke-width="5.0e-3" fill="none">
    <polyline points="-0.6655586456884833,0.17103858471862127
0.75,0.17103858471862127"/>
  </g>
  <g stroke-opacity="0.3" stroke="#a8e5ee" stroke-width="5.0e-3" fill="none">
    <polyline points="-0.6655586456884833,7.572060393472618e-2
0.75,7.572060393472618e-2"/>
  </g>
  <g stroke-opacity="0.3" stroke="#a8e5ee" stroke-width="5.0e-3" fill="none">
    <polyline points="-0.6655586456884833,-1.9597376849168846e-2
0.75,-1.9597376849168846e-2"/>
  </g>
  <g stroke-opacity="0.3" stroke="#a8e5ee" stroke-width="5.0e-3" fill="none">
    <polyline points="-0.6655586456884833,-0.11491535763306393
0.75,-0.11491535763306393"/>
  </g>
  <g stroke-opacity="0.3" stroke="#a8e5ee" stroke-width="5.0e-3" fill="none">
    <polyline points="-0.6655586456884833,-0.21023333841695901
0.75,-0.21023333841695901"/>
  </g>
  <g stroke-opacity="0.3" stroke="#a8e5ee" stroke-width="5.0e-3" fill="none">
    <polyline points="-0.6655586456884833,-0.3055513192008541
0.75,-0.3055513192008541"/>
  </g>
  <g stroke-opacity="0.3" stroke="#a8e5ee" stroke-width="5.0e-3" fill="none">
    <polyline points="-0.6655586456884833,-0.4008692999847492
0.75,-0.4008692999847492"/>
  </g>
  <g stroke-opacity="0.3" stroke="#a8e5ee" stroke-width="5.0e-3" fill="none">
    <polyline points="-0.6655586456884833,-0.49618728076864427
0.75,-0.49618728076864427"/>
  </g>
  <g fill-opacity="1.0" font-size="5.0e-2" stroke="none" stroke-width="0.0" fill="#666666" text-anchor="end">
    <text x="-0.75" y="0.2774134512734482">0
    </text>
  </g>
  <g fill-opacity="1.0" font-size="5.0e-2" stroke="none" stroke-width="0.0" fill="#666666" text-anchor="end">
    <text x="-0.75" y="0.1820954704895531">2,000
    </text>
  </g>
  <g fill-opacity="1.0" font-size="5.0e-2" stroke="none" stroke-width="0.0" fill="#666666" text-anchor="end">
    <text x="-0.75" y="8.677748970565802e-2">4,000
    </text>
  </g>
  <g fill-opacity="1.0" font-size="5.0e-2" stroke="none" stroke-width="0.0" fill="#666666" text-anchor="end">
    <text x="-0.75" y="-8.540491078237067e-3">6,000
    </text>
  </g>
  <g fill-opacity="1.0" font-size="5.0e-2" stroke="none" stroke-width="0.0" fill="#666666" text-anchor="end">
    <text x="-0.75" y="-0.10385847186213215">8,000
    </text>
  </g>
  <g fill-opacity="1.0" font-size="5.0e-2" stroke="none" stroke-width="0.0" fill="#666666" text-anchor="end">
    <text x="-0.75" y="-0.19917645264602724">10,000
    </text>
  </g>
  <g fill-opacity="1.0" font-size="5.0e-2" stroke="none" stroke-width="0.0" fill="#666666" text-anchor="end">
    <text x="-0.75" y="-0.2944944334299223">12,000
    </text>
  </g>
  <g fill-opacity="1.0" font-size="5.0e-2" stroke="none" stroke-width="0.0" fill="#666666" text-anchor="end">
    <text x="-0.75" y="-0.3898124142138174">14,000
    </text>
  </g>
  <g fill-opacity="1.0" font-size="5.0e-2" stroke="none" stroke-width="0.0" fill="#666666" text-anchor="end">
    <text x="-0.75" y="-0.4851303949977125">16,000
    </text>
  </g>
  <g stroke-opacity="0.4" fill-opacity="1.0" stroke="#2c429d" stroke-width="5.0e-3" fill="#5f0391">
    <g transform="rotate(-90.0, -0.7194623689514554, 0.26635656550251635)">
      <polyline points="-0.7194623689514554,0.28135656550251636
-0.7194623689514554,0.25135656550251634"/>
    </g>
    <g transform="rotate(-90.0, -0.7194623689514554, 0.17103858471862127)">
      <polyline points="-0.7194623689514554,0.18603858471862128
-0.7194623689514554,0.15603858471862125"/>
    </g>
    <g transform="rotate(-90.0, -0.7194623689514554, 7.572060393472618e-2)">
      <polyline points="-0.7194623689514554,9.072060393472618e-2
-0.7194623689514554,6.072060393472618e-2"/>
    </g>
    <g transform="rotate(-90.0, -0.7194623689514554, -1.9597376849168846e-2)">
      <polyline points="-0.7194623689514554,-4.597376849168847e-3
-0.7194623689514554,-3.4597376849168845e-2"/>
    </g>
    <g transform="rotate(-90.0, -0.7194623689514554, -0.11491535763306393)">
      <polyline points="-0.7194623689514554,-9.991535763306393e-2
-0.7194623689514554,-0.12991535763306394"/>
    </g>
    <g transform="rotate(-90.0, -0.7194623689514554, -0.21023333841695901)">
      <polyline points="-0.7194623689514554,-0.195233338416959
-0.7194623689514554,-0.22523333841695903"/>
    </g>
    <g transform="rotate(-90.0, -0.7194623689514554, -0.3055513192008541)">
      <polyline points="-0.7194623689514554,-0.2905513192008541
-0.7194623689514554,-0.3205513192008541"/>
    </g>
    <g transform="rotate(-90.0, -0.7194623689514554, -0.4008692999847492)">
      <polyline points="-0.7194623689514554,-0.38586929998474917
-0.7194623689514554,-0.4158692999847492"/>
    </g>
    <g transform="rotate(-90.0, -0.7194623689514554, -0.49618728076864427)">
      <polyline points="-0.7194623689514554,-0.48118728076864425
-0.7194623689514554,-0.5111872807686443"/>
    </g>
  </g>
  <g stroke-opacity="0.0" fill-opacity="0.5" stroke="#666666" stroke-width="0.0" fill="#5f0391">
    <rect height="0.7625438462711607" width="4.687280283736772e-3" x="-0.710087808383982" y="-0.49618728076864427"/>
  </g>
  <g stroke-opacity="0.3" stroke="#a8e5ee" stroke-width="5.0e-3" fill="none">
    <polyline points="-0.6608713654047467,0.27016928473387214
-0.6608713654047467,-0.5"/>
  </g>
  <g stroke-opacity="0.3" stroke="#a8e5ee" stroke-width="5.0e-3" fill="none">
    <polyline points="-0.5330364485755639,0.27016928473387214
-0.5330364485755639,-0.5"/>
  </g>
  <g stroke-opacity="0.3" stroke="#a8e5ee" stroke-width="5.0e-3" fill="none">
    <polyline points="-0.4052015317463812,0.27016928473387214
-0.4052015317463812,-0.5"/>
  </g>
  <g stroke-opacity="0.3" stroke="#a8e5ee" stroke-width="5.0e-3" fill="none">
    <polyline points="-0.2773666149171985,0.27016928473387214
-0.2773666149171985,-0.5"/>
  </g>
  <g stroke-opacity="0.3" stroke="#a8e5ee" stroke-width="5.0e-3" fill="none">
    <polyline points="-0.1495316980880157,0.27016928473387214
-0.1495316980880157,-0.5"/>
  </g>
  <g stroke-opacity="0.3" stroke="#a8e5ee" stroke-width="5.0e-3" fill="none">
    <polyline points="-2.169678125883301e-2,0.27016928473387214
-2.169678125883301e-2,-0.5"/>
  </g>
  <g stroke-opacity="0.3" stroke="#a8e5ee" stroke-width="5.0e-3" fill="none">
    <polyline points="0.10613813557034968,0.27016928473387214
0.10613813557034968,-0.5"/>
  </g>
  <g stroke-opacity="0.3" stroke="#a8e5ee" stroke-width="5.0e-3" fill="none">
    <polyline points="0.23397305239953248,0.27016928473387214
0.23397305239953248,-0.5"/>
  </g>
  <g stroke-opacity="0.3" stroke="#a8e5ee" stroke-width="5.0e-3" fill="none">
    <polyline points="0.36180796922871505,0.27016928473387214
0.36180796922871505,-0.5"/>
  </g>
  <g stroke-opacity="0.3" stroke="#a8e5ee" stroke-width="5.0e-3" fill="none">
    <polyline points="0.4896428860578981,0.27016928473387214
0.4896428860578981,-0.5"/>
  </g>
  <g stroke-opacity="0.3" stroke="#a8e5ee" stroke-width="5.0e-3" fill="none">
    <polyline points="0.6174778028870804,0.27016928473387214
0.6174778028870804,-0.5"/>
  </g>
  <g stroke-opacity="0.3" stroke="#a8e5ee" stroke-width="5.0e-3" fill="none">
    <polyline points="0.7453127197162634,0.27016928473387214
0.7453127197162634,-0.5"/>
  </g>
  <g fill-opacity="1.0" font-size="5.0e-2" stroke="none" stroke-width="0.0" fill="#666666" text-anchor="middle">
    <text x="-0.6608713654047467" y="0.34928320878450514">-10
    </text>
  </g>
  <g fill-opacity="1.0" font-size="5.0e-2" stroke="none" stroke-width="0.0" fill="#666666" text-anchor="middle">
    <text x="-0.5330364485755639" y="0.34928320878450514">0
    </text>
  </g>
  <g fill-opacity="1.0" font-size="5.0e-2" stroke="none" stroke-width="0.0" fill="#666666" text-anchor="middle">
    <text x="-0.4052015317463812" y="0.34928320878450514">10
    </text>
  </g>
  <g fill-opacity="1.0" font-size="5.0e-2" stroke="none" stroke-width="0.0" fill="#666666" text-anchor="middle">
    <text x="-0.2773666149171985" y="0.34928320878450514">20
    </text>
  </g>
  <g fill-opacity="1.0" font-size="5.0e-2" stroke="none" stroke-width="0.0" fill="#666666" text-anchor="middle">
    <text x="-0.1495316980880157" y="0.34928320878450514">30
    </text>
  </g>
  <g fill-opacity="1.0" font-size="5.0e-2" stroke="none" stroke-width="0.0" fill="#666666" text-anchor="middle">
    <text x="-2.169678125883301e-2" y="0.34928320878450514">40
    </text>
  </g>
  <g fill-opacity="1.0" font-size="5.0e-2" stroke="none" stroke-width="0.0" fill="#666666" text-anchor="middle">
    <text x="0.10613813557034968" y="0.34928320878450514">50
    </text>
  </g>
  <g fill-opacity="1.0" font-size="5.0e-2" stroke="none" stroke-width="0.0" fill="#666666" text-anchor="middle">
    <text x="0.23397305239953248" y="0.34928320878450514">60
    </text>
  </g>
  <g fill-opacity="1.0" font-size="5.0e-2" stroke="none" stroke-width="0.0" fill="#666666" text-anchor="middle">
    <text x="0.36180796922871505" y="0.34928320878450514">70
    </text>
  </g>
  <g fill-opacity="1.0" font-size="5.0e-2" stroke="none" stroke-width="0.0" fill="#666666" text-anchor="middle">
    <text x="0.4896428860578981" y="0.34928320878450514">80
    </text>
  </g>
  <g fill-opacity="1.0" font-size="5.0e-2" stroke="none" stroke-width="0.0" fill="#666666" text-anchor="middle">
    <text x="0.6174778028870804" y="0.34928320878450514">90
    </text>
  </g>
  <g fill-opacity="1.0" font-size="5.0e-2" stroke="none" stroke-width="0.0" fill="#666666" text-anchor="middle">
    <text x="0.7453127197162634" y="0.34928320878450514">100
    </text>
  </g>
  <g stroke-opacity="0.4" fill-opacity="1.0" stroke="#2c429d" stroke-width="5.0e-3" fill="#5f0391">
    <polyline points="-0.6608713654047467,0.3004201616592954
-0.6608713654047467,0.2704201616592954"/>
    <polyline points="-0.5330364485755639,0.3004201616592954
-0.5330364485755639,0.2704201616592954"/>
    <polyline points="-0.4052015317463812,0.3004201616592954
-0.4052015317463812,0.2704201616592954"/>
    <polyline points="-0.2773666149171985,0.3004201616592954
-0.2773666149171985,0.2704201616592954"/>
    <polyline points="-0.1495316980880157,0.3004201616592954
-0.1495316980880157,0.2704201616592954"/>
    <polyline points="-2.169678125883301e-2,0.3004201616592954
-2.169678125883301e-2,0.2704201616592954"/>
    <polyline points="0.10613813557034968,0.3004201616592954
0.10613813557034968,0.2704201616592954"/>
    <polyline points="0.23397305239953248,0.3004201616592954
0.23397305239953248,0.2704201616592954"/>
    <polyline points="0.36180796922871505,0.3004201616592954
0.36180796922871505,0.2704201616592954"/>
    <polyline points="0.4896428860578981,0.3004201616592954
0.4896428860578981,0.2704201616592954"/>
    <polyline points="0.6174778028870804,0.3004201616592954
0.6174778028870804,0.2704201616592954"/>
    <polyline points="0.7453127197162634,0.3004201616592954
0.7453127197162634,0.2704201616592954"/>
  </g>
  <g stroke-opacity="0.0" fill-opacity="0.5" stroke="#666666" stroke-width="0.0" fill="#5f0391">
    <rect height="3.8127192313558433e-3" width="1.4061840851210101" x="-0.6608713654047467" y="0.273982003965228"/>
  </g>
  <g stroke-opacity="0.4" fill-opacity="0.8" stroke="#2c429d" stroke-width="3.0e-3" fill="#026062">
    <circle cy="-0.47155301586091214" r="1.5e-2" cx="-0.5330364485755639"/>
    <circle cy="0.2486893777642214" r="1.5e-2" cx="-0.5202529568926456"/>
    <circle cy="0.2158540491078237" r="1.5e-2" cx="-0.5074694652097274"/>
    <circle cy="0.19290605459813936" r="1.5e-2" cx="-0.4946859735268091"/>
    <circle cy="0.1734466028671648" r="1.5e-2" cx="-0.4819024818438908"/>
    <circle cy="0.2515332850388897" r="1.5e-2" cx="-0.46911899016097247"/>
    <circle cy="0.23257825606222354" r="1.5e-2" cx="-0.4563354984780543"/>
    <circle cy="0.2119747026078999" r="1.5e-2" cx="-0.443552006795136"/>
    <circle cy="0.1830218659447918" r="1.5e-2" cx="-0.4307685151122177"/>
    <circle cy="0.1721747750495653" r="1.5e-2" cx="-0.41798502342929944"/>
    <circle cy="0.25144177977733717" r="1.5e-2" cx="-0.4052015317463812"/>
    <circle cy="0.22504851685221894" r="1.5e-2" cx="-0.3924180400634629"/>
    <circle cy="0.20090370977581207" r="1.5e-2" cx="-0.37963454838054467"/>
    <circle cy="0.17903995729754457" r="1.5e-2" cx="-0.3668510566976264"/>
    <circle cy="0.1729063405520817" r="1.5e-2" cx="-0.35406756501470815"/>
    <circle cy="0.2513834451730974" r="1.5e-2" cx="-0.3412840733317899"/>
    <circle cy="0.2174873227085557" r="1.5e-2" cx="-0.3285005816488715"/>
    <circle cy="0.19436394311422905" r="1.5e-2" cx="-0.31571708996595327"/>
    <circle cy="0.17395255070916577" r="1.5e-2" cx="-0.302933598283035"/>
    <circle cy="0.251589617965533" r="1.5e-2" cx="-0.29015010660011675"/>
    <circle cy="0.23206287174012502" r="1.5e-2" cx="-0.2773666149171985"/>
    <circle cy="0.21133559554674392" r="1.5e-2" cx="-0.2645831232342801"/>
    <circle cy="0.18604868842458439" r="1.5e-2" cx="-0.251799631551362"/>
    <circle cy="0.17408723501601336" r="1.5e-2" cx="-0.2390161398684436"/>
    <circle cy="0.25152890041177367" r="1.5e-2" cx="-0.22623264818552535"/>
    <circle cy="0.22439101342077167" r="1.5e-2" cx="-0.2134491565026071"/>
    <circle cy="0.20025936022571295" r="1.5e-2" cx="-0.20066566481968873"/>
    <circle cy="0.1802652699405215" r="1.5e-2" cx="-0.18788217313677058"/>
    <circle cy="0.25165977199938994" r="1.5e-2" cx="-0.1750986814538522"/>
    <circle cy="0.24361455314930608" r="1.5e-2" cx="-0.16231518977093395"/>
    <circle cy="0.21557066875095315" r="1.5e-2" cx="-0.1495316980880157"/>
    <circle cy="0.19185469727009302" r="1.5e-2" cx="-0.13674820640509744"/>
    <circle cy="0.17368709013268258" r="1.5e-2" cx="-0.12396471472217918"/>
    <circle cy="0.2515460576483147" r="1.5e-2" cx="-0.11118122303926103"/>
    <circle cy="0.23177157999084946" r="1.5e-2" cx="-9.839773135634267e-2"/>
    <circle cy="0.2104400831172792" r="1.5e-2" cx="-8.561423967342452e-2"/>
    <circle cy="0.18615782751258192" r="1.5e-2" cx="-7.283074799050615e-2"/>
    <circle cy="0.17531607442427932" r="1.5e-2" cx="-6.004725630758789e-2"/>
    <circle cy="0.2517510866249809" r="1.5e-2" cx="-4.7263764624669524e-2"/>
    <circle cy="0.22436756519749884" r="1.5e-2" cx="-3.448027294175127e-2"/>
    <circle cy="0.20137629632453863" r="1.5e-2" cx="-2.169678125883301e-2"/>
    <circle cy="0.17994929083422295" r="1.5e-2" cx="-8.913289575914751e-3"/>
    <circle cy="0.25163050937928927" r="1.5e-2" cx="3.8702021070035064e-3"/>
    <circle cy="0.24322336815616896" r="1.5e-2" cx="1.6653693789921764e-2"/>
    <circle cy="0.21702912917492756" r="1.5e-2" cx="2.9437185472840022e-2"/>
    <circle cy="0.1910023638859234" r="1.5e-2" cx="4.22206771557585e-2"/>
    <circle cy="0.1718195249351837" r="1.5e-2" cx="5.500416883867654e-2"/>
    <circle cy="0.25140927634588983" r="1.5e-2" cx="6.778766052159502e-2"/>
    <circle cy="0.23108042931218542" r="1.5e-2" cx="8.057115220451305e-2"/>
    <circle cy="0.21131681790452944" r="1.5e-2" cx="9.335464388743153e-2"/>
    <circle cy="0.18529481851456453" r="1.5e-2" cx="0.10613813557034968"/>
    <circle cy="0.17362637257892327" r="1.5e-2" cx="0.11892162725326805"/>
    <circle cy="0.2515111712673478" r="1.5e-2" cx="0.1317051189361862"/>
    <circle cy="0.22453074958060082" r="1.5e-2" cx="0.14448861061910467"/>
    <circle cy="0.19969879518072287" r="1.5e-2" cx="0.1572721023020227"/>
    <circle cy="0.17807095470489548" r="1.5e-2" cx="0.17005559398494108"/>
    <circle cy="0.25162355116669205" r="1.5e-2" cx="0.18283908566785922"/>
    <circle cy="0.23814520741192619" r="1.5e-2" cx="0.1956225773507776"/>
    <circle cy="0.21635122769559245" r="1.5e-2" cx="0.20840606903369596"/>
    <circle cy="0.19194515403385692" r="1.5e-2" cx="0.22118956071661422"/>
    <circle cy="0.17478257968583188" r="1.5e-2" cx="0.23397305239953248"/>
    <circle cy="0.2515334756748513" r="1.5e-2" cx="0.24675654408245062"/>
    <circle cy="0.2281348177520207" r="1.5e-2" cx="0.2595400357653692"/>
    <circle cy="0.20441379441817903" r="1.5e-2" cx="0.27232352744828736"/>
    <circle cy="0.18515107899954242" r="1.5e-2" cx="0.2851070191312055"/>
    <circle cy="0.17478277032179346" r="1.5e-2" cx="0.29789051081412365"/>
    <circle cy="0.2514476894921458" r="1.5e-2" cx="0.31067400249704225"/>
    <circle cy="0.22354830715266122" r="1.5e-2" cx="0.3234574941799604"/>
    <circle cy="0.199008883635809" r="1.5e-2" cx="0.33624098586287876"/>
    <circle cy="0.17679788775354577" r="1.5e-2" cx="0.3490244775457967"/>
    <circle cy="0.2517013306390117" r="1.5e-2" cx="0.36180796922871505"/>
    <circle cy="0.23783637715418632" r="1.5e-2" cx="0.3745914609116334"/>
    <circle cy="0.21676614686594475" r="1.5e-2" cx="0.3873749525945518"/>
    <circle cy="0.19259722434039955" r="1.5e-2" cx="0.40015844427746994"/>
    <circle cy="0.17398619795638248" r="1.5e-2" cx="0.4129419359603881"/>
    <circle cy="0.2515043083727314" r="1.5e-2" cx="0.4257254276433067"/>
    <circle cy="0.23120176910172335" r="1.5e-2" cx="0.4385089193262248"/>
    <circle cy="0.2100209699557724" r="1.5e-2" cx="0.45129241100914297"/>
    <circle cy="0.18264097529357937" r="1.5e-2" cx="0.46407590269206134"/>
    <circle cy="0.1697091848406283" r="1.5e-2" cx="0.4768593943749797"/>
    <circle cy="0.2515000190635961" r="1.5e-2" cx="0.48964288605789785"/>
    <circle cy="0.2125075301204819" r="1.5e-2" cx="0.5024263777408162"/>
    <circle cy="0.19418036068323924" r="1.5e-2" cx="0.5152098694237344"/>
    <circle cy="0.17621787784047582" r="1.5e-2" cx="0.5279933611066525"/>
    <circle cy="0.2512875552844288" r="1.5e-2" cx="0.5407768527895711"/>
    <circle cy="0.2377931981088912" r="1.5e-2" cx="0.5535603444724893"/>
    <circle cy="0.21727781378679267" r="1.5e-2" cx="0.5663438361554074"/>
    <circle cy="0.1925081973463474" r="1.5e-2" cx="0.5791273278383255"/>
    <circle cy="0.1750684383102028" r="1.5e-2" cx="0.5919108195212441"/>
    <circle cy="0.2515345241726399" r="1.5e-2" cx="0.6046943112041623"/>
    <circle cy="0.23017452722281528" r="1.5e-2" cx="0.6174778028870804"/>
    <circle cy="0.20921801128564887" r="1.5e-2" cx="0.6302612945699988"/>
    <circle cy="0.18402470642061913" r="1.5e-2" cx="0.6430447862529172"/>
    <circle cy="0.18135332469116971" r="1.5e-2" cx="0.6558282779358353"/>
    <circle cy="0.2513754384627116" r="1.5e-2" cx="0.6686117696187537"/>
    <circle cy="0.22334051395455234" r="1.5e-2" cx="0.6813952613016718"/>
    <circle cy="0.19842553759341158" r="1.5e-2" cx="0.6941787529845902"/>
    <circle cy="0.17869852829037663" r="1.5e-2" cx="0.7069622446675086"/>
    <circle cy="0.25174956153728834" r="1.5e-2" cx="0.7197457363504267"/>
    <circle cy="0.2359516547201464" r="1.5e-2" cx="0.7325292280333451"/>
  </g>
  <g stroke-opacity="0.4" fill-opacity="0.8" stroke="#2c429d" stroke-width="3.0e-3" fill="#0ea194">
    <rect height="3.0e-2" width="3.0000000000000027e-2" x="-0.5480364485755639" y="6.664919170352292e-2"/>
    <rect height="3.0e-2" width="3.0000000000000027e-2" x="-0.5352529568926456" y="4.017490849473844e-2"/>
    <rect height="3.0000000000000027e-2" width="3.0000000000000027e-2" x="-0.5224694652097274" y="-0.4434456496873571"/>
    <rect height="3.0000000000000027e-2" width="3.0000000000000027e-2" x="-0.5096859735268091" y="0.16483519521122458"/>
    <rect height="3.0000000000000027e-2" width="3.0000000000000027e-2" x="-0.4969024818438908" y="0.19405892557572058"/>
    <rect height="3.0000000000000013e-2" width="3.0000000000000027e-2" x="-0.4841189901609725" y="9.947394006405365e-2"/>
    <rect height="3.0e-2" width="3.0000000000000027e-2" x="-0.47133549847805434" y="7.599578694524935e-2"/>
    <rect height="3.0000000000000027e-2" width="3.0000000000000027e-2" x="-0.458552006795136" y="-0.4477528786030197"/>
    <rect height="3.0000000000000027e-2" width="3.0000000000000027e-2" x="-0.4457685151122177" y="0.1870073966753088"/>
    <rect height="3.0e-2" width="3.0000000000000027e-2" x="-0.43298502342929945" y="8.095270321793492e-2"/>
    <rect height="3.0e-2" width="3.0000000000000027e-2" x="-0.4202015317463812" y="7.166148772304405e-2"/>
    <rect height="3.0000000000000027e-2" width="3.0000000000000027e-2" x="-0.40741804006346294" y="-0.42469193228610647"/>
    <rect height="3.0000000000000027e-2" width="3.0000000000000027e-2" x="-0.3946345483805447" y="0.18374104010980624"/>
    <rect height="3.0e-2" width="3.0000000000000027e-2" x="-0.3818510566976264" y="8.280759112398957e-2"/>
    <rect height="3.0000000000000027e-2" width="3.0000000000000027e-2" x="-0.36906756501470817" y="-0.44613981241421397"/>
    <rect height="3.0000000000000027e-2" width="3.0000000000000027e-2" x="-0.3562840733317899" y="0.14950606222357782"/>
    <rect height="3.0000000000000027e-2" width="3.0000000000000027e-2" x="-0.34350058164887154" y="0.18266461415281376"/>
    <rect height="3.0e-2" width="3.0000000000000027e-2" x="-0.3307170899659533" y="8.097691398505415e-2"/>
    <rect height="3.0e-2" width="3.0000000000000027e-2" x="-0.317933598283035" y="5.770788851608967e-2"/>
    <rect height="3.0000000000000027e-2" width="3.0000000000000027e-2" x="-0.30515010660011677" y="-0.42894063596156784"/>
    <rect height="3.0000000000000027e-2" width="3.0000000000000027e-2" x="-0.2923666149171985" y="0.1771757282293731"/>
    <rect height="3.0e-2" width="3.0000000000000027e-2" x="-0.27958312323428014" y="7.571745844136031e-2"/>
    <rect height="3.0000000000000027e-2" width="3.0000000000000027e-2" x="-0.266799631551362" y="-0.4429587654415129"/>
    <rect height="3.0000000000000027e-2" width="3.0000000000000027e-2" x="-0.2540161398684436" y="0.14268653728839403"/>
    <rect height="3.0000000000000027e-2" width="3.0000000000000027e-2" x="-0.24123264818552537" y="0.17633121091962783"/>
    <rect height="3.0e-2" width="3.0000000000000027e-2" x="-0.2284491565026071" y="7.157684535610793e-2"/>
    <rect height="3.0e-2" width="3.0000000000000027e-2" x="-0.21566566481968874" y="4.998598825682467e-2"/>
    <rect height="3.0000000000000027e-2" width="3.0000000000000027e-2" x="-0.2028821731367706" y="-0.4466326063748667"/>
    <rect height="3.0000000000000027e-2" width="3.0000000000000027e-2" x="-0.19009868145385223" y="0.16257053530578003"/>
    <rect height="3.0e-2" width="3.0000000000000027e-2" x="-0.17731518977093397" y="7.034352600274514e-2"/>
    <rect height="3.0000000000000027e-2" width="3.0000000000000027e-2" x="-0.1645316980880157" y="-0.444367565197499"/>
    <rect height="3.0000000000000027e-2" width="3.0000000000000013e-2" x="-0.15174820640509745" y="0.13677377230440746"/>
    <rect height="3.0000000000000027e-2" width="3.0000000000000013e-2" x="-0.1389647147221792" y="0.1700889316760713"/>
    <rect height="3.0000000000000027e-2" width="3.0000000000000013e-2" x="-0.12618122303926105" y="0.19478172182400483"/>
    <rect height="3.0000000000000013e-2" width="3.0e-2" x="-0.11339773135634267" y="0.1042612856489248"/>
    <rect height="3.0e-2" width="3.0e-2" x="-0.10061423967342452" y="6.908771160591727e-2"/>
    <rect height="3.0000000000000027e-2" width="3.0e-2" x="-8.783074799050615e-2" y="-0.43312728763153885"/>
    <rect height="3.0000000000000027e-2" width="3.0e-2" x="-7.504725630758789e-2" y="0.18966743556504495"/>
    <rect height="3.0000000000000013e-2" width="3.0e-2" x="-6.2263764624669524e-2" y="9.53692618575568e-2"/>
    <rect height="3.0e-2" width="3.0e-2" x="-4.9480272941751266e-2" y="7.57182209852066e-2"/>
    <rect height="3.0000000000000027e-2" width="3.0e-2" x="-3.669678125883301e-2" y="-0.4265034505109043"/>
    <rect height="3.0000000000000027e-2" width="3.0e-2" x="-2.391328957591475e-2" y="0.1656869566875095"/>
    <rect height="3.0e-2" width="3.0e-2" x="-1.1129797892996493e-2" y="8.585509760561223e-2"/>
    <rect height="3.0e-2" width="3.0e-2" x="1.6536937899217646e-3" y="7.113762010065573e-2"/>
    <rect height="3.0000000000000027e-2" width="3.0e-2" x="1.4437185472840022e-2" y="-0.42195134970260806"/>
    <rect height="3.0000000000000027e-2" width="3.0e-2" x="2.7220677155758502e-2" y="0.1823948642671953"/>
    <rect height="3.0e-2" width="3.0e-2" x="4.000416883867654e-2" y="8.250676757663562e-2"/>
    <rect height="3.0000000000000027e-2" width="3.0e-2" x="5.278766052159502e-2" y="-0.44150583346042405"/>
    <rect height="3.0000000000000027e-2" width="3.0e-2" x="6.557115220451305e-2" y="0.14815416730211983"/>
    <rect height="3.0000000000000027e-2" width="3.0e-2" x="7.835464388743153e-2" y="0.18089513115754147"/>
    <rect height="3.0e-2" width="3.0e-2" x="9.113813557034968e-2" y="7.80578961415281e-2"/>
    <rect height="3.0e-2" width="3.0000000000000013e-2" x="0.10392162725326805" y="5.359110492603315e-2"/>
    <rect height="3.0000000000000027e-2" width="3.0000000000000013e-2" x="0.1167051189361862" y="-0.4279816417569011"/>
    <rect height="3.0000000000000027e-2" width="3.0000000000000027e-2" x="0.12948861061910466" y="0.17550747292969338"/>
    <rect height="3.0e-2" width="3.0000000000000027e-2" x="0.1422721023020227" y="7.228667835900561e-2"/>
    <rect height="3.0000000000000027e-2" width="3.0000000000000027e-2" x="0.15505559398494106" y="-0.44926338264450216"/>
    <rect height="3.0000000000000027e-2" width="3.0000000000000027e-2" x="0.1678390856678592" y="0.13947660896751557"/>
    <rect height="3.0000000000000027e-2" width="3.0000000000000027e-2" x="0.18062257735077758" y="0.1671054788775354"/>
    <rect height="3.0e-2" width="3.0000000000000027e-2" x="0.19340606903369595" y="7.190178435260021e-2"/>
    <rect height="3.0000000000000027e-2" width="3.0000000000000027e-2" x="0.2061895607166142" y="-0.45577369605002294"/>
    <rect height="3.0000000000000027e-2" width="3.0000000000000027e-2" x="0.21897305239953246" y="0.13891022952569765"/>
    <rect height="3.0000000000000027e-2" width="3.0000000000000027e-2" x="0.2317565440824506" y="0.17174298459661425"/>
    <rect height="3.0000000000000027e-2" width="3.0000000000000027e-2" x="0.2445400357653692" y="0.18956544532560615"/>
    <rect height="3.0000000000000013e-2" width="3.0000000000000027e-2" x="0.25732352744828735" y="0.1158575758731127"/>
    <rect height="3.0000000000000027e-2" width="3.0000000000000027e-2" x="0.2701070191312055" y="0.13798907655940212"/>
    <rect height="3.0000000000000027e-2" width="3.0000000000000027e-2" x="0.28289051081412364" y="0.16847033704438003"/>
    <rect height="3.0000000000000027e-2" width="3.0000000000000027e-2" x="0.29567400249704223" y="0.1942114343449748"/>
    <rect height="3.0000000000000013e-2" width="3.0000000000000027e-2" x="0.3084574941799604" y="9.859787250266884e-2"/>
    <rect height="3.0e-2" width="3.0000000000000027e-2" x="0.32124098586287875" y="7.28859425041939e-2"/>
    <rect height="3.0000000000000027e-2" width="3.0000000000000027e-2" x="0.33402447754579667" y="-0.42272437852676537"/>
    <rect height="3.0000000000000027e-2" width="3.0000000000000027e-2" x="0.34680796922871504" y="0.1772352066493823"/>
    <rect height="3.0e-2" width="3.0000000000000027e-2" x="0.3595914609116334" y="8.097271999389967e-2"/>
    <rect height="3.0e-2" width="3.0000000000000027e-2" x="0.3723749525945518" y="7.079199710233332e-2"/>
    <rect height="3.0000000000000027e-2" width="3.0000000000000027e-2" x="0.3851584442774699" y="-0.4200346004270247"/>
    <rect height="3.0000000000000027e-2" width="3.0000000000000027e-2" x="0.39794193596038807" y="0.18342877840475824"/>
    <rect height="3.0e-2" width="3.0000000000000027e-2" x="0.41072542764330666" y="8.550918865334746e-2"/>
    <rect height="3.0e-2" width="3.0000000000000027e-2" x="0.4235089193262248" y="6.999380433124898e-2"/>
    <rect height="3.0000000000000027e-2" width="3.0000000000000027e-2" x="0.43629241100914296" y="-0.43071669589751427"/>
    <rect height="3.0000000000000027e-2" width="3.0000000000000027e-2" x="0.4490759026920613" y="0.18006824767424123"/>
    <rect height="3.0e-2" width="3.0000000000000027e-2" x="0.4618593943749797" y="8.203980478877533e-2"/>
    <rect height="3.0000000000000027e-2" width="3.0000000000000027e-2" x="0.47464288605789784" y="-0.4478699290834224"/>
    <rect height="3.0000000000000027e-2" width="3.0000000000000027e-2" x="0.4874263777408162" y="0.14620615372883938"/>
    <rect height="3.0000000000000027e-2" width="3.0000000000000027e-2" x="0.5002098694237344" y="0.1784775812109196"/>
    <rect height="3.0e-2" width="3.0000000000000027e-2" x="0.5129933611066525" y="7.680141451883483e-2"/>
    <rect height="3.0000000000000027e-2" width="3.0000000000000027e-2" x="0.5257768527895711" y="-0.4603371396980328"/>
    <rect height="3.0000000000000027e-2" width="3.0000000000000027e-2" x="0.5385603444724892" y="0.14339741878908036"/>
    <rect height="3.0000000000000027e-2" width="3.0000000000000027e-2" x="0.5513438361554074" y="0.17130957373798988"/>
    <rect height="3.0e-2" width="3.0000000000000027e-2" x="0.5641273278383255" y="6.775449900869297e-2"/>
    <rect height="3.0e-2" width="3.0000000000000027e-2" x="0.5769108195212441" y="5.207164099435714e-2"/>
    <rect height="3.0000000000000027e-2" width="3.0000000000000027e-2" x="0.5896943112041623" y="-0.46403414290071676"/>
    <rect height="3.0000000000000027e-2" width="3.0000000000000027e-2" x="0.6024778028870804" y="0.1677671763001372"/>
    <rect height="3.0e-2" width="3.0000000000000027e-2" x="0.6152612945699988" y="6.898553073051696e-2"/>
    <rect height="3.0000000000000027e-2" width="3.0000000000000027e-2" x="0.6280447862529172" y="-0.4551684268720453"/>
    <rect height="3.0000000000000027e-2" width="3.0000000000000027e-2" x="0.6408282779358353" y="0.1339653233185908"/>
    <rect height="3.0000000000000027e-2" width="3.0000000000000027e-2" x="0.6536117696187537" y="0.1714816226933048"/>
    <rect height="3.0000000000000027e-2" width="3.0000000000000027e-2" x="0.6663952613016718" y="0.19459308754003352"/>
    <rect height="3.0000000000000013e-2" width="3.0000000000000027e-2" x="0.6791787529845902" y="9.867965533018143e-2"/>
    <rect height="3.0e-2" width="3.0000000000000027e-2" x="0.6919622446675086" y="6.886276117126734e-2"/>
    <rect height="3.0000000000000027e-2" width="3.0000000000000027e-2" x="0.7047457363504267" y="-0.44800470870825093"/>
    <rect height="3.0000000000000027e-2" width="3.0000000000000027e-2" x="0.7175292280333451" y="0.18420838416958973"/>
  </g>
  <g stroke-opacity="0.5" fill-opacity="1.0" stroke="#3764a0" stroke-width="4.0e-3" fill="#ffffff">
    <rect height="7.793198108891258e-2" width="0.14652438166960913" x="-7.382466446885294e-2" y="0.4052920542931219"/>
  </g>
  <g fill-opacity="1.0" font-size="1.6e-2" stroke="none" stroke-width="0.0" fill="#666666" text-anchor="start">
    <text x="-5.5075543333906185e-2" y="0.4615677901479335">Dynamic
    </text>
  </g>
  <g stroke-opacity="0.4" fill-opacity="0.8" stroke="#2c429d" stroke-width="3.0e-3" fill="#0ea194">
    <rect height="2.0000000000000018e-2" width="2.0000000000000004e-2" x="3.429479868131181e-2" y="0.4465350007625438"/>
  </g>
  <g fill-opacity="1.0" font-size="1.6e-2" stroke="none" stroke-width="0.0" fill="#666666" text-anchor="start">
    <text x="-5.5075543333906185e-2" y="0.4334299222205276">Fixed
    </text>
  </g>
  <g stroke-opacity="0.4" fill-opacity="0.8" stroke="#2c429d" stroke-width="3.0e-3" fill="#026062">
    <circle cy="0.42839713283513803" r="1.0000000000000002e-2" cx="4.429479868131181e-2"/>
  </g>
</svg>