<svg xmlns="http://www.w3.org/2000/svg" height="300.0" viewBox="-0.92 -0.5514086878757898 1.7228200318237838 1.0714086878757898" width="450.0" xmlns:xlink="http://www.w3.org/1999/xlink"><g stroke-opacity="0.0" fill-opacity="0.1" stroke="#000000" stroke-width="0.0" fill="#cccccc"><rect height="0.7610929294466855" width="1.4039904528649207" x="-0.6586704210411369" y="-0.4961945353527666"/></g><g stroke-opacity="0.1" stroke="#808080" stroke-width="5.0e-3" fill="none"><polyline points="-0.6633503892173533,0.2648983940939189
0.75,0.2648983940939189"/></g><g stroke-opacity="0.1" stroke="#808080" stroke-width="5.0e-3" fill="none"><polyline points="-0.6633503892173533,0.16976177791308322
0.75,0.16976177791308322"/></g><g stroke-opacity="0.1" stroke="#808080" stroke-width="5.0e-3" fill="none"><polyline points="-0.6633503892173533,7.462516173224754e-2
0.75,7.462516173224754e-2"/></g><g stroke-opacity="0.1" stroke="#808080" stroke-width="5.0e-3" fill="none"><polyline points="-0.6633503892173533,-2.051145444858815e-2
0.75,-2.051145444858815e-2"/></g><g stroke-opacity="0.1" stroke="#808080" stroke-width="5.0e-3" fill="none"><polyline points="-0.6633503892173533,-0.11564807062942384
0.75,-0.11564807062942384"/></g><g stroke-opacity="0.1" stroke="#808080" stroke-width="5.0e-3" fill="none"><polyline points="-0.6633503892173533,-0.21078468681025953
0.75,-0.21078468681025953"/></g><g stroke-opacity="0.1" stroke="#808080" stroke-width="5.0e-3" fill="none"><polyline points="-0.6633503892173533,-0.3059213029910952
0.75,-0.3059213029910952"/></g><g stroke-opacity="0.1" stroke="#808080" stroke-width="5.0e-3" fill="none"><polyline points="-0.6633503892173533,-0.4010579191719309
0.75,-0.4010579191719309"/></g><g stroke-opacity="0.1" stroke="#808080" stroke-width="5.0e-3" fill="none"><polyline points="-0.6633503892173533,-0.4961945353527666
0.75,-0.4961945353527666"/></g><g fill-opacity="0.8" font-size="5.0e-2" stroke="none" stroke-width="0.0" fill="#333333" text-anchor="end"><text x="-0.75" y="0.2759342415708958">0</text></g><g fill-opacity="0.8" font-size="5.0e-2" stroke="none" stroke-width="0.0" fill="#333333" text-anchor="end"><text x="-0.75" y="0.18079762539006017">2,000</text></g><g fill-opacity="0.8" font-size="5.0e-2" stroke="none" stroke-width="0.0" fill="#333333" text-anchor="end"><text x="-0.75" y="8.566100920922443e-2">4,000</text></g><g fill-opacity="0.8" font-size="5.0e-2" stroke="none" stroke-width="0.0" fill="#333333" text-anchor="end"><text x="-0.75" y="-9.475606971611317e-3">6,000</text></g><g fill-opacity="0.8" font-size="5.0e-2" stroke="none" stroke-width="0.0" fill="#333333" text-anchor="end"><text x="-0.75" y="-0.104612223152447">8,000</text></g><g fill-opacity="0.8" font-size="5.0e-2" stroke="none" stroke-width="0.0" fill="#333333" text-anchor="end"><text x="-0.75" y="-0.1997488393332827">10,000</text></g><g fill-opacity="0.8" font-size="5.0e-2" stroke="none" stroke-width="0.0" fill="#333333" text-anchor="end"><text x="-0.75" y="-0.2948854555141184">12,000</text></g><g fill-opacity="0.8" font-size="5.0e-2" stroke="none" stroke-width="0.0" fill="#333333" text-anchor="end"><text x="-0.75" y="-0.39002207169495406">14,000</text></g><g fill-opacity="0.8" font-size="5.0e-2" stroke="none" stroke-width="0.0" fill="#333333" text-anchor="end"><text x="-0.75" y="-0.48515868787578975">16,000</text></g><g stroke-opacity="0.5" fill-opacity="0.5" stroke="#570d66" stroke-width="5.0e-3" fill="#570d66"><g transform="rotate(-90.0, -0.7195100073319501, 0.2648983940939189)"><polyline points="-0.7195100073319501,0.2798983940939189
-0.7195100073319501,0.2498983940939189"/></g><g transform="rotate(-90.0, -0.7195100073319501, 0.16976177791308322)"><polyline points="-0.7195100073319501,0.18476177791308324
-0.7195100073319501,0.1547617779130832"/></g><g transform="rotate(-90.0, -0.7195100073319501, 7.462516173224754e-2)"><polyline points="-0.7195100073319501,8.962516173224754e-2
-0.7195100073319501,5.9625161732247536e-2"/></g><g transform="rotate(-90.0, -0.7195100073319501, -2.051145444858815e-2)"><polyline points="-0.7195100073319501,-5.511454448588152e-3
-0.7195100073319501,-3.551145444858815e-2"/></g><g transform="rotate(-90.0, -0.7195100073319501, -0.11564807062942384)"><polyline points="-0.7195100073319501,-0.10064807062942384
-0.7195100073319501,-0.13064807062942385"/></g><g transform="rotate(-90.0, -0.7195100073319501, -0.21078468681025953)"><polyline points="-0.7195100073319501,-0.1957846868102595
-0.7195100073319501,-0.22578468681025954"/></g><g transform="rotate(-90.0, -0.7195100073319501, -0.3059213029910952)"><polyline points="-0.7195100073319501,-0.2909213029910952
-0.7195100073319501,-0.3209213029910952"/></g><g transform="rotate(-90.0, -0.7195100073319501, -0.4010579191719309)"><polyline points="-0.7195100073319501,-0.3860579191719309
-0.7195100073319501,-0.4160579191719309"/></g><g transform="rotate(-90.0, -0.7195100073319501, -0.4961945353527666)"><polyline points="-0.7195100073319501,-0.4811945353527666
-0.7195100073319501,-0.5111945353527666"/></g></g><g stroke-opacity="0.5" fill-opacity="0.5" stroke="#570d66" stroke-width="0.0" fill="#570d66"><rect height="0.7610929294466855" width="4.679968176216409e-3" x="-0.7078100868914091" y="-0.4961945353527666"/></g><g stroke-opacity="0.1" stroke="#808080" stroke-width="5.0e-3" fill="none"><polyline points="-0.6586704210411369,0.2687038587411523
-0.6586704210411369,-0.5"/></g><g stroke-opacity="0.1" stroke="#808080" stroke-width="5.0e-3" fill="none"><polyline points="-0.5310349253261442,0.2687038587411523
-0.5310349253261442,-0.5"/></g><g stroke-opacity="0.1" stroke="#808080" stroke-width="5.0e-3" fill="none"><polyline points="-0.4033994296111514,0.2687038587411523
-0.4033994296111514,-0.5"/></g><g stroke-opacity="0.1" stroke="#808080" stroke-width="5.0e-3" fill="none"><polyline points="-0.2757639338961586,0.2687038587411523
-0.2757639338961586,-0.5"/></g><g stroke-opacity="0.1" stroke="#808080" stroke-width="5.0e-3" fill="none"><polyline points="-0.14812843818116583,0.2687038587411523
-0.14812843818116583,-0.5"/></g><g stroke-opacity="0.1" stroke="#808080" stroke-width="5.0e-3" fill="none"><polyline points="-2.0492942466172948e-2,0.2687038587411523
-2.0492942466172948e-2,-0.5"/></g><g stroke-opacity="0.1" stroke="#808080" stroke-width="5.0e-3" fill="none"><polyline points="0.10714255324881983,0.2687038587411523
0.10714255324881983,-0.5"/></g><g stroke-opacity="0.1" stroke="#808080" stroke-width="5.0e-3" fill="none"><polyline points="0.2347780489638127,0.2687038587411523
0.2347780489638127,-0.5"/></g><g stroke-opacity="0.1" stroke="#808080" stroke-width="5.0e-3" fill="none"><polyline points="0.36241354467880527,0.2687038587411523
0.36241354467880527,-0.5"/></g><g stroke-opacity="0.1" stroke="#808080" stroke-width="5.0e-3" fill="none"><polyline points="0.49004904039379826,0.2687038587411523
0.49004904039379826,-0.5"/></g><g stroke-opacity="0.1" stroke="#808080" stroke-width="5.0e-3" fill="none"><polyline points="0.6176845361087908,0.2687038587411523
0.6176845361087908,-0.5"/></g><g stroke-opacity="0.1" stroke="#808080" stroke-width="5.0e-3" fill="none"><polyline points="0.7453200318237838,0.2687038587411523
0.7453200318237838,-0.5"/></g><g fill-opacity="0.8" font-size="5.0e-2" stroke="none" stroke-width="0.0" fill="#333333" text-anchor="middle"><text x="-0.6586704210411369" y="0.3495699824948626">-10</text></g><g fill-opacity="0.8" font-size="5.0e-2" stroke="none" stroke-width="0.0" fill="#333333" text-anchor="middle"><text x="-0.5310349253261442" y="0.3495699824948626">0</text></g><g fill-opacity="0.8" font-size="5.0e-2" stroke="none" stroke-width="0.0" fill="#333333" text-anchor="middle"><text x="-0.4033994296111514" y="0.3495699824948626">10</text></g><g fill-opacity="0.8" font-size="5.0e-2" stroke="none" stroke-width="0.0" fill="#333333" text-anchor="middle"><text x="-0.2757639338961586" y="0.3495699824948626">20</text></g><g fill-opacity="0.8" font-size="5.0e-2" stroke="none" stroke-width="0.0" fill="#333333" text-anchor="middle"><text x="-0.14812843818116583" y="0.3495699824948626">30</text></g><g fill-opacity="0.8" font-size="5.0e-2" stroke="none" stroke-width="0.0" fill="#333333" text-anchor="middle"><text x="-2.0492942466172948e-2" y="0.3495699824948626">40</text></g><g fill-opacity="0.8" font-size="5.0e-2" stroke="none" stroke-width="0.0" fill="#333333" text-anchor="middle"><text x="0.10714255324881983" y="0.3495699824948626">50</text></g><g fill-opacity="0.8" font-size="5.0e-2" stroke="none" stroke-width="0.0" fill="#333333" text-anchor="middle"><text x="0.2347780489638127" y="0.3495699824948626">60</text></g><g fill-opacity="0.8" font-size="5.0e-2" stroke="none" stroke-width="0.0" fill="#333333" text-anchor="middle"><text x="0.36241354467880527" y="0.3495699824948626">70</text></g><g fill-opacity="0.8" font-size="5.0e-2" stroke="none" stroke-width="0.0" fill="#333333" text-anchor="middle"><text x="0.49004904039379826" y="0.3495699824948626">80</text></g><g fill-opacity="0.8" font-size="5.0e-2" stroke="none" stroke-width="0.0" fill="#333333" text-anchor="middle"><text x="0.6176845361087908" y="0.3495699824948626">90</text></g><g fill-opacity="0.8" font-size="5.0e-2" stroke="none" stroke-width="0.0" fill="#333333" text-anchor="middle"><text x="0.7453200318237838" y="0.3495699824948626">100</text></g><g stroke-opacity="0.5" fill-opacity="0.5" stroke="#570d66" stroke-width="5.0e-3" fill="#570d66"><polyline points="-0.6586704210411369,0.3008284496537027
-0.6586704210411369,0.2708284496537027"/><polyline points="-0.5310349253261442,0.3008284496537027
-0.5310349253261442,0.2708284496537027"/><polyline points="-0.4033994296111514,0.3008284496537027
-0.4033994296111514,0.2708284496537027"/><polyline points="-0.2757639338961586,0.3008284496537027
-0.2757639338961586,0.2708284496537027"/><polyline points="-0.14812843818116583,0.3008284496537027
-0.14812843818116583,0.2708284496537027"/><polyline points="-2.0492942466172948e-2,0.3008284496537027
-2.0492942466172948e-2,0.2708284496537027"/><polyline points="0.10714255324881983,0.3008284496537027
0.10714255324881983,0.2708284496537027"/><polyline points="0.2347780489638127,0.3008284496537027
0.2347780489638127,0.2708284496537027"/><polyline points="0.36241354467880527,0.3008284496537027
0.36241354467880527,0.2708284496537027"/><polyline points="0.49004904039379826,0.3008284496537027
0.49004904039379826,0.2708284496537027"/><polyline points="0.6176845361087908,0.3008284496537027
0.6176845361087908,0.2708284496537027"/><polyline points="0.7453200318237838,0.3008284496537027
0.7453200318237838,0.2708284496537027"/></g><g stroke-opacity="0.5" fill-opacity="0.5" stroke="#570d66" stroke-width="0.0" fill="#570d66"><rect height="3.805464647233414e-3" width="1.4039904528649207" x="-0.6586704210411369" y="0.27250932338838574"/></g><g stroke-opacity="0.4" fill-opacity="1.0" stroke="#0a865a" stroke-width="3.0e-3" fill="#0ea194"><circle cy="0.18670161351701042" r="1.5e-2" cx="-0.5310349253261442"/><circle cy="0.19048281832711778" r="1.5e-2" cx="-0.5182713757546449"/><circle cy="0.1454264023137225" r="1.5e-2" cx="-0.5055078261831456"/><circle cy="0.249330809041784" r="1.5e-2" cx="-0.4927442766116463"/><circle cy="0.23065111500114166" r="1.5e-2" cx="-0.479980727040147"/><circle cy="0.21179779663596926" r="1.5e-2" cx="-0.4672171774686477"/><circle cy="0.1880936524849684" r="1.5e-2" cx="-0.4544536278971485"/><circle cy="0.1777360339447447" r="1.5e-2" cx="-0.44169007832564916"/><circle cy="0.24992056092548903" r="1.5e-2" cx="-0.4289265287541499"/><circle cy="0.22452545855849004" r="1.5e-2" cx="-0.4161629791826506"/><circle cy="0.20170608493797093" r="1.5e-2" cx="-0.4033994296111514"/><circle cy="0.18094470659867573" r="1.5e-2" cx="-0.3906358800396521"/><circle cy="0.24984901819012106" r="1.5e-2" cx="-0.37787233046815283"/><circle cy="0.24205533145597075" r="1.5e-2" cx="-0.36510878089665355"/><circle cy="0.2184115990562448" r="1.5e-2" cx="-0.3523452313251543"/><circle cy="0.19433594641905777" r="1.5e-2" cx="-0.33958168175365494"/><circle cy="0.17725759190197127" r="1.5e-2" cx="-0.3268181321821556"/><circle cy="0.24996508486186164" r="1.5e-2" cx="-0.31405458261065644"/><circle cy="0.22758676459395694" r="1.5e-2" cx="-0.3012910330391571"/><circle cy="0.21189045970012943" r="1.5e-2" cx="-0.2885274834676579"/><circle cy="0.1834065568155872" r="1.5e-2" cx="-0.2757639338961586"/><circle cy="0.17373649060050234" r="1.5e-2" cx="-0.2630003843246593"/><circle cy="0.24973323692822896" r="1.5e-2" cx="-0.25023683475316005"/><circle cy="0.21730477966359696" r="1.5e-2" cx="-0.23747328518166078"/><circle cy="0.19092120785447908" r="1.5e-2" cx="-0.2247097356101615"/><circle cy="0.17491618464114467" r="1.5e-2" cx="-0.2119461860386621"/><circle cy="0.250174100007611" r="1.5e-2" cx="-0.19918263646716283"/><circle cy="0.2350875256868864" r="1.5e-2" cx="-0.18641908689566367"/><circle cy="0.2126028426820915" r="1.5e-2" cx="-0.17365553732416428"/><circle cy="0.18886796940406425" r="1.5e-2" cx="-0.160891987752665"/><circle cy="0.17035381307557657" r="1.5e-2" cx="-0.14812843818116583"/><circle cy="0.24995148032574782" r="1.5e-2" cx="-0.13536488860966644"/><circle cy="0.22578373544409774" r="1.5e-2" cx="-0.12260133903816728"/><circle cy="0.2068031242864754" r="1.5e-2" cx="-0.109837789466668"/><circle cy="0.18188303904406733" r="1.5e-2" cx="-9.707423989516861e-2"/><circle cy="0.1768413692061801" r="1.5e-2" cx="-8.431069032366945e-2"/><circle cy="0.2500874305502702" r="1.5e-2" cx="-7.154714075217017e-2"/><circle cy="0.22465122916508107" r="1.5e-2" cx="-5.878359118067078e-2"/><circle cy="0.20191795418220565" r="1.5e-2" cx="-4.60200416091715e-2"/><circle cy="0.18195049090493953" r="1.5e-2" cx="-3.3256492037672225e-2"/><circle cy="0.2502123449273157" r="1.5e-2" cx="-2.0492942466172948e-2"/><circle cy="0.2422454144151001" r="1.5e-2" cx="-7.72939289467367e-3"/><circle cy="0.21832645178476295" r="1.5e-2" cx="5.034156676825496e-3"/><circle cy="0.19470774031509247" r="1.5e-2" cx="1.7797706248324774e-2"/><circle cy="0.17844489687190807" r="1.5e-2" cx="3.0561255819824162e-2"/><circle cy="0.2499280767181673" r="1.5e-2" cx="4.332480539132333e-2"/><circle cy="0.23079990866884847" r="1.5e-2" cx="5.6088354962822606e-2"/><circle cy="0.21196276352842686" r="1.5e-2" cx="6.8851904534322e-2"/><circle cy="0.18767229241190347" r="1.5e-2" cx="8.161545410582116e-2"/><circle cy="0.1766171322018419" r="1.5e-2" cx="9.437900367732066e-2"/><circle cy="0.2499121889032651" r="1.5e-2" cx="0.10714255324881983"/><circle cy="0.22416898165766042" r="1.5e-2" cx="0.119906102820319"/><circle cy="0.20030110739021234" r="1.5e-2" cx="0.1326696523918185"/><circle cy="0.18196009970317378" r="1.5e-2" cx="0.14543320196331766"/><circle cy="0.25001883705000383" r="1.5e-2" cx="0.15819675153481683"/><circle cy="0.2381603432529112" r="1.5e-2" cx="0.1709603011063161"/><circle cy="0.21824206560621057" r="1.5e-2" cx="0.1837238506778155"/><circle cy="0.1910435535428876" r="1.5e-2" cx="0.19648740024931466"/><circle cy="0.177362147043154" r="1.5e-2" cx="0.20925094982081416"/><circle cy="0.24989306644341275" r="1.5e-2" cx="0.22201449939231332"/><circle cy="0.23018989268589696" r="1.5e-2" cx="0.2347780489638127"/><circle cy="0.21117921835756148" r="1.5e-2" cx="0.24754159853531177"/><circle cy="0.1859165461602862" r="1.5e-2" cx="0.26030514810681127"/><circle cy="0.17545998553923436" r="1.5e-2" cx="0.2730686976783103"/><circle cy="0.2500418601111196" r="1.5e-2" cx="0.2858322472498098"/><circle cy="0.2231003120481011" r="1.5e-2" cx="0.2985957968213091"/><circle cy="0.20011368825633613" r="1.5e-2" cx="0.3113593463928084"/><circle cy="0.17949596620747393" r="1.5e-2" cx="0.32412289596430743"/><circle cy="0.24901752416470052" r="1.5e-2" cx="0.33688644553580693"/><circle cy="0.23665851662988058" r="1.5e-2" cx="0.349649995107306"/><circle cy="0.2173407413045133" r="1.5e-2" cx="0.36241354467880527"/><circle cy="0.19217263490372177" r="1.5e-2" cx="0.37517709425030477"/><circle cy="0.17503253672273383" r="1.5e-2" cx="0.38794064382180404"/><circle cy="0.2500780120252683" r="1.5e-2" cx="0.4007041933933033"/><circle cy="0.2292900905700586" r="1.5e-2" cx="0.4134677429648024"/><circle cy="0.21027979678818787" r="1.5e-2" cx="0.4262312925363019"/><circle cy="0.18670161351701042" r="1.5e-2" cx="0.43899484210780093"/><circle cy="0.17688313418068347" r="1.5e-2" cx="0.45175839167930043"/><circle cy="0.24987660780881343" r="1.5e-2" cx="0.4645219412507995"/><circle cy="0.22303913920389679" r="1.5e-2" cx="0.477285490822299"/><circle cy="0.19972077403150928" r="1.5e-2" cx="0.49004904039379804"/><circle cy="0.17568346145064317" r="1.5e-2" cx="0.5028125899652975"/><circle cy="0.2473973475911409" r="1.5e-2" cx="0.5155761395367966"/><circle cy="0.23580523631935457" r="1.5e-2" cx="0.5283396891082961"/><circle cy="0.21670865362660785" r="1.5e-2" cx="0.5411032386797952"/><circle cy="0.19147185858893373" r="1.5e-2" cx="0.5538667882512947"/><circle cy="0.17786408783012408" r="1.5e-2" cx="0.5666303378227937"/><circle cy="0.24986452545855847" r="1.5e-2" cx="0.579393887394293"/><circle cy="0.229763775782023" r="1.5e-2" cx="0.5921574369657925"/><circle cy="0.20978984321485655" r="1.5e-2" cx="0.6049209865372918"/><circle cy="0.18534154045208923" r="1.5e-2" cx="0.6176845361087908"/><circle cy="0.17764184869472566" r="1.5e-2" cx="0.6304480856802903"/><circle cy="0.2500695448664282" r="1.5e-2" cx="0.6432116352517894"/><circle cy="0.22244120557120023" r="1.5e-2" cx="0.6559751848232886"/><circle cy="0.1997263870918639" r="1.5e-2" cx="0.6687387343947881"/><circle cy="0.18018066443412745" r="1.5e-2" cx="0.6815022839662874"/><circle cy="0.2500548938275364" r="1.5e-2" cx="0.6942658335377865"/><circle cy="0.23571713981277115" r="1.5e-2" cx="0.707029383109286"/><circle cy="0.2160386064388462" r="1.5e-2" cx="0.719792932680785"/><circle cy="0.1915607161884466" r="1.5e-2" cx="0.7325564822522845"/></g><g stroke-opacity="0.4" fill-opacity="1.0" stroke="#0a865a" stroke-width="3.0e-3" fill="#0a865a"><rect height="3.0000000000000027e-2" width="3.0000000000000027e-2" x="-0.5460349253261442" y="0.14954134637339223"/><rect height="3.0000000000000027e-2" width="3.0000000000000027e-2" x="-0.5332713757546449" y="0.17922787122307632"/><rect height="3.0e-2" width="3.0000000000000027e-2" x="-0.5205078261831456" y="8.289243854174595e-2"/><rect height="3.0000000000000027e-2" width="3.0000000000000027e-2" x="-0.5077442766116463" y="-0.4232487251693432"/><rect height="3.0000000000000027e-2" width="3.0000000000000027e-2" x="-0.494980727040147" y="0.14466416774488167"/><rect height="3.0000000000000027e-2" width="3.0000000000000027e-2" x="-0.48221717746864773" y="0.17614544485881728"/><rect height="3.0e-2" width="3.0000000000000027e-2" x="-0.4694536278971485" y="7.984958900981816e-2"/><rect height="3.0e-2" width="3.0000000000000027e-2" x="-0.4566900783256492" y="5.5250304437171785e-2"/><rect height="3.0000000000000027e-2" width="3.0000000000000027e-2" x="-0.4439265287541499" y="-0.3853354517086537"/><rect height="3.0000000000000027e-2" width="3.0000000000000027e-2" x="-0.4311629791826506" y="0.1704935687647462"/><rect height="3.0000000000000027e-2" width="3.0000000000000027e-2" x="-0.4183994296111514" y="0.1969116751655377"/><rect height="3.0000000000000013e-2" width="3.0000000000000027e-2" x="-0.4056358800396521" y="0.1128375447142096"/><rect height="3.0000000000000027e-2" width="3.0000000000000027e-2" x="-0.39287233046815284" y="0.14124334043686737"/><rect height="3.0000000000000027e-2" width="3.0000000000000027e-2" x="-0.38010878089665356" y="0.17041726919856914"/><rect height="3.0000000000000027e-2" width="3.0000000000000027e-2" x="-0.3673452313251543" y="0.19306977319430702"/><rect height="3.0000000000000013e-2" width="3.0000000000000027e-2" x="-0.35458168175365495" y="0.10024259837126111"/><rect height="3.0e-2" width="3.0000000000000027e-2" x="-0.3418181321821556" y="8.317575538473256e-2"/><rect height="3.0000000000000027e-2" width="3.0000000000000027e-2" x="-0.32905458261065645" y="-0.3718529758733542"/><rect height="3.0000000000000027e-2" width="3.0000000000000027e-2" x="-0.3162910330391571" y="0.18720079534211126"/><rect height="3.0000000000000013e-2" width="3.0000000000000027e-2" x="-0.3035274834676579" y="9.720812086155724e-2"/><rect height="3.0e-2" width="3.0000000000000027e-2" x="-0.2907639338961586" y="8.219841692670678e-2"/><rect height="3.0000000000000027e-2" width="3.0000000000000027e-2" x="-0.2780003843246593" y="-0.3849447256259989"/><rect height="3.0000000000000027e-2" width="3.0000000000000027e-2" x="-0.26523683475316007" y="0.18312485729507572"/><rect height="3.0e-2" width="3.0000000000000027e-2" x="-0.2524732851816608" y="9.013604536113863e-2"/><rect height="3.0e-2" width="3.0000000000000027e-2" x="-0.2397097356101615" y="7.699415861176652e-2"/><rect height="3.0000000000000027e-2" width="3.0000000000000027e-2" x="-0.22694618603866212" y="-0.3798501598295152"/><rect height="3.0000000000000027e-2" width="3.0000000000000027e-2" x="-0.21418263646716285" y="0.18088848085851283"/><rect height="3.0e-2" width="3.0000000000000027e-2" x="-0.20141908689566368" y="8.33264517847629e-2"/><rect height="3.0000000000000027e-2" width="3.0000000000000027e-2" x="-0.1886555373241643" y="-0.38889108760179625"/><rect height="3.0000000000000027e-2" width="3.0000000000000027e-2" x="-0.175891987752665" y="0.15078735063551257"/><rect height="3.0000000000000027e-2" width="3.0000000000000027e-2" x="-0.16312843818116585" y="0.17911865438770075"/><rect height="3.0e-2" width="3.0000000000000013e-2" x="-0.15036488860966646" y="8.682700357713675e-2"/><rect height="3.0e-2" width="3.0000000000000013e-2" x="-0.1376013390381673" y="6.179751122612066e-2"/><rect height="3.0000000000000027e-2" width="3.0e-2" x="-0.124837789466668" y="-0.3865061077707589"/><rect height="3.0000000000000027e-2" width="3.0e-2" x="-0.11207423989516861" y="0.17517210213867113"/><rect height="3.0e-2" width="3.0e-2" x="-9.931069032366945e-2" y="7.698540604307792e-2"/><rect height="3.0000000000000027e-2" width="3.0e-2" x="-8.654714075217017e-2" y="-0.3980425641220793"/><rect height="3.0000000000000027e-2" width="3.0e-2" x="-7.378359118067078e-2" y="0.14428133800137"/><rect height="3.0000000000000027e-2" width="3.0e-2" x="-6.10200416091715e-2" y="0.17380280082198035"/><rect height="3.0e-2" width="3.0e-2" x="-4.8256492037672225e-2" y="7.893646776771442e-2"/><rect height="3.0000000000000027e-2" width="3.0e-2" x="-3.549294246617295e-2" y="-0.40357266534743896"/><rect height="3.0000000000000027e-2" width="3.0e-2" x="-2.272939289467367e-2" y="0.1405543610624857"/><rect height="3.0000000000000027e-2" width="3.0e-2" x="-9.965843323174503e-3" y="0.17164253367836213"/><rect height="3.0000000000000027e-2" width="3.0e-2" x="2.7977062483247744e-3" y="0.19400667859045595"/><rect height="3.0000000000000013e-2" width="3.0e-2" x="1.5561255819824163e-2" y="0.10470498135322322"/><rect height="3.0e-2" width="3.0e-2" x="2.832480539132333e-2" y="8.669048253291724e-2"/><rect height="3.0000000000000027e-2" width="3.0e-2" x="4.108835496282261e-2" y="-0.39664367531775635"/><rect height="3.0000000000000027e-2" width="3.0e-2" x="5.3851904534321995e-2" y="0.18755203972905093"/><rect height="3.0000000000000013e-2" width="3.0e-2" x="6.661545410582116e-2" y="9.804827231905018e-2"/><rect height="3.0e-2" width="3.0e-2" x="7.937900367732066e-2" y="6.858855316234115e-2"/><rect height="3.0000000000000027e-2" width="3.0e-2" x="9.214255324881983e-2" y="-0.4622587335413655"/><rect height="3.0000000000000027e-2" width="3.0000000000000013e-2" x="0.104906102820319" y="0.16875237841540452"/><rect height="3.0e-2" width="3.0000000000000013e-2" x="0.1176696523918185" y="8.222277190044909e-2"/><rect height="3.0000000000000027e-2" width="3.0000000000000027e-2" x="0.13043320196331765" y="-0.4842589808965675"/><rect height="3.0000000000000027e-2" width="3.0000000000000027e-2" x="0.1431967515348168" y="0.14177191947636808"/><rect height="3.0000000000000027e-2" width="3.0000000000000027e-2" x="0.1559603011063161" y="0.18362289748078242"/><rect height="3.0e-2" width="3.0000000000000027e-2" x="0.16872385067781548" y="8.893123525382453e-2"/><rect height="3.0e-2" width="3.0000000000000027e-2" x="0.18148740024931465" y="6.601406119187149e-2"/><rect height="3.0000000000000027e-2" width="3.0000000000000027e-2" x="0.19425094982081414" y="-0.38397223913539846"/><rect height="3.0000000000000027e-2" width="3.0000000000000027e-2" x="0.2070144993923133" y="0.1787702640992465"/><rect height="3.0e-2" width="3.0000000000000027e-2" x="0.2197780489638127" y="8.465646167897102e-2"/><rect height="3.0e-2" width="3.0000000000000027e-2" x="0.23254159853531176" y="6.329182205647312e-2"/><rect height="3.0000000000000027e-2" width="3.0000000000000027e-2" x="0.24530514810681125" y="-0.393128187076642"/><rect height="3.0000000000000027e-2" width="3.0000000000000027e-2" x="0.2580686976783103" y="0.17394988203059597"/><rect height="3.0e-2" width="3.0000000000000027e-2" x="0.2708322472498098" y="7.975055179237385e-2"/><rect height="3.0000000000000027e-2" width="3.0000000000000027e-2" x="0.2835957968213091" y="-0.3981369396453307"/><rect height="3.0000000000000027e-2" width="3.0000000000000027e-2" x="0.29635934639280836" y="0.14547244843595403"/><rect height="3.0000000000000027e-2" width="3.0000000000000027e-2" x="0.3091228959643074" y="0.17454629347743356"/><rect height="3.0e-2" width="3.0000000000000027e-2" x="0.3218864455358069" y="7.823502549661322e-2"/><rect height="3.0e-2" width="3.0000000000000027e-2" x="0.334649995107306" y="5.7637377273765125e-2"/><rect height="3.0000000000000027e-2" width="3.0000000000000027e-2" x="0.34741354467880525" y="-0.3918450795342112"/><rect height="3.0000000000000027e-2" width="3.0000000000000027e-2" x="0.36017709425030475" y="0.17022014612984243"/><rect height="3.0000000000000027e-2" width="3.0000000000000027e-2" x="0.37294064382180403" y="0.19503681787046195"/><rect height="3.0000000000000013e-2" width="3.0000000000000027e-2" x="0.3857041933933033" y="0.10623087754014766"/><rect height="3.0e-2" width="3.0000000000000027e-2" x="0.39846774296480236" y="8.540452089200097e-2"/><rect height="3.0000000000000027e-2" width="3.0000000000000027e-2" x="0.41123129253630186" y="-0.392459947484588"/><rect height="3.0000000000000027e-2" width="3.0000000000000027e-2" x="0.4239948421078009" y="0.18847743359464186"/><rect height="3.0000000000000013e-2" width="3.0000000000000027e-2" x="0.4367583916793004" y="0.10084576451784762"/><rect height="3.0e-2" width="3.0000000000000027e-2" x="0.4495219412507995" y="8.036913007078163e-2"/><rect height="3.0000000000000027e-2" width="3.0000000000000027e-2" x="0.462285490822299" y="-0.38444516325443334"/><rect height="3.0000000000000027e-2" width="3.0000000000000027e-2" x="0.475049040393798" y="0.18335299490067736"/><rect height="3.0e-2" width="3.0000000000000027e-2" x="0.4878125899652975" y="8.634922749067665e-2"/><rect height="3.0000000000000027e-2" width="3.0000000000000027e-2" x="0.5005761395367966" y="-0.39124952431691906"/><rect height="3.0000000000000027e-2" width="3.0000000000000027e-2" x="0.5133396891082961" y="0.15648118197731947"/><rect height="3.0000000000000027e-2" width="3.0000000000000027e-2" x="0.5261032386797951" y="0.1861775058984702"/><rect height="3.0e-2" width="3.0000000000000027e-2" x="0.5388667882512946" y="8.665147652028317e-2"/><rect height="3.0e-2" width="3.0000000000000027e-2" x="0.5516303378227937" y="6.585689550194075e-2"/><rect height="3.0000000000000027e-2" width="3.0000000000000027e-2" x="0.564393887394293" y="-0.3824510046426669"/><rect height="3.0000000000000027e-2" width="3.0000000000000027e-2" x="0.5771574369657925" y="0.18018256716645104"/><rect height="3.0e-2" width="3.0000000000000027e-2" x="0.5899209865372917" y="8.575157926782868e-2"/><rect height="3.0000000000000027e-2" width="3.0000000000000027e-2" x="0.6026845361087908" y="-0.3927352728518151"/><rect height="3.0000000000000027e-2" width="3.0000000000000027e-2" x="0.6154480856802903" y="0.14748953497222012"/><rect height="3.0000000000000027e-2" width="3.0000000000000027e-2" x="0.6282116352517894" y="0.1799725055179237"/><rect height="3.0e-2" width="3.0000000000000027e-2" x="0.6409751848232886" y="8.381174366390133e-2"/><rect height="3.0e-2" width="3.0000000000000027e-2" x="0.6537387343947881" y="6.079163178324078e-2"/><rect height="3.0000000000000027e-2" width="3.0000000000000027e-2" x="0.6665022839662874" y="-0.38609778141411055"/><rect height="3.0000000000000027e-2" width="3.0000000000000027e-2" x="0.6792658335377865" y="0.17237280234416624"/><rect height="3.0e-2" width="3.0000000000000027e-2" x="0.692029383109286" y="7.833349189436035e-2"/><rect height="3.0000000000000027e-2" width="3.0000000000000027e-2" x="0.704792932680785" y="-0.3998522528350712"/><rect height="3.0000000000000027e-2" width="3.0000000000000027e-2" x="0.7175564822522845" y="0.14445515259913239"/></g><g stroke-opacity="1.0" fill-opacity="1.0" stroke="#0ea194" stroke-width="4.0e-3" fill="#ffffff"><rect height="7.778369738945123e-2" width="0.1462958051885248" x="-7.370949877540833e-2" y="0.4054722581627217"/></g><g fill-opacity="1.0" font-size="1.6e-2" stroke="none" stroke-width="0.0" fill="#808080" text-anchor="start"><text x="-5.4989626070542696e-2" y="0.46164091635588705">Dynamic</text></g><g stroke-opacity="0.4" fill-opacity="1.0" stroke="#0a865a" stroke-width="3.0e-3" fill="#0a865a"><rect height="2.0000000000000018e-2" width="2.0000000000000004e-2" x="3.4225699265245e-2" y="0.44661770302153886"/></g><g fill-opacity="1.0" font-size="1.6e-2" stroke="none" stroke-width="0.0" fill="#808080" text-anchor="start"><text x="-5.4989626070542696e-2" y="0.43355658725930435">Fixed</text></g><g stroke-opacity="0.4" fill-opacity="1.0" stroke="#0a865a" stroke-width="3.0e-3" fill="#0ea194"><circle cy="0.4285333739249563" r="1.0000000000000002e-2" cx="4.4225699265245e-2"/></g></svg>