
<svg xmlns="http://www.w3.org/2000/svg" height="300.0" viewBox="-0.92 -0.5487688397601548 1.7228127197162635 1.0950188397601548" width="450.0" xmlns:xlink="http://www.w3.org/1999/xlink">
  <g stroke-opacity="0.0" fill-opacity="3.0e-2" stroke="#000000" stroke-width="0.0" fill="#666666">
    <rect height="0.8964697558894924" width="1.4061840851210101" x="-0.6608713654047467" y="-0.49551765122055236"/>
  </g>
  <g stroke-opacity="0.3" stroke="#a8e5ee" stroke-width="5.0e-3" fill="none">
    <polyline points="-0.6655586456884833,0.40095210466894005
0.75,0.40095210466894005"/>
  </g>
  <g stroke-opacity="0.3" stroke="#a8e5ee" stroke-width="5.0e-3" fill="none">
    <polyline points="-0.6655586456884833,0.30134435401455195
0.75,0.30134435401455195"/>
  </g>
  <g stroke-opacity="0.3" stroke="#a8e5ee" stroke-width="5.0e-3" fill="none">
    <polyline points="-0.6655586456884833,0.2017366033601639
0.75,0.2017366033601639"/>
  </g>
  <g stroke-opacity="0.3" stroke="#a8e5ee" stroke-width="5.0e-3" fill="none">
    <polyline points="-0.6655586456884833,0.10212885270577587
0.75,0.10212885270577587"/>
  </g>
  <g stroke-opacity="0.3" stroke="#a8e5ee" stroke-width="5.0e-3" fill="none">
    <polyline points="-0.6655586456884833,2.5211020513878357e-3
0.75,2.5211020513878357e-3"/>
  </g>
  <g stroke-opacity="0.3" stroke="#a8e5ee" stroke-width="5.0e-3" fill="none">
    <polyline points="-0.6655586456884833,-9.70866486030002e-2
0.75,-9.70866486030002e-2"/>
  </g>
  <g stroke-opacity="0.3" stroke="#a8e5ee" stroke-width="5.0e-3" fill="none">
    <polyline points="-0.6655586456884833,-0.19669439925738819
0.75,-0.19669439925738819"/>
  </g>
  <g stroke-opacity="0.3" stroke="#a8e5ee" stroke-width="5.0e-3" fill="none">
    <polyline points="-0.6655586456884833,-0.2963021499117763
0.75,-0.2963021499117763"/>
  </g>
  <g stroke-opacity="0.3" stroke="#a8e5ee" stroke-width="5.0e-3" fill="none">
    <polyline points="-0.6655586456884833,-0.39590990056616426
0.75,-0.39590990056616426"/>
  </g>
  <g stroke-opacity="0.3" stroke="#a8e5ee" stroke-width="5.0e-3" fill="none">
    <polyline points="-0.6655586456884833,-0.49551765122055236
0.75,-0.49551765122055236"/>
  </g>
  <g fill-opacity="1.0" font-size="5.0e-2" stroke="none" stroke-width="0.0" fill="#666666" text-anchor="end">
    <text x="-0.75" y="0.4139509161293376">0
    </text>
  </g>
  <g fill-opacity="1.0" font-size="5.0e-2" stroke="none" stroke-width="0.0" fill="#666666" text-anchor="end">
    <text x="-0.75" y="0.31434316547494967">10,000
    </text>
  </g>
  <g fill-opacity="1.0" font-size="5.0e-2" stroke="none" stroke-width="0.0" fill="#666666" text-anchor="end">
    <text x="-0.75" y="0.21473541482056158">20,000
    </text>
  </g>
  <g fill-opacity="1.0" font-size="5.0e-2" stroke="none" stroke-width="0.0" fill="#666666" text-anchor="end">
    <text x="-0.75" y="0.11512766416617354">30,000
    </text>
  </g>
  <g fill-opacity="1.0" font-size="5.0e-2" stroke="none" stroke-width="0.0" fill="#666666" text-anchor="end">
    <text x="-0.75" y="1.5519913511785444e-2">40,000
    </text>
  </g>
  <g fill-opacity="1.0" font-size="5.0e-2" stroke="none" stroke-width="0.0" fill="#666666" text-anchor="end">
    <text x="-0.75" y="-8.40878371426026e-2">50,000
    </text>
  </g>
  <g fill-opacity="1.0" font-size="5.0e-2" stroke="none" stroke-width="0.0" fill="#666666" text-anchor="end">
    <text x="-0.75" y="-0.18369558779699047">60,000
    </text>
  </g>
  <g fill-opacity="1.0" font-size="5.0e-2" stroke="none" stroke-width="0.0" fill="#666666" text-anchor="end">
    <text x="-0.75" y="-0.28330333845137856">70,000
    </text>
  </g>
  <g fill-opacity="1.0" font-size="5.0e-2" stroke="none" stroke-width="0.0" fill="#666666" text-anchor="end">
    <text x="-0.75" y="-0.38291108910576666">80,000
    </text>
  </g>
  <g fill-opacity="1.0" font-size="5.0e-2" stroke="none" stroke-width="0.0" fill="#666666" text-anchor="end">
    <text x="-0.75" y="-0.48251883976015475">90,000
    </text>
  </g>
  <g stroke-opacity="0.4" fill-opacity="1.0" stroke="#2c429d" stroke-width="5.0e-3" fill="#5f0391">
    <g transform="rotate(-90.0, -0.7194623689514554, 0.40095210466894005)">
      <polyline points="-0.7194623689514554,0.41595210466894006
-0.7194623689514554,0.38595210466894003"/>
    </g>
    <g transform="rotate(-90.0, -0.7194623689514554, 0.30134435401455195)">
      <polyline points="-0.7194623689514554,0.31634435401455197
-0.7194623689514554,0.28634435401455194"/>
    </g>
    <g transform="rotate(-90.0, -0.7194623689514554, 0.2017366033601639)">
      <polyline points="-0.7194623689514554,0.21673660336016393
-0.7194623689514554,0.1867366033601639"/>
    </g>
    <g transform="rotate(-90.0, -0.7194623689514554, 0.10212885270577587)">
      <polyline points="-0.7194623689514554,0.11712885270577587
-0.7194623689514554,8.712885270577587e-2"/>
    </g>
    <g transform="rotate(-90.0, -0.7194623689514554, 2.5211020513878357e-3)">
      <polyline points="-0.7194623689514554,1.7521102051387835e-2
-0.7194623689514554,-1.2478897948612164e-2"/>
    </g>
    <g transform="rotate(-90.0, -0.7194623689514554, -9.70866486030002e-2)">
      <polyline points="-0.7194623689514554,-8.20866486030002e-2
-0.7194623689514554,-0.1120866486030002"/>
    </g>
    <g transform="rotate(-90.0, -0.7194623689514554, -0.19669439925738819)">
      <polyline points="-0.7194623689514554,-0.18169439925738817
-0.7194623689514554,-0.2116943992573882"/>
    </g>
    <g transform="rotate(-90.0, -0.7194623689514554, -0.2963021499117763)">
      <polyline points="-0.7194623689514554,-0.28130214991177627
-0.7194623689514554,-0.3113021499117763"/>
    </g>
    <g transform="rotate(-90.0, -0.7194623689514554, -0.39590990056616426)">
      <polyline points="-0.7194623689514554,-0.38090990056616425
-0.7194623689514554,-0.4109099005661643"/>
    </g>
    <g transform="rotate(-90.0, -0.7194623689514554, -0.49551765122055236)">
      <polyline points="-0.7194623689514554,-0.48051765122055234
-0.7194623689514554,-0.5105176512205524"/>
    </g>
  </g>
  <g stroke-opacity="0.0" fill-opacity="0.5" stroke="#666666" stroke-width="0.0" fill="#5f0391">
    <rect height="0.8964697558894924" width="4.687280283736772e-3" x="-0.710087808383982" y="-0.49551765122055236"/>
  </g>
  <g stroke-opacity="0.3" stroke="#a8e5ee" stroke-width="5.0e-3" fill="none">
    <polyline points="-0.6608713654047467,0.40543445344838747
-0.6608713654047467,-0.5"/>
  </g>
  <g stroke-opacity="0.3" stroke="#a8e5ee" stroke-width="5.0e-3" fill="none">
    <polyline points="-0.5330364485755639,0.40543445344838747
-0.5330364485755639,-0.5"/>
  </g>
  <g stroke-opacity="0.3" stroke="#a8e5ee" stroke-width="5.0e-3" fill="none">
    <polyline points="-0.4052015317463812,0.40543445344838747
-0.4052015317463812,-0.5"/>
  </g>
  <g stroke-opacity="0.3" stroke="#a8e5ee" stroke-width="5.0e-3" fill="none">
    <polyline points="-0.2773666149171985,0.40543445344838747
-0.2773666149171985,-0.5"/>
  </g>
  <g stroke-opacity="0.3" stroke="#a8e5ee" stroke-width="5.0e-3" fill="none">
    <polyline points="-0.1495316980880157,0.40543445344838747
-0.1495316980880157,-0.5"/>
  </g>
  <g stroke-opacity="0.3" stroke="#a8e5ee" stroke-width="5.0e-3" fill="none">
    <polyline points="-2.169678125883301e-2,0.40543445344838747
-2.169678125883301e-2,-0.5"/>
  </g>
  <g stroke-opacity="0.3" stroke="#a8e5ee" stroke-width="5.0e-3" fill="none">
    <polyline points="0.10613813557034968,0.40543445344838747
0.10613813557034968,-0.5"/>
  </g>
  <g stroke-opacity="0.3" stroke="#a8e5ee" stroke-width="5.0e-3" fill="none">
    <polyline points="0.23397305239953248,0.40543445344838747
0.23397305239953248,-0.5"/>
  </g>
  <g stroke-opacity="0.3" stroke="#a8e5ee" stroke-width="5.0e-3" fill="none">
    <polyline points="0.36180796922871505,0.40543445344838747
0.36180796922871505,-0.5"/>
  </g>
  <g stroke-opacity="0.3" stroke="#a8e5ee" stroke-width="5.0e-3" fill="none">
    <polyline points="0.4896428860578981,0.40543445344838747
0.4896428860578981,-0.5"/>
  </g>
  <g stroke-opacity="0.3" stroke="#a8e5ee" stroke-width="5.0e-3" fill="none">
    <polyline points="0.6174778028870804,0.40543445344838747
0.6174778028870804,-0.5"/>
  </g>
  <g stroke-opacity="0.3" stroke="#a8e5ee" stroke-width="5.0e-3" fill="none">
    <polyline points="0.7453127197162634,0.40543445344838747
0.7453127197162634,-0.5"/>
  </g>
  <g fill-opacity="1.0" font-size="5.0e-2" stroke="none" stroke-width="0.0" fill="#666666" text-anchor="middle">
    <text x="-0.6608713654047467" y="0.5">-10
    </text>
  </g>
  <g fill-opacity="1.0" font-size="5.0e-2" stroke="none" stroke-width="0.0" fill="#666666" text-anchor="middle">
    <text x="-0.5330364485755639" y="0.5">0
    </text>
  </g>
  <g fill-opacity="1.0" font-size="5.0e-2" stroke="none" stroke-width="0.0" fill="#666666" text-anchor="middle">
    <text x="-0.4052015317463812" y="0.5">10
    </text>
  </g>
  <g fill-opacity="1.0" font-size="5.0e-2" stroke="none" stroke-width="0.0" fill="#666666" text-anchor="middle">
    <text x="-0.2773666149171985" y="0.5">20
    </text>
  </g>
  <g fill-opacity="1.0" font-size="5.0e-2" stroke="none" stroke-width="0.0" fill="#666666" text-anchor="middle">
    <text x="-0.1495316980880157" y="0.5">30
    </text>
  </g>
  <g fill-opacity="1.0" font-size="5.0e-2" stroke="none" stroke-width="0.0" fill="#666666" text-anchor="middle">
    <text x="-2.169678125883301e-2" y="0.5">40
    </text>
  </g>
  <g fill-opacity="1.0" font-size="5.0e-2" stroke="none" stroke-width="0.0" fill="#666666" text-anchor="middle">
    <text x="0.10613813557034968" y="0.5">50
    </text>
  </g>
  <g fill-opacity="1.0" font-size="5.0e-2" stroke="none" stroke-width="0.0" fill="#666666" text-anchor="middle">
    <text x="0.23397305239953248" y="0.5">60
    </text>
  </g>
  <g fill-opacity="1.0" font-size="5.0e-2" stroke="none" stroke-width="0.0" fill="#666666" text-anchor="middle">
    <text x="0.36180796922871505" y="0.5">70
    </text>
  </g>
  <g fill-opacity="1.0" font-size="5.0e-2" stroke="none" stroke-width="0.0" fill="#666666" text-anchor="middle">
    <text x="0.4896428860578981" y="0.5">80
    </text>
  </g>
  <g fill-opacity="1.0" font-size="5.0e-2" stroke="none" stroke-width="0.0" fill="#666666" text-anchor="middle">
    <text x="0.6174778028870804" y="0.5">90
    </text>
  </g>
  <g fill-opacity="1.0" font-size="5.0e-2" stroke="none" stroke-width="0.0" fill="#666666" text-anchor="middle">
    <text x="0.7453127197162634" y="0.5">100
    </text>
  </g>
  <g stroke-opacity="0.4" fill-opacity="1.0" stroke="#2c429d" stroke-width="5.0e-3" fill="#5f0391">
    <polyline points="-0.6608713654047467,0.43992065794425506
-0.6608713654047467,0.40992065794425503"/>
    <polyline points="-0.5330364485755639,0.43992065794425506
-0.5330364485755639,0.40992065794425503"/>
    <polyline points="-0.4052015317463812,0.43992065794425506
-0.4052015317463812,0.40992065794425503"/>
    <polyline points="-0.2773666149171985,0.43992065794425506
-0.2773666149171985,0.40992065794425503"/>
    <polyline points="-0.1495316980880157,0.43992065794425506
-0.1495316980880157,0.40992065794425503"/>
    <polyline points="-2.169678125883301e-2,0.43992065794425506
-2.169678125883301e-2,0.40992065794425503"/>
    <polyline points="0.10613813557034968,0.43992065794425506
0.10613813557034968,0.40992065794425503"/>
    <polyline points="0.23397305239953248,0.43992065794425506
0.23397305239953248,0.40992065794425503"/>
    <polyline points="0.36180796922871505,0.43992065794425506
0.36180796922871505,0.40992065794425503"/>
    <polyline points="0.4896428860578981,0.43992065794425506
0.4896428860578981,0.40992065794425503"/>
    <polyline points="0.6174778028870804,0.43992065794425506
0.6174778028870804,0.40992065794425503"/>
    <polyline points="0.7453127197162634,0.43992065794425506
0.7453127197162634,0.40992065794425503"/>
  </g>
  <g stroke-opacity="0.0" fill-opacity="0.5" stroke="#666666" stroke-width="0.0" fill="#5f0391">
    <rect height="4.482348779447476e-3" width="1.4061840851210101" x="-0.6608713654047467" y="0.4114736116059126"/>
  </g>
  <g stroke-opacity="0.5" stroke="#026062" stroke-width="2.0e-2" fill="none">
    <polyline points="-0.5330364485755639,6.124230149126553e-2
-0.5202529568926456,0.3917663177466926
-0.5074694652097274,0.3717684680788137
-0.4946859735268091,0.3653820972240575
-0.4819024818438908,0.355421063178467
-0.46911899016097247,0.3933692455133233
-0.4563354984780543,0.38534223539753865
-0.443552006795136,0.3749398593303487
-0.4307685151122177,0.35892803294195663
-0.41798502342929944,0.3433874309003603
-0.4052015317463812,0.39165059346198233
-0.3924180400634629,0.3802801097446323
-0.37963454838054467,0.35920693464378883
-0.3668510566976264,0.35764090158800055
-0.35406756501470815,0.35686033541077256
-0.3412840733317899,0.39188672359568366
-0.3285005816488715,0.3792659434705695
-0.31571708996595327,0.36743664653215524
-0.302933598283035,0.3467043689971514
-0.29015010660011675,0.39050845114987887
-0.2773666149171985,0.37122755814966013
-0.2645831232342801,0.36658338661849954
-0.251799631551362,0.34833444983661044
-0.2390161398684436,0.35014101568867895
-0.22623264818552535,0.3930754424919931
-0.2134491565026071,0.3723720711262292
-0.20066566481968873,0.3639530447469691
-0.18788217313677058,0.3482325909507913
-0.1750986814538522,0.39024877374392286
-0.16231518977093395,0.36869421430571697
-0.1495316980880157,0.3707870329116161
-0.13674820640509744,0.35595099633349847
-0.12396471472217918,0.31991799214202427
-0.11118122303926103,0.3904747837301577
-9.839773135634267e-2,0.3599609453946925
-8.561423967342452e-2,0.35563623584143067
-7.283074799050615e-2,0.3463488689350659
-6.004725630758789e-2,0.3277788565297174
-4.7263764624669524e-2,0.3900949594553624
-3.448027294175127e-2,0.35756872581187643
-2.169678125883301e-2,0.34323425410140396
-8.913289575914751e-3,0.351231640872144
3.8702021070035064e-3,0.39312825452139005
1.6653693789921764e-2,0.3848203107056598
2.9437185472840022e-2,0.3603705523869334
4.22206771557585e-2,0.35763299273259863
5.500416883867654e-2,0.3444637922539316
6.778766052159502e-2,0.3929646985948156
8.057115220451305e-2,0.3775306967679696
9.335464388743153e-2,0.36877023494101635
0.10613813557034968,0.35133045176079314
0.11892162725326805,0.342354458682974
0.1317051189361862,0.3913378251249276
0.14448861061910467,0.37548164580770804
0.1572721023020227,0.3496913265375746
0.17005559398494108,0.3581559931881846
0.18283908566785922,0.3933758594679667
0.1956225773507776,0.3895974187408437
0.20840606903369596,0.36975539543808855
0.22118956071661422,0.3550805441220799
0.23397305239953248,0.3457329145265693
0.24675654408245062,0.3926467705762769
0.2595400357653692,0.3795846484295633
0.27232352744828736,0.36371432481175087
0.2851070191312055,0.3443070295759517
0.29789051081412365,0.3457557844661195
0.31067400249704225,0.39288110777046636
0.3234574941799604,0.3815206047497319
0.33624098586287876,0.3665088003348096
0.3490244775457967,0.35531159426049785
0.36180796922871505,0.3935442164881228
0.3745914609116334,0.3878802010411122
0.3873749525945518,0.3783090516531331
0.40015844427746994,0.3659960395559909
0.4129419359603881,0.34615092841296546
0.4257254276433067,0.39279468808599866
0.4385089193262248,0.38501755397350557
0.45129241100914297,0.37468595917393066
0.46407590269206134,0.3616980647230047
0.4768593943749797,0.35060345463186704
0.48964288605789785,0.3916796590036233
0.5024263777408162,0.3688022090289764
0.5152098694237344,0.3626432426689642
0.5279933611066525,0.35375813170284215
0.5407768527895711,0.39026759960879653
0.5535603444724893,0.38775935691801827
0.5663438361554074,0.37743314093697866
0.5791273278383255,0.3637337881662287
0.5919108195212441,0.34850031666300013
0.6046943112041623,0.39235197147744016
0.6174778028870804,0.37029389485967634
0.6302612945699988,0.36588947918434084
0.6430447862529172,0.3587692183443132
0.6558282779358353,0.34984802945090415
0.6686117696187537,0.3926237611858757
0.6813952613016718,0.3695181098544797
0.6941787529845902,0.3579647463069281
0.7069622446675086,0.3513704542334559
0.7197457363504267,0.3933590456796563
0.7325292280333451,0.37040178997518514"/>
  </g>
  <g stroke-opacity="0.5" stroke="#0ea194" stroke-width="2.0e-2" fill="none">
    <polyline points="-0.5330364485755639,0.2995102765017527
-0.5202529568926456,0.2668927224724668
-0.5074694652097274,-2.8145474808930815e-2
-0.4946859735268091,0.353058526705346
-0.4819024818438908,0.36248661944183524
-0.46911899016097247,0.30790971999723415
-0.4563354984780543,0.30061030465687955
-0.443552006795136,7.726862080737862e-3
-0.4307685151122177,0.3622123993042837
-0.41798502342929944,0.2964167585896794
-0.4052015317463812,0.3053734476854217
-0.3924180400634629,7.236348693027783e-2
-0.37963454838054467,0.36669544533798576
-0.3668510566976264,0.31350323307833156
-0.35406756501470815,6.966308096693713e-2
-0.3412840733317899,0.33959576226395033
-0.3285005816488715,0.3526537008851364
-0.31571708996595327,0.31227421288610735
-0.302933598283035,0.2622989524631374
-0.29015010660011675,-5.9922000756341465e-2
-0.2773666149171985,0.35031560815402596
-0.2645831232342801,0.29327220166617074
-0.251799631551362,2.388104786636519e-2
-0.2390161398684436,0.3460326940129387
-0.22623264818552535,0.3513342766984182
-0.2134491565026071,0.28436774687487165
-0.20066566481968873,0.2694735393703719
-0.18788217313677058,4.132672782542718e-2
-0.1750986814538522,0.34663071902631754
-0.16231518977093395,0.2715102389695523
-0.1495316980880157,-0.17961856287650602
-0.13674820640509744,0.27047196761983117
-0.12396471472217918,0.3471023816472162
-0.11118122303926103,0.3383548090631977
-9.839773135634267e-2,0.2954647873951253
-8.561423967342452e-2,0.26531435797714753
-7.283074799050615e-2,3.531380634942444e-2
-6.004725630758789e-2,0.3649362728536786
-4.7263764624669524e-2,0.17570846062456813
-3.448027294175127e-2,0.27663922134469787
-2.169678125883301e-2,3.324943571711225e-2
-8.913289575914751e-3,0.3696718842999399
3.8702021070035064e-3,0.31534715183689543
1.6653693789921764e-2,0.31120526234918466
2.9437185472840022e-2,-2.7865477421841423e-2
4.22206771557585e-2,0.21057459986022642
5.500416883867654e-2,0.290139796888242
6.778766052159502e-2,-0.48469897452027766
8.057115220451305e-2,0.15354916261058926
9.335464388743153e-2,0.3405651249717687
0.10613813557034968,0.3039113652782163
0.11892162725326805,0.25056420320164413
0.1317051189361862,4.177083894249489e-2
0.14448861061910467,0.3445206882011054
0.1572721023020227,0.28554835770027787
0.17005559398494108,4.852016051908553e-2
0.18283908566785922,0.34598966346465604
0.1956225773507776,0.3523589017862997
0.20840606903369596,0.2884776025099719
0.22118956071661422,3.7579583853559806e-2
0.23397305239953248,0.26061793221999363
0.24675654408245062,0.2990977410416425
0.2595400357653692,0.1918322461246958
0.27232352744828736,0.31524348009001435
0.2851070191312055,0.32807134472873895
0.29789051081412365,0.3393504283740886
0.31067400249704225,0.3651301095364521
0.3234574941799604,0.3163878735372826
0.33624098586287876,0.3006755676551083
0.3490244775457967,-7.836789194359928e-3
0.36180796922871505,0.3567214423632601
0.3745914609116334,0.28952300577463985
0.3873749525945518,0.295405221960234
0.40015844427746994,8.068924061182514e-2
0.4129419359603881,0.36104661011217487
0.4257254276433067,0.3118415566603649
0.4385089193262248,0.294823472853312
0.45129241100914297,3.3521643778100574e-2
0.46407590269206134,0.36224345700093774
0.4768593943749797,0.26382880798388797
0.48964288605789785,-4.427816524196693e-2
0.5024263777408162,0.34497376401573193
0.5152098694237344,0.34929636188467983
0.5279933611066525,0.2875033191792712
0.5407768527895711,-2.9057164629120336e-2
0.5535603444724893,0.2980921011910358
0.5663438361554074,0.3620337229211599
0.5791273278383255,0.3068986216418916
0.5919108195212441,0.2914829675627161
0.6046943112041623,6.059224138894487e-2
0.6174778028870804,0.3577152288915389
0.6302612945699988,0.30288265627255806
0.6430447862529172,-4.477258823389008e-3
0.6558282779358353,0.31876427540929475
0.6686117696187537,0.34919759083913093
0.6813952613016718,0.3655269468150591
0.6941787529845902,0.31118723334631626
0.7069622446675086,0.2954055008619358
0.7197457363504267,1.2850246500296592e-2
0.7325292280333451,0.3514723728839255"/>
  </g>
</svg>