
<svg xmlns="http://www.w3.org/2000/svg" height="300.0" viewBox="-0.92 -0.5487415824915824 1.7228127197162635 1.0949915824915823" width="450.0" xmlns:xlink="http://www.w3.org/1999/xlink">
  <g stroke-opacity="0.0" fill-opacity="3.0e-2" stroke="#000000" stroke-width="0.0" fill="#666666">
    <rect height="0.8978675645342313" width="1.4061840851210101" x="-0.6608713654047467" y="-0.495510662177329"/>
  </g>
  <g stroke-opacity="0.3" stroke="#a8e5ee" stroke-width="5.0e-3" fill="none">
    <polyline points="-0.6655586456884833,0.40235690235690236
0.75,0.40235690235690236"/>
  </g>
  <g stroke-opacity="0.3" stroke="#a8e5ee" stroke-width="5.0e-3" fill="none">
    <polyline points="-0.6655586456884833,0.30259383963087666
0.75,0.30259383963087666"/>
  </g>
  <g stroke-opacity="0.3" stroke="#a8e5ee" stroke-width="5.0e-3" fill="none">
    <polyline points="-0.6655586456884833,0.20283077690485096
0.75,0.20283077690485096"/>
  </g>
  <g stroke-opacity="0.3" stroke="#a8e5ee" stroke-width="5.0e-3" fill="none">
    <polyline points="-0.6655586456884833,0.10306771417882526
0.75,0.10306771417882526"/>
  </g>
  <g stroke-opacity="0.3" stroke="#a8e5ee" stroke-width="5.0e-3" fill="none">
    <polyline points="-0.6655586456884833,3.304651452799623e-3
0.75,3.304651452799623e-3"/>
  </g>
  <g stroke-opacity="0.3" stroke="#a8e5ee" stroke-width="5.0e-3" fill="none">
    <polyline points="-0.6655586456884833,-9.645841127322619e-2
0.75,-9.645841127322619e-2"/>
  </g>
  <g stroke-opacity="0.3" stroke="#a8e5ee" stroke-width="5.0e-3" fill="none">
    <polyline points="-0.6655586456884833,-0.19622147399925172
0.75,-0.19622147399925172"/>
  </g>
  <g stroke-opacity="0.3" stroke="#a8e5ee" stroke-width="5.0e-3" fill="none">
    <polyline points="-0.6655586456884833,-0.29598453672527747
0.75,-0.29598453672527747"/>
  </g>
  <g stroke-opacity="0.3" stroke="#a8e5ee" stroke-width="5.0e-3" fill="none">
    <polyline points="-0.6655586456884833,-0.3957475994513031
0.75,-0.3957475994513031"/>
  </g>
  <g stroke-opacity="0.3" stroke="#a8e5ee" stroke-width="5.0e-3" fill="none">
    <polyline points="-0.6655586456884833,-0.495510662177329
0.75,-0.495510662177329"/>
  </g>
  <g fill-opacity="1.0" font-size="5.0e-2" stroke="none" stroke-width="0.0" fill="#666666" text-anchor="end">
    <text x="-0.75" y="0.41537598204264864">0
    </text>
  </g>
  <g fill-opacity="1.0" font-size="5.0e-2" stroke="none" stroke-width="0.0" fill="#666666" text-anchor="end">
    <text x="-0.75" y="0.31561291931662305">2,000
    </text>
  </g>
  <g fill-opacity="1.0" font-size="5.0e-2" stroke="none" stroke-width="0.0" fill="#666666" text-anchor="end">
    <text x="-0.75" y="0.21584985659059736">4,000
    </text>
  </g>
  <g fill-opacity="1.0" font-size="5.0e-2" stroke="none" stroke-width="0.0" fill="#666666" text-anchor="end">
    <text x="-0.75" y="0.11608679386457166">6,000
    </text>
  </g>
  <g fill-opacity="1.0" font-size="5.0e-2" stroke="none" stroke-width="0.0" fill="#666666" text-anchor="end">
    <text x="-0.75" y="1.6323731138545905e-2">8,000
    </text>
  </g>
  <g fill-opacity="1.0" font-size="5.0e-2" stroke="none" stroke-width="0.0" fill="#666666" text-anchor="end">
    <text x="-0.75" y="-8.343933158747985e-2">10,000
    </text>
  </g>
  <g fill-opacity="1.0" font-size="5.0e-2" stroke="none" stroke-width="0.0" fill="#666666" text-anchor="end">
    <text x="-0.75" y="-0.1832023943135055">12,000
    </text>
  </g>
  <g fill-opacity="1.0" font-size="5.0e-2" stroke="none" stroke-width="0.0" fill="#666666" text-anchor="end">
    <text x="-0.75" y="-0.28296545703953124">14,000
    </text>
  </g>
  <g fill-opacity="1.0" font-size="5.0e-2" stroke="none" stroke-width="0.0" fill="#666666" text-anchor="end">
    <text x="-0.75" y="-0.3827285197655568">16,000
    </text>
  </g>
  <g fill-opacity="1.0" font-size="5.0e-2" stroke="none" stroke-width="0.0" fill="#666666" text-anchor="end">
    <text x="-0.75" y="-0.4824915824915824">18,000
    </text>
  </g>
  <g stroke-opacity="0.4" fill-opacity="1.0" stroke="#2c429d" stroke-width="5.0e-3" fill="#5f0391">
    <g transform="rotate(-90.0, -0.7194623689514554, 0.40235690235690236)">
      <polyline points="-0.7194623689514554,0.41735690235690237
-0.7194623689514554,0.38735690235690234"/>
    </g>
    <g transform="rotate(-90.0, -0.7194623689514554, 0.30259383963087666)">
      <polyline points="-0.7194623689514554,0.3175938396308767
-0.7194623689514554,0.28759383963087665"/>
    </g>
    <g transform="rotate(-90.0, -0.7194623689514554, 0.20283077690485096)">
      <polyline points="-0.7194623689514554,0.21783077690485098
-0.7194623689514554,0.18783077690485095"/>
    </g>
    <g transform="rotate(-90.0, -0.7194623689514554, 0.10306771417882526)">
      <polyline points="-0.7194623689514554,0.11806771417882526
-0.7194623689514554,8.806771417882527e-2"/>
    </g>
    <g transform="rotate(-90.0, -0.7194623689514554, 3.304651452799623e-3)">
      <polyline points="-0.7194623689514554,1.8304651452799622e-2
-0.7194623689514554,-1.1695348547200377e-2"/>
    </g>
    <g transform="rotate(-90.0, -0.7194623689514554, -9.645841127322619e-2)">
      <polyline points="-0.7194623689514554,-8.145841127322619e-2
-0.7194623689514554,-0.11145841127322619"/>
    </g>
    <g transform="rotate(-90.0, -0.7194623689514554, -0.19622147399925172)">
      <polyline points="-0.7194623689514554,-0.1812214739992517
-0.7194623689514554,-0.21122147399925173"/>
    </g>
    <g transform="rotate(-90.0, -0.7194623689514554, -0.29598453672527747)">
      <polyline points="-0.7194623689514554,-0.28098453672527746
-0.7194623689514554,-0.3109845367252775"/>
    </g>
    <g transform="rotate(-90.0, -0.7194623689514554, -0.3957475994513031)">
      <polyline points="-0.7194623689514554,-0.3807475994513031
-0.7194623689514554,-0.4107475994513031"/>
    </g>
    <g transform="rotate(-90.0, -0.7194623689514554, -0.495510662177329)">
      <polyline points="-0.7194623689514554,-0.48051066217732896
-0.7194623689514554,-0.510510662177329"/>
    </g>
  </g>
  <g stroke-opacity="0.0" fill-opacity="0.5" stroke="#666666" stroke-width="0.0" fill="#5f0391">
    <rect height="0.8978675645342313" width="4.687280283736772e-3" x="-0.710087808383982" y="-0.495510662177329"/>
  </g>
  <g stroke-opacity="0.3" stroke="#a8e5ee" stroke-width="5.0e-3" fill="none">
    <polyline points="-0.6608713654047467,0.4068462401795735
-0.6608713654047467,-0.5"/>
  </g>
  <g stroke-opacity="0.3" stroke="#a8e5ee" stroke-width="5.0e-3" fill="none">
    <polyline points="-0.5330364485755639,0.4068462401795735
-0.5330364485755639,-0.5"/>
  </g>
  <g stroke-opacity="0.3" stroke="#a8e5ee" stroke-width="5.0e-3" fill="none">
    <polyline points="-0.4052015317463812,0.4068462401795735
-0.4052015317463812,-0.5"/>
  </g>
  <g stroke-opacity="0.3" stroke="#a8e5ee" stroke-width="5.0e-3" fill="none">
    <polyline points="-0.2773666149171985,0.4068462401795735
-0.2773666149171985,-0.5"/>
  </g>
  <g stroke-opacity="0.3" stroke="#a8e5ee" stroke-width="5.0e-3" fill="none">
    <polyline points="-0.1495316980880157,0.4068462401795735
-0.1495316980880157,-0.5"/>
  </g>
  <g stroke-opacity="0.3" stroke="#a8e5ee" stroke-width="5.0e-3" fill="none">
    <polyline points="-2.169678125883301e-2,0.4068462401795735
-2.169678125883301e-2,-0.5"/>
  </g>
  <g stroke-opacity="0.3" stroke="#a8e5ee" stroke-width="5.0e-3" fill="none">
    <polyline points="0.10613813557034968,0.4068462401795735
0.10613813557034968,-0.5"/>
  </g>
  <g stroke-opacity="0.3" stroke="#a8e5ee" stroke-width="5.0e-3" fill="none">
    <polyline points="0.23397305239953248,0.4068462401795735
0.23397305239953248,-0.5"/>
  </g>
  <g stroke-opacity="0.3" stroke="#a8e5ee" stroke-width="5.0e-3" fill="none">
    <polyline points="0.36180796922871505,0.4068462401795735
0.36180796922871505,-0.5"/>
  </g>
  <g stroke-opacity="0.3" stroke="#a8e5ee" stroke-width="5.0e-3" fill="none">
    <polyline points="0.4896428860578981,0.4068462401795735
0.4896428860578981,-0.5"/>
  </g>
  <g stroke-opacity="0.3" stroke="#a8e5ee" stroke-width="5.0e-3" fill="none">
    <polyline points="0.6174778028870804,0.4068462401795735
0.6174778028870804,-0.5"/>
  </g>
  <g stroke-opacity="0.3" stroke="#a8e5ee" stroke-width="5.0e-3" fill="none">
    <polyline points="0.7453127197162634,0.4068462401795735
0.7453127197162634,-0.5"/>
  </g>
  <g fill-opacity="1.0" font-size="5.0e-2" stroke="none" stroke-width="0.0" fill="#666666" text-anchor="middle">
    <text x="-0.6608713654047467" y="0.5">-10
    </text>
  </g>
  <g fill-opacity="1.0" font-size="5.0e-2" stroke="none" stroke-width="0.0" fill="#666666" text-anchor="middle">
    <text x="-0.5330364485755639" y="0.5">0
    </text>
  </g>
  <g fill-opacity="1.0" font-size="5.0e-2" stroke="none" stroke-width="0.0" fill="#666666" text-anchor="middle">
    <text x="-0.4052015317463812" y="0.5">10
    </text>
  </g>
  <g fill-opacity="1.0" font-size="5.0e-2" stroke="none" stroke-width="0.0" fill="#666666" text-anchor="middle">
    <text x="-0.2773666149171985" y="0.5">20
    </text>
  </g>
  <g fill-opacity="1.0" font-size="5.0e-2" stroke="none" stroke-width="0.0" fill="#666666" text-anchor="middle">
    <text x="-0.1495316980880157" y="0.5">30
    </text>
  </g>
  <g fill-opacity="1.0" font-size="5.0e-2" stroke="none" stroke-width="0.0" fill="#666666" text-anchor="middle">
    <text x="-2.169678125883301e-2" y="0.5">40
    </text>
  </g>
  <g fill-opacity="1.0" font-size="5.0e-2" stroke="none" stroke-width="0.0" fill="#666666" text-anchor="middle">
    <text x="0.10613813557034968" y="0.5">50
    </text>
  </g>
  <g fill-opacity="1.0" font-size="5.0e-2" stroke="none" stroke-width="0.0" fill="#666666" text-anchor="middle">
    <text x="0.23397305239953248" y="0.5">60
    </text>
  </g>
  <g fill-opacity="1.0" font-size="5.0e-2" stroke="none" stroke-width="0.0" fill="#666666" text-anchor="middle">
    <text x="0.36180796922871505" y="0.5">70
    </text>
  </g>
  <g fill-opacity="1.0" font-size="5.0e-2" stroke="none" stroke-width="0.0" fill="#666666" text-anchor="middle">
    <text x="0.4896428860578981" y="0.5">80
    </text>
  </g>
  <g fill-opacity="1.0" font-size="5.0e-2" stroke="none" stroke-width="0.0" fill="#666666" text-anchor="middle">
    <text x="0.6174778028870804" y="0.5">90
    </text>
  </g>
  <g fill-opacity="1.0" font-size="5.0e-2" stroke="none" stroke-width="0.0" fill="#666666" text-anchor="middle">
    <text x="0.7453127197162634" y="0.5">100
    </text>
  </g>
  <g stroke-opacity="0.4" fill-opacity="1.0" stroke="#2c429d" stroke-width="5.0e-3" fill="#5f0391">
    <polyline points="-0.6608713654047467,0.43980359147025816
-0.6608713654047467,0.40980359147025813"/>
    <polyline points="-0.5330364485755639,0.43980359147025816
-0.5330364485755639,0.40980359147025813"/>
    <polyline points="-0.4052015317463812,0.43980359147025816
-0.4052015317463812,0.40980359147025813"/>
    <polyline points="-0.2773666149171985,0.43980359147025816
-0.2773666149171985,0.40980359147025813"/>
    <polyline points="-0.1495316980880157,0.43980359147025816
-0.1495316980880157,0.40980359147025813"/>
    <polyline points="-2.169678125883301e-2,0.43980359147025816
-2.169678125883301e-2,0.40980359147025813"/>
    <polyline points="0.10613813557034968,0.43980359147025816
0.10613813557034968,0.40980359147025813"/>
    <polyline points="0.23397305239953248,0.43980359147025816
0.23397305239953248,0.40980359147025813"/>
    <polyline points="0.36180796922871505,0.43980359147025816
0.36180796922871505,0.40980359147025813"/>
    <polyline points="0.4896428860578981,0.43980359147025816
0.4896428860578981,0.40980359147025813"/>
    <polyline points="0.6174778028870804,0.43980359147025816
0.6174778028870804,0.40980359147025813"/>
    <polyline points="0.7453127197162634,0.43980359147025816
0.7453127197162634,0.40980359147025813"/>
  </g>
  <g stroke-opacity="0.0" fill-opacity="0.5" stroke="#666666" stroke-width="0.0" fill="#5f0391">
    <rect height="4.489337822671191e-3" width="1.4061840851210101" x="-0.6608713654047467" y="0.41133557800224463"/>
  </g>
  <g stroke-opacity="0.5" stroke="#026062" stroke-width="2.0e-2" fill="none">
    <polyline points="-0.5330364485755639,-0.3601214116473376
-0.5202529568926456,0.3828876418506048
-0.5074694652097274,0.34519745604190044
-0.4946859735268091,0.32231370495074196
-0.4819024818438908,0.2996195036787629
-0.46911899016097247,0.3855371492704826
-0.4563354984780543,0.36477136800099763
-0.443552006795136,0.34910577378725527
-0.4307685151122177,0.31858615787504674
-0.41798502342929944,0.3011684249906472
-0.4052015317463812,0.38614021698466144
-0.3924180400634629,0.3634538969946377
-0.37963454838054467,0.3413562788377603
-0.3668510566976264,0.3157460032422995
-0.35406756501470815,0.3062264122708567
-0.3412840733317899,0.38663903229829155
-0.3285005816488715,0.34890944007981045
-0.31571708996595327,0.3341397181693478
-0.302933598283035,0.32000818057114355
-0.29015010660011675,0.3869526873675022
-0.2773666149171985,0.3764411522633745
-0.2645831232342801,0.34926150392817057
-0.251799631551362,0.31689547325102885
-0.2390161398684436,0.2776939768050879
-0.22623264818552535,0.3818287567028308
-0.2134491565026071,0.33403526624267366
-0.20066566481968873,0.3377641102381843
-0.18788217313677058,0.3134811821922933
-0.1750986814538522,0.3048601571268238
-0.16231518977093395,0.3867048759196907
-0.1495316980880157,0.3553174211248285
-0.13674820640509744,0.33046424741239555
-0.12396471472217918,0.30647282703579
-0.11118122303926103,0.3867297169223095
-9.839773135634267e-2,0.3707516647961092
-8.561423967342452e-2,0.3495866317495947
-7.283074799050615e-2,0.3216596583115101
-6.004725630758789e-2,0.3057953360768175
-4.7263764624669524e-2,0.38667225339817934
-3.448027294175127e-2,0.3627187429854096
-2.169678125883301e-2,0.3363766055617907
-8.913289575914751e-3,0.31206634243671283
3.8702021070035064e-3,0.3061643596458411
1.6653693789921764e-2,0.3867040778151889
2.9437185472840022e-2,0.35615453298416255
4.22206771557585e-2,0.3253257513405662
5.500416883867654e-2,0.30139129567277717
6.778766052159502e-2,0.3868007482229704
8.057115220451305e-2,0.3702116473375733
9.335464388743153e-2,0.34603835889761814
0.10613813557034968,0.3215953111360519
0.11892162725326805,0.30428622022696095
0.1317051189361862,0.38680414016710307
0.14448861061910467,0.36210978925052995
0.1572721023020227,0.33098281581244543
0.17005559398494108,0.3110907594463149
0.18283908566785922,0.30231809452550196
0.1956225773507776,0.38661379224342185
0.20840606903369596,0.3545936401047512
0.22118956071661422,0.32827654320987654
0.23397305239953248,0.26960319241800723
0.24675654408245062,0.38672303279710685
0.2595400357653692,0.3644256889886519
0.27232352744828736,0.3254576381094899
0.2851070191312055,0.30884309764309764
0.29789051081412365,0.2934240179573513
0.31067400249704225,0.38597949869060977
0.3234574941799604,0.3563421873051502
0.33624098586287876,0.32980750717047014
0.3490244775457967,0.3117275470756952
0.36180796922871505,0.3043853847113106
0.3745914609116334,0.3860231949120838
0.3873749525945518,0.35396692854470635
0.40015844427746994,0.3280254395809951
0.4129419359603881,0.30675924678887634
0.4257254276433067,0.38684683875794984
0.4385089193262248,0.3692104252400549
0.45129241100914297,0.3481608180571143
0.46407590269206134,0.3173355281207133
0.4768593943749797,0.3061928918817808
0.48964288605789785,0.3865909465020576
0.5024263777408162,0.3622562414266118
0.5152098694237344,0.33633570270607305
0.5279933611066525,0.31313749844120214
0.5407768527895711,0.3039188926300037
0.5535603444724893,0.38672672403042774
0.5663438361554074,0.3544652450430228
0.5791273278383255,0.3276575134056615
0.5919108195212441,0.3014078563411897
0.6046943112041623,0.38691318119466267
0.6174778028870804,0.368631400423993
0.6302612945699988,0.3465716922309515
0.6430447862529172,0.3202119965082928
0.6558282779358353,0.3049490460157126
0.6686117696187537,0.38678847736625516
0.6813952613016718,0.36124254894625263
0.6941787529845902,0.3343284698840254
0.7069622446675086,0.3129601197156753
0.7197457363504267,0.3048435964584113
0.7325292280333451,0.3867325102880659"/>
  </g>
  <g stroke-opacity="0.5" stroke="#0ea194" stroke-width="2.0e-2" fill="none">
    <polyline points="-0.5330364485755639,0.21327068212994138
-0.5202529568926456,0.18859997505923431
-0.5074694652097274,-0.3366080558673151
-0.4946859735268091,0.3160431974061603
-0.4819024818438908,0.21336755206384833
-0.46911899016097247,0.181472901858087
-0.4563354984780543,-0.35315485721411655
-0.443552006795136,0.314228108242923
-0.4307685151122177,0.343602344431974
-0.41798502342929944,0.2509186681631126
-0.4052015317463812,0.21206045641601196
-0.3924180400634629,-0.3363585484474373
-0.37963454838054467,0.3371161491457787
-0.3668510566976264,0.2384403042773413
-0.35406756501470815,0.21361915450804342
-0.3412840733317899,-0.3034561915450805
-0.3285005816488715,0.33335607931163486
-0.31571708996595327,0.2286781893004115
-0.302933598283035,0.21528579623394434
-0.29015010660011675,-0.3477980795610426
-0.2773666149171985,0.30366748971193414
-0.2645831232342801,0.17086010724529244
-0.251799631551362,0.200115425863574
-0.2390161398684436,-0.44755036787629376
-0.22623264818552535,0.2759118094525501
-0.2134491565026071,0.20769961341813192
-0.20066566481968873,-0.4390553435590473
-0.18788217313677058,0.292121611173463
-0.1750986814538522,0.32614121461528867
-0.16231518977093395,0.21715595460780646
-0.1495316980880157,0.19380112233445562
-0.13674820640509744,-0.35394498067090663
-0.12396471472217918,0.3170863199900237
-0.11118122303926103,0.2120396059359022
-9.839773135634267e-2,-0.3344790123456791
-8.561423967342452e-2,0.28284843496695344
-7.283074799050615e-2,0.3183463274722534
-6.004725630758789e-2,0.2093919940142162
-4.7263764624669524e-2,-0.35189365257513405
-3.448027294175127e-2,0.28082593839630876
-2.169678125883301e-2,0.3147665294924554
-8.913289575914751e-3,0.34177538346427233
3.8702021070035064e-3,0.2407276717795236
1.6653693789921764e-2,0.21805891008853973
2.9437185472840022e-2,-0.35835361017583234
4.22206771557585e-2,0.3249373737373737
5.500416883867654e-2,0.22610719541089908
6.778766052159502e-2,0.21203182441700957
8.057115220451305e-2,-0.31164324728769166
9.335464388743153e-2,0.33214764933283447
0.10613813557034968,0.2259232323232323
0.11892162725326805,-0.3295502182316997
0.1317051189361862,0.29467305150268114
0.14448861061910467,0.33035510662177325
0.1572721023020227,0.21539403915700212
0.17005559398494108,-0.3376839007357526
0.18283908566785922,0.29298087043272225
0.1956225773507776,0.32626192792118713
0.20840606903369596,0.21278892630003737
0.22118956071661422,0.18223050255642848
0.23397305239953248,-0.3554329467514653
0.24675654408245062,0.32055149021074947
0.2595400357653692,0.21577553310886644
0.27232352744828736,-0.3375529118343933
0.2851070191312055,0.2839433345803716
0.29789051081412365,0.31971198403790996
0.31067400249704225,0.2118962464147649
0.3234574941799604,0.18557575757575756
0.33624098586287876,-0.3268079311634867
0.3490244775457967,0.30428681880533726
0.36180796922871505,0.3424015962090036
0.3745914609116334,0.24037341314378347
0.3873749525945518,0.2137492455418381
0.40015844427746994,-0.33965062975433347
0.4129419359603881,0.33583090160867934
0.4257254276433067,0.23158149395186434
0.4385089193262248,0.2138220725776281
0.45129241100914297,-0.3300716797605687
0.46407590269206134,0.31146078064596583
0.4768593943749797,0.16853383214864692
0.48964288605789785,-0.3527709689487467
0.5024263777408162,0.23454505549320365
0.5152098694237344,0.3168165606684126
0.5279933611066525,0.16209163237311386
0.5407768527895711,0.19384771168474868
0.5535603444724893,-0.41643696221474
0.5663438361554074,0.3218660680882903
0.5791273278383255,0.18796498316498317
0.5919108195212441,-0.33882928045891014
0.6046943112041623,0.28836253896994635
0.6174778028870804,0.3248388078314004
0.6302612945699988,0.21711345554308514
0.6430447862529172,0.19056690360394063
0.6558282779358353,-0.3419439830402793
0.6686117696187537,0.3173364259882778
0.6813952613016718,0.21136361142287063
0.6941787529845902,0.1867485721411647
0.7069622446675086,-0.354731013842125
0.7197457363504267,0.3136468886394812
0.7325292280333451,0.3433201147275221"/>
  </g>
</svg>