<svg xmlns="http://www.w3.org/2000/svg" height="300.0" viewBox="-0.8409159860889829 -0.52 1.613490986088983 1.143140058083417" width="450.0" xmlns:xlink="http://www.w3.org/1999/xlink"><g stroke-opacity="0.0" fill-opacity="0.1" stroke="#000000" stroke-width="0.0" fill="#cccccc"><rect height="0.9049773755656109" width="3.0030030030030463e-3" x="-0.75" y="-0.5"/></g><g fill-opacity="0.8" font-size="4.137931034482759e-2" stroke="none" stroke-width="0.0" fill="#333333" text-anchor="end"><text transform="rotate(-45.0, -0.7484984984984985, 0.5)" x="-0.7484984984984985" y="0.5">30 Jun</text></g><g fill-opacity="0.8" font-size="4.137931034482759e-2" stroke="none" stroke-width="0.0" fill="#333333" text-anchor="end"><text transform="rotate(-45.0, -0.4722222222222222, 0.5)" x="-0.4722222222222222" y="0.5">30 Sep</text></g><g fill-opacity="0.8" font-size="4.137931034482759e-2" stroke="none" stroke-width="0.0" fill="#333333" text-anchor="end"><text transform="rotate(-45.0, -0.19594594594594594, 0.5)" x="-0.19594594594594594" y="0.5">31 Dec</text></g><g fill-opacity="0.8" font-size="4.137931034482759e-2" stroke="none" stroke-width="0.0" fill="#333333" text-anchor="end"><text transform="rotate(-45.0, 7.432432432432434e-2, 0.5)" x="7.432432432432434e-2" y="0.5">31 Mar</text></g><g fill-opacity="0.8" font-size="4.137931034482759e-2" stroke="none" stroke-width="0.0" fill="#333333" text-anchor="end"><text transform="rotate(-45.0, 0.34759759759759756, 0.5)" x="0.34759759759759756" y="0.5">30 Jun</text></g><g fill-opacity="0.8" font-size="4.137931034482759e-2" stroke="none" stroke-width="0.0" fill="#333333" text-anchor="end"><text transform="rotate(-45.0, 0.6238738738738738, 0.5)" x="0.6238738738738738" y="0.5">30 Sep</text></g><g fill-opacity="0.8" font-size="4.137931034482759e-2" stroke="none" stroke-width="0.0" fill="#333333" text-anchor="end"><text transform="rotate(-45.0, 0.75, 0.5)" x="0.75" y="0.5">11 Nov</text></g><g stroke-opacity="0.5" fill-opacity="0.5" stroke="#570d66" stroke-width="5.0e-3" fill="#570d66"><polyline points="-0.7484984984984985,0.44486425339366514
-0.7484984984984985,0.4148642533936651"/><polyline points="-0.4722222222222222,0.44486425339366514
-0.4722222222222222,0.4148642533936651"/><polyline points="-0.19594594594594594,0.44486425339366514
-0.19594594594594594,0.4148642533936651"/><polyline points="7.432432432432434e-2,0.44486425339366514
7.432432432432434e-2,0.4148642533936651"/><polyline points="0.34759759759759756,0.44486425339366514
0.34759759759759756,0.4148642533936651"/><polyline points="0.6238738738738738,0.44486425339366514
0.6238738738738738,0.4148642533936651"/><polyline points="0.75,0.44486425339366514
0.75,0.4148642533936651"/></g><g stroke-opacity="0.5" fill-opacity="0.5" stroke="#570d66" stroke-width="0.0" fill="#570d66"><rect height="4.524886877828038e-3" width="3.0030030030030463e-3" x="-0.75" y="0.414027149321267"/></g></svg>